<svg width="170" height="54" viewBox="0 0 170 54" fill="none" xmlns="http://www.w3.org/2000/svg">
<rect width="3.19681" height="2.07692" transform="translate(19.1807 14.5385)" fill="#614540"/>
<rect width="3.19681" height="2.07692" transform="translate(19.1807 4.15381)" fill="#614540"/>
<rect width="3.19681" height="2.07692" transform="translate(19.1807)" fill="#614540"/>
<rect width="3.19681" height="2.07692" transform="translate(15.9844 2.0769)" fill="#614540"/>
<rect width="3.19681" height="2.07692" transform="translate(12.7871 4.15381)" fill="#614540"/>
<rect width="3.19681" height="2.07692" transform="translate(9.59082 6.23071)" fill="#614540"/>
<rect width="3.19681" height="2.07692" transform="translate(9.59082 8.30774)" fill="#614540"/>
<rect width="3.19681" height="2.07692" transform="translate(6.39355 10.3846)" fill="#614540"/>
<rect width="3.19681" height="2.07692" transform="translate(6.39355 12.4615)" fill="#614540"/>
<rect width="3.19681" height="2.07692" transform="translate(3.19727 14.5385)" fill="#614540"/>
<rect width="3.19681" height="2.07692" transform="translate(6.39355 22.8462)" fill="#614540"/>
<rect width="3.19681" height="2.07692" transform="translate(6.39355 29.0769)" fill="#614540"/>
<rect width="3.19681" height="2.07692" transform="translate(6.39355 37.3846)" fill="#614540"/>
<rect width="3.19681" height="2.07692" transform="translate(0 20.7692)" fill="#614540"/>
<rect width="3.19681" height="2.07692" transform="translate(0 27)" fill="#614540"/>
<rect width="3.19681" height="2.07692" transform="translate(0 33.2308)" fill="#614540"/>
<rect width="3.19681" height="2.07692" transform="translate(0 39.4615)" fill="#614540"/>
<rect width="3.19681" height="2.07692" transform="translate(3.19727 16.6154)" fill="#614540"/>
<rect width="3.19681" height="2.07692" transform="translate(6.39355 24.9231)" fill="#614540"/>
<rect width="3.19681" height="2.07692" transform="translate(6.39355 31.1538)" fill="#614540"/>
<rect width="3.19681" height="2.07692" transform="translate(6.39355 39.4615)" fill="#614540"/>
<rect width="3.19681" height="2.07692" transform="translate(0 22.8462)" fill="#614540"/>
<rect width="3.19681" height="2.07692" transform="translate(0 29.0769)" fill="#614540"/>
<rect width="3.19681" height="2.07692" transform="translate(0 35.3077)" fill="#614540"/>
<rect width="3.19681" height="2.07692" transform="translate(0 41.5385)" fill="#614540"/>
<rect width="3.19681" height="2.07692" transform="translate(3.19727 45.6923)" fill="#614540"/>
<rect width="3.19681" height="2.07692" transform="translate(3.19727 18.6924)" fill="#614540"/>
<rect width="3.19681" height="2.07692" transform="translate(6.39355 27)" fill="#614540"/>
<rect width="3.19681" height="2.07692" transform="translate(6.39355 35.3077)" fill="#614540"/>
<rect width="3.19681" height="2.07692" transform="translate(6.39355 33.2308)" fill="#614540"/>
<rect width="3.19681" height="2.07692" transform="translate(6.39355 41.5385)" fill="#614540"/>
<rect width="3.19681" height="2.07692" transform="translate(0 24.9231)" fill="#614540"/>
<rect width="3.19681" height="2.07692" transform="translate(0 31.1538)" fill="#614540"/>
<rect width="3.19681" height="2.07692" transform="translate(0 37.3846)" fill="#614540"/>
<rect width="3.19681" height="2.07692" transform="translate(0 43.6154)" fill="#614540"/>
<rect width="3.19681" height="2.07692" transform="translate(3.19727 47.7693)" fill="#614540"/>
<rect width="3.19681" height="2.07692" transform="translate(6.39355 49.8462)" fill="#614540"/>
<rect width="3.19681" height="2.07692" transform="translate(22.3779 2.0769)" fill="#614540"/>
<rect width="3.19681" height="2.07692" transform="translate(25.5742 4.15381)" fill="#614540"/>
<rect width="3.19681" height="2.07692" transform="translate(28.7715 6.23071)" fill="#614540"/>
<rect width="3.19681" height="2.07692" transform="translate(28.7715 8.30774)" fill="#614540"/>
<rect width="3.19681" height="2.07692" transform="translate(31.9678 10.3846)" fill="#614540"/>
<rect width="3.19681" height="2.07692" transform="translate(35.165 16.6154)" fill="#614540"/>
<rect width="3.19681" height="2.07692" transform="translate(38.3613 22.8462)" fill="#614540"/>
<rect width="3.19681" height="2.07692" transform="translate(38.3613 29.0769)" fill="#614540"/>
<rect width="3.19681" height="2.07692" transform="translate(38.3613 35.3077)" fill="#614540"/>
<rect width="3.19681" height="2.07692" transform="translate(38.3613 41.5385)" fill="#614540"/>
<rect width="3.19681" height="2.07692" transform="translate(31.9678 12.4615)" fill="#614540"/>
<rect width="3.19681" height="2.07692" transform="translate(35.165 18.6924)" fill="#614540"/>
<rect width="3.19681" height="2.07692" transform="translate(38.3613 24.9231)" fill="#614540"/>
<rect width="3.19681" height="2.07692" transform="translate(38.3613 31.1538)" fill="#614540"/>
<rect width="3.19681" height="2.07692" transform="translate(38.3613 37.3846)" fill="#614540"/>
<rect width="3.19681" height="2.07692" transform="translate(38.3613 43.6154)" fill="#614540"/>
<rect width="3.19681" height="2.07692" transform="translate(35.165 45.6923)" fill="#614540"/>
<rect width="3.19681" height="2.07692" transform="translate(35.165 47.7693)" fill="#614540"/>
<rect width="3.19681" height="2.07692" transform="translate(31.9678 49.8462)" fill="#614540"/>
<rect width="3.19681" height="2.07692" transform="translate(28.7715 51.9231)" fill="#614540"/>
<rect width="3.19681" height="2.07692" transform="translate(35.165 14.5385)" fill="#614540"/>
<rect width="3.19681" height="2.07692" transform="translate(38.3613 20.7692)" fill="#614540"/>
<rect width="3.19681" height="2.07692" transform="translate(38.3613 27)" fill="#614540"/>
<rect width="3.19681" height="2.07692" transform="translate(38.3613 33.2308)" fill="#614540"/>
<rect width="3.19681" height="2.07692" transform="translate(38.3613 39.4615)" fill="#614540"/>
<rect width="3.19681" height="2.07692" transform="translate(15.9844 8.30774)" fill="#614540"/>
<rect width="3.19681" height="2.07692" transform="translate(12.7871 12.4615)" fill="#614540"/>
<rect width="3.19681" height="2.07692" transform="translate(25.5742 12.4615)" fill="#614540"/>
<rect width="3.19681" height="2.07692" transform="translate(28.7715 16.6154)" fill="#614540"/>
<rect width="3.19681" height="2.07692" transform="translate(9.59082 16.6154)" fill="#614540"/>
<rect width="3.19681" height="2.07692" transform="translate(9.59082 22.8462)" fill="#614540"/>
<rect width="3.19681" height="2.07692" transform="translate(9.59082 29.0769)" fill="#614540"/>
<rect width="3.19681" height="2.07692" transform="translate(9.59082 35.3077)" fill="#614540"/>
<rect width="3.19681" height="2.07692" transform="translate(28.7715 27)" fill="#614540"/>
<rect width="3.19681" height="2.07692" transform="translate(31.9678 27)" fill="#614540"/>
<rect width="3.19681" height="2.07692" transform="translate(31.9678 35.3077)" fill="#614540"/>
<rect width="3.19681" height="2.07692" transform="translate(28.7715 37.3846)" fill="#614540"/>
<rect width="3.19681" height="2.07692" transform="translate(12.7871 18.6924)" fill="#614540"/>
<rect width="3.19681" height="2.07692" transform="translate(25.5742 18.6924)" fill="#614540"/>
<rect width="3.19681" height="2.07692" transform="translate(28.7715 22.8462)" fill="#614540"/>
<rect width="3.19681" height="2.07692" transform="translate(31.9678 22.8462)" fill="#614540"/>
<rect width="3.19681" height="2.07692" transform="translate(28.7715 33.2308)" fill="#614540"/>
<rect width="3.19681" height="2.07692" transform="translate(31.9678 33.2308)" fill="#614540"/>
<rect width="3.19681" height="2.07692" transform="translate(31.9678 41.5385)" fill="#614540"/>
<rect width="3.19681" height="2.07692" transform="translate(28.7715 43.6154)" fill="#614540"/>
<rect width="3.19681" height="2.07692" transform="translate(25.5742 45.6923)" fill="#614540"/>
<rect width="3.19681" height="2.07692" transform="translate(22.3779 8.30774)" fill="#614540"/>
<rect width="3.19681" height="2.07692" transform="translate(19.1807 20.7692)" fill="#614540"/>
<rect width="3.19681" height="2.07692" transform="translate(19.1807 27)" fill="#614540"/>
<rect width="3.19681" height="2.07692" transform="translate(22.3779 27)" fill="#614540"/>
<rect width="3.19681" height="2.07692" transform="translate(15.9844 27)" fill="#614540"/>
<rect width="3.19681" height="2.07692" transform="translate(19.1807 33.2308)" fill="#614540"/>
<rect width="3.19681" height="2.07692" transform="translate(22.3779 33.2308)" fill="#614540"/>
<rect width="3.19681" height="2.07692" transform="translate(15.9844 33.2308)" fill="#614540"/>
<rect width="3.19681" height="2.07692" transform="translate(19.1807 39.4615)" fill="#614540"/>
<rect width="3.19681" height="2.07692" transform="translate(22.3779 39.4615)" fill="#614540"/>
<rect width="3.19681" height="2.07692" transform="translate(15.9844 39.4615)" fill="#614540"/>
<rect width="3.19681" height="2.07692" transform="translate(19.1807 45.6923)" fill="#614540"/>
<rect width="3.19681" height="2.07692" transform="translate(19.1807 16.6154)" fill="#614540"/>
<rect width="3.19681" height="2.07692" transform="translate(19.1807 6.23071)" fill="#614540"/>
<rect width="3.19681" height="2.07692" transform="translate(15.9844 10.3846)" fill="#614540"/>
<rect width="3.19681" height="2.07692" transform="translate(12.7871 14.5385)" fill="#614540"/>
<rect width="3.19681" height="2.07692" transform="translate(25.5742 14.5385)" fill="#614540"/>
<rect width="3.19681" height="2.07692" transform="translate(28.7715 18.6924)" fill="#614540"/>
<rect width="3.19681" height="2.07692" transform="translate(9.59082 18.6924)" fill="#614540"/>
<rect width="3.19681" height="2.07692" transform="translate(9.59082 24.9231)" fill="#614540"/>
<rect width="3.19681" height="2.07692" transform="translate(9.59082 31.1538)" fill="#614540"/>
<rect width="3.19681" height="2.07692" transform="translate(9.59082 37.3846)" fill="#614540"/>
<rect width="3.19681" height="2.07692" transform="translate(9.59082 41.5385)" fill="#614540"/>
<rect width="3.19681" height="2.07692" transform="translate(28.7715 29.0769)" fill="#614540"/>
<rect width="3.19681" height="2.07692" transform="translate(31.9678 29.0769)" fill="#614540"/>
<rect width="3.19681" height="2.07692" transform="translate(31.9678 37.3846)" fill="#614540"/>
<rect width="3.19681" height="2.07692" transform="translate(28.7715 39.4615)" fill="#614540"/>
<rect width="3.19681" height="2.07692" transform="translate(12.7871 20.7692)" fill="#614540"/>
<rect width="3.19681" height="2.07692" transform="translate(25.5742 20.7692)" fill="#614540"/>
<rect width="3.19681" height="2.07692" transform="translate(28.7715 24.9231)" fill="#614540"/>
<rect width="3.19681" height="2.07692" transform="translate(31.9678 24.9231)" fill="#614540"/>
<rect width="3.19681" height="2.07692" transform="translate(28.7715 35.3077)" fill="#614540"/>
<rect width="3.19681" height="2.07692" transform="translate(28.7715 45.6923)" fill="#614540"/>
<rect width="3.19681" height="2.07692" transform="translate(25.5742 47.7693)" fill="#614540"/>
<rect width="3.19681" height="2.07692" transform="translate(22.3779 10.3846)" fill="#614540"/>
<rect width="3.19681" height="2.07692" transform="translate(15.9844 12.4615)" fill="#614540"/>
<rect width="3.19681" height="2.07692" transform="translate(12.7871 16.6154)" fill="#614540"/>
<rect width="3.19681" height="2.07692" transform="translate(25.5742 16.6154)" fill="#614540"/>
<rect width="3.19681" height="2.07692" transform="translate(28.7715 20.7692)" fill="#614540"/>
<rect width="3.19681" height="2.07692" transform="translate(9.59082 20.7692)" fill="#614540"/>
<rect width="3.19681" height="2.07692" transform="translate(9.59082 27)" fill="#614540"/>
<rect width="3.19681" height="2.07692" transform="translate(9.59082 33.2308)" fill="#614540"/>
<rect width="3.19681" height="2.07692" transform="translate(9.59082 39.4615)" fill="#614540"/>
<rect width="3.19681" height="2.07692" transform="translate(9.59082 43.6154)" fill="#614540"/>
<rect width="3.19681" height="2.07692" transform="translate(28.7715 31.1538)" fill="#614540"/>
<rect width="3.19681" height="2.07692" transform="translate(31.9678 31.1538)" fill="#614540"/>
<rect width="3.19681" height="2.07692" transform="translate(31.9678 39.4615)" fill="#614540"/>
<rect width="3.19681" height="2.07692" transform="translate(28.7715 41.5385)" fill="#614540"/>
<rect width="3.19681" height="2.07692" transform="translate(15.9844 14.5385)" fill="#FFFFE6"/>
<rect width="3.19681" height="2.07692" transform="translate(15.9844 45.6923)" fill="#FFFFE6"/>
<rect width="3.19681" height="2.07692" transform="translate(22.3779 45.6923)" fill="#FFFFE6"/>
<rect width="3.19681" height="2.07692" transform="translate(22.3779 14.5385)" fill="#FFFFE6"/>
<rect width="3.19681" height="2.07692" transform="translate(25.5742 22.8462)" fill="#FFFFE6"/>
<rect width="3.19681" height="2.07692" transform="translate(35.165 22.8462)" fill="#FFFFE6"/>
<rect width="3.19681" height="2.07692" transform="translate(12.7871 22.8462)" fill="#FFFFE6"/>
<rect width="3.19681" height="2.07692" transform="translate(3.19727 24.9231)" fill="#FFFFE6"/>
<rect width="3.19681" height="2.07692" transform="translate(12.7871 31.1538)" fill="#FFFFE6"/>
<rect width="3.19681" height="2.07692" transform="translate(3.19727 33.2308)" fill="#FFFFE6"/>
<rect width="3.19681" height="2.07692" transform="translate(3.19727 41.5385)" fill="#FFFFE6"/>
<rect width="3.19681" height="2.07692" transform="translate(3.19727 43.6154)" fill="#FFFFE6"/>
<rect width="3.19681" height="2.07692" transform="translate(6.39355 45.6923)" fill="#FFFFE6"/>
<rect width="3.19681" height="2.07692" transform="translate(6.39355 47.7693)" fill="#FFFFE6"/>
<rect width="3.19681" height="2.07692" transform="translate(6.39355 43.6154)" fill="#FFFFE6"/>
<rect width="3.19681" height="2.07692" transform="translate(9.59082 45.6923)" fill="#614540"/>
<rect width="3.19681" height="2.07692" transform="translate(9.59082 47.7693)" fill="#FFFFE6"/>
<rect width="3.19681" height="2.07692" transform="translate(9.59082 49.8462)" fill="#FFFFE6"/>
<rect width="3.19681" height="2.07692" transform="translate(12.7871 45.6923)" fill="#614540"/>
<rect width="3.19681" height="2.07692" transform="translate(12.7871 47.7693)" fill="#614540"/>
<rect width="3.19681" height="2.07692" transform="translate(12.7871 49.8462)" fill="#614540"/>
<rect width="3.19681" height="2.07692" transform="translate(12.7871 39.4615)" fill="#FFFFE6"/>
<rect width="3.19681" height="2.07692" transform="translate(25.5742 31.1538)" fill="#FFFFE6"/>
<rect width="3.19681" height="2.07692" transform="translate(35.165 31.1538)" fill="#FFFFE6"/>
<rect width="3.19681" height="2.07692" transform="translate(35.165 37.3846)" fill="#FFFFE6"/>
<rect width="3.19681" height="2.07692" transform="translate(35.165 41.5385)" fill="#FFFFE6"/>
<rect width="3.19681" height="2.07692" transform="translate(25.5742 39.4615)" fill="#FFFFE6"/>
<rect width="3.19681" height="2.07692" transform="translate(19.1807 8.30774)" fill="#FFFFE6"/>
<rect width="3.19681" height="2.07692" transform="translate(12.7871 6.23071)" fill="#FFFFE6"/>
<rect width="3.19681" height="2.07692" transform="translate(9.59082 10.3846)" fill="#FFFFE6"/>
<rect width="3.19681" height="2.07692" transform="translate(6.39355 14.5385)" fill="#FFFFE6"/>
<rect width="3.19681" height="2.07692" transform="translate(6.39355 20.7692)" fill="#FFFFE6"/>
<rect width="3.19681" height="2.07692" transform="translate(25.5742 6.23071)" fill="#FFFFE6"/>
<rect width="3.19681" height="2.07692" transform="translate(15.9844 4.15381)" fill="#FFFFE6"/>
<rect width="3.19681" height="2.07692" transform="translate(22.3779 4.15381)" fill="#FFFFE6"/>
<rect width="3.19681" height="2.07692" transform="translate(19.1807 2.0769)" fill="#FFFFE6"/>
<rect width="3.19681" height="2.07692" transform="translate(15.9844 16.6154)" fill="#FFFFE6"/>
<rect width="3.19681" height="2.07692" transform="translate(15.9844 47.7693)" fill="#FFFFE6"/>
<rect width="3.19681" height="2.07692" transform="translate(22.3779 47.7693)" fill="#FFFFE6"/>
<rect width="3.19681" height="2.07692" transform="translate(22.3779 16.6154)" fill="#FFFFE6"/>
<rect width="3.19681" height="2.07692" transform="translate(25.5742 24.9231)" fill="#FFFFE6"/>
<rect width="3.19681" height="2.07692" transform="translate(35.165 24.9231)" fill="#FFFFE6"/>
<rect width="3.19681" height="2.07692" transform="translate(12.7871 24.9231)" fill="#FFFFE6"/>
<rect width="3.19681" height="2.07692" transform="translate(3.19727 27)" fill="#FFFFE6"/>
<rect width="3.19681" height="2.07692" transform="translate(3.19727 35.3077)" fill="#FFFFE6"/>
<rect width="3.19681" height="2.07692" transform="translate(12.7871 33.2308)" fill="#FFFFE6"/>
<rect width="3.19681" height="2.07692" transform="translate(12.7871 41.5385)" fill="#FFFFE6"/>
<rect width="3.19681" height="2.07692" transform="translate(25.5742 33.2308)" fill="#FFFFE6"/>
<rect width="3.19681" height="2.07692" transform="translate(35.165 33.2308)" fill="#FFFFE6"/>
<rect width="3.19681" height="2.07692" transform="translate(35.165 39.4615)" fill="#FFFFE6"/>
<rect width="3.19681" height="2.07692" transform="translate(35.165 43.6154)" fill="#FFFFE6"/>
<rect width="3.19681" height="2.07692" transform="translate(31.9678 43.6154)" fill="#FFFFE6"/>
<rect width="3.19681" height="2.07692" transform="translate(31.9678 45.6923)" fill="#FFFFE6"/>
<rect width="3.19681" height="2.07692" transform="translate(31.9678 47.7693)" fill="#FFFFE6"/>
<rect width="3.19681" height="2.07692" transform="translate(28.7715 47.7693)" fill="#FFFFE6"/>
<rect width="3.19681" height="2.07692" transform="translate(28.7715 49.8462)" fill="#FFFFE6"/>
<rect width="3.19681" height="2.07692" transform="translate(25.5742 41.5385)" fill="#FFFFE6"/>
<rect width="3.19681" height="2.07692" transform="translate(19.1807 10.3846)" fill="#FFFFE6"/>
<rect width="3.19681" height="2.07692" transform="translate(12.7871 8.30774)" fill="#FFFFE6"/>
<rect width="3.19681" height="2.07692" transform="translate(9.59082 12.4615)" fill="#FFFFE6"/>
<rect width="3.19681" height="2.07692" transform="translate(6.39355 16.6154)" fill="#FFFFE6"/>
<rect width="3.19681" height="2.07692" transform="translate(3.19727 20.7692)" fill="#FFFFE6"/>
<rect width="3.19681" height="2.07692" transform="translate(25.5742 8.30774)" fill="#FFFFE6"/>
<rect width="3.19681" height="2.07692" transform="translate(15.9844 6.23071)" fill="#FFFFE6"/>
<rect width="3.19681" height="2.07692" transform="translate(22.3779 6.23071)" fill="#FFFFE6"/>
<rect width="3.19681" height="2.07692" transform="translate(15.9844 18.6924)" fill="#FFFFE6"/>
<rect width="3.19681" height="2.07692" transform="translate(15.9844 49.8462)" fill="#FFFFE6"/>
<rect width="3.19681" height="2.07692" transform="translate(22.3779 49.8462)" fill="#FFFFE6"/>
<rect width="3.19681" height="2.07692" transform="translate(22.3779 18.6924)" fill="#FFFFE6"/>
<rect width="3.19681" height="2.07692" transform="translate(25.5742 27)" fill="#FFFFE6"/>
<rect width="3.19681" height="2.07692" transform="translate(35.165 27)" fill="#FFFFE6"/>
<rect width="3.19681" height="2.07692" transform="translate(12.7871 27)" fill="#FFFFE6"/>
<rect width="3.19681" height="2.07692" transform="translate(3.19727 29.0769)" fill="#FFFFE6"/>
<rect width="3.19681" height="2.07692" transform="translate(3.19727 37.3846)" fill="#FFFFE6"/>
<rect width="3.19681" height="2.07692" transform="translate(12.7871 35.3077)" fill="#FFFFE6"/>
<rect width="3.19681" height="2.07692" transform="translate(12.7871 43.6154)" fill="#FFFFE6"/>
<rect width="3.19681" height="2.07692" transform="translate(25.5742 35.3077)" fill="#FFFFE6"/>
<rect width="3.19681" height="2.07692" transform="translate(25.5742 43.6154)" fill="#FFFFE6"/>
<rect width="3.19681" height="2.07692" transform="translate(19.1807 12.4615)" fill="#FFFFE6"/>
<rect width="3.19681" height="2.07692" transform="translate(12.7871 10.3846)" fill="#FFFFE6"/>
<rect width="3.19681" height="2.07692" transform="translate(9.59082 14.5385)" fill="#FFFFE6"/>
<rect width="3.19681" height="2.07692" transform="translate(6.39355 18.6924)" fill="#FFFFE6"/>
<rect width="3.19681" height="2.07692" transform="translate(3.19727 22.8462)" fill="#FFFFE6"/>
<rect width="3.19681" height="2.07692" transform="translate(25.5742 10.3846)" fill="#FFFFE6"/>
<rect width="3.19681" height="2.07692" transform="translate(28.7715 10.3846)" fill="#FFFFE6"/>
<rect width="3.19681" height="2.07692" transform="translate(28.7715 12.4615)" fill="#FFFFE6"/>
<rect width="3.19681" height="2.07692" transform="translate(28.7715 14.5385)" fill="#FFFFE6"/>
<rect width="3.19681" height="2.07692" transform="translate(31.9678 14.5385)" fill="#FFFFE6"/>
<rect width="3.19681" height="2.07692" transform="translate(31.9678 16.6154)" fill="#FFFFE6"/>
<rect width="3.19681" height="2.07692" transform="translate(31.9678 18.6924)" fill="#FFFFE6"/>
<rect width="3.19681" height="2.07692" transform="translate(31.9678 20.7692)" fill="#FFFFE6"/>
<rect width="3.19681" height="2.07692" transform="translate(35.165 20.7692)" fill="#FFFFE6"/>
<rect width="3.19681" height="2.07692" transform="translate(15.9844 20.7692)" fill="#FFFFE6"/>
<rect width="3.19681" height="2.07692" transform="translate(22.3779 20.7692)" fill="#FFFFE6"/>
<rect width="3.19681" height="2.07692" transform="translate(25.5742 29.0769)" fill="#FFFFE6"/>
<rect width="3.19681" height="2.07692" transform="translate(35.165 29.0769)" fill="#FFFFE6"/>
<rect width="3.19681" height="2.07692" transform="translate(35.165 35.3077)" fill="#FFFFE6"/>
<rect width="3.19681" height="2.07692" transform="translate(12.7871 29.0769)" fill="#FFFFE6"/>
<rect width="3.19681" height="2.07692" transform="translate(3.19727 31.1538)" fill="#FFFFE6"/>
<rect width="3.19681" height="2.07692" transform="translate(3.19727 39.4615)" fill="#FFFFE6"/>
<rect width="3.19681" height="2.07692" transform="translate(12.7871 37.3846)" fill="#FFFFE6"/>
<rect width="3.19681" height="2.07692" transform="translate(25.5742 37.3846)" fill="#FFFFE6"/>
<rect width="3.19681" height="2.07692" transform="translate(22.3779 12.4615)" fill="#614540"/>
<rect width="3.19681" height="2.07692" transform="translate(19.1807 22.8462)" fill="#614540"/>
<rect width="3.19681" height="2.07692" transform="translate(22.3779 22.8462)" fill="#614540"/>
<rect width="3.19681" height="2.07692" transform="translate(15.9844 22.8462)" fill="#614540"/>
<rect width="3.19681" height="2.07692" transform="translate(19.1807 29.0769)" fill="#614540"/>
<rect width="3.19681" height="2.07692" transform="translate(22.3779 29.0769)" fill="#614540"/>
<rect width="3.19681" height="2.07692" transform="translate(15.9844 29.0769)" fill="#614540"/>
<rect width="3.19681" height="2.07692" transform="translate(19.1807 35.3077)" fill="#614540"/>
<rect width="3.19681" height="2.07692" transform="translate(22.3779 35.3077)" fill="#614540"/>
<rect width="3.19681" height="2.07692" transform="translate(15.9844 35.3077)" fill="#614540"/>
<rect width="3.19681" height="2.07692" transform="translate(19.1807 41.5385)" fill="#614540"/>
<rect width="3.19681" height="2.07692" transform="translate(22.3779 41.5385)" fill="#614540"/>
<rect width="3.19681" height="2.07692" transform="translate(15.9844 41.5385)" fill="#614540"/>
<rect width="3.19681" height="2.07692" transform="translate(19.1807 47.7693)" fill="#614540"/>
<rect width="3.19681" height="2.07692" transform="translate(19.1807 18.6924)" fill="#614540"/>
<rect width="3.19681" height="2.07692" transform="translate(19.1807 24.9231)" fill="#614540"/>
<rect width="3.19681" height="2.07692" transform="translate(22.3779 24.9231)" fill="#614540"/>
<rect width="3.19681" height="2.07692" transform="translate(15.9844 24.9231)" fill="#614540"/>
<rect width="3.19681" height="2.07692" transform="translate(19.1807 31.1538)" fill="#614540"/>
<rect width="3.19681" height="2.07692" transform="translate(22.3779 31.1538)" fill="#614540"/>
<rect width="3.19681" height="2.07692" transform="translate(15.9844 31.1538)" fill="#614540"/>
<rect width="3.19681" height="2.07692" transform="translate(19.1807 37.3846)" fill="#614540"/>
<rect width="3.19681" height="2.07692" transform="translate(22.3779 37.3846)" fill="#614540"/>
<rect width="3.19681" height="2.07692" transform="translate(15.9844 37.3846)" fill="#614540"/>
<rect width="3.19681" height="2.07692" transform="translate(19.1807 43.6154)" fill="#614540"/>
<rect width="3.19681" height="2.07692" transform="translate(22.3779 51.9231)" fill="#614540"/>
<rect width="3.19681" height="2.07692" transform="translate(12.7871 51.9231)" fill="#614540"/>
<rect width="3.19681" height="2.07692" transform="translate(22.3779 43.6154)" fill="#614540"/>
<rect width="3.19681" height="2.07692" transform="translate(25.5742 51.9231)" fill="#614540"/>
<rect width="3.19681" height="2.07692" transform="translate(15.9844 51.9231)" fill="#614540"/>
<rect width="3.19681" height="2.07692" transform="translate(15.9844 43.6154)" fill="#614540"/>
<rect width="3.19681" height="2.07692" transform="translate(19.1807 51.9231)" fill="#614540"/>
<rect width="3.19681" height="2.07692" transform="translate(9.59082 51.9231)" fill="#614540"/>
<rect width="3.19681" height="2.07692" transform="translate(19.1807 49.8462)" fill="#614540"/>
<rect width="3.19681" height="2.07692" transform="translate(25.5742 49.8462)" fill="#614540"/>
<path d="M47.7354 44.7536V31.2752H49.9818V29.0288H61.2138V31.2752H63.4602V44.7536H61.2138V47H49.9818V44.7536H47.7354ZM52.2282 42.5072H58.9674V33.5216H52.2282V42.5072ZM65.7153 47V29.0288H79.1937V31.2752H81.4401V47H76.9473V33.5216H70.2081V47H65.7153ZM83.6953 44.7536V38.0144H85.9417V35.768H92.6809V33.5216H83.6953V29.0288H94.9273V31.2752H97.1737V47H85.9417V44.7536H83.6953ZM88.1881 42.5072H92.6809V40.2608H88.1881V42.5072ZM99.4113 47V22.2896H103.904V35.768H106.151V33.5216H108.397V31.2752H110.643V29.0288H115.136V33.5216H112.89V35.768H110.643V38.0144H112.89V40.2608H115.136V47H110.643V42.5072H108.397V40.2608H103.904V47H99.4113ZM117.391 44.7536V38.0144H119.638V35.768H126.377V33.5216H117.391V29.0288H128.623V31.2752H130.87V47H119.638V44.7536H117.391ZM121.884 42.5072H126.377V40.2608H121.884V42.5072ZM133.107 44.7536V29.0288H137.6V42.5072H139.847V29.0288H144.339V42.5072H146.586V29.0288H151.079V44.7536H148.832V47H135.354V44.7536H133.107ZM153.325 44.7536V38.0144H155.571V35.768H162.311V33.5216H153.325V29.0288H164.557V31.2752H166.803V47H155.571V44.7536H153.325ZM157.818 42.5072H162.311V40.2608H157.818V42.5072Z" fill="#68AB6E"/>
</svg>
