<svg width="32" height="32" viewBox="0 0 32 32" fill="none" xmlns="http://www.w3.org/2000/svg">
<path d="M25.3337 7.33328H16.9603L16.5337 5.99995C16.2571 5.21759 15.744 4.54062 15.0655 4.06283C14.3871 3.58504 13.5768 3.33008 12.747 3.33328H6.66699C5.60613 3.33328 4.58871 3.75471 3.83857 4.50485C3.08842 5.255 2.66699 6.27242 2.66699 7.33328V24.6666C2.66699 25.7275 3.08842 26.7449 3.83857 27.495C4.58871 28.2452 5.60613 28.6666 6.66699 28.6666H25.3337C26.3945 28.6666 27.4119 28.2452 28.1621 27.495C28.9122 26.7449 29.3337 25.7275 29.3337 24.6666V11.3333C29.3337 10.2724 28.9122 9.255 28.1621 8.50486C27.4119 7.75471 26.3945 7.33328 25.3337 7.33328ZM26.667 24.6666C26.667 25.0202 26.5265 25.3594 26.2765 25.6094C26.0264 25.8595 25.6873 26 25.3337 26H6.66699C6.31337 26 5.97423 25.8595 5.72418 25.6094C5.47413 25.3594 5.33366 25.0202 5.33366 24.6666V7.33328C5.33366 6.97966 5.47413 6.64052 5.72418 6.39047C5.97423 6.14042 6.31337 5.99995 6.66699 5.99995H12.747C13.0265 5.99923 13.2992 6.08637 13.5265 6.24907C13.7538 6.41177 13.9242 6.64179 14.0137 6.90662L14.7337 9.09328C14.8231 9.35811 14.9935 9.58813 15.2208 9.75083C15.4481 9.91352 15.7208 10.0007 16.0003 9.99995H25.3337C25.6873 9.99995 26.0264 10.1404 26.2765 10.3905C26.5265 10.6405 26.667 10.9797 26.667 11.3333V24.6666Z" fill="#3D2B27"/>
</svg>
