<svg width="60" height="60" viewBox="0 0 60 60" fill="none" xmlns="http://www.w3.org/2000/svg">
<rect x="1.25" y="1.25" width="57.5" height="57.5" rx="8.75" fill="white"/>
<rect x="1.25" y="1.25" width="57.5" height="57.5" rx="8.75" stroke="#68AB6E" stroke-width="2.5"/>
<path d="M29.9997 20.3335C30.9197 20.3335 31.6663 21.0802 31.6663 22.0002V28.3335H37.9997C38.4417 28.3335 38.8656 28.5091 39.1782 28.8217C39.4907 29.1342 39.6663 29.5581 39.6663 30.0002C39.6663 30.4422 39.4907 30.8661 39.1782 31.1787C38.8656 31.4912 38.4417 31.6668 37.9997 31.6668H31.6663V38.0002C31.6663 38.4422 31.4907 38.8661 31.1782 39.1787C30.8656 39.4912 30.4417 39.6668 29.9997 39.6668C29.5576 39.6668 29.1337 39.4912 28.8212 39.1787C28.5086 38.8661 28.333 38.4422 28.333 38.0002V31.6668H21.9997C21.5576 31.6668 21.1337 31.4912 20.8212 31.1787C20.5086 30.8661 20.333 30.4422 20.333 30.0002C20.333 29.5581 20.5086 29.1342 20.8212 28.8217C21.1337 28.5091 21.5576 28.3335 21.9997 28.3335H28.333V22.0002C28.333 21.0802 29.0797 20.3335 29.9997 20.3335Z" fill="#68AB6E"/>
</svg>
