<svg width="27" height="26" viewBox="0 0 27 26" fill="none" xmlns="http://www.w3.org/2000/svg">
<path d="M16 13.3334H14.6667V12C14.6667 11.6464 14.5262 11.3073 14.2761 11.0572C14.0261 10.8072 13.687 10.6667 13.3333 10.6667C12.9797 10.6667 12.6406 10.8072 12.3905 11.0572C12.1405 11.3073 12 11.6464 12 12V13.3334H10.6667C10.313 13.3334 9.97391 13.4738 9.72386 13.7239C9.47381 13.9739 9.33333 14.3131 9.33333 14.6667C9.33333 15.0203 9.47381 15.3595 9.72386 15.6095C9.97391 15.8596 10.313 16 10.6667 16H12V17.3334C12 17.687 12.1405 18.0261 12.3905 18.2762C12.6406 18.5262 12.9797 18.6667 13.3333 18.6667C13.687 18.6667 14.0261 18.5262 14.2761 18.2762C14.5262 18.0261 14.6667 17.687 14.6667 17.3334V16H16C16.3536 16 16.6928 15.8596 16.9428 15.6095C17.1929 15.3595 17.3333 15.0203 17.3333 14.6667C17.3333 14.3131 17.1929 13.9739 16.9428 13.7239C16.6928 13.4738 16.3536 13.3334 16 13.3334ZM22.6667 4.00003H14.2933L13.8667 2.6667C13.5901 1.88434 13.077 1.20737 12.3985 0.729578C11.7201 0.251788 10.9098 -0.0031692 10.08 2.97381e-05H4C2.93913 2.97381e-05 1.92172 0.421457 1.17157 1.1716C0.421427 1.92175 0 2.93916 0 4.00003V21.3334C0 22.3942 0.421427 23.4116 1.17157 24.1618C1.92172 24.9119 2.93913 25.3334 4 25.3334H22.6667C23.7275 25.3334 24.7449 24.9119 25.4951 24.1618C26.2452 23.4116 26.6667 22.3942 26.6667 21.3334V8.00003C26.6667 6.93916 26.2452 5.92175 25.4951 5.1716C24.7449 4.42146 23.7275 4.00003 22.6667 4.00003ZM24 21.3334C24 21.687 23.8595 22.0261 23.6095 22.2762C23.3594 22.5262 23.0203 22.6667 22.6667 22.6667H4C3.64638 22.6667 3.30724 22.5262 3.05719 22.2762C2.80714 22.0261 2.66667 21.687 2.66667 21.3334V4.00003C2.66667 3.64641 2.80714 3.30727 3.05719 3.05722C3.30724 2.80717 3.64638 2.6667 4 2.6667H10.08C10.3595 2.66598 10.6322 2.75312 10.8595 2.91582C11.0868 3.07852 11.2572 3.30854 11.3467 3.57336L12.0667 5.76003C12.1561 6.02486 12.3265 6.25488 12.5538 6.41757C12.7811 6.58027 13.0538 6.66742 13.3333 6.6667H22.6667C23.0203 6.6667 23.3594 6.80717 23.6095 7.05722C23.8595 7.30727 24 7.64641 24 8.00003V21.3334Z" fill="#3D2B27"/>
</svg>
