<svg width="60" height="60" viewBox="0 0 60 60" fill="none" xmlns="http://www.w3.org/2000/svg">
<rect width="60" height="60" rx="10" fill="#BFD8B8"/>
<path d="M17.333 30.0002C17.333 24.0295 17.333 21.0428 19.1877 19.1882C21.0423 17.3335 24.0277 17.3335 29.9997 17.3335C35.9703 17.3335 38.957 17.3335 40.8117 19.1882C42.6663 21.0428 42.6663 24.0282 42.6663 30.0002C42.6663 35.9708 42.6663 38.9575 40.8117 40.8122C38.957 42.6668 35.9717 42.6668 29.9997 42.6668C24.029 42.6668 21.0423 42.6668 19.1877 40.8122C17.333 38.9575 17.333 35.9722 17.333 30.0002Z" stroke="#7A5751" stroke-width="2" stroke-linejoin="round"/>
<path d="M29.9993 24.667V35.3337M35.3327 30.0003H24.666" stroke="#7A5751" stroke-width="2" stroke-linecap="round" stroke-linejoin="round"/>
</svg>
