<svg width="72" height="72" viewBox="0 0 72 72" fill="none" xmlns="http://www.w3.org/2000/svg">
<g clip-path="url(#clip0_1955_13847)">
<rect width="72" height="72" rx="36" fill="#FAFFF9"/>
<rect width="2.56626" height="2.56626" transform="translate(20.6748 14.9875)" fill="#A47971"/>
<rect width="2.56626" height="2.56626" transform="translate(18.1084 17.5527)" fill="#A47971"/>
<rect width="2.56626" height="2.56626" transform="translate(15.542 20.1189)" fill="#A47971"/>
<rect width="2.56626" height="2.56626" transform="translate(15.542 22.6858)" fill="#A47971"/>
<rect width="2.56626" height="2.56626" transform="translate(15.542 25.251)" fill="#A47971"/>
<rect width="2.56626" height="2.56626" transform="translate(10.4102 30.3833)" fill="#A47971"/>
<rect width="2.56626" height="2.56626" transform="translate(12.9756 30.3833)" fill="#A47971"/>
<rect width="2.56626" height="2.56626" transform="translate(15.542 30.9536)" fill="#A47971"/>
<rect width="2.56626" height="2.56626" transform="translate(18.1084 28.9565)" fill="#A47971"/>
<rect width="2.56626" height="2.56626" transform="translate(20.6748 28.9565)" fill="#A47971"/>
<rect width="2.56626" height="2.56626" transform="translate(23.2412 28.9565)" fill="#A47971"/>
<rect width="2.56626" height="2.56626" transform="translate(25.8076 30.9536)" fill="#A47971"/>
<rect width="2.56626" height="2.56626" transform="translate(28.0889 33.2336)" fill="white"/>
<rect width="2.56626" height="2.56626" transform="translate(28.0889 35.5144)" fill="white"/>
<rect width="2.56626" height="2.56626" transform="translate(28.0889 38.0806)" fill="white"/>
<rect width="2.56626" height="2.56626" transform="translate(28.0889 40.6467)" fill="white"/>
<rect width="2.56626" height="2.56626" transform="translate(25.8076 42.6426)" fill="white"/>
<rect width="2.56626" height="2.56626" transform="translate(25.5225 44.0684)" fill="white"/>
<rect width="2.56626" height="2.56626" transform="translate(28.0889 44.0684)" fill="white"/>
<rect width="2.56626" height="2.56626" transform="translate(28.0889 43.2139)" fill="white"/>
<rect width="2.56626" height="2.56626" transform="translate(28.0889 46.6343)" fill="white"/>
<rect width="2.56626" height="2.56626" transform="translate(30.6553 46.6343)" fill="white"/>
<rect width="2.56626" height="7.98393" transform="translate(30.084 40.3618)" fill="white"/>
<rect width="8.83935" height="3.13654" transform="translate(32.3652 45.4939)" fill="white"/>
<rect width="4.2771" height="7.98393" transform="translate(40.3496 39.7925)" fill="white"/>
<rect width="2.56626" height="2.56626" transform="translate(32.9365 46.6343)" fill="white"/>
<rect width="2.56626" height="2.56626" transform="translate(38.0684 46.6343)" fill="white"/>
<rect width="2.56626" height="2.56626" transform="translate(40.6348 46.6343)" fill="white"/>
<rect width="2.56626" height="2.56626" transform="translate(42.916 46.6343)" fill="white"/>
<rect width="2.56626" height="2.56626" transform="translate(48.0479 46.6343)" fill="white"/>
<rect width="2.56626" height="2.56626" transform="translate(48.0479 51.1963)" fill="white"/>
<rect width="2.56626" height="2.56626" transform="translate(28.0889 48.6301)" fill="white"/>
<rect width="2.56626" height="2.56626" transform="translate(30.6553 48.6301)" fill="white"/>
<rect width="2.56626" height="2.56626" transform="translate(38.0684 48.6301)" fill="white"/>
<rect width="2.56626" height="2.56626" transform="translate(32.9365 48.6301)" fill="white"/>
<rect width="2.56626" height="2.56626" transform="translate(40.6348 48.6301)" fill="white"/>
<rect width="2.56626" height="2.56626" transform="translate(48.0479 48.6301)" fill="white"/>
<rect width="2.56626" height="2.56626" transform="translate(42.916 48.6301)" fill="white"/>
<rect width="2.56626" height="2.56626" transform="translate(48.0479 53.1912)" fill="white"/>
<rect width="2.56626" height="2.56626" transform="translate(10.6953 32.9495)" fill="#A47971"/>
<rect width="2.56626" height="2.56626" transform="translate(10.6953 35.5144)" fill="#A47971"/>
<rect width="2.56626" height="2.56626" transform="translate(10.4102 43.2139)" fill="white"/>
<rect width="2.56626" height="2.56626" transform="translate(12.9756 42.6426)" fill="white"/>
<rect width="2.56626" height="2.56626" transform="translate(15.2568 44.9226)" fill="white"/>
<rect width="2.56626" height="2.56626" transform="translate(17.8232 44.9226)" fill="white"/>
<rect width="2.56626" height="2.56626" transform="translate(20.3896 44.9226)" fill="white"/>
<rect width="2.56626" height="2.56626" transform="translate(22.9561 44.9226)" fill="white"/>
<rect width="2.56626" height="2.56626" transform="translate(22.9561 47.4897)" fill="white"/>
<rect width="2.56626" height="2.56626" transform="translate(22.9561 50.0559)" fill="white"/>
<rect width="2.56626" height="2.56626" transform="translate(25.2373 51.7666)" fill="white"/>
<rect width="5.41767" height="4.56225" transform="translate(22.3857 52.3369)" fill="white"/>
<rect width="5.41767" height="4.56225" transform="translate(17.8232 52.3369)" fill="white"/>
<rect width="5.41767" height="4.56225" transform="translate(12.1211 58.3235)" fill="white"/>
<rect width="5.41767" height="4.56225" transform="translate(15.2568 66.8772)" fill="white"/>
<rect width="3.70682" height="7.12851" transform="translate(19.249 62.0303)" fill="white"/>
<rect width="3.70682" height="4.2771" transform="translate(21.8154 64.8813)" fill="white"/>
<rect width="5.98795" height="1.99598" transform="translate(25.5225 67.1614)" fill="white"/>
<rect width="5.98795" height="1.99598" transform="translate(27.8027 55.7583)" fill="white"/>
<rect width="3.70682" height="4.2771" transform="translate(30.6543 65.1665)" fill="white"/>
<rect width="2.56626" height="2.56626" transform="translate(27.8037 53.7615)" fill="white"/>
<rect width="2.56626" height="2.56626" transform="translate(30.3701 53.7615)" fill="white"/>
<rect width="2.56626" height="2.56626" transform="translate(32.9365 53.7615)" fill="white"/>
<rect width="2.56626" height="2.56626" transform="translate(35.502 53.7615)" fill="white"/>
<rect width="2.56626" height="2.56626" transform="translate(38.0684 53.7615)" fill="white"/>
<rect width="2.56626" height="2.56626" transform="translate(40.6348 53.7615)" fill="white"/>
<rect width="2.56626" height="2.56626" transform="translate(43.2012 53.7615)" fill="white"/>
<rect width="2.56626" height="2.56626" transform="translate(45.7666 53.7615)" fill="white"/>
<rect width="2.56626" height="2.56626" transform="translate(45.7666 51.7666)" fill="white"/>
<rect width="2.56626" height="2.56626" transform="translate(12.9756 45.2087)" fill="white"/>
<rect width="2.56626" height="2.56626" transform="translate(12.9756 48.3452)" fill="white"/>
<rect width="2.56626" height="2.56626" transform="translate(12.9756 47.2046)" fill="white"/>
<rect width="2.56626" height="2.56626" transform="translate(13.8311 47.2046)" fill="white"/>
<rect width="3.99196" height="3.99196" transform="translate(13.1182 49.1995)" fill="white"/>
<rect width="2.56626" height="2.56626" transform="translate(10.4102 45.7781)" fill="white"/>
<rect width="2.56626" height="2.56626" transform="translate(12.9756 50.9111)" fill="white"/>
<rect width="2.56626" height="2.56626" transform="translate(23.2412 14.9875)" fill="#A47971"/>
<rect width="2.56626" height="2.56626" transform="translate(30.6553 18.1238)" fill="#A47971"/>
<rect width="2.56626" height="2.56626" transform="translate(33.2207 18.1238)" fill="#A47971"/>
<rect width="3.13654" height="3.13654" transform="translate(35.7871 19.8337)" fill="#A47971"/>
<rect width="2.56626" height="2.56626" transform="translate(39.7793 18.1238)" fill="#A47971"/>
<rect width="2.56626" height="2.56626" transform="translate(45.1973 24.3948)" fill="#A47971"/>
<rect width="2.56626" height="2.56626" transform="translate(42.916 24.3948)" fill="#A47971"/>
<rect width="2.56626" height="2.56626" transform="translate(40.6348 22.6858)" fill="#A47971"/>
<rect width="2.56626" height="2.56626" transform="translate(38.6387 22.1147)" fill="#A47971"/>
<rect width="2.56626" height="2.56626" transform="translate(33.5059 22.3999)" fill="#A47971"/>
<rect width="2.56626" height="2.56626" transform="translate(25.8076 17.5527)" fill="#A47971"/>
<rect width="2.56626" height="2.56626" transform="translate(28.374 17.5527)" fill="#A47971"/>
<rect width="2.56626" height="2.56626" transform="translate(30.6553 15.5569)" fill="#A47971"/>
<rect width="2.56626" height="2.56626" transform="translate(33.2207 17.5527)" fill="#A47971"/>
<rect width="2.56626" height="2.56626" transform="translate(30.6553 20.1189)" fill="#A47971"/>
<rect width="2.56626" height="2.56626" transform="translate(33.2207 20.1189)" fill="#A47971"/>
<rect width="2.56626" height="2.56626" transform="translate(36.0723 22.1147)" fill="#A47971"/>
<rect width="2.56626" height="2.56626" transform="translate(37.7832 17.8379)" fill="#A47971"/>
<rect width="2.56626" height="2.56626" transform="translate(35.502 17.8379)" fill="#A47971"/>
<rect width="2.56626" height="2.56626" transform="translate(39.7793 20.1189)" fill="#A47971"/>
<rect width="2.56626" height="2.56626" transform="translate(37.498 20.1189)" fill="#A47971"/>
<rect width="2.56626" height="2.56626" transform="translate(45.1973 26.3926)" fill="#A47971"/>
<rect width="2.56626" height="2.56626" transform="translate(45.1973 28.6726)" fill="#A47971"/>
<rect width="2.56626" height="2.56626" transform="translate(42.916 26.3926)" fill="#A47971"/>
<rect width="2.56626" height="2.56626" transform="translate(40.6348 24.6807)" fill="#A47971"/>
<rect width="2.56626" height="2.56626" transform="translate(38.6387 24.1106)" fill="#A47971"/>
<rect width="2.56626" height="2.56626" transform="translate(66.8672 17.8379)" fill="#A47971"/>
<rect width="2.56626" height="2.56626" transform="translate(54.8916 22.1147)" fill="#A47971"/>
<rect width="2.56626" height="2.56626" transform="translate(54.8916 24.6807)" fill="#A47971"/>
<rect width="2.56626" height="2.56626" transform="translate(54.8916 26.9617)" fill="#A47971"/>
<rect width="2.56626" height="2.56626" transform="translate(57.458 28.9565)" fill="#A47971"/>
<rect width="2.56626" height="2.56626" transform="translate(59.7393 31.2385)" fill="#A47971"/>
<rect width="2.56626" height="2.56626" transform="translate(57.458 31.2385)" fill="#A47971"/>
<rect width="2.56626" height="2.56626" transform="translate(55.1768 29.2427)" fill="#A47971"/>
<rect width="2.56626" height="2.56626" transform="translate(57.458 32.9495)" fill="#A47971"/>
<rect width="2.56626" height="2.56626" transform="translate(55.1768 30.9536)" fill="#A47971"/>
<rect width="2.56626" height="2.56626" transform="translate(52.04 28.9565)" fill="#A47971"/>
<rect width="2.56626" height="2.56626" transform="translate(53.4658 28.9565)" fill="#A47971"/>
<rect width="2.56626" height="2.56626" transform="translate(52.3252 20.1189)" fill="#A47971"/>
<rect width="2.56626" height="2.56626" transform="translate(47.4785 22.3999)" fill="#A47971"/>
<rect width="2.56626" height="2.56626" transform="translate(49.7588 22.3999)" fill="#A47971"/>
<rect width="2.56626" height="2.56626" transform="translate(8.41406 13.562)" fill="#A47971"/>
<rect width="2.56626" height="2.56626" transform="translate(10.9805 13.562)" fill="#A47971"/>
<rect width="2.56626" height="2.56626" transform="translate(13.5459 13.562)" fill="#A47971"/>
<rect width="2.56626" height="2.56626" transform="translate(15.542 13.562)" fill="#A47971"/>
<rect width="2.56626" height="2.56626" transform="translate(18.1084 13.562)" fill="#A47971"/>
<rect width="2.56626" height="2.56626" transform="translate(52.3252 22.3999)" fill="#A47971"/>
<rect width="2.56626" height="2.56626" transform="translate(52.3252 13.562)" fill="#A47971"/>
<rect width="2.56626" height="2.56626" transform="translate(54.8916 13.562)" fill="#A47971"/>
<rect width="2.56626" height="2.56626" transform="translate(57.458 13.562)" fill="#A47971"/>
<rect width="2.56626" height="2.56626" transform="translate(60.0244 13.562)" fill="#A47971"/>
<rect width="2.56626" height="2.56626" transform="translate(62.3047 13.562)" fill="#A47971"/>
<rect width="2.56626" height="2.56626" transform="translate(49.7588 15.842)" fill="#A47971"/>
<rect width="2.56626" height="2.56626" transform="translate(47.4785 24.6807)" fill="#A47971"/>
<rect width="2.56626" height="2.56626" transform="translate(44.9121 17.8379)" fill="#A47971"/>
<rect width="2.56626" height="2.56626" transform="translate(42.3457 17.8379)" fill="#A47971"/>
<rect width="2.56626" height="2.56626" transform="translate(49.7588 24.6807)" fill="#A47971"/>
<rect width="2.56626" height="2.56626" transform="translate(8.41406 17.5527)" fill="#A47971"/>
<rect width="2.56626" height="2.56626" transform="translate(10.9805 17.5527)" fill="#A47971"/>
<rect width="2.56626" height="2.56626" transform="translate(13.5459 17.5527)" fill="#A47971"/>
<rect width="2.56626" height="2.56626" transform="translate(13.2607 19.8337)" fill="#A47971"/>
<rect width="2.56626" height="2.56626" transform="translate(52.3252 26.3926)" fill="#A47971"/>
<rect width="2.56626" height="2.56626" transform="translate(15.542 17.5527)" fill="#A47971"/>
<rect width="2.56626" height="2.56626" transform="translate(52.3252 17.5527)" fill="#A47971"/>
<rect width="2.56626" height="2.56626" transform="translate(54.8916 17.5527)" fill="#A47971"/>
<rect width="2.56626" height="2.56626" transform="translate(54.8916 19.8337)" fill="#A47971"/>
<rect width="2.56626" height="2.56626" transform="translate(57.458 17.5527)" fill="#A47971"/>
<rect width="2.56626" height="2.56626" transform="translate(49.7588 19.8337)" fill="#A47971"/>
<rect width="2.56626" height="2.56626" transform="translate(47.4785 19.8337)" fill="#A47971"/>
<rect width="2.56626" height="2.56626" transform="translate(47.4785 28.9565)" fill="#A47971"/>
<rect width="2.56626" height="2.56626" transform="translate(44.9121 21.8306)" fill="#A47971"/>
<rect width="2.56626" height="2.56626" transform="translate(42.3457 21.8306)" fill="#A47971"/>
<rect width="2.56626" height="2.56626" transform="translate(49.7588 28.9565)" fill="#A47971"/>
<rect width="2.56626" height="2.56626" transform="translate(8.41406 15.842)" fill="#A47971"/>
<rect width="2.56626" height="2.56626" transform="translate(10.9805 15.842)" fill="#A47971"/>
<rect width="2.56626" height="2.56626" transform="translate(13.5459 15.842)" fill="#A47971"/>
<rect width="2.56626" height="2.56626" transform="translate(52.3252 24.6807)" fill="#A47971"/>
<rect width="2.56626" height="2.56626" transform="translate(15.542 15.842)" fill="#A47971"/>
<rect width="2.56626" height="2.56626" transform="translate(18.1084 15.842)" fill="#A47971"/>
<rect width="2.56626" height="2.56626" transform="translate(52.3252 15.842)" fill="#A47971"/>
<rect width="2.56626" height="2.56626" transform="translate(54.8916 15.842)" fill="#A47971"/>
<rect width="2.56626" height="2.56626" transform="translate(57.458 15.842)" fill="#A47971"/>
<rect width="2.56626" height="2.56626" transform="translate(60.0244 15.842)" fill="#A47971"/>
<rect width="2.56626" height="2.56626" transform="translate(62.3047 15.842)" fill="#A47971"/>
<rect width="2.56626" height="2.56626" transform="translate(64.5859 15.842)" fill="#A47971"/>
<rect width="2.56626" height="2.56626" transform="translate(49.7588 18.1238)" fill="#A47971"/>
<rect width="2.56626" height="2.56626" transform="translate(47.4785 18.1238)" fill="#A47971"/>
<rect width="2.56626" height="2.56626" transform="translate(47.4785 26.9617)" fill="#A47971"/>
<rect width="2.56626" height="2.56626" transform="translate(44.9121 20.1189)" fill="#A47971"/>
<rect width="2.56626" height="2.56626" transform="translate(42.3457 20.1189)" fill="#A47971"/>
<rect width="2.56626" height="2.56626" transform="translate(49.7588 26.9617)" fill="#A47971"/>
<rect width="2.56626" height="2.56626" transform="translate(6.13281 15.5569)" fill="#A47971"/>
<rect width="2.56626" height="2.56626" transform="translate(6.13281 17.5527)" fill="#A47971"/>
<rect width="2.56626" height="2.56626" transform="translate(3.56641 17.5527)" fill="#A47971"/>
<rect width="2.56626" height="2.56626" transform="translate(3.56641 20.1189)" fill="#A47971"/>
<rect width="2.56626" height="2.56626" transform="translate(56.6025 53.4773)" fill="#A47971"/>
<rect width="2.56626" height="2.56626" transform="translate(12.9756 53.1912)" fill="#A47971"/>
<rect width="2.56626" height="2.56626" transform="translate(15.542 53.1912)" fill="white"/>
<rect width="2.56626" height="2.56626" transform="translate(35.2168 42.9277)" fill="#C9968D"/>
<rect width="2.56626" height="2.56626" transform="translate(32.6504 40.3616)" fill="#C9968D"/>
<rect width="2.56626" height="2.56626" transform="translate(25.5225 49.1995)" fill="#C9968D"/>
<rect width="2.56626" height="2.56626" transform="translate(45.4814 49.1995)" fill="#C9968D"/>
<rect width="2.56626" height="2.56626" transform="translate(43.2012 51.1963)" fill="#C9968D"/>
<rect width="2.56626" height="2.56626" transform="translate(27.8037 51.1963)" fill="#C9968D"/>
<rect width="2.56626" height="2.56626" transform="translate(37.7832 40.3616)" fill="#C9968D"/>
<rect width="2.56626" height="2.56626" transform="translate(12.9756 55.7583)" fill="white"/>
<rect width="2.56626" height="2.56626" transform="translate(10.4102 58.3235)" fill="white"/>
<rect width="2.56626" height="2.56626" transform="translate(56.6025 55.7583)" fill="white"/>
<rect width="2.56626" height="2.56626" transform="translate(54.0361 53.1912)" fill="white"/>
<rect width="2.56626" height="2.56626" transform="translate(56.6025 50.9111)" fill="white"/>
<rect width="2.56626" height="2.56626" transform="translate(59.1689 43.2139)" fill="white"/>
<rect width="2.56626" height="2.56626" transform="translate(57.7432 42.6426)" fill="white"/>
<rect width="2.56626" height="2.56626" transform="translate(56.6025 44.9226)" fill="white"/>
<rect width="2.56626" height="2.56626" transform="translate(54.0361 44.9226)" fill="white"/>
<rect width="2.56626" height="2.56626" transform="translate(51.4697 44.9226)" fill="white"/>
<rect width="2.56626" height="2.56626" transform="translate(50.6143 44.9226)" fill="white"/>
<rect width="6.55823" height="6.55823" transform="translate(50.3291 46.6343)" fill="white"/>
<rect width="6.55823" height="6.55823" transform="translate(48.0479 53.1912)" fill="white"/>
<rect width="6.55823" height="6.55823" transform="translate(45.1973 55.7583)" fill="white"/>
<rect width="7.12851" height="7.12851" transform="translate(32.9365 55.187)" fill="white"/>
<rect width="3.42168" height="2.56626" transform="translate(30.3691 57.4683)" fill="white"/>
<rect width="7.12851" height="7.12851" transform="translate(20.6748 55.187)" fill="white"/>
<rect width="7.12851" height="7.12851" transform="translate(15.542 55.187)" fill="white"/>
<rect width="2.56626" height="2.56626" transform="translate(20.3896 22.3999)" fill="#A47971"/>
<rect width="2.56626" height="2.56626" transform="translate(18.1084 22.3999)" fill="#A47971"/>
<rect width="2.56626" height="2.56626" transform="translate(21.8154 22.3999)" fill="#A47971"/>
<rect width="2.56626" height="2.56626" transform="translate(18.1084 24.9658)" fill="#A47971"/>
<rect width="2.56626" height="2.56626" transform="translate(20.6748 24.9658)" fill="#A47971"/>
<rect width="2.56626" height="2.56626" transform="translate(21.5303 24.9658)" fill="#A47971"/>
<rect width="2.56626" height="2.56626" transform="translate(18.6787 26.6768)" fill="#A47971"/>
<rect width="2.56626" height="2.56626" transform="translate(21.2451 26.6768)" fill="#A47971"/>
<rect width="3.42168" height="3.42168" transform="translate(15.2568 27.533)" fill="#A47971"/>
<rect width="1.99598" height="1.99598" transform="translate(28.9434 22.3999)" fill="#A47971"/>
<rect width="4.2771" height="4.2771" transform="translate(24.667 28.3875)" fill="#A47971"/>
<rect width="4.2771" height="4.2771" transform="translate(29.5146 25.251)" fill="#A47971"/>
<rect width="5.41767" height="5.41767" transform="translate(27.6602 27.8162)" fill="#A47971"/>
<rect width="3.70682" height="3.70682" transform="translate(30.3701 30.3833)" fill="#A47971"/>
<g clip-path="url(#clip1_1955_13847)">
<rect width="7.12851" height="7.12851" transform="translate(32.6504 26.9617)" fill="white"/>
<rect width="2.58995" height="2.58995" transform="translate(34.9521 30.4148)" fill="#A47971"/>
<rect width="6.61876" height="6.61876" transform="translate(33.8018 26.6733)" fill="#A47971"/>
<rect width="2.58995" height="2.58995" transform="translate(34.9521 26.3865)" fill="#A47971"/>
<rect width="2.58995" height="2.58995" transform="translate(37.542 26.3865)" fill="#A47971"/>
<rect width="2.58995" height="2.58995" transform="translate(32.3623 26.6733)" fill="#A47971"/>
<rect width="2.58995" height="2.58995" transform="translate(32.3623 28.9756)" fill="#A47971"/>
<rect width="2.58995" height="2.58995" transform="translate(32.3623 31.5657)" fill="#A47971"/>
</g>
<rect width="2.56626" height="2.56626" transform="translate(34.9316 32.6633)" fill="#A47971"/>
<rect width="2.56626" height="2.56626" transform="translate(34.9316 35.2305)" fill="#A47971"/>
<rect width="2.56626" height="2.56626" transform="translate(34.9316 37.7954)" fill="white"/>
<g clip-path="url(#clip2_1955_13847)">
<rect width="4.2771" height="4.2771" transform="translate(30.6553 34.0898)" fill="white"/>
<rect width="2.58995" height="2.58995" transform="translate(32.6699 33.5137)" fill="#A47971"/>
</g>
<rect width="4.2771" height="4.2771" transform="translate(30.6553 36.0857)" fill="white"/>
<g clip-path="url(#clip3_1955_13847)">
<rect width="7.12851" height="7.12851" transform="translate(37.498 33.2334)" fill="white"/>
<rect width="2.58995" height="8.05763" transform="translate(37.21 28.0542)" fill="#A47971"/>
</g>
<rect width="7.41365" height="11.9745" transform="translate(43.4863 34.6592)" fill="white"/>
<rect width="20.245" height="15.3958" transform="translate(38.9238 56.3286)" fill="white"/>
<rect width="3.42168" height="4.56225" transform="translate(38.6387 29.2429)" fill="#A47971"/>
<rect width="3.70682" height="3.70682" transform="translate(42.3457 29.2427)" fill="#A47971"/>
<rect width="3.70682" height="3.70682" transform="translate(40.6348 29.2427)" fill="#A47971"/>
<rect width="2.56626" height="0.28514" transform="translate(42.0605 32.9495)" fill="white"/>
<g clip-path="url(#clip4_1955_13847)">
<rect width="0.570281" height="4.2771" transform="translate(44.627 30.9536)" fill="white"/>
<rect width="3.74104" height="3.74104" transform="translate(41.749 29.2263)" fill="#A47971"/>
</g>
<rect width="7.12851" height="7.12851" transform="translate(15.8271 46.6343)" fill="white"/>
<rect width="7.12851" height="7.12851" transform="translate(12.9756 61.4587)" fill="white"/>
<rect width="7.12851" height="7.12851" transform="translate(32.9365 62.03)" fill="white"/>
<rect width="6.55823" height="6.55823" transform="translate(50.0439 55.4731)" fill="white"/>
<rect width="6.55823" height="6.55823" transform="translate(50.0439 61.4587)" fill="white"/>
<rect width="6.55823" height="6.55823" transform="translate(52.6104 58.3232)" fill="white"/>
<rect width="2.56626" height="2.56626" transform="translate(56.6025 47.4897)" fill="white"/>
<rect width="2.56626" height="2.56626" transform="translate(56.6025 48.6301)" fill="white"/>
<rect width="2.56626" height="2.56626" transform="translate(59.1689 45.7781)" fill="white"/>
<rect width="2.56626" height="2.56626" transform="translate(59.7393 35.5144)" fill="#A47971"/>
<rect width="2.56626" height="2.56626" transform="translate(60.0244 38.0806)" fill="white"/>
<rect width="2.56626" height="2.56626" transform="translate(60.0244 40.6467)" fill="white"/>
<rect width="2.56626" height="2.56626" transform="translate(10.4102 60.8896)" fill="white"/>
<rect width="2.56626" height="2.56626" transform="translate(59.1689 60.8896)" fill="white"/>
<rect width="2.56626" height="2.56626" transform="translate(10.4102 63.4558)" fill="white"/>
<rect width="2.56626" height="2.56626" transform="translate(59.1689 63.4558)" fill="white"/>
<rect width="2.56626" height="2.56626" transform="translate(59.1689 66.0208)" fill="white"/>
<rect width="2.56626" height="2.56626" transform="translate(12.9756 68.5879)" fill="white"/>
<rect width="2.56626" height="2.56626" transform="translate(56.6025 68.5879)" fill="white"/>
<rect width="2.56626" height="2.56626" transform="translate(7.84375 30.3833)" fill="#A47971"/>
<rect width="2.56626" height="2.56626" transform="translate(20.6748 17.5527)" fill="#A47971"/>
<rect width="2.56626" height="2.56626" transform="translate(18.1084 20.1189)" fill="#A47971"/>
<rect width="2.56626" height="2.56626" transform="translate(23.2412 20.1189)" fill="#A47971"/>
<rect width="2.56626" height="2.56626" transform="translate(23.2412 17.5527)" fill="#A47971"/>
<rect width="2.56626" height="2.56626" transform="translate(20.6748 20.1189)" fill="#A47971"/>
<rect width="2.56626" height="2.56626" transform="translate(25.8076 20.1189)" fill="#A47971"/>
<rect width="2.56626" height="2.56626" transform="translate(28.374 20.1189)" fill="#A47971"/>
<rect width="2.56626" height="2.56626" transform="translate(30.9395 22.6858)" fill="#A47971"/>
<rect width="2.56626" height="2.56626" transform="translate(24.3818 22.6858)" fill="#A47971"/>
<rect width="2.56626" height="2.56626" transform="translate(26.9482 22.6858)" fill="#A47971"/>
<rect width="2.56626" height="2.56626" transform="translate(24.0967 24.9658)" fill="#A47971"/>
<rect width="2.56626" height="2.56626" transform="translate(23.2412 26.9617)" fill="#A47971"/>
<rect width="2.56626" height="2.56626" transform="translate(25.8076 26.6768)" fill="#A47971"/>
<rect width="2.56626" height="2.56626" transform="translate(26.6631 24.9658)" fill="#A47971"/>
<rect width="2.56626" height="2.56626" transform="translate(27.2334 25.5361)" fill="#A47971"/>
<rect width="2.56626" height="2.56626" transform="translate(28.6592 23.8254)" fill="#A47971"/>
<rect width="2.56626" height="2.56626" transform="translate(33.5059 24.6807)" fill="#A47971"/>
<rect width="2.56626" height="2.56626" transform="translate(36.0723 24.6807)" fill="#A47971"/>
<rect width="2.56626" height="2.56626" transform="translate(38.6387 26.6768)" fill="#A47971"/>
<rect width="2.56626" height="2.56626" transform="translate(40.3496 26.6768)" fill="#A47971"/>
<rect width="2.56626" height="2.56626" transform="translate(42.916 28.9565)" fill="#A47971"/>
<rect width="2.28112" height="2.56626" transform="translate(45.1973 30.9536)" fill="#A47971"/>
<rect width="2.56626" height="2.56626" transform="translate(10.6953 27.8167)" fill="#CC8282"/>
<rect width="2.56626" height="2.56626" transform="translate(10.4102 26.1069)" fill="#CC8282"/>
<rect width="2.56626" height="2.56626" transform="translate(12.9756 26.3931)" fill="#CC8282"/>
<rect width="2.56626" height="2.56626" transform="translate(18.1084 31.5242)" fill="#252525"/>
<rect width="2.56626" height="2.56626" transform="translate(15.8271 33.519)" fill="#252525"/>
<rect width="2.56626" height="2.56626" transform="translate(6.13281 22.4004)" fill="#CC8282"/>
<rect width="2.56626" height="2.56626" transform="translate(3.56641 24.395)" fill="#CC8282"/>
<rect width="2.56626" height="2.56626" transform="translate(6.13281 24.6812)" fill="#CC8282"/>
<rect width="2.56626" height="2.56626" transform="translate(8.69922 24.6812)" fill="#CC8282"/>
<rect width="2.56626" height="2.56626" transform="translate(8.69922 26.6772)" fill="#CC8282"/>
<rect width="2.56626" height="2.56626" transform="translate(10.9805 24.6812)" fill="#CC8282"/>
<rect width="2.56626" height="2.56626" transform="translate(6.13281 26.6772)" fill="#CC8282"/>
<rect width="2.56626" height="2.56626" transform="translate(8.69922 22.4004)" fill="#CC8282"/>
<rect width="2.56626" height="2.56626" transform="translate(10.9805 22.4004)" fill="#CC8282"/>
<rect width="2.56626" height="2.56626" transform="translate(15.8271 35.5149)" fill="#252525"/>
<rect width="2.56626" height="2.56626" transform="translate(15.8271 37.7959)" fill="#252525"/>
<rect width="2.56626" height="2.56626" transform="translate(18.3936 37.7959)" fill="#252525"/>
<rect width="2.56626" height="2.56626" transform="translate(18.3936 40.0759)" fill="#252525"/>
<rect width="2.56626" height="2.56626" transform="translate(23.2412 37.7959)" fill="#252525"/>
<rect width="2.56626" height="2.56626" transform="translate(23.2412 40.0759)" fill="#252525"/>
<rect width="2.56626" height="2.56626" transform="translate(20.96 40.0759)" fill="#252525"/>
<rect width="2.56626" height="2.56626" transform="translate(13.2607 35.5149)" fill="#252525"/>
<rect width="2.56626" height="2.56626" transform="translate(13.2607 37.7959)" fill="#252525"/>
<rect width="2.56626" height="2.56626" transform="translate(13.2607 40.0759)" fill="#252525"/>
<rect width="2.56626" height="2.56626" transform="translate(20.6748 42.3579)" fill="#252525"/>
<rect width="2.56626" height="2.56626" transform="translate(15.542 42.3579)" fill="#252525"/>
<rect width="2.56626" height="2.56626" transform="translate(20.6748 31.5242)" fill="#252525"/>
<rect width="2.56626" height="2.56626" transform="translate(23.2412 31.5242)" fill="#252525"/>
<rect width="2.56626" height="2.56626" transform="translate(25.5225 33.519)" fill="#252525"/>
<rect width="2.56626" height="2.56626" transform="translate(25.5225 35.801)" fill="#252525"/>
<rect width="2.56626" height="2.56626" transform="translate(25.5225 37.7959)" fill="#252525"/>
<rect width="2.56626" height="2.56626" transform="translate(25.5225 40.0759)" fill="#252525"/>
<rect width="2.56626" height="2.56626" transform="translate(18.3936 33.519)" fill="#252525"/>
<rect width="2.56626" height="2.56626" transform="translate(23.2412 42.3579)" fill="#252525"/>
<rect width="2.56626" height="2.56626" transform="translate(18.1084 42.3579)" fill="#252525"/>
<rect width="2.56626" height="2.56626" transform="translate(15.8271 40.0759)" fill="#BFD8B8"/>
<rect width="2.56626" height="2.56626" transform="translate(18.3936 35.5149)" fill="#BFD8B8"/>
<rect width="2.56626" height="2.56626" transform="translate(20.96 35.5149)" fill="#BFD8B8"/>
<rect width="2.56626" height="2.56626" transform="translate(20.96 37.7959)" fill="#BFD8B8"/>
<rect width="2.56626" height="2.56626" transform="translate(20.96 33.8052)" fill="#BFD8B8"/>
<rect width="2.56626" height="2.56626" transform="translate(23.2412 33.8052)" fill="#BFD8B8"/>
<rect width="2.56626" height="2.56626" transform="translate(23.2412 35.5149)" fill="#BFD8B8"/>
<rect width="2.56626" height="2.56626" transform="translate(12.9756 27.8162)" fill="#A47971"/>
<rect width="2.56626" height="2.56626" transform="translate(13.2607 32.9495)" fill="#A47971"/>
<rect width="2.56626" height="2.56626" transform="translate(10.6953 38.0806)" fill="white"/>
<rect width="2.56626" height="2.56626" transform="translate(10.125 38.0806)" fill="white"/>
<rect width="2.56626" height="2.56626" transform="translate(10.6953 40.6467)" fill="white"/>
<rect width="2.56626" height="2.56626" transform="translate(9.83984 40.6467)" fill="white"/>
<rect width="2.56626" height="2.56626" transform="translate(3.56641 22.1147)" fill="#614540"/>
<rect width="2.56626" height="2.56626" transform="translate(1 15.5569)" fill="#614540"/>
<rect width="2.56626" height="2.56626" transform="translate(3.56641 12.9907)" fill="#614540"/>
<rect width="2.56626" height="2.56626" transform="translate(5.84766 11.28)" fill="#614540"/>
<rect width="2.56626" height="2.56626" transform="translate(8.41406 9)" fill="#614540"/>
<rect width="2.56626" height="2.56626" transform="translate(10.9805 9)" fill="#614540"/>
<rect width="2.56626" height="2.56626" transform="translate(13.5459 9)" fill="#614540"/>
<rect width="2.56626" height="2.56626" transform="translate(16.1123 9)" fill="#614540"/>
<rect width="2.56626" height="2.56626" transform="translate(18.1084 9)" fill="#614540"/>
<rect width="2.56626" height="2.56626" transform="translate(20.3896 11.28)" fill="#614540"/>
<rect width="2.56626" height="2.56626" transform="translate(30.3701 11.28)" fill="#614540"/>
<rect width="2.56626" height="2.56626" transform="translate(25.8076 13.562)" fill="#614540"/>
<rect width="2.56626" height="2.56626" transform="translate(28.0889 13.562)" fill="#614540"/>
<rect width="2.56626" height="2.56626" transform="translate(32.9365 13.562)" fill="#614540"/>
<rect width="2.56626" height="2.56626" transform="translate(37.7832 13.562)" fill="#614540"/>
<rect width="2.56626" height="2.56626" transform="translate(42.916 13.562)" fill="#614540"/>
<rect width="2.56626" height="2.56626" transform="translate(45.4814 13.562)" fill="#614540"/>
<rect width="2.56626" height="2.56626" transform="translate(47.4785 11.28)" fill="#614540"/>
<rect width="2.56626" height="2.56626" transform="translate(50.0439 11.28)" fill="#614540"/>
<rect width="2.56626" height="2.56626" transform="translate(35.2168 11.28)" fill="#614540"/>
<rect width="2.56626" height="2.56626" transform="translate(40.3496 11.28)" fill="#614540"/>
<rect width="2.56626" height="2.56626" transform="translate(22.9561 11.28)" fill="#614540"/>
<rect width="2.56626" height="2.56626" transform="translate(1 18.1238)" fill="#614540"/>
<rect width="2.56626" height="2.56626" transform="translate(1 20.689)" fill="#614540"/>
<rect width="2.56626" height="2.56626" transform="translate(1 23.2551)" fill="#614540"/>
<rect width="2.56626" height="2.56626" transform="translate(1 24.3948)" fill="#614540"/>
<rect width="2.56626" height="2.56626" transform="translate(6.13281 19.8337)" fill="#614540"/>
<rect width="2.56626" height="2.56626" transform="translate(8.69922 19.8337)" fill="#614540"/>
<rect width="2.56626" height="2.56626" transform="translate(10.6953 19.8337)" fill="#614540"/>
<rect width="2.56626" height="2.56626" transform="translate(13.2607 22.3999)" fill="#614540"/>
<rect width="2.56626" height="2.56626" transform="translate(57.458 22.3999)" fill="#614540"/>
<rect width="2.56626" height="2.56626" transform="translate(59.7393 19.8337)" fill="#614540"/>
<rect width="2.56626" height="2.56626" transform="translate(62.3047 19.8337)" fill="#614540"/>
<rect width="2.56626" height="2.56626" transform="translate(64.5859 19.8337)" fill="#614540"/>
<rect width="2.56626" height="2.56626" transform="translate(67.1523 22.1147)" fill="#614540"/>
<rect width="2.56626" height="2.56626" transform="translate(64.8711 31.2385)" fill="#614540"/>
<rect width="2.56626" height="2.56626" transform="translate(62.5898 28.6726)" fill="#614540"/>
<rect width="2.56626" height="2.56626" transform="translate(64.8711 28.6726)" fill="#614540"/>
<rect width="2.56626" height="2.56626" transform="translate(66.8672 26.6768)" fill="#614540"/>
<rect width="2.56626" height="2.56626" transform="translate(69.4336 24.6807)" fill="#614540"/>
<rect width="2.56626" height="2.56626" transform="translate(69.4336 22.1147)" fill="#614540"/>
<rect width="2.56626" height="2.56626" transform="translate(69.4336 19.5496)" fill="#614540"/>
<rect width="2.56626" height="2.56626" transform="translate(69.4336 16.9834)" fill="#614540"/>
<rect width="2.56626" height="2.56626" transform="translate(69.4336 15.5569)" fill="#614540"/>
<rect width="2.56626" height="2.56626" transform="translate(66.8672 12.9907)" fill="#614540"/>
<rect width="2.56626" height="2.56626" transform="translate(64.5859 11.28)" fill="#614540"/>
<rect width="2.56626" height="2.56626" transform="translate(62.0195 9)" fill="#614540"/>
<rect width="2.56626" height="2.56626" transform="translate(59.4541 9)" fill="#614540"/>
<rect width="2.56626" height="2.56626" transform="translate(56.8877 9)" fill="#614540"/>
<rect width="2.56626" height="2.56626" transform="translate(54.3213 9)" fill="#614540"/>
<rect width="2.56626" height="2.56626" transform="translate(52.3252 9)" fill="#614540"/>
<rect width="2.56626" height="2.56626" transform="translate(13.2607 23.8254)" fill="#614540"/>
<rect width="2.56626" height="2.56626" transform="translate(57.458 23.8254)" fill="#614540"/>
<rect width="2.56626" height="2.56626" transform="translate(3.56641 26.9617)" fill="#614540"/>
<rect width="2.56626" height="2.56626" transform="translate(5.5625 29.2427)" fill="#614540"/>
<rect width="2.56626" height="2.56626" transform="translate(5.5625 31.2385)" fill="#614540"/>
<rect width="2.56626" height="2.56626" transform="translate(8.12891 32.9495)" fill="#614540"/>
<rect width="2.56626" height="2.56626" transform="translate(6.13281 38.0806)" fill="#614540"/>
<rect width="2.56626" height="2.56626" transform="translate(6.13281 42.9277)" fill="#614540"/>
<rect width="2.56626" height="2.56626" transform="translate(6.13281 46.3491)" fill="#614540"/>
<rect width="2.56626" height="2.56626" transform="translate(7.84375 43.2139)" fill="#614540"/>
<rect width="2.56626" height="2.56626" transform="translate(8.12891 35.5144)" fill="#614540"/>
<rect width="2.56626" height="2.56626" transform="translate(6.13281 40.6467)" fill="#614540"/>
<rect width="2.56626" height="2.56626" transform="translate(6.13281 45.4939)" fill="#614540"/>
<rect width="2.56626" height="2.56626" transform="translate(6.13281 48.9163)" fill="#614540"/>
<rect width="2.56626" height="2.56626" transform="translate(8.41406 48.3452)" fill="#614540"/>
<rect width="2.56626" height="2.56626" transform="translate(8.41406 53.1912)" fill="#614540"/>
<rect width="2.56626" height="2.56626" transform="translate(6.13281 60.8896)" fill="#614540"/>
<rect width="2.56626" height="2.56626" transform="translate(8.41406 50.626)" fill="#614540"/>
<rect width="2.56626" height="2.56626" transform="translate(6.13281 58.3235)" fill="#614540"/>
<rect width="2.56626" height="2.56626" transform="translate(8.41406 55.7583)" fill="#614540"/>
<rect width="2.56626" height="2.56626" transform="translate(6.13281 63.4558)" fill="#614540"/>
<rect width="2.56626" height="2.56626" transform="translate(6.13281 64.5962)" fill="#614540"/>
<rect width="2.56626" height="2.56626" transform="translate(1 44.6375)" fill="#614540"/>
<rect width="2.56626" height="2.56626" transform="translate(3.56641 44.6375)" fill="#614540"/>
<rect width="2.56626" height="2.56626" transform="translate(8.12891 29.2427)" fill="#614540"/>
<rect width="2.56626" height="2.56626" transform="translate(7.84375 38.0806)" fill="white"/>
<rect width="2.56626" height="2.56626" transform="translate(7.84375 40.6467)" fill="white"/>
<rect width="2.56626" height="2.56626" transform="translate(7.84375 45.7781)" fill="white"/>
<rect width="2.56626" height="2.56626" transform="translate(10.4102 48.3452)" fill="white"/>
<rect width="2.56626" height="2.56626" transform="translate(10.4102 50.9111)" fill="#A47971"/>
<rect width="2.56626" height="2.56626" transform="translate(10.4102 53.4773)" fill="#A47971"/>
<rect width="2.56626" height="2.56626" transform="translate(10.4102 55.7583)" fill="#A47971"/>
<rect width="2.56626" height="2.56626" transform="translate(7.84375 58.3235)" fill="#A47971"/>
<rect width="2.56626" height="2.56626" transform="translate(7.84375 62.3152)" fill="#A47971"/>
<rect width="2.56626" height="2.56626" transform="translate(7.84375 60.6045)" fill="#A47971"/>
<rect width="2.56626" height="2.56626" transform="translate(7.84375 64.5962)" fill="#A47971"/>
<rect width="2.56626" height="2.56626" transform="translate(8.69922 67.1614)" fill="#614540"/>
<rect width="2.56626" height="2.56626" transform="translate(8.69922 68.5879)" fill="#614540"/>
<rect width="2.56626" height="2.56626" transform="translate(6.13281 71.1531)" fill="#614540"/>
<rect width="2.56626" height="2.56626" transform="translate(63.4453 71.1531)" fill="#614540"/>
<rect width="2.56626" height="2.56626" transform="translate(61.7354 68.5879)" fill="#614540"/>
<rect width="2.56626" height="2.56626" transform="translate(61.7354 66.8772)" fill="#614540"/>
<rect width="2.56626" height="2.56626" transform="translate(61.7354 66.8772)" fill="#614540"/>
<rect width="2.56626" height="2.56626" transform="translate(63.4453 64.5962)" fill="#614540"/>
<rect width="2.56626" height="2.56626" transform="translate(61.4492 56.0425)" fill="#614540"/>
<rect width="2.56626" height="2.56626" transform="translate(63.4453 62.3152)" fill="#614540"/>
<rect width="2.56626" height="2.56626" transform="translate(61.4492 53.7615)" fill="#614540"/>
<rect width="2.56626" height="2.56626" transform="translate(63.4453 60.3193)" fill="#614540"/>
<rect width="2.56626" height="2.56626" transform="translate(61.4492 51.7666)" fill="#614540"/>
<rect width="2.56626" height="2.56626" transform="translate(63.4453 58.3235)" fill="#614540"/>
<rect width="2.56626" height="2.56626" transform="translate(61.4492 49.7708)" fill="#614540"/>
<rect width="2.56626" height="2.56626" transform="translate(61.4492 48.3452)" fill="#614540"/>
<rect width="2.56626" height="2.56626" transform="translate(64.0156 48.3452)" fill="#614540"/>
<rect width="2.56626" height="2.56626" transform="translate(62.876 45.7781)" fill="#614540"/>
<rect width="2.56626" height="2.56626" transform="translate(61.7354 43.2139)" fill="#614540"/>
<rect width="2.56626" height="2.56626" transform="translate(62.876 40.6467)" fill="#614540"/>
<rect width="2.56626" height="2.56626" transform="translate(62.876 38.0806)" fill="#614540"/>
<rect width="2.56626" height="2.56626" transform="translate(64.3008 44.6375)" fill="#614540"/>
<rect width="2.56626" height="2.56626" transform="translate(66.8672 44.6375)" fill="#614540"/>
<rect width="2.56626" height="2.56626" transform="translate(69.4336 44.6375)" fill="#614540"/>
<rect width="2.56626" height="2.56626" transform="translate(62.3047 35.5144)" fill="#614540"/>
<rect width="2.56626" height="2.56626" transform="translate(62.3047 33.5186)" fill="#614540"/>
<rect width="2.56626" height="2.56626" transform="translate(60.8799 68.5879)" fill="#614540"/>
<rect width="2.56626" height="2.56626" transform="translate(10.4102 68.5879)" fill="#A47971"/>
<rect width="2.56626" height="2.56626" transform="translate(20.6748 69.1582)" fill="#A47971"/>
<rect width="2.56626" height="2.56626" transform="translate(30.9395 69.1582)" fill="#A47971"/>
<rect width="2.56626" height="2.56626" transform="translate(41.2051 69.1582)" fill="#A47971"/>
<rect width="2.56626" height="2.56626" transform="translate(23.2412 69.1582)" fill="#A47971"/>
<rect width="2.56626" height="2.56626" transform="translate(33.5059 69.1582)" fill="#A47971"/>
<rect width="2.56626" height="2.56626" transform="translate(43.7715 69.1582)" fill="#A47971"/>
<rect width="2.56626" height="2.56626" transform="translate(25.8076 69.1582)" fill="#A47971"/>
<rect width="2.56626" height="2.56626" transform="translate(36.0723 69.1582)" fill="#A47971"/>
<rect width="2.56626" height="2.56626" transform="translate(46.3379 69.1582)" fill="#A47971"/>
<rect width="2.56626" height="2.56626" transform="translate(28.374 69.1582)" fill="#A47971"/>
<rect width="2.56626" height="2.56626" transform="translate(38.6387 69.1582)" fill="#A47971"/>
<rect width="2.56626" height="2.56626" transform="translate(48.9033 69.1582)" fill="#A47971"/>
<rect width="2.56626" height="2.56626" transform="translate(50.0439 69.1582)" fill="#A47971"/>
<rect width="2.56626" height="2.56626" transform="translate(10.4102 71.1531)" fill="#A47971"/>
<rect width="2.56626" height="2.56626" transform="translate(7.84375 71.1531)" fill="#A47971"/>
<rect width="2.56626" height="2.56626" transform="translate(10.4102 66.0208)" fill="white"/>
<rect width="2.56626" height="2.56626" transform="translate(12.9756 71.1531)" fill="white"/>
<rect width="2.56626" height="2.56626" transform="translate(18.3936 71.1531)" fill="#614540"/>
<rect width="2.8514" height="2.8514" transform="translate(15.542 70.8679)" fill="white"/>
<rect width="2.56626" height="2.56626" transform="translate(59.1689 71.1531)" fill="#A47971"/>
<rect width="2.56626" height="2.56626" transform="translate(61.7354 71.1531)" fill="#A47971"/>
<g clip-path="url(#clip5_1955_13847)">
<rect width="2.56626" height="2.56626" transform="translate(54.0361 71.1531)" fill="white"/>
<rect width="2.58995" height="2.58995" transform="translate(52.5977 71.1533)" fill="#614540"/>
</g>
<rect width="2.56626" height="2.56626" transform="translate(56.6025 71.1531)" fill="white"/>
<rect width="2.56626" height="2.56626" transform="translate(59.1689 68.5879)" fill="#A47971"/>
<rect width="2.56626" height="2.56626" transform="translate(61.7354 58.3235)" fill="#A47971"/>
<rect width="2.56626" height="2.56626" transform="translate(61.7354 60.6045)" fill="#A47971"/>
<rect width="2.56626" height="2.56626" transform="translate(61.7354 63.1707)" fill="#A47971"/>
<rect width="2.56626" height="2.56626" transform="translate(61.7354 65.7378)" fill="#A47971"/>
<rect width="2.56626" height="2.56626" transform="translate(59.1689 50.9111)" fill="#A47971"/>
<rect width="2.56626" height="2.56626" transform="translate(59.1689 53.1912)" fill="#A47971"/>
<rect width="2.56626" height="2.56626" transform="translate(59.1689 55.7583)" fill="#A47971"/>
<rect width="2.56626" height="2.56626" transform="translate(59.1689 58.3235)" fill="white"/>
<rect width="2.56626" height="2.56626" transform="translate(59.1689 48.3452)" fill="white"/>
<rect width="2.56626" height="2.56626" transform="translate(61.7354 45.7781)" fill="white"/>
<rect width="2.56626" height="2.56626" transform="translate(61.7354 40.6467)" fill="white"/>
<rect width="2.56626" height="2.56626" transform="translate(61.7354 38.0806)" fill="white"/>
<rect width="2.56626" height="2.56626" transform="translate(59.7393 32.9495)" fill="#A47971"/>
<rect width="2.56626" height="2.56626" transform="translate(62.3047 31.2385)" fill="#A47971"/>
<rect width="2.56626" height="2.56626" transform="matrix(-1 0 0 1 55.1768 31.5242)" fill="#252525"/>
<rect width="2.56626" height="2.56626" transform="matrix(-1 0 0 1 57.457 33.519)" fill="#252525"/>
<rect width="2.56626" height="2.56626" transform="matrix(-1 0 0 1 57.457 35.5149)" fill="#252525"/>
<rect width="2.56626" height="2.56626" transform="matrix(-1 0 0 1 57.457 37.7959)" fill="#252525"/>
<rect width="2.56626" height="2.56626" transform="matrix(-1 0 0 1 54.8916 37.7959)" fill="#252525"/>
<rect width="2.56626" height="2.56626" transform="matrix(-1 0 0 1 54.8916 40.0759)" fill="#252525"/>
<rect width="2.56626" height="2.56626" transform="matrix(-1 0 0 1 50.0439 37.7959)" fill="#252525"/>
<rect width="2.56626" height="2.56626" transform="matrix(-1 0 0 1 50.0439 40.0759)" fill="#252525"/>
<rect width="2.56626" height="2.56626" transform="matrix(-1 0 0 1 52.3252 40.0759)" fill="#252525"/>
<rect width="2.56626" height="2.56626" transform="matrix(-1 0 0 1 60.0234 35.5149)" fill="#252525"/>
<rect width="2.56626" height="2.56626" transform="matrix(-1 0 0 1 60.0234 37.7959)" fill="#252525"/>
<rect width="2.56626" height="2.56626" transform="matrix(-1 0 0 1 60.0234 40.0759)" fill="#252525"/>
<rect width="2.56626" height="2.56626" transform="matrix(-1 0 0 1 52.6104 42.3579)" fill="#252525"/>
<rect width="2.56626" height="2.56626" transform="matrix(-1 0 0 1 57.7432 42.3579)" fill="#252525"/>
<rect width="2.56626" height="2.56626" transform="matrix(-1 0 0 1 52.6104 31.5242)" fill="#252525"/>
<rect width="2.56626" height="2.56626" transform="matrix(-1 0 0 1 50.0439 31.5242)" fill="#252525"/>
<rect width="2.56626" height="2.56626" transform="matrix(-1 0 0 1 64.8711 22.4004)" fill="#CC8282"/>
<rect width="2.56626" height="2.56626" transform="matrix(-1 0 0 1 67.1523 22.4004)" fill="#CC8282"/>
<rect width="2.56626" height="2.56626" transform="matrix(-1 0 0 1 62.5898 28.6731)" fill="#CC8282"/>
<rect width="2.56626" height="2.56626" transform="matrix(-1 0 0 1 62.5898 26.1069)" fill="#CC8282"/>
<rect width="2.56626" height="2.56626" transform="matrix(-1 0 0 1 69.4336 24.6812)" fill="#CC8282"/>
<rect width="2.56626" height="2.56626" transform="matrix(-1 0 0 1 67.1523 26.6772)" fill="#CC8282"/>
<rect width="2.56626" height="2.56626" transform="matrix(-1 0 0 1 64.5859 26.6772)" fill="#CC8282"/>
<rect width="2.56626" height="2.56626" transform="matrix(-1 0 0 1 64.5859 24.6812)" fill="#CC8282"/>
<rect width="2.56626" height="2.56626" transform="matrix(-1 0 0 1 66.8672 24.6812)" fill="#CC8282"/>
<rect width="2.56626" height="2.56626" transform="matrix(-1 0 0 1 47.7627 33.519)" fill="#252525"/>
<rect width="2.56626" height="2.56626" transform="matrix(-1 0 0 1 47.7627 35.801)" fill="#252525"/>
<rect width="2.56626" height="2.56626" transform="matrix(-1 0 0 1 47.7627 37.7959)" fill="#252525"/>
<rect width="2.56626" height="2.56626" transform="matrix(-1 0 0 1 47.7627 40.0759)" fill="#252525"/>
<rect width="2.56626" height="2.56626" transform="matrix(-1 0 0 1 54.8916 33.519)" fill="#252525"/>
<rect width="2.56626" height="2.56626" transform="matrix(-1 0 0 1 50.0439 42.3579)" fill="#252525"/>
<rect width="2.56626" height="2.56626" transform="matrix(-1 0 0 1 55.1768 42.3579)" fill="#252525"/>
<rect width="2.56626" height="2.56626" transform="matrix(-1 0 0 1 57.457 40.0759)" fill="#BFD8B8"/>
<rect width="2.56626" height="2.56626" transform="matrix(-1 0 0 1 54.8916 35.5149)" fill="#BFD8B8"/>
<rect width="2.56626" height="2.56626" transform="matrix(-1 0 0 1 52.3252 35.5149)" fill="#BFD8B8"/>
<rect width="2.56626" height="2.56626" transform="matrix(-1 0 0 1 52.3252 37.7959)" fill="#BFD8B8"/>
<rect width="2.56626" height="2.56626" transform="matrix(-1 0 0 1 52.3252 33.8052)" fill="#BFD8B8"/>
<rect width="2.56626" height="2.56626" transform="matrix(-1 0 0 1 50.0439 33.8052)" fill="#BFD8B8"/>
<rect width="2.56626" height="2.56626" transform="matrix(-1 0 0 1 50.0439 35.5149)" fill="#BFD8B8"/>
<rect width="2.56626" height="2.56626" transform="matrix(-1 0 0 1 62.3047 22.4004)" fill="#CC8282"/>
<rect width="2.56626" height="2.56626" transform="matrix(-1 0 0 1 60.0234 26.3931)" fill="#CC8282"/>
<rect width="2.56626" height="2.56626" transform="matrix(-1 0 0 1 62.3047 24.6812)" fill="#CC8282"/>
<rect width="2.56626" height="2.56626" transform="translate(66.8672 19.8337)" fill="#A47971"/>
<rect width="2.56626" height="2.56626" transform="translate(64.5859 17.5527)" fill="#A47971"/>
<rect width="2.56626" height="2.56626" transform="translate(62.3047 17.5527)" fill="#A47971"/>
<rect width="2.56626" height="2.56626" transform="translate(59.7393 17.5527)" fill="#A47971"/>
<rect width="2.56626" height="2.56626" transform="translate(57.1729 19.8337)" fill="#A47971"/>
<rect width="2.56626" height="2.56626" transform="translate(64.5859 13.562)" fill="#A47971"/>
<rect width="2.56626" height="2.56626" transform="translate(66.8672 15.5569)" fill="#A47971"/>
<rect width="2.56626" height="2.56626" transform="translate(52.3252 11.28)" fill="#A47971"/>
<rect width="2.56626" height="2.56626" transform="translate(57.458 11.28)" fill="#A47971"/>
<rect width="2.56626" height="2.56626" transform="translate(54.8916 11.28)" fill="#A47971"/>
<rect width="2.56626" height="2.56626" transform="translate(60.0244 11.28)" fill="#A47971"/>
<rect width="2.56626" height="2.56626" transform="translate(62.0205 11.28)" fill="#A47971"/>
<rect width="2.56626" height="2.56626" transform="translate(3.56641 15.5569)" fill="#A47971"/>
<rect width="2.56626" height="2.56626" transform="translate(6.13281 13.2769)" fill="#A47971"/>
<rect width="2.56626" height="2.56626" transform="translate(8.41406 11.28)" fill="#A47971"/>
<rect width="2.56626" height="2.56626" transform="translate(10.9805 11.28)" fill="#A47971"/>
<rect width="2.56626" height="2.56626" transform="translate(13.5459 11.28)" fill="#A47971"/>
<rect width="2.56626" height="2.56626" transform="translate(15.542 11.28)" fill="#A47971"/>
<rect width="2.56626" height="2.56626" transform="translate(18.1084 11.28)" fill="#A47971"/>
<rect width="2.56626" height="2.56626" transform="translate(20.6748 12.9907)" fill="#A47971"/>
<rect width="2.56626" height="2.56626" transform="translate(25.8076 15.5569)" fill="#A47971"/>
<rect width="2.56626" height="2.56626" transform="translate(28.374 15.5569)" fill="#A47971"/>
<rect width="2.56626" height="2.56626" transform="translate(30.3701 13.562)" fill="#A47971"/>
<rect width="2.56626" height="2.56626" transform="translate(32.9365 15.5569)" fill="#A47971"/>
<rect width="2.56626" height="2.56626" transform="translate(35.2168 13.562)" fill="#A47971"/>
<rect width="2.56626" height="2.56626" transform="translate(40.3496 13.562)" fill="#A47971"/>
<rect width="2.56626" height="2.56626" transform="translate(37.7832 15.842)" fill="#A47971"/>
<rect width="2.56626" height="2.56626" transform="translate(35.2168 15.5569)" fill="#A47971"/>
<rect width="2.56626" height="2.56626" transform="translate(40.3496 15.5569)" fill="#A47971"/>
<rect width="2.56626" height="2.56626" transform="translate(42.3457 15.5569)" fill="#A47971"/>
<rect width="2.56626" height="2.56626" transform="translate(23.2412 12.9907)" fill="#A47971"/>
<rect width="2.56626" height="2.56626" transform="translate(49.7588 13.562)" fill="#A47971"/>
<rect width="2.56626" height="2.56626" transform="translate(47.4785 13.562)" fill="#A47971"/>
<rect width="2.56626" height="2.56626" transform="translate(44.9121 15.5569)" fill="#A47971"/>
<rect width="2.56626" height="2.56626" transform="translate(47.4785 15.842)" fill="#A47971"/>
<rect width="2.56626" height="2.56626" transform="translate(35.2168 40.3616)" fill="#7A5751"/>
<rect width="2.56626" height="2.56626" transform="translate(32.6504 42.9277)" fill="#7A5751"/>
<rect width="2.56626" height="2.56626" transform="translate(25.5225 46.6343)" fill="#7A5751"/>
<rect width="2.56626" height="2.56626" transform="translate(30.3701 51.1963)" fill="#7A5751"/>
<rect width="2.56626" height="2.56626" transform="translate(27.8037 60.3196)" fill="#C9968D"/>
<rect width="2.56626" height="2.56626" transform="translate(27.8037 62.0308)" fill="#C9968D"/>
<rect width="2.56626" height="2.56626" transform="translate(25.5225 62.3157)" fill="#C9968D"/>
<rect width="2.56626" height="2.56626" transform="translate(27.8037 57.7537)" fill="#7A5751"/>
<rect width="2.56626" height="2.56626" transform="translate(30.3701 60.0356)" fill="#7A5751"/>
<rect width="2.56626" height="2.56626" transform="translate(30.3701 62.5996)" fill="#7A5751"/>
<rect width="2.56626" height="2.56626" transform="translate(28.0889 64.5964)" fill="#7A5751"/>
<rect width="2.56626" height="2.56626" transform="translate(25.5225 64.5964)" fill="#7A5751"/>
<rect width="2.56626" height="2.56626" transform="translate(22.9561 62.3157)" fill="#7A5751"/>
<rect width="2.56626" height="2.56626" transform="matrix(-1 0 0 1 45.1963 60.3196)" fill="#C9968D"/>
<rect width="2.56626" height="2.56626" transform="matrix(-1 0 0 1 45.1963 62.0308)" fill="#C9968D"/>
<rect width="2.56626" height="2.56626" transform="matrix(-1 0 0 1 47.4775 62.3157)" fill="#C9968D"/>
<rect width="2.56626" height="2.56626" transform="matrix(-1 0 0 1 45.1963 57.7537)" fill="#7A5751"/>
<rect width="2.56626" height="2.56626" transform="matrix(-1 0 0 1 42.6309 60.0356)" fill="#7A5751"/>
<rect width="2.56626" height="2.56626" transform="matrix(-1 0 0 1 42.6299 62.5996)" fill="#7A5751"/>
<rect width="2.56626" height="2.56626" transform="matrix(-1 0 0 1 44.9111 64.5964)" fill="#7A5751"/>
<rect width="2.56626" height="2.56626" transform="matrix(-1 0 0 1 47.4775 64.5964)" fill="#7A5751"/>
<rect width="2.56626" height="2.56626" transform="matrix(-1 0 0 1 50.0439 62.3157)" fill="#7A5751"/>
<rect width="2.56626" height="2.56626" transform="translate(32.9365 51.1963)" fill="#7A5751"/>
<rect width="2.56626" height="2.56626" transform="translate(35.502 48.6301)" fill="#7A5751"/>
<rect width="2.56626" height="2.56626" transform="translate(38.0684 51.1963)" fill="#7A5751"/>
<rect width="2.56626" height="2.56626" transform="translate(35.502 51.1963)" fill="#FF9898"/>
<rect width="2.56626" height="2.56626" transform="translate(40.6348 51.1963)" fill="#7A5751"/>
<rect width="2.56626" height="2.56626" transform="translate(45.4814 46.6343)" fill="#7A5751"/>
<rect width="2.56626" height="2.56626" transform="translate(37.7832 42.9277)" fill="#7A5751"/>
<rect width="2.56626" height="2.56626" transform="translate(23.2412 71.1531)" fill="#614540"/>
<rect width="2.56626" height="2.56626" transform="translate(33.5059 71.1531)" fill="#614540"/>
<rect width="2.56626" height="2.56626" transform="translate(43.7715 71.1531)" fill="#614540"/>
<rect width="2.56626" height="2.56626" transform="translate(28.374 71.1531)" fill="#614540"/>
<rect width="2.56626" height="2.56626" transform="translate(38.6387 71.1531)" fill="#614540"/>
<rect width="2.56626" height="2.56626" transform="translate(48.9033 71.1531)" fill="#614540"/>
<rect width="2.56626" height="2.56626" transform="translate(25.8076 71.1531)" fill="#614540"/>
<rect width="2.56626" height="2.56626" transform="translate(36.0723 71.1531)" fill="#614540"/>
<rect width="2.56626" height="2.56626" transform="translate(46.3379 71.1531)" fill="#614540"/>
<rect width="2.56626" height="2.56626" transform="translate(20.6748 71.1531)" fill="#614540"/>
<rect width="2.56626" height="2.56626" transform="translate(30.9395 71.1531)" fill="#614540"/>
<rect width="2.56626" height="2.56626" transform="translate(41.2051 71.1531)" fill="#614540"/>
<rect width="2.56626" height="2.56626" transform="translate(51.4697 71.1531)" fill="#614540"/>
<rect width="2.56616" height="2.56626" transform="translate(44.541 27.5325)" fill="#EF4444"/>
<rect width="2.56616" height="2.56626" transform="translate(44.541 48.0596)" fill="#EF4444"/>
<rect width="2.56616" height="2.56626" transform="translate(47.1064 27.5325)" fill="#EF4444"/>
<rect width="2.56616" height="2.56626" transform="translate(47.1064 48.0596)" fill="#EF4444"/>
<rect width="2.56616" height="2.56626" transform="translate(49.6729 27.5325)" fill="#EF4444"/>
<rect width="2.56616" height="2.56626" transform="translate(49.6729 48.0596)" fill="#EF4444"/>
<rect width="2.56616" height="2.56626" transform="translate(52.2383 27.5325)" fill="#EF4444"/>
<rect width="2.56616" height="2.56626" transform="translate(52.2383 48.0596)" fill="#EF4444"/>
<rect width="2.56616" height="2.56626" transform="translate(54.8037 27.5325)" fill="#EF4444"/>
<rect width="2.56616" height="2.56626" transform="translate(54.8037 48.0596)" fill="#EF4444"/>
<rect width="2.56616" height="2.56626" transform="translate(57.3701 45.4934)" fill="#EF4444"/>
<rect width="2.56616" height="2.56626" transform="translate(57.3701 30.0977)" fill="#EF4444"/>
<rect width="2.56616" height="2.56626" transform="translate(59.9355 32.6628)" fill="#EF4444"/>
<rect width="2.56616" height="2.56626" transform="translate(39.4092 32.6628)" fill="#EF4444"/>
<rect width="2.56616" height="2.56626" transform="translate(41.9746 30.0977)" fill="#EF4444"/>
<rect width="2.56616" height="2.56626" transform="translate(41.9746 32.6628)" fill="#FFCECE"/>
<rect width="2.56616" height="2.56626" transform="translate(44.541 30.0977)" fill="#FFCECE"/>
<rect width="2.56616" height="2.56626" transform="translate(41.9746 42.9272)" fill="#FFCECE"/>
<rect width="2.56616" height="2.56626" transform="translate(44.541 45.4934)" fill="#FFCECE"/>
<rect width="2.56616" height="2.56626" transform="translate(54.8037 45.4934)" fill="#FFCECE"/>
<rect width="2.56616" height="2.56626" transform="translate(57.3701 42.9272)" fill="#FFCECE"/>
<rect width="2.56616" height="2.56626" transform="translate(57.3701 32.6628)" fill="#FFCECE"/>
<rect width="2.56616" height="2.56626" transform="translate(54.8037 30.0977)" fill="#FFCECE"/>
<rect width="2.56616" height="2.56626" transform="translate(59.9365 35.23)" fill="#EF4444"/>
<rect width="2.56616" height="2.56626" transform="translate(39.4092 35.23)" fill="#EF4444"/>
<rect width="2.56616" height="2.56626" transform="translate(59.9365 37.7952)" fill="#EF4444"/>
<rect width="2.56616" height="2.56626" transform="translate(39.4092 37.7952)" fill="#EF4444"/>
<rect width="2.56616" height="2.56626" transform="translate(59.9355 40.3611)" fill="#EF4444"/>
<rect width="2.56616" height="2.56626" transform="translate(39.4092 40.3611)" fill="#EF4444"/>
<rect width="2.56616" height="2.56626" transform="translate(59.9355 42.9272)" fill="#EF4444"/>
<rect width="2.56616" height="2.56626" transform="translate(39.4092 42.9272)" fill="#EF4444"/>
<rect width="2.56616" height="2.56626" transform="translate(41.9746 45.4934)" fill="#EF4444"/>
<rect width="2.56618" height="2.56626" transform="translate(15.542 27.5327)" fill="#EF4444"/>
<rect width="2.56618" height="2.56626" transform="translate(15.542 48.0598)" fill="#EF4444"/>
<rect width="2.56618" height="2.56626" transform="translate(18.1074 27.5327)" fill="#EF4444"/>
<rect width="2.56618" height="2.56626" transform="translate(18.1074 48.0598)" fill="#EF4444"/>
<rect width="2.56618" height="2.56626" transform="translate(20.6738 27.5327)" fill="#EF4444"/>
<rect width="2.56618" height="2.56626" transform="translate(20.6738 48.0598)" fill="#EF4444"/>
<rect width="2.56618" height="2.56626" transform="translate(23.2393 27.5327)" fill="#EF4444"/>
<rect width="2.56618" height="2.56626" transform="translate(23.2393 48.0598)" fill="#EF4444"/>
<rect width="2.56618" height="2.56626" transform="translate(25.8057 27.5327)" fill="#EF4444"/>
<rect width="2.56618" height="2.56626" transform="translate(25.8057 48.0598)" fill="#EF4444"/>
<rect width="2.56618" height="2.56626" transform="translate(28.3711 45.4937)" fill="#EF4444"/>
<rect width="2.56618" height="2.56626" transform="translate(28.3711 30.0979)" fill="#EF4444"/>
<rect width="2.56618" height="2.56626" transform="translate(30.9375 32.6631)" fill="#EF4444"/>
<rect width="2.56618" height="2.56626" transform="translate(33.5029 35.2302)" fill="#EF4444"/>
<rect width="2.56618" height="2.56626" transform="translate(36.0693 35.2302)" fill="#EF4444"/>
<rect width="2.56618" height="2.56626" transform="translate(38.0645 35.2302)" fill="#EF4444"/>
<rect width="2.56618" height="2.56626" transform="translate(10.4102 32.6631)" fill="#EF4444"/>
<rect width="2.56618" height="2.56626" transform="translate(12.9756 30.0979)" fill="#EF4444"/>
<rect width="2.56618" height="2.56626" transform="translate(12.9756 32.6631)" fill="#FFCECE"/>
<rect width="2.56618" height="2.56626" transform="translate(15.542 30.0979)" fill="#FFCECE"/>
<rect width="2.56618" height="2.56626" transform="translate(12.9756 42.9275)" fill="#FFCECE"/>
<rect width="2.56618" height="2.56626" transform="translate(15.542 45.4937)" fill="#FFCECE"/>
<rect width="2.56618" height="2.56626" transform="translate(25.8057 45.4937)" fill="#FFCECE"/>
<rect width="2.56618" height="2.56626" transform="translate(28.3711 42.9275)" fill="#FFCECE"/>
<rect width="2.56618" height="2.56626" transform="translate(28.3711 32.6631)" fill="#FFCECE"/>
<rect width="2.56618" height="2.56626" transform="translate(25.8057 30.0979)" fill="#FFCECE"/>
<rect width="2.56618" height="2.56626" transform="translate(30.9375 35.2302)" fill="#EF4444"/>
<rect width="2.56618" height="2.56626" transform="translate(10.4102 35.2302)" fill="#EF4444"/>
<rect width="2.56618" height="2.56626" transform="translate(30.9375 37.7954)" fill="#EF4444"/>
<rect width="2.56618" height="2.56626" transform="translate(10.4102 37.7954)" fill="#EF4444"/>
<rect width="2.56618" height="2.56626" transform="translate(30.9375 40.3616)" fill="#EF4444"/>
<rect width="2.56618" height="2.56626" transform="translate(10.4102 40.3616)" fill="#EF4444"/>
<rect width="2.56618" height="2.56626" transform="translate(30.9375 42.9275)" fill="#EF4444"/>
<rect width="2.56618" height="2.56626" transform="translate(10.4102 42.9275)" fill="#EF4444"/>
<rect width="2.56618" height="2.56626" transform="translate(12.9756 45.4937)" fill="#EF4444"/>
</g>
<rect x="1" y="1" width="70" height="70" rx="35" stroke="#00770B" stroke-width="2"/>
<defs>
<clipPath id="clip0_1955_13847">
<rect width="72" height="72" rx="36" fill="white"/>
</clipPath>
<clipPath id="clip1_1955_13847">
<rect width="7.12851" height="7.12851" fill="white" transform="translate(32.6504 26.9617)"/>
</clipPath>
<clipPath id="clip2_1955_13847">
<rect width="4.2771" height="4.2771" fill="white" transform="translate(30.6553 34.0898)"/>
</clipPath>
<clipPath id="clip3_1955_13847">
<rect width="7.12851" height="7.12851" fill="white" transform="translate(37.498 33.2334)"/>
</clipPath>
<clipPath id="clip4_1955_13847">
<rect width="0.570281" height="4.2771" fill="white" transform="translate(44.627 30.9536)"/>
</clipPath>
<clipPath id="clip5_1955_13847">
<rect width="2.56626" height="2.56626" fill="white" transform="translate(54.0361 71.1531)"/>
</clipPath>
</defs>
</svg>
