<svg width="13" height="23" viewBox="0 0 13 23" fill="none" xmlns="http://www.w3.org/2000/svg">
<path d="M0.536634 9.90966L9.96997 0.492997C10.1249 0.336783 10.3092 0.212793 10.5123 0.128179C10.7154 0.0435641 10.9333 0 11.1533 0C11.3733 0 11.5912 0.0435641 11.7943 0.128179C11.9974 0.212793 12.1817 0.336783 12.3366 0.492997C12.6471 0.805268 12.8213 1.22769 12.8213 1.668C12.8213 2.10831 12.6471 2.53073 12.3366 2.843L4.08663 11.1763L12.3366 19.4263C12.6471 19.7386 12.8213 20.161 12.8213 20.6013C12.8213 21.0416 12.6471 21.4641 12.3366 21.7763C12.1823 21.9338 11.9982 22.0591 11.7951 22.1449C11.592 22.2308 11.3738 22.2754 11.1533 22.2763C10.9328 22.2754 10.7147 22.2308 10.5115 22.1449C10.3084 22.0591 10.1243 21.9338 9.96997 21.7763L0.536634 12.3597C0.36746 12.2036 0.232445 12.0142 0.1401 11.8033C0.0477544 11.5925 7.98152e-05 11.3648 7.98152e-05 11.1347C7.98152e-05 10.9045 0.0477544 10.6768 0.1401 10.466C0.232445 10.2552 0.36746 10.0657 0.536634 9.90966V9.90966Z" fill="black"/>
</svg>
