<svg width="30" height="30" viewBox="0 0 30 30" fill="none" xmlns="http://www.w3.org/2000/svg">
<path d="M14.1124 10.5751L7.04992 17.6501C6.93276 17.7663 6.83977 17.9045 6.77631 18.0569C6.71285 18.2092 6.68018 18.3726 6.68018 18.5376C6.68018 18.7026 6.71285 18.866 6.77631 19.0183C6.83977 19.1706 6.93276 19.3089 7.04992 19.4251C7.28413 19.6579 7.60094 19.7886 7.93117 19.7886C8.26141 19.7886 8.57822 19.6579 8.81242 19.4251L15.0624 13.2376L21.2499 19.4251C21.4841 19.6579 21.8009 19.7886 22.1312 19.7886C22.4614 19.7886 22.7782 19.6579 23.0124 19.4251C23.1305 19.3093 23.2245 19.1713 23.2889 19.0189C23.3532 18.8666 23.3867 18.703 23.3874 18.5376C23.3867 18.3722 23.3532 18.2086 23.2889 18.0563C23.2245 17.9039 23.1305 17.7659 23.0124 17.6501L15.9499 10.5751C15.8329 10.4482 15.6908 10.3469 15.5327 10.2777C15.3746 10.2084 15.2038 10.1727 15.0312 10.1727C14.8585 10.1727 14.6878 10.2084 14.5297 10.2777C14.3715 10.3469 14.2295 10.4482 14.1124 10.5751V10.5751Z" fill="#EFEFEF"/>
</svg>
