<svg width="8" height="14" viewBox="0 0 8 14" fill="none" xmlns="http://www.w3.org/2000/svg">
<path d="M0.32159 5.9458L5.98159 0.295798C6.07455 0.20207 6.18515 0.127676 6.30701 0.0769072C6.42887 0.0261385 6.55958 0 6.69159 0C6.8236 0 6.95431 0.0261385 7.07617 0.0769072C7.19803 0.127676 7.30863 0.20207 7.40159 0.295798C7.58784 0.483161 7.69238 0.736612 7.69238 1.0008C7.69238 1.26498 7.58784 1.51844 7.40159 1.7058L2.45159 6.7058L7.40159 11.6558C7.58784 11.8432 7.69238 12.0966 7.69238 12.3608C7.69238 12.625 7.58784 12.8784 7.40159 13.0658C7.30898 13.1603 7.19853 13.2355 7.07666 13.287C6.95478 13.3384 6.8239 13.3652 6.69159 13.3658C6.55928 13.3652 6.4284 13.3384 6.30653 13.287C6.18465 13.2355 6.0742 13.1603 5.98159 13.0658L0.32159 7.4158C0.220086 7.32216 0.139077 7.2085 0.0836697 7.08201C0.0282621 6.95551 -0.000342369 6.8189 -0.000342369 6.6808C-0.000342369 6.5427 0.0282621 6.40609 0.0836697 6.27959C0.139077 6.15309 0.220086 6.03944 0.32159 5.9458Z" fill="#999999"/>
</svg>
