<svg width="40" height="40" viewBox="0 0 40 40" fill="none" xmlns="http://www.w3.org/2000/svg">
<path d="M14.1001 18.8169L23.5334 9.40022C23.6884 9.24401 23.8727 9.12002 24.0758 9.03541C24.2789 8.95079 24.4968 8.90723 24.7168 8.90723C24.9368 8.90723 25.1546 8.95079 25.3577 9.03541C25.5608 9.12002 25.7452 9.24401 25.9001 9.40022C26.2105 9.71249 26.3848 10.1349 26.3848 10.5752C26.3848 11.0155 26.2105 11.438 25.9001 11.7502L17.6501 20.0836L25.9001 28.3336C26.2105 28.6458 26.3848 29.0682 26.3848 29.5086C26.3848 29.9489 26.2105 30.3713 25.9001 30.6836C25.7458 30.841 25.5617 30.9663 25.3586 31.0521C25.1554 31.138 24.9373 31.1826 24.7168 31.1836C24.4963 31.1826 24.2781 31.138 24.075 31.0521C23.8719 30.9663 23.6878 30.841 23.5334 30.6836L14.1001 21.2669C13.9309 21.1108 13.7959 20.9214 13.7036 20.7106C13.6112 20.4997 13.5636 20.2721 13.5636 20.0419C13.5636 19.8117 13.6112 19.584 13.7036 19.3732C13.7959 19.1624 13.9309 18.973 14.1001 18.8169Z" fill="white"/>
</svg>
