<svg width="38" height="38" viewBox="0 0 38 38" fill="none" xmlns="http://www.w3.org/2000/svg">
<path d="M12.6665 17.4167L7.9165 9.5L3.1665 17.4167" stroke="#68AB6E" stroke-width="3.33333" stroke-linecap="round" stroke-linejoin="round"/>
<path d="M7.9165 22.167C9.17628 22.167 10.3845 21.6665 11.2753 20.7758C12.1661 19.885 12.6665 18.6768 12.6665 17.417H3.1665C3.1665 18.6768 3.66695 19.885 4.55775 20.7758C5.44854 21.6665 6.65673 22.167 7.9165 22.167Z" stroke="#68AB6E" stroke-width="3.33333" stroke-linecap="round" stroke-linejoin="round"/>
<path d="M34.833 17.4167L30.083 9.5L25.333 17.4167" stroke="#68AB6E" stroke-width="3.33333" stroke-linecap="round" stroke-linejoin="round"/>
<path d="M30.083 22.167C31.3428 22.167 32.551 21.6665 33.4418 20.7758C34.3326 19.885 34.833 18.6768 34.833 17.417H25.333C25.333 18.6768 25.8335 19.885 26.7243 20.7758C27.615 21.6665 28.8232 22.167 30.083 22.167Z" stroke="#68AB6E" stroke-width="3.33333" stroke-linecap="round" stroke-linejoin="round"/>
<path d="M18.9998 4.75V33.25M7.9165 9.5H30.0832M30.0832 33.25H7.9165" stroke="#68AB6E" stroke-width="3.33333" stroke-linecap="round" stroke-linejoin="round"/>
</svg>
