<svg width="28" height="28" viewBox="0 0 28 28" fill="none" xmlns="http://www.w3.org/2000/svg">
<path d="M22.7917 18.5833H8.20833C7.93207 18.5833 7.66711 18.4736 7.47176 18.2782C7.27641 18.0829 7.16667 17.8179 7.16667 17.5417C7.16667 17.2654 7.27641 17.0004 7.47176 16.8051C7.66711 16.6097 7.93207 16.5 8.20833 16.5H19.0833C19.7798 16.5 20.4564 16.2674 21.0056 15.839C21.5548 15.4106 21.9451 14.811 22.1146 14.1354L23.8333 7.375C23.8723 7.22126 23.8757 7.06064 23.8432 6.90539C23.8107 6.75014 23.7432 6.60436 23.6458 6.47917C23.5445 6.35076 23.4144 6.24802 23.266 6.17925C23.1176 6.11048 22.9551 6.07762 22.7917 6.08333H7.95833C7.74342 5.47547 7.34576 4.94896 6.81986 4.57598C6.29396 4.203 5.66557 4.00181 5.02083 4H4.04167C3.7654 4 3.50045 4.10975 3.3051 4.3051C3.10975 4.50045 3 4.7654 3 5.04167C3 5.31793 3.10975 5.58289 3.3051 5.77824C3.50045 5.97359 3.7654 6.08333 4.04167 6.08333H5.02083C5.25879 6.0764 5.49193 6.15118 5.68146 6.29522C5.87099 6.43926 6.00547 6.64388 6.0625 6.875L6.125 7.375L7.92708 14.4167C7.09828 14.454 6.31824 14.819 5.75856 15.4314C5.19888 16.0438 4.90541 16.8535 4.94271 17.6823C4.98 18.5111 5.34501 19.2911 5.95744 19.8508C6.56986 20.4105 7.37953 20.704 8.20833 20.6667H8.39583C8.22452 21.1387 8.16947 21.645 8.23534 22.1428C8.30122 22.6406 8.48609 23.1152 8.77429 23.5264C9.06249 23.9376 9.44554 24.2733 9.89099 24.5051C10.3364 24.7368 10.8312 24.8578 11.3333 24.8578C11.8355 24.8578 12.3302 24.7368 12.7757 24.5051C13.2211 24.2733 13.6042 23.9376 13.8924 23.5264C14.1806 23.1152 14.3654 22.6406 14.4313 22.1428C14.4972 21.645 14.4422 21.1387 14.2708 20.6667H16.7292C16.5578 21.1387 16.5028 21.645 16.5687 22.1428C16.6346 22.6406 16.8194 23.1152 17.1076 23.5264C17.3958 23.9376 17.7789 24.2733 18.2243 24.5051C18.6698 24.7368 19.1645 24.8578 19.6667 24.8578C20.1688 24.8578 20.6636 24.7368 21.109 24.5051C21.5545 24.2733 21.9375 23.9376 22.2257 23.5264C22.5139 23.1152 22.6988 22.6406 22.7647 22.1428C22.8305 21.645 22.7755 21.1387 22.6042 20.6667H22.7917C23.0679 20.6667 23.3329 20.5569 23.5282 20.3616C23.7236 20.1662 23.8333 19.9013 23.8333 19.625C23.8333 19.3487 23.7236 19.0838 23.5282 18.8884C23.3329 18.6931 23.0679 18.5833 22.7917 18.5833ZM21.4583 8.16667L20.0938 13.625C20.0367 13.8561 19.9022 14.0607 19.7127 14.2048C19.5232 14.3488 19.29 14.4236 19.0521 14.4167H10.0625L8.5 8.16667H21.4583ZM11.3333 22.75C11.1273 22.75 10.9259 22.6889 10.7546 22.5744C10.5833 22.46 10.4498 22.2973 10.371 22.107C10.2921 21.9166 10.2715 21.7072 10.3117 21.5051C10.3519 21.3031 10.4511 21.1174 10.5968 20.9718C10.7424 20.8261 10.9281 20.7269 11.1301 20.6867C11.3322 20.6465 11.5416 20.6671 11.732 20.746C11.9223 20.8248 12.085 20.9583 12.1994 21.1296C12.3139 21.3009 12.375 21.5023 12.375 21.7083C12.375 21.9846 12.2653 22.2496 12.0699 22.4449C11.8746 22.6403 11.6096 22.75 11.3333 22.75ZM19.6667 22.75C19.4606 22.75 19.2592 22.6889 19.0879 22.5744C18.9166 22.46 18.7831 22.2973 18.7043 22.107C18.6255 21.9166 18.6048 21.7072 18.645 21.5051C18.6852 21.3031 18.7844 21.1174 18.9301 20.9718C19.0758 20.8261 19.2614 20.7269 19.4634 20.6867C19.6655 20.6465 19.875 20.6671 20.0653 20.746C20.2556 20.8248 20.4183 20.9583 20.5328 21.1296C20.6472 21.3009 20.7083 21.5023 20.7083 21.7083C20.7083 21.9846 20.5986 22.2496 20.4032 22.4449C20.2079 22.6403 19.9429 22.75 19.6667 22.75Z" fill="currentColor"/>
</svg>
