<svg width="28" height="28" viewBox="0 0 28 28" fill="none" xmlns="http://www.w3.org/2000/svg">
<path d="M13.8529 3.00057C12.1931 2.99757 10.5549 3.37599 9.06453 4.10662C7.57421 4.83726 6.27169 5.90057 5.25752 7.21448C4.24335 8.52839 3.54465 10.0578 3.21535 11.6846C2.88605 13.3114 2.93496 14.9921 3.35829 16.597C3.78163 18.2019 4.56807 19.688 5.65692 20.9407C6.74578 22.1935 8.10792 23.1792 9.63821 23.822C11.1685 24.4647 12.826 24.7472 14.4828 24.6477C16.1396 24.5482 17.7514 24.0694 19.1938 23.2481H19.2696H19.3238C21.4095 22.0608 23.0419 20.2145 23.9647 17.999C24.8876 15.7836 25.0486 13.3244 24.4226 11.0075C23.7966 8.69064 22.4189 6.64722 20.5059 5.19802C18.5929 3.74882 16.2528 2.9759 13.8529 3.00057ZM14.9363 5.24307C16.843 5.48487 18.6152 6.35359 19.9742 7.71262C21.3332 9.07166 22.202 10.8439 22.4438 12.7506H14.9363V5.24307ZM13.8529 22.5006C11.6586 22.4856 9.55173 21.6388 7.95737 20.1311C6.363 18.6235 5.3999 16.5671 5.26242 14.3771C5.12495 12.1871 5.82333 10.0264 7.21663 8.33118C8.60993 6.63594 10.5944 5.53234 12.7696 5.24307V13.8339C12.7739 13.9636 12.7995 14.0917 12.8454 14.2131V14.2997V14.3756L17.1788 21.8181C16.1277 22.268 14.9963 22.5001 13.8529 22.5006ZM19.0854 20.7239L15.7271 14.9172H22.4438C22.2979 16.0597 21.9258 17.1617 21.3492 18.1587C20.7725 19.1557 20.003 20.0277 19.0854 20.7239Z" fill="currentColor"/>
</svg>
