<svg width="12" height="12" viewBox="0 0 12 12" fill="none" xmlns="http://www.w3.org/2000/svg">
<path d="M7.12711 5.99854L10.5638 2.56936C10.7143 2.41884 10.7988 2.2147 10.7988 2.00183C10.7988 1.78896 10.7143 1.58482 10.5638 1.4343C10.4133 1.28378 10.2092 1.19922 9.99633 1.19922C9.7835 1.19922 9.57938 1.28378 9.42888 1.4343L6.0002 4.87147L2.57151 1.4343C2.42101 1.28378 2.21689 1.19922 2.00406 1.19922C1.79122 1.19922 1.5871 1.28378 1.43661 1.4343C1.28611 1.58482 1.20156 1.78896 1.20156 2.00183C1.20156 2.2147 1.28611 2.41884 1.43661 2.56936L4.87328 5.99854L1.43661 9.42771C1.3617 9.50202 1.30224 9.59043 1.26166 9.68783C1.22109 9.78524 1.2002 9.88972 1.2002 9.99524C1.2002 10.1008 1.22109 10.2052 1.26166 10.3027C1.30224 10.4001 1.3617 10.4885 1.43661 10.5628C1.5109 10.6377 1.5993 10.6972 1.69669 10.7377C1.79409 10.7783 1.89855 10.7992 2.00406 10.7992C2.10956 10.7992 2.21403 10.7783 2.31142 10.7377C2.40881 10.6972 2.49721 10.6377 2.57151 10.5628L6.0002 7.12561L9.42888 10.5628C9.50318 10.6377 9.59158 10.6972 9.68897 10.7377C9.78636 10.7783 9.89083 10.7992 9.99633 10.7992C10.1018 10.7992 10.2063 10.7783 10.3037 10.7377C10.4011 10.6972 10.4895 10.6377 10.5638 10.5628C10.6387 10.4885 10.6982 10.4001 10.7387 10.3027C10.7793 10.2052 10.8002 10.1008 10.8002 9.99524C10.8002 9.88972 10.7793 9.78524 10.7387 9.68783C10.6982 9.59043 10.6387 9.50202 10.5638 9.42771L7.12711 5.99854Z" fill="#999999"/>
</svg>
