<svg width="99" height="80" viewBox="0 0 99 80" fill="none" xmlns="http://www.w3.org/2000/svg">
<rect width="3.1157" height="3.1157" transform="translate(18.1704 38.5913) rotate(-13.8564)" fill="#CCCCCC"/>
<rect width="3.1157" height="3.1157" transform="translate(18.9187 41.6072) rotate(-13.8564)" fill="#CCCCCC"/>
<rect width="3.1157" height="3.1157" transform="translate(19.6636 44.6238) rotate(-13.8564)" fill="#CCCCCC"/>
<rect width="3.1157" height="3.1157" transform="translate(20.0361 46.1321) rotate(-13.8564)" fill="#CCCCCC"/>
<rect width="3.1157" height="3.1157" transform="translate(20.7068 48.8469) rotate(-13.8564)" fill="#7E7E7E"/>
<rect width="3.1157" height="3.1157" transform="translate(23.804 50.9639) rotate(-13.8564)" fill="#7E7E7E"/>
<rect width="3.1157" height="3.1157" transform="translate(24.4741 53.679) rotate(-13.8564)" fill="#7E7E7E"/>
<rect width="3.1157" height="3.1157" transform="translate(27.2043 53.0061) rotate(-13.8564)" fill="#7E7E7E"/>
<rect width="5.60826" height="5.60826" transform="translate(27.8032 55.4155) rotate(-13.8564)" fill="#7E7E7E"/>
<rect width="5.60826" height="5.60826" transform="translate(30.9004 57.5325) rotate(-13.8564)" fill="#7E7E7E"/>
<rect width="5.60826" height="5.60826" transform="translate(34.3008 59.5747) rotate(-13.8564)" fill="#7E7E7E"/>
<rect width="5.60826" height="5.60826" transform="translate(37.627 61.3154) rotate(-13.8564)" fill="#7E7E7E"/>
<rect width="10.3099" height="5.59296" transform="matrix(0.970958 -0.239249 0.23973 0.97084 66.4387 54.2231)" fill="#7E7E7E"/>
<rect width="10.3099" height="5.59296" transform="matrix(0.970958 -0.239249 0.23973 0.97084 68.2695 51.2119)" fill="#7E7E7E"/>
<rect width="10.3099" height="5.59296" transform="matrix(0.970958 -0.239249 0.23973 0.97084 70.3291 47.8242)" fill="#7E7E7E"/>
<rect width="10.3099" height="5.59296" transform="matrix(0.970958 -0.239249 0.23973 0.97084 72.3887 44.4365)" fill="#7E7E7E"/>
<rect width="5.31117" height="5.59296" transform="matrix(0.970958 -0.239249 0.23973 0.97084 78.4028 37.5144)" fill="#7E7E7E"/>
<rect width="5.62359" height="18.6432" transform="matrix(0.970958 -0.239249 0.23973 0.97084 76.4348 19.1184)" fill="#7E7E7E"/>
<rect width="3.12422" height="8.38945" transform="matrix(0.970958 -0.239249 0.23973 0.97084 74.8652 14.0649)" fill="#7E7E7E"/>
<rect width="29.9925" height="5.90369" transform="matrix(0.970958 -0.239249 0.23973 0.97084 42.9182 62.5786)" fill="#7E7E7E"/>
<rect width="19.0577" height="4.6608" transform="matrix(0.970958 -0.239249 0.23973 0.97084 49.1953 65.1924)" fill="#7E7E7E"/>
<rect width="3.1157" height="3.1157" transform="translate(21.7874 44.1006) rotate(-13.8564)" fill="#CCCCCC"/>
<rect width="3.1157" height="3.1157" transform="translate(24.7354 45.6143) rotate(-13.8564)" fill="#CCCCCC"/>
<rect width="3.1157" height="3.1157" transform="translate(22.761 46.7407) rotate(-13.8564)" fill="#CCCCCC"/>
<rect width="3.1157" height="3.1157" transform="translate(23.1335 48.249) rotate(-13.8564)" fill="#CCCCCC"/>
<rect width="3.1157" height="3.1157" transform="translate(25.2568 47.7258) rotate(-13.8564)" fill="#CCCCCC"/>
<rect width="3.1157" height="3.1157" transform="translate(25.927 50.4407) rotate(-13.8564)" fill="#CCCCCC"/>
<rect width="3.1157" height="3.1157" transform="translate(28.9609 49.6934) rotate(-13.8564)" fill="#CCCCCC"/>
<rect width="3.1157" height="3.1157" transform="translate(31.3875 49.0952) rotate(-13.8564)" fill="#CCCCCC"/>
<rect width="3.1157" height="3.1157" transform="translate(29.2534 52.1812) rotate(-13.8564)" fill="#CCCCCC"/>
<rect width="3.1157" height="3.1157" transform="translate(31.9832 51.5085) rotate(-13.8564)" fill="#CCCCCC"/>
<rect width="3.1157" height="3.1157" transform="translate(32.6536 54.2234) rotate(-13.8564)" fill="#CCCCCC"/>
<rect width="3.1157" height="3.1157" transform="translate(35.1658 51.3645) rotate(-13.8564)" fill="#CCCCCC"/>
<rect width="3.1157" height="3.1157" transform="translate(38.1992 50.6169) rotate(-13.8564)" fill="#CCCCCC"/>
<rect width="3.1157" height="3.1157" transform="translate(42.1145 2.61377) rotate(-13.8564)" fill="#CCCCCC"/>
<rect width="3.1157" height="3.1157" transform="translate(45.1477 1.86646) rotate(-13.8564)" fill="#CCCCCC"/>
<rect width="3.1157" height="3.1157" transform="translate(48.1812 1.1189) rotate(-13.8564)" fill="#CCCCCC"/>
<rect width="3.1157" height="3.1157" transform="translate(49.698 0.746094) rotate(-13.8564)" fill="#CCCCCC"/>
<rect width="3.1157" height="3.1157" transform="translate(47.9407 4.05469) rotate(-13.8564)" fill="#CCCCCC"/>
<rect width="3.1157" height="3.1157" transform="translate(50.3674 3.45679) rotate(-13.8564)" fill="#CCCCCC"/>
<rect width="3.1157" height="3.1157" transform="translate(53.4011 2.70923) rotate(-13.8564)" fill="#CCCCCC"/>
<rect width="3.1157" height="3.1157" transform="translate(55.5244 2.18604) rotate(-13.8564)" fill="#CCCCCC"/>
<rect width="3.1157" height="3.1157" transform="translate(53.6934 5.19727) rotate(-13.8564)" fill="#CCCCCC"/>
<rect width="3.1157" height="3.1157" transform="translate(56.1206 4.59937) rotate(-13.8564)" fill="#CCCCCC"/>
<rect width="3.1157" height="3.1157" transform="translate(56.7908 7.31421) rotate(-13.8564)" fill="#CCCCCC"/>
<rect width="3.1157" height="3.1157" transform="translate(58.8506 3.92651) rotate(-13.8564)" fill="#CCCCCC"/>
<rect width="3.1157" height="3.1157" transform="translate(61.2776 3.32861) rotate(-13.8564)" fill="#CCCCCC"/>
<rect width="3.1157" height="3.1157" transform="translate(60.4946 9.28149) rotate(-13.8564)" fill="#CCCCCC"/>
<rect width="3.1157" height="3.1157" transform="translate(63.5281 8.53418) rotate(-13.8564)" fill="#CCCCCC"/>
<rect width="3.12422" height="7.76801" transform="matrix(0.970958 -0.239249 0.23973 0.97084 65.1157 8.46704)" fill="#CCCCCC"/>
<rect width="5.31117" height="2.48576" transform="matrix(0.970958 -0.239249 0.23973 0.97084 59.5918 6.948)" fill="#CCCCCC"/>
<rect width="3.1157" height="3.1157" transform="translate(64.7524 5.67236) rotate(-13.8564)" fill="#CCCCCC"/>
<rect width="3.1157" height="3.1157" transform="translate(67.7754 7.48779) rotate(-13.8564)" fill="#CCCCCC"/>
<rect width="3.1157" height="3.1157" transform="translate(70.8723 9.60474) rotate(-13.8564)" fill="#CCCCCC"/>
<rect width="3.1157" height="3.1157" transform="translate(71.6172 12.6213) rotate(-13.8564)" fill="#CCCCCC"/>
<rect width="3.1157" height="3.1157" transform="translate(63.592 11.3987) rotate(-13.8564)" fill="#CCCCCC"/>
<rect width="3.1157" height="3.1157" transform="translate(64.1133 13.5103) rotate(-13.8564)" fill="#CCCCCC"/>
<rect width="3.1157" height="3.1157" transform="translate(67.5884 15.854) rotate(-13.8564)" fill="#CCCCCC"/>
<rect width="3.12422" height="29.2077" transform="matrix(0.970958 -0.239249 0.23973 0.97084 68.2551 18.574)" fill="#CCCCCC"/>
<rect width="3.12422" height="22.6826" transform="matrix(0.970958 -0.239249 0.23973 0.97084 72.3586 15.6428)" fill="#CCCCCC"/>
<rect width="3.12422" height="34.4899" transform="matrix(0.970958 -0.239249 0.23973 0.97084 68.5166 10.5093)" fill="#CCCCCC"/>
<rect width="3.12422" height="10.5645" transform="matrix(0.970958 -0.239249 0.23973 0.97084 76.7275 21.6064)" fill="#CCCCCC"/>
<rect width="3.12422" height="24.2362" transform="matrix(0.970958 -0.239249 0.23973 0.97084 67.313 26.4866)" fill="#CCCCCC"/>
<rect width="3.12422" height="16.1575" transform="matrix(0.970958 -0.239249 0.23973 0.97084 66.8228 34.9275)" fill="#CCCCCC"/>
<rect width="3.12422" height="16.1575" transform="matrix(0.970958 -0.239249 0.23973 0.97084 64.7629 38.3152)" fill="#CCCCCC"/>
<rect width="3.12422" height="15.8467" transform="matrix(0.970958 -0.239249 0.23973 0.97084 60.2766 42.3008)" fill="#CCCCCC"/>
<rect width="3.12422" height="13.361" transform="matrix(0.970958 -0.239249 0.23973 0.97084 62.3999 41.7776)" fill="#CCCCCC"/>
<rect width="3.1157" height="3.1157" transform="translate(41.2329 49.8694) rotate(-13.8564)" fill="#CCCCCC"/>
<rect width="3.1157" height="3.1157" transform="translate(42.446 49.5706) rotate(-13.8564)" fill="#CCCCCC"/>
<rect width="3.1157" height="3.1157" transform="translate(43.1165 52.2854) rotate(-13.8564)" fill="#CCCCCC"/>
<rect width="7.78924" height="7.78924" transform="translate(41.4426 55.252) rotate(-13.8564)" fill="#CCCCCC"/>
<rect width="15.9335" height="10.5645" transform="matrix(0.970958 -0.239249 0.23973 0.97084 46.072 51.2412)" fill="#CCCCCC"/>
<rect width="8.12296" height="2.79648" transform="matrix(0.970958 -0.239249 0.23973 0.97084 51.0315 60.8997)" fill="#CCCCCC"/>
<rect width="8.12296" height="2.79648" transform="matrix(0.970958 -0.239249 0.23973 0.97084 55.7898 46.2866)" fill="#CCCCCC"/>
<rect width="3.1157" height="3.1157" transform="translate(35.9106 54.3809) rotate(-13.8564)" fill="#CCCCCC"/>
<rect width="3.1157" height="3.1157" transform="translate(35.9797 55.9641) rotate(-13.8564)" fill="#CCCCCC"/>
<rect width="3.1157" height="3.1157" transform="translate(38.9441 53.6335) rotate(-13.8564)" fill="#CCCCCC"/>
<rect width="3.1157" height="3.1157" transform="translate(41.9778 52.886) rotate(-13.8564)" fill="#CCCCCC"/>
<rect width="3.1157" height="3.1157" transform="translate(39.0078 56.498) rotate(-13.8564)" fill="#CCCCCC"/>
<rect width="3.1157" height="3.1157" transform="translate(39.3804 58.0063) rotate(-13.8564)" fill="#CCCCCC"/>
<rect width="3.1157" height="3.1157" transform="translate(42.0413 55.7505) rotate(-13.8564)" fill="#CCCCCC"/>
<rect width="3.1157" height="3.1157" transform="translate(42.4031 59.8215) rotate(-13.8564)" fill="#CCCCCC"/>
<rect width="3.1157" height="3.1157" transform="translate(42.4883 57.5605) rotate(-13.8564)" fill="#CCCCCC"/>
<rect width="4.55879" height="4.55394" transform="translate(86.929 49.1494)" fill="#C2CADD"/>
<rect width="5.16663" height="4.55394" transform="translate(81.7625 53.7034)" fill="#C2CADD"/>
<rect width="9.11759" height="4.55394" transform="translate(86.929 53.7034)" fill="white"/>
<rect width="19.4509" height="4.55394" transform="translate(76.5957 58.2573)" fill="#C2CADD"/>
<rect width="13.6764" height="4.55394" transform="translate(30.918 57.0767)" fill="white"/>
<rect width="9.11759" height="4.55394" transform="translate(30.918 52.5227)" fill="#C2CADD"/>
<rect width="4.5588" height="4.55394" transform="translate(26.3591 57.0767)" fill="#C2CADD"/>
<rect width="4.5588" height="4.55394" transform="translate(21.8003 61.6306)" fill="#C2CADD"/>
<rect width="36.1854" height="4.55394" transform="translate(17.2415 66.1846)" fill="#C2CADD"/>
<rect width="27.0678" height="4.55394" transform="translate(26.3591 61.6306)" fill="white"/>
<rect width="9.11759" height="4.55394" transform="translate(53.4268 66.1846)" fill="white"/>
<rect width="8.44094" height="2.81065" transform="translate(78.6663 23.0515)" fill="white"/>
<rect width="5.62729" height="2.81065" transform="translate(78.6663 20.241)" fill="#C2CADD"/>
<rect width="2.81364" height="2.81065" transform="translate(75.8528 23.0518)" fill="#C2CADD"/>
<rect width="2.81364" height="2.81065" transform="translate(73.0391 25.8623)" fill="#C2CADD"/>
<rect width="22.3333" height="2.81065" transform="translate(70.2253 28.6729)" fill="#C2CADD"/>
<rect width="16.706" height="2.81065" transform="translate(75.8528 25.8623)" fill="white"/>
<rect width="5.62729" height="2.81065" transform="translate(92.5588 28.6729)" fill="white"/>
<rect width="13.6764" height="4.55394" transform="translate(13.6765 66.3381)" fill="white"/>
<rect width="9.11759" height="4.55394" transform="translate(13.6765 61.7842)" fill="#C2CADD"/>
<rect width="4.5588" height="4.55394" transform="translate(9.11768 66.3381)" fill="#C2CADD"/>
<rect width="4.5588" height="4.55394" transform="translate(4.55884 70.8921)" fill="#C2CADD"/>
<rect width="36.1854" height="4.55394" transform="translate(0 75.446)" fill="#C2CADD"/>
<rect width="27.0678" height="4.55394" transform="translate(9.11768 70.8921)" fill="white"/>
<rect width="9.11759" height="4.55394" transform="translate(36.1855 75.446)" fill="white"/>
</svg>
