<svg width="94" height="94" viewBox="0 0 94 94" fill="none" xmlns="http://www.w3.org/2000/svg">
<g clip-path="url(#clip0_3132_99389)">
<rect width="93.666" height="93.666" rx="4.6833" fill="#E5E5E5"/>
<rect width="93.666" height="93.666" rx="4.6833" fill="black" fill-opacity="0.2"/>
<rect width="94" height="94" fill="url(#paint0_linear_3132_99389)"/>
<rect width="2.79802" height="2.79802" transform="translate(29.4121 16.832)" fill="#A47971"/>
<rect width="2.79802" height="2.79802" transform="translate(26.6143 19.6299)" fill="#A47971"/>
<rect width="2.79802" height="2.79802" transform="translate(23.8164 22.428)" fill="#A47971"/>
<rect width="2.79802" height="2.79802" transform="translate(23.8164 25.2261)" fill="#A47971"/>
<rect width="2.79802" height="2.79802" transform="translate(23.8164 28.0239)" fill="#A47971"/>
<rect width="2.79802" height="2.79802" transform="translate(18.2207 33.6201)" fill="#A47971"/>
<rect width="2.79802" height="2.79802" transform="translate(21.0186 33.6201)" fill="#A47971"/>
<rect width="2.79802" height="2.79802" transform="translate(23.8164 34.2419)" fill="#A47971"/>
<rect width="2.79802" height="2.79802" transform="translate(26.6143 32.0657)" fill="#A47971"/>
<rect width="2.79802" height="2.79802" transform="translate(29.4121 32.0657)" fill="#A47971"/>
<rect width="2.79802" height="2.79802" transform="translate(32.2109 32.0657)" fill="#A47971"/>
<rect width="2.79802" height="2.79802" transform="translate(35.0088 34.2419)" fill="#A47971"/>
<rect width="2.79802" height="2.79802" transform="translate(37.4961 36.729)" fill="white"/>
<rect width="2.79802" height="2.79802" transform="translate(37.4961 39.2161)" fill="white"/>
<rect width="2.79802" height="2.79802" transform="translate(37.4961 42.0142)" fill="white"/>
<rect width="2.79802" height="2.79802" transform="translate(37.4961 44.8123)" fill="white"/>
<rect width="2.79802" height="2.79802" transform="translate(35.0088 46.9885)" fill="white"/>
<rect width="2.79802" height="2.79802" transform="translate(34.6973 48.543)" fill="white"/>
<rect width="2.79802" height="2.79802" transform="translate(37.4961 48.543)" fill="white"/>
<rect width="2.79802" height="2.79802" transform="translate(37.4961 47.6101)" fill="white"/>
<rect width="2.79802" height="2.79802" transform="translate(37.4961 51.3408)" fill="white"/>
<rect width="2.79802" height="2.79802" transform="translate(40.2939 51.3408)" fill="white"/>
<rect width="2.79802" height="8.70496" transform="translate(39.6719 44.5012)" fill="white"/>
<rect width="9.63764" height="3.41981" transform="translate(42.1592 50.0974)" fill="white"/>
<rect width="4.66337" height="8.70496" transform="translate(50.8643 43.8794)" fill="white"/>
<rect width="2.79802" height="2.79802" transform="translate(42.7812 51.3408)" fill="white"/>
<rect width="2.79802" height="2.79802" transform="translate(48.377 51.3408)" fill="white"/>
<rect width="2.79802" height="2.79802" transform="translate(51.1748 51.3408)" fill="white"/>
<rect width="2.79802" height="2.79802" transform="translate(53.6621 51.3408)" fill="white"/>
<rect width="2.79802" height="2.79802" transform="translate(59.2578 51.3408)" fill="white"/>
<rect width="2.79802" height="2.79802" transform="translate(59.2578 56.3152)" fill="white"/>
<rect width="2.79802" height="2.79802" transform="translate(37.4961 53.5171)" fill="white"/>
<rect width="2.79802" height="2.79802" transform="translate(40.2939 53.5171)" fill="white"/>
<rect width="2.79802" height="2.79802" transform="translate(48.377 53.5171)" fill="white"/>
<rect width="2.79802" height="2.79802" transform="translate(42.7812 53.5171)" fill="white"/>
<rect width="2.79802" height="2.79802" transform="translate(51.1748 53.5171)" fill="white"/>
<rect width="2.79802" height="2.79802" transform="translate(59.2578 53.5171)" fill="white"/>
<rect width="2.79802" height="2.79802" transform="translate(53.6621 53.5171)" fill="white"/>
<rect width="2.79802" height="2.79802" transform="translate(59.2578 58.4915)" fill="white"/>
<rect width="2.79802" height="2.79802" transform="translate(18.5312 36.4182)" fill="#A47971"/>
<rect width="2.79802" height="2.79802" transform="translate(18.5312 39.2161)" fill="#A47971"/>
<rect width="2.79802" height="2.79802" transform="translate(18.2207 47.6101)" fill="white"/>
<rect width="2.79802" height="2.79802" transform="translate(21.0186 46.9885)" fill="white"/>
<rect width="2.79802" height="2.79802" transform="translate(23.5059 49.4756)" fill="white"/>
<rect width="2.79802" height="2.79802" transform="translate(26.3037 49.4756)" fill="white"/>
<rect width="2.79802" height="2.79802" transform="translate(29.1016 49.4756)" fill="white"/>
<rect width="2.79802" height="2.79802" transform="translate(31.8994 49.4756)" fill="white"/>
<rect width="2.79802" height="2.79802" transform="translate(31.8994 52.2737)" fill="white"/>
<rect width="2.79802" height="2.79802" transform="translate(31.8994 55.0715)" fill="white"/>
<rect width="2.79802" height="2.79802" transform="translate(34.3867 56.937)" fill="white"/>
<rect width="5.90694" height="4.97426" transform="translate(31.2773 57.5588)" fill="white"/>
<rect width="5.90694" height="4.97426" transform="translate(26.3037 57.5588)" fill="white"/>
<rect width="5.90694" height="4.97426" transform="translate(20.0859 64.0874)" fill="white"/>
<rect width="5.90694" height="4.97426" transform="translate(23.5059 73.4143)" fill="white"/>
<rect width="4.04159" height="7.77229" transform="translate(27.8584 68.1292)" fill="white"/>
<rect width="4.04159" height="4.66337" transform="translate(30.6562 71.238)" fill="white"/>
<rect width="6.52872" height="2.17624" transform="translate(34.6973 73.7251)" fill="white"/>
<rect width="6.52872" height="2.17624" transform="translate(37.1846 61.2896)" fill="white"/>
<rect width="4.04159" height="4.66337" transform="translate(40.2939 71.5488)" fill="white"/>
<rect width="2.79802" height="2.79802" transform="translate(37.1846 59.1133)" fill="white"/>
<rect width="2.79802" height="2.79802" transform="translate(39.9824 59.1133)" fill="white"/>
<rect width="2.79802" height="2.79802" transform="translate(42.7812 59.1133)" fill="white"/>
<rect width="2.79802" height="2.79802" transform="translate(45.5791 59.1133)" fill="white"/>
<rect width="2.79802" height="2.79802" transform="translate(48.377 59.1133)" fill="white"/>
<rect width="2.79802" height="2.79802" transform="translate(51.1748 59.1133)" fill="white"/>
<rect width="2.79802" height="2.79802" transform="translate(53.9727 59.1133)" fill="white"/>
<rect width="2.79802" height="2.79802" transform="translate(56.7705 59.1133)" fill="white"/>
<rect width="2.79802" height="2.79802" transform="translate(56.7705 56.937)" fill="white"/>
<rect width="2.79802" height="2.79802" transform="translate(21.0186 49.7864)" fill="white"/>
<rect width="2.79802" height="2.79802" transform="translate(21.0186 53.2063)" fill="white"/>
<rect width="2.79802" height="2.79802" transform="translate(21.0186 51.9626)" fill="white"/>
<rect width="2.79802" height="2.79802" transform="translate(21.9512 51.9626)" fill="white"/>
<rect width="4.35248" height="4.35248" transform="translate(21.1738 54.1389)" fill="white"/>
<rect width="2.79802" height="2.79802" transform="translate(18.2207 50.4082)" fill="white"/>
<rect width="2.79802" height="2.79802" transform="translate(21.0186 56.0044)" fill="white"/>
<rect width="2.79802" height="2.79802" transform="translate(32.2109 16.832)" fill="#A47971"/>
<rect width="2.79802" height="2.79802" transform="translate(40.2939 20.2517)" fill="#A47971"/>
<rect width="2.79802" height="2.79802" transform="translate(43.0918 20.2517)" fill="#A47971"/>
<rect width="3.41981" height="3.41981" transform="translate(45.8896 22.1172)" fill="#A47971"/>
<rect width="2.79802" height="2.79802" transform="translate(50.2422 20.2517)" fill="#A47971"/>
<rect width="2.79802" height="2.79802" transform="translate(56.1494 27.0913)" fill="#A47971"/>
<rect width="2.79802" height="2.79802" transform="translate(53.6621 27.0913)" fill="#A47971"/>
<rect width="2.79802" height="2.79802" transform="translate(51.1748 25.2261)" fill="#A47971"/>
<rect width="2.79802" height="2.79802" transform="translate(48.999 24.6042)" fill="#A47971"/>
<rect width="2.79802" height="2.79802" transform="translate(43.4023 24.915)" fill="#A47971"/>
<rect width="2.79802" height="2.79802" transform="translate(35.0088 19.6299)" fill="#A47971"/>
<rect width="2.79802" height="2.79802" transform="translate(37.8066 19.6299)" fill="#A47971"/>
<rect width="2.79802" height="2.79802" transform="translate(40.2939 17.4536)" fill="#A47971"/>
<rect width="2.79802" height="2.79802" transform="translate(43.0918 19.6299)" fill="#A47971"/>
<rect width="2.79802" height="2.79802" transform="translate(40.2939 22.428)" fill="#A47971"/>
<rect width="2.79802" height="2.79802" transform="translate(43.0918 22.428)" fill="#A47971"/>
<rect width="2.79802" height="2.79802" transform="translate(46.2002 24.6042)" fill="#A47971"/>
<rect width="2.79802" height="2.79802" transform="translate(48.0664 19.9409)" fill="#A47971"/>
<rect width="2.79802" height="2.79802" transform="translate(45.5791 19.9409)" fill="#A47971"/>
<rect width="2.79802" height="2.79802" transform="translate(50.2422 22.428)" fill="#A47971"/>
<rect width="2.79802" height="2.79802" transform="translate(47.7549 22.428)" fill="#A47971"/>
<rect width="2.79802" height="2.79802" transform="translate(56.1494 29.2676)" fill="#A47971"/>
<rect width="2.79802" height="2.79802" transform="translate(56.1494 31.7546)" fill="#A47971"/>
<rect width="2.79802" height="2.79802" transform="translate(53.6621 29.2676)" fill="#A47971"/>
<rect width="2.79802" height="2.79802" transform="translate(51.1748 27.4023)" fill="#A47971"/>
<rect width="2.79802" height="2.79802" transform="translate(48.999 26.7805)" fill="#A47971"/>
<rect width="2.79802" height="2.79802" transform="translate(79.7773 19.9409)" fill="#A47971"/>
<rect width="2.79802" height="2.79802" transform="translate(66.7197 24.6042)" fill="#A47971"/>
<rect width="2.79802" height="2.79802" transform="translate(66.7197 27.4023)" fill="#A47971"/>
<rect width="2.79802" height="2.79802" transform="translate(66.7197 29.8894)" fill="#A47971"/>
<rect width="2.79802" height="2.79802" transform="translate(69.5176 32.0657)" fill="#A47971"/>
<rect width="2.79802" height="2.79802" transform="translate(72.0049 34.5527)" fill="#A47971"/>
<rect width="2.79802" height="2.79802" transform="translate(69.5176 34.5527)" fill="#A47971"/>
<rect width="2.79802" height="2.79802" transform="translate(67.0303 32.3765)" fill="#A47971"/>
<rect width="2.79802" height="2.79802" transform="translate(69.5176 36.4182)" fill="#A47971"/>
<rect width="2.79802" height="2.79802" transform="translate(67.0303 34.2419)" fill="#A47971"/>
<rect width="2.79802" height="2.79802" transform="translate(63.6104 32.0657)" fill="#A47971"/>
<rect width="2.79802" height="2.79802" transform="translate(65.165 32.0657)" fill="#A47971"/>
<rect width="2.79802" height="2.79802" transform="translate(63.9219 22.428)" fill="#A47971"/>
<rect width="2.79802" height="2.79802" transform="translate(58.6367 24.915)" fill="#A47971"/>
<rect width="2.79802" height="2.79802" transform="translate(61.123 24.915)" fill="#A47971"/>
<rect width="2.79802" height="2.79802" transform="translate(16.0439 15.2776)" fill="#A47971"/>
<rect width="2.79802" height="2.79802" transform="translate(18.8418 15.2776)" fill="#A47971"/>
<rect width="2.79802" height="2.79802" transform="translate(21.6406 15.2776)" fill="#A47971"/>
<rect width="2.79802" height="2.79802" transform="translate(23.8164 15.2776)" fill="#A47971"/>
<rect width="2.79802" height="2.79802" transform="translate(26.6143 15.2776)" fill="#A47971"/>
<rect width="2.79802" height="2.79802" transform="translate(63.9219 24.915)" fill="#A47971"/>
<rect width="2.79802" height="2.79802" transform="translate(63.9219 15.2776)" fill="#A47971"/>
<rect width="2.79802" height="2.79802" transform="translate(66.7197 15.2776)" fill="#A47971"/>
<rect width="2.79802" height="2.79802" transform="translate(69.5176 15.2776)" fill="#A47971"/>
<rect width="2.79802" height="2.79802" transform="translate(72.3154 15.2776)" fill="#A47971"/>
<rect width="2.79802" height="2.79802" transform="translate(74.8027 15.2776)" fill="#A47971"/>
<rect width="2.79802" height="2.79802" transform="translate(61.123 17.7646)" fill="#A47971"/>
<rect width="2.79802" height="2.79802" transform="translate(58.6367 27.4023)" fill="#A47971"/>
<rect width="2.79802" height="2.79802" transform="translate(55.8379 19.9409)" fill="#A47971"/>
<rect width="2.79802" height="2.79802" transform="translate(53.04 19.9409)" fill="#A47971"/>
<rect width="2.79802" height="2.79802" transform="translate(61.123 27.4023)" fill="#A47971"/>
<rect width="2.79802" height="2.79802" transform="translate(16.0439 19.6299)" fill="#A47971"/>
<rect width="2.79802" height="2.79802" transform="translate(18.8418 19.6299)" fill="#A47971"/>
<rect width="2.79802" height="2.79802" transform="translate(21.6406 19.6299)" fill="#A47971"/>
<rect width="2.79802" height="2.79802" transform="translate(21.3291 22.1172)" fill="#A47971"/>
<rect width="2.79802" height="2.79802" transform="translate(63.9219 29.2676)" fill="#A47971"/>
<rect width="2.79802" height="2.79802" transform="translate(23.8164 19.6299)" fill="#A47971"/>
<rect width="2.79802" height="2.79802" transform="translate(63.9219 19.6299)" fill="#A47971"/>
<rect width="2.79802" height="2.79802" transform="translate(66.7197 19.6299)" fill="#A47971"/>
<rect width="2.79802" height="2.79802" transform="translate(66.7197 22.1172)" fill="#A47971"/>
<rect width="2.79802" height="2.79802" transform="translate(69.5176 19.6299)" fill="#A47971"/>
<rect width="2.79802" height="2.79802" transform="translate(61.123 22.1172)" fill="#A47971"/>
<rect width="2.79802" height="2.79802" transform="translate(58.6367 22.1172)" fill="#A47971"/>
<rect width="2.79802" height="2.79802" transform="translate(58.6367 32.0657)" fill="#A47971"/>
<rect width="2.79802" height="2.79802" transform="translate(55.8379 24.2935)" fill="#A47971"/>
<rect width="2.79802" height="2.79802" transform="translate(53.04 24.2935)" fill="#A47971"/>
<rect width="2.79802" height="2.79802" transform="translate(61.123 32.0657)" fill="#A47971"/>
<rect width="2.79802" height="2.79802" transform="translate(16.0439 17.7646)" fill="#A47971"/>
<rect width="2.79802" height="2.79802" transform="translate(18.8418 17.7646)" fill="#A47971"/>
<rect width="2.79802" height="2.79802" transform="translate(21.6406 17.7646)" fill="#A47971"/>
<rect width="2.79802" height="2.79802" transform="translate(63.9219 27.4023)" fill="#A47971"/>
<rect width="2.79802" height="2.79802" transform="translate(23.8164 17.7646)" fill="#A47971"/>
<rect width="2.79802" height="2.79802" transform="translate(26.6143 17.7646)" fill="#A47971"/>
<rect width="2.79802" height="2.79802" transform="translate(63.9219 17.7646)" fill="#A47971"/>
<rect width="2.79802" height="2.79802" transform="translate(66.7197 17.7646)" fill="#A47971"/>
<rect width="2.79802" height="2.79802" transform="translate(69.5176 17.7646)" fill="#A47971"/>
<rect width="2.79802" height="2.79802" transform="translate(72.3154 17.7646)" fill="#A47971"/>
<rect width="2.79802" height="2.79802" transform="translate(74.8027 17.7646)" fill="#A47971"/>
<rect width="2.79802" height="2.79802" transform="translate(77.29 17.7646)" fill="#A47971"/>
<rect width="2.79802" height="2.79802" transform="translate(61.123 20.2517)" fill="#A47971"/>
<rect width="2.79802" height="2.79802" transform="translate(58.6367 20.2517)" fill="#A47971"/>
<rect width="2.79802" height="2.79802" transform="translate(58.6367 29.8894)" fill="#A47971"/>
<rect width="2.79802" height="2.79802" transform="translate(55.8379 22.428)" fill="#A47971"/>
<rect width="2.79802" height="2.79802" transform="translate(53.04 22.428)" fill="#A47971"/>
<rect width="2.79802" height="2.79802" transform="translate(61.123 29.8894)" fill="#A47971"/>
<rect width="2.79802" height="2.79802" transform="translate(13.5566 17.4536)" fill="#A47971"/>
<rect width="2.79802" height="2.79802" transform="translate(13.5566 19.6299)" fill="#A47971"/>
<rect width="2.79802" height="2.79802" transform="translate(10.7588 19.6299)" fill="#A47971"/>
<rect width="2.79802" height="2.79802" transform="translate(10.7588 22.428)" fill="#A47971"/>
<rect width="2.79802" height="2.79802" transform="translate(68.585 58.8022)" fill="#A47971"/>
<rect width="2.79802" height="2.79802" transform="translate(21.0186 58.4915)" fill="#A47971"/>
<rect width="2.79802" height="2.79802" transform="translate(23.8164 58.4915)" fill="white"/>
<rect width="2.79802" height="2.79802" transform="translate(45.2676 47.2993)" fill="#C9968D"/>
<rect width="2.79802" height="2.79802" transform="translate(42.4697 44.5012)" fill="#C9968D"/>
<rect width="2.79802" height="2.79802" transform="translate(34.6973 54.1389)" fill="#C9968D"/>
<rect width="2.79802" height="2.79802" transform="translate(56.46 54.1389)" fill="#C9968D"/>
<rect width="2.79802" height="2.79802" transform="translate(53.9727 56.3152)" fill="#C9968D"/>
<rect width="2.79802" height="2.79802" transform="translate(37.1846 56.3152)" fill="#C9968D"/>
<rect width="2.79802" height="2.79802" transform="translate(48.0664 44.5012)" fill="#C9968D"/>
<rect width="2.79802" height="2.79802" transform="translate(21.0186 61.2896)" fill="white"/>
<rect width="2.79802" height="2.79802" transform="translate(18.2207 64.0874)" fill="white"/>
<rect width="2.79802" height="2.79802" transform="translate(68.585 61.2896)" fill="white"/>
<rect width="2.79802" height="2.79802" transform="translate(65.7871 58.4915)" fill="white"/>
<rect width="2.79802" height="2.79802" transform="translate(68.585 56.0044)" fill="white"/>
<rect width="2.79802" height="2.79802" transform="translate(71.3828 47.6101)" fill="white"/>
<rect width="2.79802" height="2.79802" transform="translate(69.8281 46.9885)" fill="white"/>
<rect width="2.79802" height="2.79802" transform="translate(68.585 49.4756)" fill="white"/>
<rect width="2.79802" height="2.79802" transform="translate(65.7871 49.4756)" fill="white"/>
<rect width="2.79802" height="2.79802" transform="translate(62.9883 49.4756)" fill="white"/>
<rect width="2.79802" height="2.79802" transform="translate(62.0557 49.4756)" fill="white"/>
<rect width="7.1505" height="7.1505" transform="translate(61.7451 51.3408)" fill="white"/>
<rect width="7.1505" height="7.1505" transform="translate(59.2578 58.4915)" fill="white"/>
<rect width="7.1505" height="7.1505" transform="translate(56.1494 61.2896)" fill="white"/>
<rect width="7.77229" height="7.77229" transform="translate(42.7812 60.6677)" fill="white"/>
<rect width="3.7307" height="2.79802" transform="translate(39.9824 63.1548)" fill="white"/>
<rect width="7.77229" height="7.77229" transform="translate(29.4121 60.6677)" fill="white"/>
<rect width="7.77229" height="7.77229" transform="translate(23.8164 60.6677)" fill="white"/>
<rect width="2.79802" height="2.79802" transform="translate(29.1016 24.915)" fill="#A47971"/>
<rect width="2.79802" height="2.79802" transform="translate(26.6143 24.915)" fill="#A47971"/>
<rect width="2.79802" height="2.79802" transform="translate(30.6562 24.915)" fill="#A47971"/>
<rect width="2.79802" height="2.79802" transform="translate(26.6143 27.7131)" fill="#A47971"/>
<rect width="2.79802" height="2.79802" transform="translate(29.4121 27.7131)" fill="#A47971"/>
<rect width="2.79802" height="2.79802" transform="translate(30.3447 27.7131)" fill="#A47971"/>
<rect width="2.79802" height="2.79802" transform="translate(27.2363 29.5786)" fill="#A47971"/>
<rect width="2.79802" height="2.79802" transform="translate(30.0342 29.5786)" fill="#A47971"/>
<rect width="3.7307" height="3.7307" transform="translate(23.5059 30.5112)" fill="#A47971"/>
<rect width="2.17624" height="2.17624" transform="translate(38.4287 24.915)" fill="#A47971"/>
<rect width="4.66337" height="4.66337" transform="translate(33.7646 31.4438)" fill="#A47971"/>
<rect width="4.66337" height="4.66337" transform="translate(39.0498 28.0239)" fill="#A47971"/>
<rect width="5.90694" height="5.90694" transform="translate(37.0293 30.822)" fill="#A47971"/>
<rect width="4.04159" height="4.04159" transform="translate(39.9824 33.6201)" fill="#A47971"/>
<g clip-path="url(#clip1_3132_99389)">
<rect width="7.77229" height="7.77229" transform="translate(42.4697 29.8894)" fill="white"/>
<rect width="2.79802" height="2.79802" transform="translate(44.957 33.6201)" fill="#A47971"/>
<rect width="7.1505" height="7.1505" transform="translate(43.7129 29.5786)" fill="#A47971"/>
<rect width="2.79802" height="2.79802" transform="translate(44.957 29.2676)" fill="#A47971"/>
<rect width="2.79802" height="2.79802" transform="translate(47.7549 29.2676)" fill="#A47971"/>
<rect width="2.79802" height="2.79802" transform="translate(42.1592 29.5786)" fill="#A47971"/>
<rect width="2.79802" height="2.79802" transform="translate(42.1592 32.0657)" fill="#A47971"/>
<rect width="2.79802" height="2.79802" transform="translate(42.1592 34.8638)" fill="#A47971"/>
</g>
<rect width="2.79802" height="2.79802" transform="translate(44.957 36.1072)" fill="#A47971"/>
<rect width="2.79802" height="2.79802" transform="translate(44.957 38.9053)" fill="#A47971"/>
<rect width="2.79802" height="2.79802" transform="translate(44.957 41.7034)" fill="white"/>
<g clip-path="url(#clip2_3132_99389)">
<rect width="4.66337" height="4.66337" transform="translate(40.2939 37.6616)" fill="white"/>
<rect width="2.79802" height="2.79802" transform="translate(42.4697 37.0398)" fill="#A47971"/>
</g>
<rect width="4.66337" height="4.66337" transform="translate(40.2939 39.8379)" fill="white"/>
<g clip-path="url(#clip3_3132_99389)">
<rect width="7.77229" height="7.77229" transform="translate(47.7549 36.729)" fill="white"/>
<rect width="2.79802" height="8.70496" transform="translate(47.4443 31.1331)" fill="#A47971"/>
</g>
<rect width="8.08318" height="13.0574" transform="translate(54.2842 38.2834)" fill="white"/>
<rect width="22.0733" height="16.7881" transform="translate(49.3096 61.9111)" fill="white"/>
<rect width="3.7307" height="4.97426" transform="translate(48.999 32.3765)" fill="#A47971"/>
<rect width="4.04159" height="4.04159" transform="translate(53.04 32.3765)" fill="#A47971"/>
<rect width="4.04159" height="4.04159" transform="translate(51.1748 32.3765)" fill="#A47971"/>
<rect width="2.79802" height="0.310891" transform="translate(52.7295 36.4182)" fill="white"/>
<g clip-path="url(#clip4_3132_99389)">
<rect width="0.621783" height="4.66337" transform="translate(55.5273 34.2419)" fill="white"/>
<rect width="4.04159" height="4.04159" transform="translate(52.418 32.3767)" fill="#A47971"/>
</g>
<rect width="7.77229" height="7.77229" transform="translate(24.127 51.3408)" fill="white"/>
<rect width="7.77229" height="7.77229" transform="translate(21.0186 67.5073)" fill="white"/>
<rect width="7.77229" height="7.77229" transform="translate(42.7812 68.1292)" fill="white"/>
<rect width="7.1505" height="7.1505" transform="translate(61.4346 60.9785)" fill="white"/>
<rect width="7.1505" height="7.1505" transform="translate(61.4346 67.5073)" fill="white"/>
<rect width="7.1505" height="7.1505" transform="translate(64.2324 64.0874)" fill="white"/>
<rect width="2.79802" height="2.79802" transform="translate(68.585 52.2737)" fill="white"/>
<rect width="2.79802" height="2.79802" transform="translate(68.585 53.5171)" fill="white"/>
<rect width="2.79802" height="2.79802" transform="translate(71.3828 50.4082)" fill="white"/>
<rect width="2.79802" height="2.79802" transform="translate(72.0049 39.2161)" fill="#A47971"/>
<rect width="2.79802" height="2.79802" transform="translate(72.3154 42.0142)" fill="white"/>
<rect width="2.79802" height="2.79802" transform="translate(72.3154 44.8123)" fill="white"/>
<rect width="2.79802" height="2.79802" transform="translate(18.2207 66.8855)" fill="white"/>
<rect width="2.79802" height="2.79802" transform="translate(71.3828 66.8855)" fill="white"/>
<rect width="2.79802" height="2.79802" transform="translate(18.2207 69.6836)" fill="white"/>
<rect width="2.79802" height="2.79802" transform="translate(71.3828 69.6836)" fill="white"/>
<rect width="2.79802" height="2.79802" transform="translate(71.3828 72.4814)" fill="white"/>
<rect width="2.79802" height="2.79802" transform="translate(21.0186 75.2795)" fill="white"/>
<rect width="2.79802" height="2.79802" transform="translate(68.585 75.2795)" fill="white"/>
<rect width="2.79802" height="2.79802" transform="translate(15.4219 33.6201)" fill="#A47971"/>
<rect width="2.79802" height="2.79802" transform="translate(29.4121 19.6299)" fill="#A47971"/>
<rect width="2.79802" height="2.79802" transform="translate(26.6143 22.428)" fill="#A47971"/>
<rect width="2.79802" height="2.79802" transform="translate(32.2109 22.428)" fill="#A47971"/>
<rect width="2.79802" height="2.79802" transform="translate(32.2109 19.6299)" fill="#A47971"/>
<rect width="2.79802" height="2.79802" transform="translate(29.4121 22.428)" fill="#A47971"/>
<rect width="2.79802" height="2.79802" transform="translate(35.0088 22.428)" fill="#A47971"/>
<rect width="2.79802" height="2.79802" transform="translate(37.8066 22.428)" fill="#A47971"/>
<rect width="2.79802" height="2.79802" transform="translate(40.6045 25.2261)" fill="#A47971"/>
<rect width="2.79802" height="2.79802" transform="translate(33.4541 25.2261)" fill="#A47971"/>
<rect width="2.79802" height="2.79802" transform="translate(36.252 25.2261)" fill="#A47971"/>
<rect width="2.79802" height="2.79802" transform="translate(33.1436 27.7131)" fill="#A47971"/>
<rect width="2.79802" height="2.79802" transform="translate(32.2109 29.8894)" fill="#A47971"/>
<rect width="2.79802" height="2.79802" transform="translate(35.0088 29.5786)" fill="#A47971"/>
<rect width="2.79802" height="2.79802" transform="translate(35.9414 27.7131)" fill="#A47971"/>
<rect width="2.79802" height="2.79802" transform="translate(36.5625 28.335)" fill="#A47971"/>
<rect width="2.79802" height="2.79802" transform="translate(38.1172 26.4695)" fill="#A47971"/>
<rect width="2.79802" height="2.79802" transform="translate(43.4023 27.4023)" fill="#A47971"/>
<rect width="2.79802" height="2.79802" transform="translate(46.2002 27.4023)" fill="#A47971"/>
<rect width="2.79802" height="2.79802" transform="translate(48.999 29.5786)" fill="#A47971"/>
<rect width="2.79802" height="2.79802" transform="translate(50.8643 29.5786)" fill="#A47971"/>
<rect width="2.79802" height="2.79802" transform="translate(53.6621 32.0657)" fill="#A47971"/>
<rect width="2.48713" height="2.79802" transform="translate(56.1494 34.2419)" fill="#A47971"/>
<rect width="2.79802" height="2.79802" transform="translate(18.5312 30.822)" fill="#CC8282"/>
<rect width="2.79802" height="2.79802" transform="translate(18.2197 28.9565)" fill="#CC8282"/>
<rect width="2.79802" height="2.79802" transform="translate(21.0186 29.2676)" fill="#CC8282"/>
<rect width="2.79802" height="2.79802" transform="translate(26.6143 34.8635)" fill="#252525"/>
<rect width="2.79802" height="2.79802" transform="translate(24.127 37.0398)" fill="#252525"/>
<rect width="2.79802" height="2.79802" transform="translate(13.5566 24.915)" fill="#CC8282"/>
<rect width="2.79802" height="2.79802" transform="translate(10.7588 27.0913)" fill="#CC8282"/>
<rect width="2.79802" height="2.79802" transform="translate(13.5566 27.4021)" fill="#CC8282"/>
<rect width="2.79802" height="2.79802" transform="translate(16.3545 27.4021)" fill="#CC8282"/>
<rect width="2.79802" height="2.79802" transform="translate(16.3545 29.5784)" fill="#CC8282"/>
<rect width="2.79802" height="2.79802" transform="translate(18.8418 27.4021)" fill="#CC8282"/>
<rect width="2.79802" height="2.79802" transform="translate(13.5566 29.5784)" fill="#CC8282"/>
<rect width="2.79802" height="2.79802" transform="translate(16.3545 24.915)" fill="#CC8282"/>
<rect width="2.79802" height="2.79802" transform="translate(18.8418 24.915)" fill="#CC8282"/>
<rect width="2.79802" height="2.79802" transform="translate(24.127 39.2161)" fill="#252525"/>
<rect width="2.79802" height="2.79802" transform="translate(24.127 41.7031)" fill="#252525"/>
<rect width="2.79802" height="2.79802" transform="translate(26.9248 41.7031)" fill="#252525"/>
<rect width="2.79802" height="2.79802" transform="translate(26.9248 44.1904)" fill="#252525"/>
<rect width="2.79802" height="2.79802" transform="translate(32.21 41.7031)" fill="#252525"/>
<rect width="2.79802" height="2.79802" transform="translate(32.21 44.1904)" fill="#252525"/>
<rect width="2.79802" height="2.79802" transform="translate(29.7236 44.1904)" fill="#252525"/>
<rect width="2.79802" height="2.79802" transform="translate(21.3291 39.2161)" fill="#252525"/>
<rect width="2.79802" height="2.79802" transform="translate(21.3291 41.7031)" fill="#252525"/>
<rect width="2.79802" height="2.79802" transform="translate(21.3291 44.1904)" fill="#252525"/>
<rect width="2.79802" height="2.79802" transform="translate(29.4121 46.6775)" fill="#252525"/>
<rect width="2.79802" height="2.79802" transform="translate(23.8164 46.6775)" fill="#252525"/>
<rect width="2.79802" height="2.79802" transform="translate(29.4121 34.8635)" fill="#252525"/>
<rect width="2.79802" height="2.79802" transform="translate(32.21 34.8635)" fill="#252525"/>
<rect width="2.79802" height="2.79802" transform="translate(34.6973 37.0398)" fill="#252525"/>
<rect width="2.79802" height="2.79802" transform="translate(34.6973 39.5269)" fill="#252525"/>
<rect width="2.79802" height="2.79802" transform="translate(34.6973 41.7031)" fill="#252525"/>
<rect width="2.79802" height="2.79802" transform="translate(34.6973 44.1904)" fill="#252525"/>
<rect width="2.79802" height="2.79802" transform="translate(26.9248 37.0398)" fill="#252525"/>
<rect width="2.79802" height="2.79802" transform="translate(32.21 46.6775)" fill="#252525"/>
<rect width="2.79802" height="2.79802" transform="translate(26.6143 46.6775)" fill="#252525"/>
<rect width="2.79802" height="2.79802" transform="translate(24.127 44.1904)" fill="#BFD8B8"/>
<rect width="2.79802" height="2.79802" transform="translate(26.9248 39.2161)" fill="#BFD8B8"/>
<rect width="2.79802" height="2.79802" transform="translate(29.7236 39.2161)" fill="#BFD8B8"/>
<rect width="2.79802" height="2.79802" transform="translate(29.7236 41.7031)" fill="#BFD8B8"/>
<rect width="2.79802" height="2.79802" transform="translate(29.7236 37.3506)" fill="#BFD8B8"/>
<rect width="2.79802" height="2.79802" transform="translate(32.21 37.3506)" fill="#BFD8B8"/>
<rect width="2.79802" height="2.79802" transform="translate(32.21 39.2161)" fill="#BFD8B8"/>
<rect width="2.79802" height="2.79802" transform="translate(21.0186 30.822)" fill="#A47971"/>
<rect width="2.79802" height="2.79802" transform="translate(21.3291 36.4182)" fill="#A47971"/>
<rect width="2.79802" height="2.79802" transform="translate(18.5312 42.0142)" fill="white"/>
<rect width="2.79802" height="2.79802" transform="translate(17.9092 42.0142)" fill="white"/>
<rect width="2.79802" height="2.79802" transform="translate(18.5312 44.8123)" fill="white"/>
<rect width="2.79802" height="2.79802" transform="translate(17.5986 44.8123)" fill="white"/>
<rect width="2.79802" height="2.79802" transform="translate(10.7588 24.6042)" fill="#614540"/>
<rect width="2.79802" height="2.79802" transform="translate(7.96094 17.4536)" fill="#614540"/>
<rect width="2.79802" height="2.79802" transform="translate(10.7588 14.6558)" fill="#614540"/>
<rect width="2.79802" height="2.79802" transform="translate(13.2461 12.7903)" fill="#614540"/>
<rect width="2.79802" height="2.79802" transform="translate(16.0439 10.3032)" fill="#614540"/>
<rect width="2.79802" height="2.79802" transform="translate(18.8418 10.3032)" fill="#614540"/>
<rect width="2.79802" height="2.79802" transform="translate(21.6406 10.3032)" fill="#614540"/>
<rect width="2.79802" height="2.79802" transform="translate(24.4385 10.3032)" fill="#614540"/>
<rect width="2.79802" height="2.79802" transform="translate(26.6143 10.3032)" fill="#614540"/>
<rect width="2.79802" height="2.79802" transform="translate(29.1016 12.7903)" fill="#614540"/>
<rect width="2.79802" height="2.79802" transform="translate(39.9824 12.7903)" fill="#614540"/>
<rect width="2.79802" height="2.79802" transform="translate(35.0088 15.2776)" fill="#614540"/>
<rect width="2.79802" height="2.79802" transform="translate(37.4961 15.2776)" fill="#614540"/>
<rect width="2.79802" height="2.79802" transform="translate(42.7812 15.2776)" fill="#614540"/>
<rect width="2.79802" height="2.79802" transform="translate(48.0664 15.2776)" fill="#614540"/>
<rect width="2.79802" height="2.79802" transform="translate(53.6621 15.2776)" fill="#614540"/>
<rect width="2.79802" height="2.79802" transform="translate(56.46 15.2776)" fill="#614540"/>
<rect width="2.79802" height="2.79802" transform="translate(58.6367 12.7903)" fill="#614540"/>
<rect width="2.79802" height="2.79802" transform="translate(61.4346 12.7903)" fill="#614540"/>
<rect width="2.79802" height="2.79802" transform="translate(45.2676 12.7903)" fill="#614540"/>
<rect width="2.79802" height="2.79802" transform="translate(50.8643 12.7903)" fill="#614540"/>
<rect width="2.79802" height="2.79802" transform="translate(31.8994 12.7903)" fill="#614540"/>
<rect width="2.79802" height="2.79802" transform="translate(7.96094 20.2517)" fill="#614540"/>
<rect width="2.79802" height="2.79802" transform="translate(7.96094 23.0498)" fill="#614540"/>
<rect width="2.79802" height="2.79802" transform="translate(7.96094 25.8479)" fill="#614540"/>
<rect width="2.79802" height="2.79802" transform="translate(7.96094 27.0913)" fill="#614540"/>
<rect width="2.79802" height="2.79802" transform="translate(13.5566 22.1172)" fill="#614540"/>
<rect width="2.79802" height="2.79802" transform="translate(16.3555 22.1172)" fill="#614540"/>
<rect width="2.79802" height="2.79802" transform="translate(18.5312 22.1172)" fill="#614540"/>
<rect width="2.79802" height="2.79802" transform="translate(21.3291 24.915)" fill="#614540"/>
<rect width="2.79802" height="2.79802" transform="translate(69.5176 24.915)" fill="#614540"/>
<rect width="2.79802" height="2.79802" transform="translate(72.0049 22.1172)" fill="#614540"/>
<rect width="2.79802" height="2.79802" transform="translate(74.8027 22.1172)" fill="#614540"/>
<rect width="2.79802" height="2.79802" transform="translate(77.29 22.1172)" fill="#614540"/>
<rect width="2.79802" height="2.79802" transform="translate(80.0879 24.6042)" fill="#614540"/>
<rect width="2.79802" height="2.79802" transform="translate(77.6006 34.5527)" fill="#614540"/>
<rect width="2.79802" height="2.79802" transform="translate(75.1133 31.7546)" fill="#614540"/>
<rect width="2.79802" height="2.79802" transform="translate(77.6006 31.7546)" fill="#614540"/>
<rect width="2.79802" height="2.79802" transform="translate(79.7773 29.5786)" fill="#614540"/>
<rect width="2.79802" height="2.79802" transform="translate(82.5752 27.4023)" fill="#614540"/>
<rect width="2.79802" height="2.79802" transform="translate(82.5752 24.6042)" fill="#614540"/>
<rect width="2.79802" height="2.79802" transform="translate(82.5752 21.8062)" fill="#614540"/>
<rect width="2.79802" height="2.79802" transform="translate(82.5752 19.0083)" fill="#614540"/>
<rect width="2.79802" height="2.79802" transform="translate(82.5752 17.4536)" fill="#614540"/>
<rect width="2.79802" height="2.79802" transform="translate(79.7773 14.6558)" fill="#614540"/>
<rect width="2.79802" height="2.79802" transform="translate(77.29 12.7903)" fill="#614540"/>
<rect width="2.79802" height="2.79802" transform="translate(74.4922 10.3032)" fill="#614540"/>
<rect width="2.79802" height="2.79802" transform="translate(71.6934 10.3032)" fill="#614540"/>
<rect width="2.79802" height="2.79802" transform="translate(68.8955 10.3032)" fill="#614540"/>
<rect width="2.79802" height="2.79802" transform="translate(66.0977 10.3032)" fill="#614540"/>
<rect width="2.79802" height="2.79802" transform="translate(63.9219 10.3032)" fill="#614540"/>
<rect width="2.79802" height="2.79802" transform="translate(21.3291 26.4695)" fill="#614540"/>
<rect width="2.79802" height="2.79802" transform="translate(69.5176 26.4695)" fill="#614540"/>
<rect width="2.79802" height="2.79802" transform="translate(10.7588 29.8894)" fill="#614540"/>
<rect width="2.79802" height="2.79802" transform="translate(12.9355 32.3765)" fill="#614540"/>
<rect width="2.79802" height="2.79802" transform="translate(12.9355 34.5527)" fill="#614540"/>
<rect width="2.79802" height="2.79802" transform="translate(15.7334 36.4182)" fill="#614540"/>
<rect width="2.79802" height="2.79802" transform="translate(13.5566 42.0142)" fill="#614540"/>
<rect width="2.79802" height="2.79802" transform="translate(13.5566 47.2993)" fill="#614540"/>
<rect width="2.79802" height="2.79802" transform="translate(13.5566 51.03)" fill="#614540"/>
<rect width="2.79802" height="2.79802" transform="translate(15.4219 47.6101)" fill="#614540"/>
<rect width="2.79802" height="2.79802" transform="translate(15.7334 39.2161)" fill="#614540"/>
<rect width="2.79802" height="2.79802" transform="translate(13.5566 44.8123)" fill="#614540"/>
<rect width="2.79802" height="2.79802" transform="translate(13.5566 50.0974)" fill="#614540"/>
<rect width="2.79802" height="2.79802" transform="translate(13.5566 53.8281)" fill="#614540"/>
<rect width="2.79802" height="2.79802" transform="translate(16.0439 53.2063)" fill="#614540"/>
<rect width="2.79802" height="2.79802" transform="translate(16.0439 58.4915)" fill="#614540"/>
<rect width="2.79802" height="2.79802" transform="translate(13.5566 66.8855)" fill="#614540"/>
<rect width="2.79802" height="2.79802" transform="translate(16.0439 55.6934)" fill="#614540"/>
<rect width="2.79802" height="2.79802" transform="translate(13.5566 64.0874)" fill="#614540"/>
<rect width="2.79802" height="2.79802" transform="translate(16.0439 61.2896)" fill="#614540"/>
<rect width="2.79802" height="2.79802" transform="translate(13.5566 69.6836)" fill="#614540"/>
<rect width="2.79802" height="2.79802" transform="translate(13.5566 70.927)" fill="#614540"/>
<rect width="2.79802" height="2.79802" transform="translate(7.96094 49.1646)" fill="#614540"/>
<rect width="2.79802" height="2.79802" transform="translate(10.7588 49.1646)" fill="#614540"/>
<rect width="2.79802" height="2.79802" transform="translate(15.7334 32.3765)" fill="#614540"/>
<rect width="2.79802" height="2.79802" transform="translate(15.4219 42.0142)" fill="white"/>
<rect width="2.79802" height="2.79802" transform="translate(15.4219 44.8123)" fill="white"/>
<rect width="2.79802" height="2.79802" transform="translate(15.4219 50.4082)" fill="white"/>
<rect width="2.79802" height="2.79802" transform="translate(18.2207 53.2063)" fill="white"/>
<rect width="2.79802" height="2.79802" transform="translate(18.2207 56.0044)" fill="#A47971"/>
<rect width="2.79802" height="2.79802" transform="translate(18.2207 58.8022)" fill="#A47971"/>
<rect width="2.79802" height="2.79802" transform="translate(18.2207 61.2896)" fill="#A47971"/>
<rect width="2.79802" height="2.79802" transform="translate(15.4219 64.0874)" fill="#A47971"/>
<rect width="2.79802" height="2.79802" transform="translate(15.4219 68.4399)" fill="#A47971"/>
<rect width="2.79802" height="2.79802" transform="translate(15.4219 66.5747)" fill="#A47971"/>
<rect width="2.79802" height="2.79802" transform="translate(15.4219 70.927)" fill="#A47971"/>
<rect width="2.79802" height="2.79802" transform="translate(16.3555 73.7251)" fill="#614540"/>
<rect width="2.79802" height="2.79802" transform="translate(16.3555 75.2795)" fill="#614540"/>
<rect width="2.79802" height="2.79802" transform="translate(13.5566 78.0776)" fill="#614540"/>
<rect width="2.79802" height="2.79802" transform="translate(16.3555 80.5647)" fill="#614540"/>
<rect width="2.79802" height="2.79802" transform="translate(67.0303 80.5647)" fill="#614540"/>
<rect width="2.79802" height="2.79802" transform="translate(19.1533 80.5647)" fill="#614540"/>
<rect width="2.79802" height="2.79802" transform="translate(69.8281 80.5647)" fill="#614540"/>
<rect width="2.79802" height="2.79802" transform="translate(21.9512 80.5647)" fill="#614540"/>
<rect width="2.79802" height="2.79802" transform="translate(72.626 80.5647)" fill="#614540"/>
<rect width="2.79802" height="2.79802" transform="translate(24.127 80.5647)" fill="#614540"/>
<rect width="2.79802" height="2.79802" transform="translate(74.8027 80.5647)" fill="#614540"/>
<rect width="2.79802" height="2.79802" transform="translate(76.0459 78.0776)" fill="#614540"/>
<rect width="2.79802" height="2.79802" transform="translate(74.1807 75.2795)" fill="#614540"/>
<rect width="2.79802" height="2.79802" transform="translate(74.1807 73.4143)" fill="#614540"/>
<rect width="2.79802" height="2.79802" transform="translate(74.1807 73.4143)" fill="#614540"/>
<rect width="2.79802" height="2.79802" transform="translate(76.0459 70.927)" fill="#614540"/>
<rect width="2.79802" height="2.79802" transform="translate(73.8701 61.6003)" fill="#614540"/>
<rect width="2.79802" height="2.79802" transform="translate(76.0459 68.4399)" fill="#614540"/>
<rect width="2.79802" height="2.79802" transform="translate(73.8701 59.1133)" fill="#614540"/>
<rect width="2.79802" height="2.79802" transform="translate(76.0459 66.2637)" fill="#614540"/>
<rect width="2.79802" height="2.79802" transform="translate(73.8701 56.937)" fill="#614540"/>
<rect width="2.79802" height="2.79802" transform="translate(76.0459 64.0874)" fill="#614540"/>
<rect width="2.79802" height="2.79802" transform="translate(73.8701 54.7607)" fill="#614540"/>
<rect width="2.79802" height="2.79802" transform="translate(73.8701 53.2063)" fill="#614540"/>
<rect width="2.79802" height="2.79802" transform="translate(76.668 53.2063)" fill="#614540"/>
<rect width="2.79802" height="2.79802" transform="translate(75.4248 50.4082)" fill="#614540"/>
<rect width="2.79802" height="2.79802" transform="translate(74.1807 47.6101)" fill="#614540"/>
<rect width="2.79802" height="2.79802" transform="translate(75.4248 44.8123)" fill="#614540"/>
<rect width="2.79802" height="2.79802" transform="translate(75.4248 42.0142)" fill="#614540"/>
<rect width="2.79802" height="2.79802" transform="translate(76.9785 49.1646)" fill="#614540"/>
<rect width="2.79802" height="2.79802" transform="translate(79.7773 49.1646)" fill="#614540"/>
<rect width="2.79802" height="2.79802" transform="translate(82.5752 49.1646)" fill="#614540"/>
<rect width="2.79802" height="2.79802" transform="translate(74.8027 39.2161)" fill="#614540"/>
<rect width="2.79802" height="2.79802" transform="translate(74.8027 37.0398)" fill="#614540"/>
<rect width="2.79802" height="2.79802" transform="translate(73.248 75.2795)" fill="#614540"/>
<rect width="2.79802" height="2.79802" transform="translate(18.2207 75.2795)" fill="#A47971"/>
<rect width="2.79802" height="2.79802" transform="translate(29.4121 75.9014)" fill="#A47971"/>
<rect width="2.79802" height="2.79802" transform="translate(40.6045 75.9014)" fill="#A47971"/>
<rect width="2.79802" height="2.79802" transform="translate(51.7969 75.9014)" fill="#A47971"/>
<rect width="2.79802" height="2.79802" transform="translate(32.2109 75.9014)" fill="#A47971"/>
<rect width="2.79802" height="2.79802" transform="translate(43.4023 75.9014)" fill="#A47971"/>
<rect width="2.79802" height="2.79802" transform="translate(54.5947 75.9014)" fill="#A47971"/>
<rect width="2.79802" height="2.79802" transform="translate(35.0088 75.9014)" fill="#A47971"/>
<rect width="2.79802" height="2.79802" transform="translate(46.2002 75.9014)" fill="#A47971"/>
<rect width="2.79802" height="2.79802" transform="translate(57.3926 75.9014)" fill="#A47971"/>
<rect width="2.79802" height="2.79802" transform="translate(37.8066 75.9014)" fill="#A47971"/>
<rect width="2.79802" height="2.79802" transform="translate(48.999 75.9014)" fill="#A47971"/>
<rect width="2.79802" height="2.79802" transform="translate(60.1904 75.9014)" fill="#A47971"/>
<rect width="2.79802" height="2.79802" transform="translate(61.4346 75.9014)" fill="#A47971"/>
<rect width="2.79802" height="2.79802" transform="translate(18.2207 78.0776)" fill="#A47971"/>
<rect width="2.79802" height="2.79802" transform="translate(15.4219 78.0776)" fill="#A47971"/>
<rect width="2.79802" height="2.79802" transform="translate(18.2207 72.4814)" fill="white"/>
<rect width="2.79802" height="2.79802" transform="translate(21.0186 78.0776)" fill="white"/>
<rect width="2.79802" height="2.79802" transform="translate(26.9258 78.0776)" fill="#614540"/>
<rect width="3.10891" height="3.10891" transform="translate(23.8164 77.7666)" fill="white"/>
<rect width="2.79802" height="2.79802" transform="translate(71.3828 78.0776)" fill="#A47971"/>
<rect width="2.79802" height="2.79802" transform="translate(74.1807 78.0776)" fill="#A47971"/>
<g clip-path="url(#clip5_3132_99389)">
<rect width="2.79802" height="2.79802" transform="translate(65.7871 78.0776)" fill="white"/>
<rect width="2.79802" height="2.79802" transform="translate(64.2324 78.0776)" fill="#614540"/>
</g>
<rect width="2.79802" height="2.79802" transform="translate(68.585 78.0776)" fill="white"/>
<rect width="2.79802" height="2.79802" transform="translate(71.3828 75.2795)" fill="#A47971"/>
<rect width="2.79802" height="2.79802" transform="translate(74.1807 64.0874)" fill="#A47971"/>
<rect width="2.79802" height="2.79802" transform="translate(74.1807 66.5747)" fill="#A47971"/>
<rect width="2.79802" height="2.79802" transform="translate(74.1807 69.3726)" fill="#A47971"/>
<rect width="2.79802" height="2.79802" transform="translate(74.1807 72.1707)" fill="#A47971"/>
<rect width="2.79802" height="2.79802" transform="translate(71.3828 56.0044)" fill="#A47971"/>
<rect width="2.79802" height="2.79802" transform="translate(71.3828 58.4915)" fill="#A47971"/>
<rect width="2.79802" height="2.79802" transform="translate(71.3828 61.2896)" fill="#A47971"/>
<rect width="2.79802" height="2.79802" transform="translate(71.3828 64.0874)" fill="white"/>
<rect width="2.79802" height="2.79802" transform="translate(71.3828 53.2063)" fill="white"/>
<rect width="2.79802" height="2.79802" transform="translate(74.1807 50.4082)" fill="white"/>
<rect width="2.79802" height="2.79802" transform="translate(74.1807 44.8123)" fill="white"/>
<rect width="2.79802" height="2.79802" transform="translate(74.1807 42.0142)" fill="white"/>
<rect width="2.79802" height="2.79802" transform="translate(72.0049 36.4182)" fill="#A47971"/>
<rect width="2.79802" height="2.79802" transform="translate(74.8027 34.5527)" fill="#A47971"/>
<rect width="2.79802" height="2.79802" transform="matrix(-1 0 0 1 67.0303 34.8635)" fill="#252525"/>
<rect width="2.79802" height="2.79802" transform="matrix(-1 0 0 1 69.5176 37.0398)" fill="#252525"/>
<rect width="2.79802" height="2.79802" transform="matrix(-1 0 0 1 69.5176 39.2161)" fill="#252525"/>
<rect width="2.79802" height="2.79802" transform="matrix(-1 0 0 1 69.5176 41.7031)" fill="#252525"/>
<rect width="2.79802" height="2.79802" transform="matrix(-1 0 0 1 66.7197 41.7031)" fill="#252525"/>
<rect width="2.79802" height="2.79802" transform="matrix(-1 0 0 1 66.7197 44.1904)" fill="#252525"/>
<rect width="2.79802" height="2.79802" transform="matrix(-1 0 0 1 61.4346 41.7031)" fill="#252525"/>
<rect width="2.79802" height="2.79802" transform="matrix(-1 0 0 1 61.4346 44.1904)" fill="#252525"/>
<rect width="2.79802" height="2.79802" transform="matrix(-1 0 0 1 63.9219 44.1904)" fill="#252525"/>
<rect width="2.79802" height="2.79802" transform="matrix(-1 0 0 1 72.3154 39.2161)" fill="#252525"/>
<rect width="2.79802" height="2.79802" transform="matrix(-1 0 0 1 72.3154 41.7031)" fill="#252525"/>
<rect width="2.79802" height="2.79802" transform="matrix(-1 0 0 1 72.3154 44.1904)" fill="#252525"/>
<rect width="2.79802" height="2.79802" transform="matrix(-1 0 0 1 64.2324 46.6775)" fill="#252525"/>
<rect width="2.79802" height="2.79802" transform="matrix(-1 0 0 1 69.8291 46.6775)" fill="#252525"/>
<rect width="2.79802" height="2.79802" transform="matrix(-1 0 0 1 64.2324 34.8635)" fill="#252525"/>
<rect width="2.79802" height="2.79802" transform="matrix(-1 0 0 1 61.4346 34.8635)" fill="#252525"/>
<rect width="2.79802" height="2.79802" transform="matrix(-1 0 0 1 77.6006 24.915)" fill="#CC8282"/>
<rect width="2.79802" height="2.79802" transform="matrix(-1 0 0 1 80.0879 24.915)" fill="#CC8282"/>
<rect width="2.79802" height="2.79802" transform="matrix(-1 0 0 1 75.1143 31.7546)" fill="#CC8282"/>
<rect width="2.79802" height="2.79802" transform="matrix(-1 0 0 1 75.1143 28.9565)" fill="#CC8282"/>
<rect width="2.79802" height="2.79802" transform="matrix(-1 0 0 1 82.5752 27.4021)" fill="#CC8282"/>
<rect width="2.79802" height="2.79802" transform="matrix(-1 0 0 1 80.0879 29.5784)" fill="#CC8282"/>
<rect width="2.79802" height="2.79802" transform="matrix(-1 0 0 1 77.29 29.5784)" fill="#CC8282"/>
<rect width="2.79802" height="2.79802" transform="matrix(-1 0 0 1 77.29 27.4021)" fill="#CC8282"/>
<rect width="2.79802" height="2.79802" transform="matrix(-1 0 0 1 79.7773 27.4021)" fill="#CC8282"/>
<rect width="2.79802" height="2.79802" transform="matrix(-1 0 0 1 58.9473 37.0398)" fill="#252525"/>
<rect width="2.79802" height="2.79802" transform="matrix(-1 0 0 1 58.9473 39.5269)" fill="#252525"/>
<rect width="2.79802" height="2.79802" transform="matrix(-1 0 0 1 58.9473 41.7031)" fill="#252525"/>
<rect width="2.79802" height="2.79802" transform="matrix(-1 0 0 1 58.9473 44.1904)" fill="#252525"/>
<rect width="2.79802" height="2.79802" transform="matrix(-1 0 0 1 66.7197 37.0398)" fill="#252525"/>
<rect width="2.79802" height="2.79802" transform="matrix(-1 0 0 1 61.4346 46.6775)" fill="#252525"/>
<rect width="2.79802" height="2.79802" transform="matrix(-1 0 0 1 67.0303 46.6775)" fill="#252525"/>
<rect width="2.79802" height="2.79802" transform="matrix(-1 0 0 1 69.5176 44.1904)" fill="#BFD8B8"/>
<rect width="2.79802" height="2.79802" transform="matrix(-1 0 0 1 66.7197 39.2161)" fill="#BFD8B8"/>
<rect width="2.79802" height="2.79802" transform="matrix(-1 0 0 1 63.9219 39.2161)" fill="#BFD8B8"/>
<rect width="2.79802" height="2.79802" transform="matrix(-1 0 0 1 63.9219 41.7031)" fill="#BFD8B8"/>
<rect width="2.79802" height="2.79802" transform="matrix(-1 0 0 1 63.9219 37.3506)" fill="#BFD8B8"/>
<rect width="2.79802" height="2.79802" transform="matrix(-1 0 0 1 61.4346 37.3506)" fill="#BFD8B8"/>
<rect width="2.79802" height="2.79802" transform="matrix(-1 0 0 1 61.4346 39.2161)" fill="#BFD8B8"/>
<rect width="2.79802" height="2.79802" transform="matrix(-1 0 0 1 74.8027 24.915)" fill="#CC8282"/>
<rect width="2.79802" height="2.79802" transform="matrix(-1 0 0 1 72.3154 29.2676)" fill="#CC8282"/>
<rect width="2.79802" height="2.79802" transform="matrix(-1 0 0 1 74.8027 27.4021)" fill="#CC8282"/>
<rect width="2.79802" height="2.79802" transform="translate(79.7773 22.1172)" fill="#A47971"/>
<rect width="2.79802" height="2.79802" transform="translate(77.29 19.6299)" fill="#A47971"/>
<rect width="2.79802" height="2.79802" transform="translate(74.8027 19.6299)" fill="#A47971"/>
<rect width="2.79802" height="2.79802" transform="translate(72.0049 19.6299)" fill="#A47971"/>
<rect width="2.79802" height="2.79802" transform="translate(69.207 22.1172)" fill="#A47971"/>
<rect width="2.79802" height="2.79802" transform="translate(77.29 15.2776)" fill="#A47971"/>
<rect width="2.79802" height="2.79802" transform="translate(79.7773 17.4536)" fill="#A47971"/>
<rect width="2.79802" height="2.79802" transform="translate(63.9219 12.7903)" fill="#A47971"/>
<rect width="2.79802" height="2.79802" transform="translate(69.5176 12.7903)" fill="#A47971"/>
<rect width="2.79802" height="2.79802" transform="translate(66.7197 12.7903)" fill="#A47971"/>
<rect width="2.79802" height="2.79802" transform="translate(72.3154 12.7903)" fill="#A47971"/>
<rect width="2.79802" height="2.79802" transform="translate(74.4922 12.7903)" fill="#A47971"/>
<rect width="2.79802" height="2.79802" transform="translate(10.7588 17.4536)" fill="#A47971"/>
<rect width="2.79802" height="2.79802" transform="translate(13.5566 14.9666)" fill="#A47971"/>
<rect width="2.79802" height="2.79802" transform="translate(16.0439 12.7903)" fill="#A47971"/>
<rect width="2.79802" height="2.79802" transform="translate(18.8418 12.7903)" fill="#A47971"/>
<rect width="2.79802" height="2.79802" transform="translate(21.6406 12.7903)" fill="#A47971"/>
<rect width="2.79802" height="2.79802" transform="translate(23.8164 12.7903)" fill="#A47971"/>
<rect width="2.79802" height="2.79802" transform="translate(26.6143 12.7903)" fill="#A47971"/>
<rect width="2.79802" height="2.79802" transform="translate(29.4121 14.6558)" fill="#A47971"/>
<rect width="2.79802" height="2.79802" transform="translate(35.0088 17.4536)" fill="#A47971"/>
<rect width="2.79802" height="2.79802" transform="translate(37.8066 17.4536)" fill="#A47971"/>
<rect width="2.79802" height="2.79802" transform="translate(39.9824 15.2776)" fill="#A47971"/>
<rect width="2.79802" height="2.79802" transform="translate(42.7812 17.4536)" fill="#A47971"/>
<rect width="2.79802" height="2.79802" transform="translate(45.2676 15.2776)" fill="#A47971"/>
<rect width="2.79802" height="2.79802" transform="translate(50.8643 15.2776)" fill="#A47971"/>
<rect width="2.79802" height="2.79802" transform="translate(48.0664 17.7646)" fill="#A47971"/>
<rect width="2.79802" height="2.79802" transform="translate(45.2676 17.4536)" fill="#A47971"/>
<rect width="2.79802" height="2.79802" transform="translate(50.8643 17.4536)" fill="#A47971"/>
<rect width="2.79802" height="2.79802" transform="translate(53.04 17.4536)" fill="#A47971"/>
<rect width="2.79802" height="2.79802" transform="translate(32.2109 14.6558)" fill="#A47971"/>
<rect width="2.79802" height="2.79802" transform="translate(61.123 15.2776)" fill="#A47971"/>
<rect width="2.79802" height="2.79802" transform="translate(58.6367 15.2776)" fill="#A47971"/>
<rect width="2.79802" height="2.79802" transform="translate(55.8379 17.4536)" fill="#A47971"/>
<rect width="2.79802" height="2.79802" transform="translate(58.6367 17.7646)" fill="#A47971"/>
<rect width="2.79802" height="2.79802" transform="translate(45.2676 44.5012)" fill="#7A5751"/>
<rect width="2.79802" height="2.79802" transform="translate(42.4697 47.2993)" fill="#7A5751"/>
<rect width="2.79802" height="2.79802" transform="translate(34.6973 51.3408)" fill="#7A5751"/>
<rect width="2.79802" height="2.79802" transform="translate(39.9824 56.3152)" fill="#7A5751"/>
<rect width="2.79802" height="2.79802" transform="translate(37.1846 66.2637)" fill="#C9968D"/>
<rect width="2.79802" height="2.79802" transform="translate(37.1846 68.1289)" fill="#C9968D"/>
<rect width="2.79802" height="2.79802" transform="translate(34.6973 68.4399)" fill="#C9968D"/>
<rect width="2.79802" height="2.79802" transform="translate(37.1846 63.4656)" fill="#7A5751"/>
<rect width="2.79802" height="2.79802" transform="translate(39.9824 65.9526)" fill="#7A5751"/>
<rect width="2.79802" height="2.79802" transform="translate(39.9824 68.7507)" fill="#7A5751"/>
<rect width="2.79802" height="2.79802" transform="translate(37.4951 70.927)" fill="#7A5751"/>
<rect width="2.79802" height="2.79802" transform="translate(34.6973 70.927)" fill="#7A5751"/>
<rect width="2.79802" height="2.79802" transform="translate(31.8994 68.4399)" fill="#7A5751"/>
<rect width="2.79802" height="2.79802" transform="matrix(-1 0 0 1 56.1494 66.2637)" fill="#C9968D"/>
<rect width="2.79802" height="2.79802" transform="matrix(-1 0 0 1 56.1494 68.1289)" fill="#C9968D"/>
<rect width="2.79802" height="2.79802" transform="matrix(-1 0 0 1 58.6367 68.4399)" fill="#C9968D"/>
<rect width="2.79802" height="2.79802" transform="matrix(-1 0 0 1 56.1494 63.4656)" fill="#7A5751"/>
<rect width="2.79802" height="2.79802" transform="matrix(-1 0 0 1 53.3516 65.9526)" fill="#7A5751"/>
<rect width="2.79802" height="2.79802" transform="matrix(-1 0 0 1 53.3516 68.7507)" fill="#7A5751"/>
<rect width="2.79802" height="2.79802" transform="matrix(-1 0 0 1 55.8389 70.927)" fill="#7A5751"/>
<rect width="2.79802" height="2.79802" transform="matrix(-1 0 0 1 58.6367 70.927)" fill="#7A5751"/>
<rect width="2.79802" height="2.79802" transform="matrix(-1 0 0 1 61.4346 68.4399)" fill="#7A5751"/>
<rect width="2.79802" height="2.79802" transform="translate(42.7812 56.3152)" fill="#7A5751"/>
<rect width="2.79802" height="2.79802" transform="translate(45.5791 53.5171)" fill="#7A5751"/>
<rect width="2.79802" height="2.79802" transform="translate(48.377 56.3152)" fill="#7A5751"/>
<rect width="2.79802" height="2.79802" transform="translate(45.5791 56.3152)" fill="#FF9898"/>
<rect width="2.79802" height="2.79802" transform="translate(51.1748 56.3152)" fill="#7A5751"/>
<rect width="2.79802" height="2.79802" transform="translate(56.46 51.3408)" fill="#7A5751"/>
<rect width="2.79802" height="2.79802" transform="translate(48.0664 47.2993)" fill="#7A5751"/>
<rect width="2.79802" height="2.79802" transform="translate(32.2109 78.0776)" fill="#614540"/>
<rect width="2.79802" height="2.79802" transform="translate(43.4023 78.0776)" fill="#614540"/>
<rect width="2.79802" height="2.79802" transform="translate(54.5947 78.0776)" fill="#614540"/>
<rect width="2.79802" height="2.79802" transform="translate(37.8066 78.0776)" fill="#614540"/>
<rect width="2.79802" height="2.79802" transform="translate(48.999 78.0776)" fill="#614540"/>
<rect width="2.79802" height="2.79802" transform="translate(60.1904 78.0776)" fill="#614540"/>
<rect width="2.79802" height="2.79802" transform="translate(35.0088 78.0776)" fill="#614540"/>
<rect width="2.79802" height="2.79802" transform="translate(46.2002 78.0776)" fill="#614540"/>
<rect width="2.79802" height="2.79802" transform="translate(57.3926 78.0776)" fill="#614540"/>
<rect width="2.79802" height="2.79802" transform="translate(29.4121 78.0776)" fill="#614540"/>
<rect width="2.79802" height="2.79802" transform="translate(40.6045 78.0776)" fill="#614540"/>
<rect width="2.79802" height="2.79802" transform="translate(51.7969 78.0776)" fill="#614540"/>
<rect width="2.79802" height="2.79802" transform="translate(62.9883 78.0776)" fill="#614540"/>
</g>
<defs>
<linearGradient id="paint0_linear_3132_99389" x1="47" y1="0" x2="47" y2="94" gradientUnits="userSpaceOnUse">
<stop offset="1" stop-color="#BFD8B8"/>
</linearGradient>
<clipPath id="clip0_3132_99389">
<rect width="93.666" height="93.666" rx="4.6833" fill="white"/>
</clipPath>
<clipPath id="clip1_3132_99389">
<rect width="7.77229" height="7.77229" fill="white" transform="translate(42.4697 29.8894)"/>
</clipPath>
<clipPath id="clip2_3132_99389">
<rect width="4.66337" height="4.66337" fill="white" transform="translate(40.2939 37.6616)"/>
</clipPath>
<clipPath id="clip3_3132_99389">
<rect width="7.77229" height="7.77229" fill="white" transform="translate(47.7549 36.729)"/>
</clipPath>
<clipPath id="clip4_3132_99389">
<rect width="0.621783" height="4.66337" fill="white" transform="translate(55.5273 34.2419)"/>
</clipPath>
<clipPath id="clip5_3132_99389">
<rect width="2.79802" height="2.79802" fill="white" transform="translate(65.7871 78.0776)"/>
</clipPath>
</defs>
</svg>
