<svg width="24" height="24" viewBox="0 0 24 24" fill="none" xmlns="http://www.w3.org/2000/svg">
<rect width="24" height="24" rx="12" fill="#FF5652"/>
<path d="M13.2524 11.9991L17.071 8.18889C17.2382 8.02164 17.3321 7.79481 17.3321 7.55829C17.3321 7.32178 17.2382 7.09495 17.071 6.9277C16.9038 6.76046 16.677 6.6665 16.4405 6.6665C16.204 6.6665 15.9772 6.76046 15.81 6.9277L12.0003 10.7468L8.19067 6.9277C8.02345 6.76046 7.79666 6.6665 7.56017 6.6665C7.32369 6.6665 7.09689 6.76046 6.92967 6.9277C6.76245 7.09495 6.66851 7.32178 6.66851 7.55829C6.66851 7.79481 6.76245 8.02164 6.92967 8.18889L10.7482 11.9991L6.92967 15.8093C6.84644 15.8918 6.78037 15.9901 6.73529 16.0983C6.6902 16.2065 6.66699 16.3226 6.66699 16.4399C6.66699 16.5571 6.6902 16.6732 6.73529 16.7814C6.78037 16.8897 6.84644 16.9879 6.92967 17.0705C7.01222 17.1537 7.11044 17.2198 7.21866 17.2649C7.32687 17.31 7.44294 17.3332 7.56017 17.3332C7.6774 17.3332 7.79347 17.31 7.90169 17.2649C8.0099 17.2198 8.10812 17.1537 8.19067 17.0705L12.0003 13.2514L15.81 17.0705C15.8925 17.1537 15.9907 17.2198 16.099 17.2649C16.2072 17.31 16.3232 17.3332 16.4405 17.3332C16.5577 17.3332 16.6738 17.31 16.782 17.2649C16.8902 17.2198 16.9884 17.1537 17.071 17.0705C17.1542 16.9879 17.2203 16.8897 17.2654 16.7814C17.3104 16.6732 17.3337 16.5571 17.3337 16.4399C17.3337 16.3226 17.3104 16.2065 17.2654 16.0983C17.2203 15.9901 17.1542 15.8918 17.071 15.8093L13.2524 11.9991Z" fill="white"/>
</svg>
