<svg width="70" height="36" viewBox="0 0 70 36" fill="none" xmlns="http://www.w3.org/2000/svg">
<g filter="url(#filter0_d_1672_42023)">
<rect x="4" y="4" width="62" height="28" rx="14" fill="white"/>
<path d="M18.2656 14.1719C18.2656 15.5547 19.2266 16.832 20.7969 17.3477L20.1992 18.2266C19.0508 17.8223 18.1895 17.002 17.7383 15.9648C17.2754 17.1426 16.3848 18.0625 15.1602 18.5195L14.5625 17.6289C16.2031 17.043 17.1523 15.6484 17.1641 14.0781V13.0469H18.2656V14.1719ZM22.8945 12.4961V15.1328H24.418V16.0703H22.8945V18.8359H21.7812V12.4961H22.8945ZM19.5078 19.082C21.6641 19.082 22.9883 19.7969 22.9883 21.0273C22.9883 22.2695 21.6641 22.9844 19.5078 22.9727C17.3281 22.9844 15.9805 22.2695 15.9805 21.0273C15.9805 19.7969 17.3281 19.082 19.5078 19.082ZM19.5078 19.9609C17.9844 19.9609 17.082 20.3594 17.0938 21.0273C17.082 21.7188 17.9844 22.0938 19.5078 22.1055C21.0195 22.0938 21.8984 21.7188 21.8984 21.0273C21.8984 20.3594 21.0195 19.9609 19.5078 19.9609ZM34.5898 17.5234V18.4141H30.3477V19.5391H33.418V22.8672H26.1641V19.5391H29.2461V18.4141H25.0156V17.5234H34.5898ZM33.6875 12.8242V13.7266H32.1641V15.7305H33.6406V16.6328H25.9414V15.7305H27.4297V13.7266H25.8945V12.8242H33.6875ZM27.2656 20.418V21.9648H32.3398V20.418H27.2656ZM28.5312 15.7305H31.0508V13.7266H28.5312V15.7305ZM39.0312 14.1719C39.0312 15.543 39.9922 16.8203 41.5859 17.3477L41.0117 18.2148C39.8281 17.8223 38.9551 16.9844 38.5039 15.9297C38.041 17.084 37.1445 17.9688 35.9023 18.4023L35.3281 17.5234C36.9805 16.9609 37.9297 15.6016 37.9297 14.0781V13.0352H39.0312V14.1719ZM43.6367 12.4961V15.2031H45.1602V16.1406H43.6367V18.8594H42.5234V12.4961H43.6367ZM43.6367 19.3398V22.9961H42.5234V20.2422H36.6992V19.3398H43.6367ZM54.7695 12.4961V22.9961H53.7031V12.4961H54.7695ZM52.6367 12.7188V22.4688H51.582V17.125H49.9531V16.2109H51.582V12.7188H52.6367ZM48.9219 15.4258C48.9219 17.2188 49.6484 19.0117 51.125 19.8672L50.457 20.6875C49.4551 20.0898 48.7637 19.0293 48.4062 17.7578C48.0254 19.1289 47.3105 20.2949 46.2852 20.9336L45.6055 20.1016C47.0938 19.1992 47.8555 17.2891 47.8555 15.4258V14.582H45.9219V13.6797H50.7266V14.582H48.9219V15.4258Z" fill="black"/>
</g>
<defs>
<filter id="filter0_d_1672_42023" x="0" y="0" width="70" height="36" filterUnits="userSpaceOnUse" color-interpolation-filters="sRGB">
<feFlood flood-opacity="0" result="BackgroundImageFix"/>
<feColorMatrix in="SourceAlpha" type="matrix" values="0 0 0 0 0 0 0 0 0 0 0 0 0 0 0 0 0 0 127 0" result="hardAlpha"/>
<feOffset/>
<feGaussianBlur stdDeviation="2"/>
<feComposite in2="hardAlpha" operator="out"/>
<feColorMatrix type="matrix" values="0 0 0 0 0 0 0 0 0 0 0 0 0 0 0 0 0 0 0.25 0"/>
<feBlend mode="normal" in2="BackgroundImageFix" result="effect1_dropShadow_1672_42023"/>
<feBlend mode="normal" in="SourceGraphic" in2="effect1_dropShadow_1672_42023" result="shape"/>
</filter>
</defs>
</svg>
