<svg width="71" height="67" viewBox="0 0 71 67" fill="none" xmlns="http://www.w3.org/2000/svg">
<rect width="2.56626" height="2.56626" transform="translate(19.6748 5.9873)" fill="#A47971"/>
<rect width="2.56626" height="2.56626" transform="translate(17.1084 8.55273)" fill="#A47971"/>
<rect width="2.56626" height="2.56626" transform="translate(14.542 11.1191)" fill="#A47971"/>
<rect width="2.56626" height="2.56626" transform="translate(14.542 13.6855)" fill="#A47971"/>
<rect width="2.56626" height="2.56626" transform="translate(14.542 16.251)" fill="#A47971"/>
<rect width="2.56626" height="2.56626" transform="translate(9.40967 21.3828)" fill="#A47971"/>
<rect width="2.56626" height="2.56626" transform="translate(11.9756 21.3828)" fill="#A47971"/>
<rect width="2.56626" height="2.56626" transform="translate(14.542 21.9531)" fill="#A47971"/>
<rect width="2.56626" height="2.56626" transform="translate(17.1084 19.957)" fill="#A47971"/>
<rect width="2.56626" height="2.56626" transform="translate(19.6748 19.957)" fill="#A47971"/>
<rect width="2.56626" height="2.56626" transform="translate(22.2412 19.957)" fill="#A47971"/>
<rect width="2.56626" height="2.56626" transform="translate(24.8071 21.9531)" fill="#A47971"/>
<rect width="2.56626" height="2.56626" transform="translate(27.0884 24.2334)" fill="white"/>
<rect width="2.56626" height="2.56626" transform="translate(27.0884 26.5146)" fill="white"/>
<rect width="2.56626" height="2.56626" transform="translate(27.0884 29.0811)" fill="white"/>
<rect width="2.56626" height="2.56626" transform="translate(27.0884 31.6465)" fill="white"/>
<rect width="2.56626" height="2.56626" transform="translate(24.8071 33.6426)" fill="white"/>
<rect width="2.56626" height="2.56626" transform="translate(24.5225 35.0684)" fill="white"/>
<rect width="2.56626" height="2.56626" transform="translate(27.0884 35.0684)" fill="white"/>
<rect width="2.56626" height="2.56626" transform="translate(27.0884 34.2139)" fill="white"/>
<rect width="2.56626" height="2.56626" transform="translate(27.0884 37.6348)" fill="white"/>
<rect width="2.56626" height="2.56626" transform="translate(29.6548 37.6348)" fill="white"/>
<rect width="2.56626" height="7.98393" transform="translate(29.084 31.3613)" fill="white"/>
<rect width="8.83935" height="3.13654" transform="translate(31.3652 36.4941)" fill="white"/>
<rect width="4.2771" height="7.98393" transform="translate(39.3491 30.792)" fill="white"/>
<rect width="2.56626" height="2.56626" transform="translate(31.936 37.6348)" fill="white"/>
<rect width="2.56626" height="2.56626" transform="translate(37.0684 37.6348)" fill="white"/>
<rect width="2.56626" height="2.56626" transform="translate(39.6343 37.6348)" fill="white"/>
<rect width="2.56626" height="2.56626" transform="translate(41.9155 37.6348)" fill="white"/>
<rect width="2.56626" height="2.56626" transform="translate(47.0483 37.6348)" fill="white"/>
<rect width="2.56626" height="2.56626" transform="translate(47.0483 42.1963)" fill="white"/>
<rect width="2.56626" height="2.56626" transform="translate(27.0884 39.6299)" fill="white"/>
<rect width="2.56626" height="2.56626" transform="translate(29.6548 39.6299)" fill="white"/>
<rect width="2.56626" height="2.56626" transform="translate(37.0684 39.6299)" fill="white"/>
<rect width="2.56626" height="2.56626" transform="translate(31.936 39.6299)" fill="white"/>
<rect width="2.56626" height="2.56626" transform="translate(39.6343 39.6299)" fill="white"/>
<rect width="2.56626" height="2.56626" transform="translate(47.0483 39.6299)" fill="white"/>
<rect width="2.56626" height="2.56626" transform="translate(41.9155 39.6299)" fill="white"/>
<rect width="2.56626" height="2.56626" transform="translate(47.0483 44.1914)" fill="white"/>
<rect width="2.56626" height="2.56626" transform="translate(9.69482 23.9492)" fill="#A47971"/>
<rect width="2.56626" height="2.56626" transform="translate(9.69482 26.5146)" fill="#A47971"/>
<rect width="2.56626" height="2.56626" transform="translate(9.40967 34.2139)" fill="white"/>
<rect width="2.56626" height="2.56626" transform="translate(11.9756 33.6426)" fill="white"/>
<rect width="2.56626" height="2.56626" transform="translate(14.2568 35.9229)" fill="white"/>
<rect width="2.56626" height="2.56626" transform="translate(16.8232 35.9229)" fill="white"/>
<rect width="2.56626" height="2.56626" transform="translate(19.3896 35.9229)" fill="white"/>
<rect width="2.56626" height="2.56626" transform="translate(21.9561 35.9229)" fill="white"/>
<rect width="2.56626" height="2.56626" transform="translate(21.9561 38.4893)" fill="white"/>
<rect width="2.56626" height="2.56626" transform="translate(21.9561 41.0557)" fill="white"/>
<rect width="2.56626" height="2.56626" transform="translate(24.2373 42.7666)" fill="white"/>
<rect width="5.41767" height="4.56225" transform="translate(21.3857 43.3369)" fill="white"/>
<rect width="5.41767" height="4.56225" transform="translate(16.8232 43.3369)" fill="white"/>
<rect width="5.41767" height="4.56225" transform="translate(11.1206 49.3232)" fill="white"/>
<rect width="5.41767" height="4.56225" transform="translate(14.2568 57.877)" fill="white"/>
<rect width="3.70682" height="7.12851" transform="translate(18.249 53.0303)" fill="white"/>
<rect width="3.70682" height="4.2771" transform="translate(20.8154 55.8818)" fill="white"/>
<rect width="5.98795" height="1.99598" transform="translate(24.5225 58.1611)" fill="white"/>
<rect width="5.98795" height="1.99598" transform="translate(26.8032 46.7588)" fill="white"/>
<rect width="3.70682" height="4.2771" transform="translate(29.6548 56.167)" fill="white"/>
<rect width="2.56626" height="2.56626" transform="translate(26.8032 44.7617)" fill="white"/>
<rect width="2.56626" height="2.56626" transform="translate(29.3696 44.7617)" fill="white"/>
<rect width="2.56626" height="2.56626" transform="translate(31.936 44.7617)" fill="white"/>
<rect width="2.56626" height="2.56626" transform="translate(34.5024 44.7617)" fill="white"/>
<rect width="2.56626" height="2.56626" transform="translate(37.0684 44.7617)" fill="white"/>
<rect width="2.56626" height="2.56626" transform="translate(39.6343 44.7617)" fill="white"/>
<rect width="2.56626" height="2.56626" transform="translate(42.2007 44.7617)" fill="white"/>
<rect width="2.56626" height="2.56626" transform="translate(44.7671 44.7617)" fill="white"/>
<rect width="2.56626" height="2.56626" transform="translate(44.7671 42.7666)" fill="white"/>
<rect width="2.56626" height="2.56626" transform="translate(11.9756 36.209)" fill="white"/>
<rect width="2.56626" height="2.56626" transform="translate(11.9756 39.3447)" fill="white"/>
<rect width="2.56626" height="2.56626" transform="translate(11.9756 38.2051)" fill="white"/>
<rect width="2.56626" height="2.56626" transform="translate(12.8315 38.2051)" fill="white"/>
<rect width="3.99196" height="3.99196" transform="translate(12.1187 40.1992)" fill="white"/>
<rect width="2.56626" height="2.56626" transform="translate(9.40967 36.7783)" fill="white"/>
<rect width="2.56626" height="2.56626" transform="translate(11.9756 41.9111)" fill="white"/>
<rect width="2.56626" height="2.56626" transform="translate(22.2412 5.9873)" fill="#A47971"/>
<rect width="2.56626" height="2.56626" transform="translate(29.6548 9.12402)" fill="#A47971"/>
<rect width="2.56626" height="2.56626" transform="translate(32.2212 9.12402)" fill="#A47971"/>
<rect width="3.13654" height="3.13654" transform="translate(34.7876 10.834)" fill="#A47971"/>
<rect width="2.56626" height="2.56626" transform="translate(38.7793 9.12402)" fill="#A47971"/>
<rect width="2.56626" height="2.56626" transform="translate(44.1968 15.3945)" fill="#A47971"/>
<rect width="2.56626" height="2.56626" transform="translate(41.9155 15.3945)" fill="#A47971"/>
<rect width="2.56626" height="2.56626" transform="translate(39.6343 13.6855)" fill="#A47971"/>
<rect width="2.56626" height="2.56626" transform="translate(37.6387 13.1143)" fill="#A47971"/>
<rect width="2.56626" height="2.56626" transform="translate(32.5063 13.3994)" fill="#A47971"/>
<rect width="2.56626" height="2.56626" transform="translate(24.8071 8.55273)" fill="#A47971"/>
<rect width="2.56626" height="2.56626" transform="translate(27.3735 8.55273)" fill="#A47971"/>
<rect width="2.56626" height="2.56626" transform="translate(29.6548 6.55664)" fill="#A47971"/>
<rect width="2.56626" height="2.56626" transform="translate(32.2212 8.55273)" fill="#A47971"/>
<rect width="2.56626" height="2.56626" transform="translate(29.6548 11.1191)" fill="#A47971"/>
<rect width="2.56626" height="2.56626" transform="translate(32.2212 11.1191)" fill="#A47971"/>
<rect width="2.56626" height="2.56626" transform="translate(35.0728 13.1143)" fill="#A47971"/>
<rect width="2.56626" height="2.56626" transform="translate(36.7832 8.83789)" fill="#A47971"/>
<rect width="2.56626" height="2.56626" transform="translate(34.5024 8.83789)" fill="#A47971"/>
<rect width="2.56626" height="2.56626" transform="translate(38.7793 11.1191)" fill="#A47971"/>
<rect width="2.56626" height="2.56626" transform="translate(36.498 11.1191)" fill="#A47971"/>
<rect width="2.56626" height="2.56626" transform="translate(44.1968 17.3926)" fill="#A47971"/>
<rect width="2.56626" height="2.56626" transform="translate(44.1968 19.6729)" fill="#A47971"/>
<rect width="2.56626" height="2.56626" transform="translate(41.9155 17.3926)" fill="#A47971"/>
<rect width="2.56626" height="2.56626" transform="translate(39.6343 15.6807)" fill="#A47971"/>
<rect width="2.56626" height="2.56626" transform="translate(37.6387 15.1104)" fill="#A47971"/>
<rect width="2.56626" height="2.56626" transform="translate(65.8677 8.83789)" fill="#A47971"/>
<rect width="2.56626" height="2.56626" transform="translate(53.8916 13.1143)" fill="#A47971"/>
<rect width="2.56626" height="2.56626" transform="translate(53.8916 15.6807)" fill="#A47971"/>
<rect width="2.56626" height="2.56626" transform="translate(53.8916 17.9619)" fill="#A47971"/>
<rect width="2.56626" height="2.56626" transform="translate(56.458 19.957)" fill="#A47971"/>
<rect width="2.56626" height="2.56626" transform="translate(58.7393 22.2383)" fill="#A47971"/>
<rect width="2.56626" height="2.56626" transform="translate(56.458 22.2383)" fill="#A47971"/>
<rect width="2.56626" height="2.56626" transform="translate(54.1768 20.2432)" fill="#A47971"/>
<rect width="2.56626" height="2.56626" transform="translate(56.458 23.9492)" fill="#A47971"/>
<rect width="2.56626" height="2.56626" transform="translate(54.1768 21.9531)" fill="#A47971"/>
<rect width="2.56626" height="2.56626" transform="translate(51.04 19.957)" fill="#A47971"/>
<rect width="2.56626" height="2.56626" transform="translate(52.4658 19.957)" fill="#A47971"/>
<rect width="2.56626" height="2.56626" transform="translate(51.3252 11.1191)" fill="#A47971"/>
<rect width="2.56626" height="2.56626" transform="translate(46.478 13.3994)" fill="#A47971"/>
<rect width="2.56626" height="2.56626" transform="translate(48.7588 13.3994)" fill="#A47971"/>
<rect width="2.56626" height="2.56626" transform="translate(7.41406 4.56152)" fill="#A47971"/>
<rect width="2.56626" height="2.56626" transform="translate(9.98047 4.56152)" fill="#A47971"/>
<rect width="2.56626" height="2.56626" transform="translate(12.5464 4.56152)" fill="#A47971"/>
<rect width="2.56626" height="2.56626" transform="translate(14.542 4.56152)" fill="#A47971"/>
<rect width="2.56626" height="2.56626" transform="translate(17.1084 4.56152)" fill="#A47971"/>
<rect width="2.56626" height="2.56626" transform="translate(51.3252 13.3994)" fill="#A47971"/>
<rect width="2.56626" height="2.56626" transform="translate(51.3252 4.56152)" fill="#A47971"/>
<rect width="2.56626" height="2.56626" transform="translate(53.8916 4.56152)" fill="#A47971"/>
<rect width="2.56626" height="2.56626" transform="translate(56.458 4.56152)" fill="#A47971"/>
<rect width="2.56626" height="2.56626" transform="translate(59.0239 4.56152)" fill="#A47971"/>
<rect width="2.56626" height="2.56626" transform="translate(61.3052 4.56152)" fill="#A47971"/>
<rect width="2.56626" height="2.56626" transform="translate(48.7588 6.8418)" fill="#A47971"/>
<rect width="2.56626" height="2.56626" transform="translate(46.478 15.6807)" fill="#A47971"/>
<rect width="2.56626" height="2.56626" transform="translate(43.9116 8.83789)" fill="#A47971"/>
<rect width="2.56626" height="2.56626" transform="translate(41.3452 8.83789)" fill="#A47971"/>
<rect width="2.56626" height="2.56626" transform="translate(48.7588 15.6807)" fill="#A47971"/>
<rect width="2.56626" height="2.56626" transform="translate(7.41406 8.55273)" fill="#A47971"/>
<rect width="2.56626" height="2.56626" transform="translate(9.98047 8.55273)" fill="#A47971"/>
<rect width="2.56626" height="2.56626" transform="translate(12.5464 8.55273)" fill="#A47971"/>
<rect width="2.56626" height="2.56626" transform="translate(12.2607 10.834)" fill="#A47971"/>
<rect width="2.56626" height="2.56626" transform="translate(51.3252 17.3926)" fill="#A47971"/>
<rect width="2.56626" height="2.56626" transform="translate(14.542 8.55273)" fill="#A47971"/>
<rect width="2.56626" height="2.56626" transform="translate(51.3252 8.55273)" fill="#A47971"/>
<rect width="2.56626" height="2.56626" transform="translate(53.8916 8.55273)" fill="#A47971"/>
<rect width="2.56626" height="2.56626" transform="translate(53.8916 10.834)" fill="#A47971"/>
<rect width="2.56626" height="2.56626" transform="translate(56.458 8.55273)" fill="#A47971"/>
<rect width="2.56626" height="2.56626" transform="translate(48.7588 10.834)" fill="#A47971"/>
<rect width="2.56626" height="2.56626" transform="translate(46.478 10.834)" fill="#A47971"/>
<rect width="2.56626" height="2.56626" transform="translate(46.478 19.957)" fill="#A47971"/>
<rect width="2.56626" height="2.56626" transform="translate(43.9116 12.8301)" fill="#A47971"/>
<rect width="2.56626" height="2.56626" transform="translate(41.3452 12.8301)" fill="#A47971"/>
<rect width="2.56626" height="2.56626" transform="translate(48.7588 19.957)" fill="#A47971"/>
<rect width="2.56626" height="2.56626" transform="translate(7.41406 6.8418)" fill="#A47971"/>
<rect width="2.56626" height="2.56626" transform="translate(9.98047 6.8418)" fill="#A47971"/>
<rect width="2.56626" height="2.56626" transform="translate(12.5464 6.8418)" fill="#A47971"/>
<rect width="2.56626" height="2.56626" transform="translate(51.3252 15.6807)" fill="#A47971"/>
<rect width="2.56626" height="2.56626" transform="translate(14.542 6.8418)" fill="#A47971"/>
<rect width="2.56626" height="2.56626" transform="translate(17.1084 6.8418)" fill="#A47971"/>
<rect width="2.56626" height="2.56626" transform="translate(51.3252 6.8418)" fill="#A47971"/>
<rect width="2.56626" height="2.56626" transform="translate(53.8916 6.8418)" fill="#A47971"/>
<rect width="2.56626" height="2.56626" transform="translate(56.458 6.8418)" fill="#A47971"/>
<rect width="2.56626" height="2.56626" transform="translate(59.0239 6.8418)" fill="#A47971"/>
<rect width="2.56626" height="2.56626" transform="translate(61.3052 6.8418)" fill="#A47971"/>
<rect width="2.56626" height="2.56626" transform="translate(63.5864 6.8418)" fill="#A47971"/>
<rect width="2.56626" height="2.56626" transform="translate(48.7588 9.12402)" fill="#A47971"/>
<rect width="2.56626" height="2.56626" transform="translate(46.478 9.12402)" fill="#A47971"/>
<rect width="2.56626" height="2.56626" transform="translate(46.478 17.9619)" fill="#A47971"/>
<rect width="2.56626" height="2.56626" transform="translate(43.9116 11.1191)" fill="#A47971"/>
<rect width="2.56626" height="2.56626" transform="translate(41.3452 11.1191)" fill="#A47971"/>
<rect width="2.56626" height="2.56626" transform="translate(48.7588 17.9619)" fill="#A47971"/>
<rect width="2.56626" height="2.56626" transform="translate(5.13281 6.55664)" fill="#A47971"/>
<rect width="2.56626" height="2.56626" transform="translate(5.13281 8.55273)" fill="#A47971"/>
<rect width="2.56626" height="2.56626" transform="translate(2.56641 8.55273)" fill="#A47971"/>
<rect width="2.56626" height="2.56626" transform="translate(2.56641 11.1191)" fill="#A47971"/>
<rect width="2.56626" height="2.56626" transform="translate(55.6025 44.4775)" fill="#A47971"/>
<rect width="2.56626" height="2.56626" transform="translate(11.9756 44.1914)" fill="#A47971"/>
<rect width="2.56626" height="2.56626" transform="translate(14.542 44.1914)" fill="white"/>
<rect width="2.56626" height="2.56626" transform="translate(34.2168 33.9277)" fill="#C9968D"/>
<rect width="2.56626" height="2.56626" transform="translate(31.6509 31.3613)" fill="#C9968D"/>
<rect width="2.56626" height="2.56626" transform="translate(24.5225 40.1992)" fill="#C9968D"/>
<rect width="2.56626" height="2.56626" transform="translate(44.4819 40.1992)" fill="#C9968D"/>
<rect width="2.56626" height="2.56626" transform="translate(42.2007 42.1963)" fill="#C9968D"/>
<rect width="2.56626" height="2.56626" transform="translate(26.8032 42.1963)" fill="#C9968D"/>
<rect width="2.56626" height="2.56626" transform="translate(36.7832 31.3613)" fill="#C9968D"/>
<rect width="2.56626" height="2.56626" transform="translate(11.9756 46.7588)" fill="white"/>
<rect width="2.56626" height="2.56626" transform="translate(9.40967 49.3232)" fill="white"/>
<rect width="2.56626" height="2.56626" transform="translate(55.6025 46.7588)" fill="white"/>
<rect width="2.56626" height="2.56626" transform="translate(53.0361 44.1914)" fill="white"/>
<rect width="2.56626" height="2.56626" transform="translate(55.6025 41.9111)" fill="white"/>
<rect width="2.56626" height="2.56626" transform="translate(58.1689 34.2139)" fill="white"/>
<rect width="2.56626" height="2.56626" transform="translate(56.7432 33.6426)" fill="white"/>
<rect width="2.56626" height="2.56626" transform="translate(55.6025 35.9229)" fill="white"/>
<rect width="2.56626" height="2.56626" transform="translate(53.0361 35.9229)" fill="white"/>
<rect width="2.56626" height="2.56626" transform="translate(50.4702 35.9229)" fill="white"/>
<rect width="2.56626" height="2.56626" transform="translate(49.6147 35.9229)" fill="white"/>
<rect width="6.55823" height="6.55823" transform="translate(49.3296 37.6338)" fill="white"/>
<rect width="6.55823" height="6.55823" transform="translate(47.0483 44.1914)" fill="white"/>
<rect width="6.55823" height="6.55823" transform="translate(44.1968 46.7578)" fill="white"/>
<rect width="7.12851" height="7.12851" transform="translate(31.936 46.1865)" fill="white"/>
<rect width="3.42168" height="2.56626" transform="translate(29.3696 48.4678)" fill="white"/>
<rect width="7.12851" height="7.12851" transform="translate(19.6748 46.1865)" fill="white"/>
<rect width="7.12851" height="7.12851" transform="translate(14.542 46.1865)" fill="white"/>
<rect width="2.56626" height="2.56626" transform="translate(19.3896 13.3994)" fill="#A47971"/>
<rect width="2.56626" height="2.56626" transform="translate(17.1084 13.3994)" fill="#A47971"/>
<rect width="2.56626" height="2.56626" transform="translate(20.8154 13.3994)" fill="#A47971"/>
<rect width="2.56626" height="2.56626" transform="translate(17.1084 15.9658)" fill="#A47971"/>
<rect width="2.56626" height="2.56626" transform="translate(19.6748 15.9658)" fill="#A47971"/>
<rect width="2.56626" height="2.56626" transform="translate(20.5303 15.9658)" fill="#A47971"/>
<rect width="2.56626" height="2.56626" transform="translate(17.6787 17.6768)" fill="#A47971"/>
<rect width="2.56626" height="2.56626" transform="translate(20.2451 17.6768)" fill="#A47971"/>
<rect width="3.42168" height="3.42168" transform="translate(14.2568 18.5332)" fill="#A47971"/>
<rect width="1.99598" height="1.99598" transform="translate(27.9438 13.3994)" fill="#A47971"/>
<rect width="4.2771" height="4.2771" transform="translate(23.6665 19.3877)" fill="#A47971"/>
<rect width="4.2771" height="4.2771" transform="translate(28.5142 16.251)" fill="#A47971"/>
<rect width="5.41767" height="5.41767" transform="translate(26.6606 18.8164)" fill="#A47971"/>
<rect width="3.70682" height="3.70682" transform="translate(29.3696 21.3828)" fill="#A47971"/>
<g clip-path="url(#clip0_1672_43115)">
<rect width="7.12851" height="7.12851" transform="translate(31.6509 17.9619)" fill="white"/>
<rect width="2.58995" height="2.58995" transform="translate(33.9531 21.415)" fill="#A47971"/>
<rect width="6.61876" height="6.61876" transform="translate(32.8018 17.6738)" fill="#A47971"/>
<rect width="2.58995" height="2.58995" transform="translate(33.9531 17.3867)" fill="#A47971"/>
<rect width="2.58995" height="2.58995" transform="translate(36.543 17.3867)" fill="#A47971"/>
<rect width="2.58995" height="2.58995" transform="translate(31.3633 17.6738)" fill="#A47971"/>
<rect width="2.58995" height="2.58995" transform="translate(31.3633 19.9756)" fill="#A47971"/>
<rect width="2.58995" height="2.58995" transform="translate(31.3633 22.5664)" fill="#A47971"/>
</g>
<rect width="2.56626" height="2.56626" transform="translate(33.9321 23.6631)" fill="#A47971"/>
<rect width="2.56626" height="2.56626" transform="translate(33.9321 26.2305)" fill="#A47971"/>
<rect width="2.56626" height="2.56626" transform="translate(33.9321 28.7959)" fill="white"/>
<g clip-path="url(#clip1_1672_43115)">
<rect width="4.2771" height="4.2771" transform="translate(29.6548 25.0898)" fill="white"/>
<rect width="2.58995" height="2.58995" transform="translate(31.6689 24.5137)" fill="#A47971"/>
</g>
<rect width="4.2771" height="4.2771" transform="translate(29.6548 27.0859)" fill="white"/>
<g clip-path="url(#clip2_1672_43115)">
<rect width="7.12851" height="7.12851" transform="translate(36.498 24.2334)" fill="white"/>
<rect width="2.58995" height="8.05763" transform="translate(36.2104 19.0537)" fill="#A47971"/>
</g>
<rect width="7.41365" height="11.9745" transform="translate(42.4858 25.6592)" fill="white"/>
<rect width="20.245" height="15.3958" transform="translate(37.9238 47.3291)" fill="white"/>
<rect width="3.42168" height="4.56225" transform="translate(37.6387 20.2432)" fill="#A47971"/>
<rect width="3.70682" height="3.70682" transform="translate(41.3452 20.2432)" fill="#A47971"/>
<rect width="3.70682" height="3.70682" transform="translate(39.6343 20.2432)" fill="#A47971"/>
<rect width="2.56626" height="0.28514" transform="translate(41.0605 23.9492)" fill="white"/>
<g clip-path="url(#clip3_1672_43115)">
<rect width="0.570281" height="4.2771" transform="translate(43.6265 21.9531)" fill="white"/>
<rect width="3.74104" height="3.74104" transform="translate(40.749 20.2256)" fill="#A47971"/>
</g>
<rect width="7.12851" height="7.12851" transform="translate(14.8271 37.6338)" fill="white"/>
<rect width="7.12851" height="7.12851" transform="translate(11.9756 52.459)" fill="white"/>
<rect width="7.12851" height="7.12851" transform="translate(31.936 53.0303)" fill="white"/>
<rect width="6.55823" height="6.55823" transform="translate(49.0444 46.4727)" fill="white"/>
<rect width="6.55823" height="6.55823" transform="translate(49.0444 52.459)" fill="white"/>
<rect width="6.55823" height="6.55823" transform="translate(51.6108 49.3232)" fill="white"/>
<rect width="2.56626" height="2.56626" transform="translate(55.6025 38.4893)" fill="white"/>
<rect width="2.56626" height="2.56626" transform="translate(55.6025 39.6299)" fill="white"/>
<rect width="2.56626" height="2.56626" transform="translate(58.1689 36.7783)" fill="white"/>
<rect width="2.56626" height="2.56626" transform="translate(58.7393 26.5146)" fill="#A47971"/>
<rect width="2.56626" height="2.56626" transform="translate(59.0239 29.0811)" fill="white"/>
<rect width="2.56626" height="2.56626" transform="translate(59.0239 31.6465)" fill="white"/>
<rect width="2.56626" height="2.56626" transform="translate(9.40967 51.8896)" fill="white"/>
<rect width="2.56626" height="2.56626" transform="translate(58.1689 51.8896)" fill="white"/>
<rect width="2.56626" height="2.56626" transform="translate(9.40967 54.4561)" fill="white"/>
<rect width="2.56626" height="2.56626" transform="translate(58.1689 54.4561)" fill="white"/>
<rect width="2.56626" height="2.56626" transform="translate(58.1689 57.0205)" fill="white"/>
<rect width="2.56626" height="2.56626" transform="translate(11.9756 59.5879)" fill="white"/>
<rect width="2.56626" height="2.56626" transform="translate(55.6025 59.5879)" fill="white"/>
<rect width="2.56626" height="2.56626" transform="translate(6.84375 21.3828)" fill="#A47971"/>
<rect width="2.56626" height="2.56626" transform="translate(19.6748 8.55273)" fill="#A47971"/>
<rect width="2.56626" height="2.56626" transform="translate(17.1084 11.1191)" fill="#A47971"/>
<rect width="2.56626" height="2.56626" transform="translate(22.2412 11.1191)" fill="#A47971"/>
<rect width="2.56626" height="2.56626" transform="translate(22.2412 8.55273)" fill="#A47971"/>
<rect width="2.56626" height="2.56626" transform="translate(19.6748 11.1191)" fill="#A47971"/>
<rect width="2.56626" height="2.56626" transform="translate(24.8071 11.1191)" fill="#A47971"/>
<rect width="2.56626" height="2.56626" transform="translate(27.3735 11.1191)" fill="#A47971"/>
<rect width="2.56626" height="2.56626" transform="translate(29.9399 13.6855)" fill="#A47971"/>
<rect width="2.56626" height="2.56626" transform="translate(23.3818 13.6855)" fill="#A47971"/>
<rect width="2.56626" height="2.56626" transform="translate(25.9478 13.6855)" fill="#A47971"/>
<rect width="2.56626" height="2.56626" transform="translate(23.0967 15.9658)" fill="#A47971"/>
<rect width="2.56626" height="2.56626" transform="translate(22.2412 17.9619)" fill="#A47971"/>
<rect width="2.56626" height="2.56626" transform="translate(24.8071 17.6768)" fill="#A47971"/>
<rect width="2.56626" height="2.56626" transform="translate(25.6631 15.9658)" fill="#A47971"/>
<rect width="2.56626" height="2.56626" transform="translate(26.2329 16.5361)" fill="#A47971"/>
<rect width="2.56626" height="2.56626" transform="translate(27.6587 14.8252)" fill="#A47971"/>
<rect width="2.56626" height="2.56626" transform="translate(32.5063 15.6807)" fill="#A47971"/>
<rect width="2.56626" height="2.56626" transform="translate(35.0728 15.6807)" fill="#A47971"/>
<rect width="2.56626" height="2.56626" transform="translate(37.6387 17.6768)" fill="#A47971"/>
<rect width="2.56626" height="2.56626" transform="translate(39.3491 17.6768)" fill="#A47971"/>
<rect width="2.56626" height="2.56626" transform="translate(41.9155 19.957)" fill="#A47971"/>
<rect width="2.28112" height="2.56626" transform="translate(44.1968 21.9531)" fill="#A47971"/>
<rect width="2.56626" height="2.56626" transform="translate(9.69482 18.8164)" fill="#CC8282"/>
<rect width="2.56626" height="2.56626" transform="translate(9.40967 17.1074)" fill="#CC8282"/>
<rect width="2.56626" height="2.56626" transform="translate(11.9756 17.3926)" fill="#CC8282"/>
<rect width="2.56626" height="2.56626" transform="translate(17.1084 22.5244)" fill="#252525"/>
<rect width="2.56626" height="2.56626" transform="translate(14.8271 24.5195)" fill="#252525"/>
<rect width="2.56626" height="2.56626" transform="translate(5.13281 13.4004)" fill="#CC8282"/>
<rect width="2.56626" height="2.56626" transform="translate(2.56641 15.3945)" fill="#CC8282"/>
<rect width="2.56626" height="2.56626" transform="translate(5.13281 15.6816)" fill="#CC8282"/>
<rect width="2.56626" height="2.56626" transform="translate(7.69922 15.6816)" fill="#CC8282"/>
<rect width="2.56626" height="2.56626" transform="translate(7.69873 17.6768)" fill="#CC8282"/>
<rect width="2.56626" height="2.56626" transform="translate(9.98047 15.6816)" fill="#CC8282"/>
<rect width="2.56626" height="2.56626" transform="translate(5.13232 17.6768)" fill="#CC8282"/>
<rect width="2.56626" height="2.56626" transform="translate(7.69922 13.4004)" fill="#CC8282"/>
<rect width="2.56626" height="2.56626" transform="translate(9.98047 13.4004)" fill="#CC8282"/>
<rect width="2.56626" height="2.56626" transform="translate(14.8271 26.5146)" fill="#252525"/>
<rect width="2.56626" height="2.56626" transform="translate(14.8271 28.7959)" fill="#252525"/>
<rect width="2.56626" height="2.56626" transform="translate(17.3936 28.7959)" fill="#252525"/>
<rect width="2.56626" height="2.56626" transform="translate(17.3936 31.0762)" fill="#252525"/>
<rect width="2.56626" height="2.56626" transform="translate(22.2412 28.7959)" fill="#252525"/>
<rect width="2.56626" height="2.56626" transform="translate(22.2412 31.0762)" fill="#252525"/>
<rect width="2.56626" height="2.56626" transform="translate(19.96 31.0762)" fill="#252525"/>
<rect width="2.56626" height="2.56626" transform="translate(12.2607 26.5146)" fill="#252525"/>
<rect width="2.56626" height="2.56626" transform="translate(12.2607 28.7959)" fill="#252525"/>
<rect width="2.56626" height="2.56626" transform="translate(12.2607 31.0762)" fill="#252525"/>
<rect width="2.56626" height="2.56626" transform="translate(19.6748 33.3584)" fill="#252525"/>
<rect width="2.56626" height="2.56626" transform="translate(14.542 33.3584)" fill="#252525"/>
<rect width="2.56626" height="2.56626" transform="translate(19.6748 22.5244)" fill="#252525"/>
<rect width="2.56626" height="2.56626" transform="translate(22.2412 22.5244)" fill="#252525"/>
<rect width="2.56626" height="2.56626" transform="translate(24.5225 24.5195)" fill="#252525"/>
<rect width="2.56626" height="2.56626" transform="translate(24.5225 26.8008)" fill="#252525"/>
<rect width="2.56626" height="2.56626" transform="translate(24.5225 28.7959)" fill="#252525"/>
<rect width="2.56626" height="2.56626" transform="translate(24.5225 31.0762)" fill="#252525"/>
<rect width="2.56626" height="2.56626" transform="translate(17.3936 24.5195)" fill="#252525"/>
<rect width="2.56626" height="2.56626" transform="translate(22.2412 33.3584)" fill="#252525"/>
<rect width="2.56626" height="2.56626" transform="translate(17.1084 33.3584)" fill="#252525"/>
<rect width="2.56626" height="2.56626" transform="translate(14.8271 31.0762)" fill="#BFD8B8"/>
<rect width="2.56626" height="2.56626" transform="translate(17.3936 26.5146)" fill="#BFD8B8"/>
<rect width="2.56626" height="2.56626" transform="translate(19.96 26.5146)" fill="#BFD8B8"/>
<rect width="2.56626" height="2.56626" transform="translate(19.96 28.7959)" fill="#BFD8B8"/>
<rect width="2.56626" height="2.56626" transform="translate(19.96 24.8057)" fill="#BFD8B8"/>
<rect width="2.56626" height="2.56626" transform="translate(22.2412 24.8057)" fill="#BFD8B8"/>
<rect width="2.56626" height="2.56626" transform="translate(22.2412 26.5146)" fill="#BFD8B8"/>
<rect width="2.56626" height="2.56626" transform="translate(11.9756 18.8164)" fill="#A47971"/>
<rect width="2.56626" height="2.56626" transform="translate(12.2607 23.9492)" fill="#A47971"/>
<rect width="2.56626" height="2.56626" transform="translate(9.69482 29.0811)" fill="white"/>
<rect width="2.56626" height="2.56626" transform="translate(9.12451 29.0811)" fill="white"/>
<rect width="2.56626" height="2.56626" transform="translate(9.69482 31.6465)" fill="white"/>
<rect width="2.56626" height="2.56626" transform="translate(8.83984 31.6465)" fill="white"/>
<rect width="2.56626" height="2.56626" transform="translate(2.56641 13.1143)" fill="#614540"/>
<rect width="2.56626" height="2.56626" transform="translate(0 6.55664)" fill="#614540"/>
<rect width="2.56626" height="2.56626" transform="translate(2.56641 3.99023)" fill="#614540"/>
<rect width="2.56626" height="2.56626" transform="translate(4.84766 2.28027)" fill="#614540"/>
<rect width="2.56626" height="2.56626" transform="translate(7.41357)" fill="#614540"/>
<rect width="2.56626" height="2.56626" transform="translate(9.97998)" fill="#614540"/>
<rect width="2.56626" height="2.56626" transform="translate(12.5459)" fill="#614540"/>
<rect width="2.56626" height="2.56626" transform="translate(15.1123)" fill="#614540"/>
<rect width="2.56626" height="2.56626" transform="translate(17.1084)" fill="#614540"/>
<rect width="2.56626" height="2.56626" transform="translate(19.3896 2.28027)" fill="#614540"/>
<rect width="2.56626" height="2.56626" transform="translate(29.3696 2.28027)" fill="#614540"/>
<rect width="2.56626" height="2.56626" transform="translate(24.8071 4.56152)" fill="#614540"/>
<rect width="2.56626" height="2.56626" transform="translate(27.0884 4.56152)" fill="#614540"/>
<rect width="2.56626" height="2.56626" transform="translate(31.936 4.56152)" fill="#614540"/>
<rect width="2.56626" height="2.56626" transform="translate(36.7832 4.56152)" fill="#614540"/>
<rect width="2.56626" height="2.56626" transform="translate(41.9155 4.56152)" fill="#614540"/>
<rect width="2.56626" height="2.56626" transform="translate(44.4819 4.56152)" fill="#614540"/>
<rect width="2.56626" height="2.56626" transform="translate(46.478 2.28027)" fill="#614540"/>
<rect width="2.56626" height="2.56626" transform="translate(49.0444 2.28027)" fill="#614540"/>
<rect width="2.56626" height="2.56626" transform="translate(34.2168 2.28027)" fill="#614540"/>
<rect width="2.56626" height="2.56626" transform="translate(39.3491 2.28027)" fill="#614540"/>
<rect width="2.56626" height="2.56626" transform="translate(21.9561 2.28027)" fill="#614540"/>
<rect width="2.56626" height="2.56626" transform="translate(0 9.12402)" fill="#614540"/>
<rect width="2.56626" height="2.56626" transform="translate(0 11.6895)" fill="#614540"/>
<rect width="2.56626" height="2.56626" transform="translate(0 14.2549)" fill="#614540"/>
<rect width="2.56626" height="2.56626" transform="translate(0 15.3945)" fill="#614540"/>
<rect width="2.56626" height="2.56626" transform="translate(5.13281 10.834)" fill="#614540"/>
<rect width="2.56626" height="2.56626" transform="translate(7.69922 10.834)" fill="#614540"/>
<rect width="2.56626" height="2.56626" transform="translate(9.69482 10.834)" fill="#614540"/>
<rect width="2.56626" height="2.56626" transform="translate(12.2607 13.3994)" fill="#614540"/>
<rect width="2.56626" height="2.56626" transform="translate(56.458 13.3994)" fill="#614540"/>
<rect width="2.56626" height="2.56626" transform="translate(58.7393 10.834)" fill="#614540"/>
<rect width="2.56626" height="2.56626" transform="translate(61.3052 10.834)" fill="#614540"/>
<rect width="2.56626" height="2.56626" transform="translate(63.5864 10.834)" fill="#614540"/>
<rect width="2.56626" height="2.56626" transform="translate(66.1528 13.1143)" fill="#614540"/>
<rect width="2.56626" height="2.56626" transform="translate(63.8716 22.2383)" fill="#614540"/>
<rect width="2.56626" height="2.56626" transform="translate(61.5903 19.6729)" fill="#614540"/>
<rect width="2.56626" height="2.56626" transform="translate(63.8716 19.6729)" fill="#614540"/>
<rect width="2.56626" height="2.56626" transform="translate(65.8677 17.6768)" fill="#614540"/>
<rect width="2.56626" height="2.56626" transform="translate(68.4341 15.6807)" fill="#614540"/>
<rect width="2.56626" height="2.56626" transform="translate(68.4341 13.1143)" fill="#614540"/>
<rect width="2.56626" height="2.56626" transform="translate(68.4341 10.5498)" fill="#614540"/>
<rect width="2.56626" height="2.56626" transform="translate(68.4341 7.9834)" fill="#614540"/>
<rect width="2.56626" height="2.56626" transform="translate(68.4341 6.55664)" fill="#614540"/>
<rect width="2.56626" height="2.56626" transform="translate(65.8677 3.99023)" fill="#614540"/>
<rect width="2.56626" height="2.56626" transform="translate(63.5864 2.28027)" fill="#614540"/>
<rect width="2.56626" height="2.56626" transform="translate(61.02)" fill="#614540"/>
<rect width="2.56626" height="2.56626" transform="translate(58.4536)" fill="#614540"/>
<rect width="2.56626" height="2.56626" transform="translate(55.8877)" fill="#614540"/>
<rect width="2.56626" height="2.56626" transform="translate(53.3213)" fill="#614540"/>
<rect width="2.56626" height="2.56626" transform="translate(51.3252)" fill="#614540"/>
<rect width="2.56626" height="2.56626" transform="translate(12.2607 14.8252)" fill="#614540"/>
<rect width="2.56626" height="2.56626" transform="translate(56.458 14.8252)" fill="#614540"/>
<rect width="2.56626" height="2.56626" transform="translate(2.56641 17.9619)" fill="#614540"/>
<rect width="2.56626" height="2.56626" transform="translate(4.5625 20.2432)" fill="#614540"/>
<rect width="2.56626" height="2.56626" transform="translate(4.5625 22.2383)" fill="#614540"/>
<rect width="2.56626" height="2.56626" transform="translate(7.12842 23.9492)" fill="#614540"/>
<rect width="2.56626" height="2.56626" transform="translate(5.13281 29.0811)" fill="#614540"/>
<rect width="2.56626" height="2.56626" transform="translate(5.13281 33.9277)" fill="#614540"/>
<rect width="2.56626" height="2.56626" transform="translate(5.13281 37.3496)" fill="#614540"/>
<rect width="2.56626" height="2.56626" transform="translate(6.84375 34.2139)" fill="#614540"/>
<rect width="2.56626" height="2.56626" transform="translate(7.12842 26.5146)" fill="#614540"/>
<rect width="2.56626" height="2.56626" transform="translate(5.13281 31.6465)" fill="#614540"/>
<rect width="2.56626" height="2.56626" transform="translate(5.13281 36.4941)" fill="#614540"/>
<rect width="2.56626" height="2.56626" transform="translate(5.13281 39.916)" fill="#614540"/>
<rect width="2.56626" height="2.56626" transform="translate(7.41406 39.3447)" fill="#614540"/>
<rect width="2.56626" height="2.56626" transform="translate(7.41406 44.1914)" fill="#614540"/>
<rect width="2.56626" height="2.56626" transform="translate(5.13281 51.8896)" fill="#614540"/>
<rect width="2.56626" height="2.56626" transform="translate(7.41406 41.626)" fill="#614540"/>
<rect width="2.56626" height="2.56626" transform="translate(5.13281 49.3232)" fill="#614540"/>
<rect width="2.56626" height="2.56626" transform="translate(7.41406 46.7588)" fill="#614540"/>
<rect width="2.56626" height="2.56626" transform="translate(5.13281 54.4561)" fill="#614540"/>
<rect width="2.56626" height="2.56626" transform="translate(5.13281 55.5967)" fill="#614540"/>
<rect width="2.56626" height="2.56626" transform="translate(0 35.6377)" fill="#614540"/>
<rect width="2.56626" height="2.56626" transform="translate(2.56641 35.6377)" fill="#614540"/>
<rect width="2.56626" height="2.56626" transform="translate(7.12842 20.2432)" fill="#614540"/>
<rect width="2.56626" height="2.56626" transform="translate(6.84375 29.0811)" fill="white"/>
<rect width="2.56626" height="2.56626" transform="translate(6.84375 31.6465)" fill="white"/>
<rect width="2.56626" height="2.56626" transform="translate(6.84375 36.7783)" fill="white"/>
<rect width="2.56626" height="2.56626" transform="translate(9.40967 39.3447)" fill="white"/>
<rect width="2.56626" height="2.56626" transform="translate(9.40967 41.9111)" fill="#A47971"/>
<rect width="2.56626" height="2.56626" transform="translate(9.40967 44.4775)" fill="#A47971"/>
<rect width="2.56626" height="2.56626" transform="translate(9.40967 46.7588)" fill="#A47971"/>
<rect width="2.56626" height="2.56626" transform="translate(6.84375 49.3232)" fill="#A47971"/>
<rect width="2.56626" height="2.56626" transform="translate(6.84375 53.3154)" fill="#A47971"/>
<rect width="2.56626" height="2.56626" transform="translate(6.84375 51.6045)" fill="#A47971"/>
<rect width="2.56626" height="2.56626" transform="translate(6.84375 55.5967)" fill="#A47971"/>
<rect width="2.56626" height="2.56626" transform="translate(7.69922 58.1611)" fill="#614540"/>
<rect width="2.56626" height="2.56626" transform="translate(7.69922 59.5879)" fill="#614540"/>
<rect width="2.56626" height="2.56626" transform="translate(5.13281 62.1533)" fill="#614540"/>
<rect width="2.56626" height="2.56626" transform="translate(7.69922 64.4336)" fill="#614540"/>
<rect width="2.56626" height="2.56626" transform="translate(54.1768 64.4336)" fill="#614540"/>
<rect width="2.56626" height="2.56626" transform="translate(10.2651 64.4336)" fill="#614540"/>
<rect width="2.56626" height="2.56626" transform="translate(56.7432 64.4336)" fill="#614540"/>
<rect width="2.56626" height="2.56626" transform="translate(12.8315 64.4336)" fill="#614540"/>
<rect width="2.56626" height="2.56626" transform="translate(59.3096 64.4336)" fill="#614540"/>
<rect width="2.56626" height="2.56626" transform="translate(14.8271 64.4336)" fill="#614540"/>
<rect width="2.56626" height="2.56626" transform="translate(61.3052 64.4336)" fill="#614540"/>
<rect width="2.56626" height="2.56626" transform="translate(62.4458 62.1533)" fill="#614540"/>
<rect width="2.56626" height="2.56626" transform="translate(60.7349 59.5879)" fill="#614540"/>
<rect width="2.56626" height="2.56626" transform="translate(60.7349 57.877)" fill="#614540"/>
<rect width="2.56626" height="2.56626" transform="translate(60.7349 57.877)" fill="#614540"/>
<rect width="2.56626" height="2.56626" transform="translate(62.4458 55.5967)" fill="#614540"/>
<rect width="2.56626" height="2.56626" transform="translate(60.4497 47.042)" fill="#614540"/>
<rect width="2.56626" height="2.56626" transform="translate(62.4458 53.3154)" fill="#614540"/>
<rect width="2.56626" height="2.56626" transform="translate(60.4497 44.7617)" fill="#614540"/>
<rect width="2.56626" height="2.56626" transform="translate(62.4458 51.3193)" fill="#614540"/>
<rect width="2.56626" height="2.56626" transform="translate(60.4497 42.7666)" fill="#614540"/>
<rect width="2.56626" height="2.56626" transform="translate(62.4458 49.3232)" fill="#614540"/>
<rect width="2.56626" height="2.56626" transform="translate(60.4497 40.7705)" fill="#614540"/>
<rect width="2.56626" height="2.56626" transform="translate(60.4497 39.3447)" fill="#614540"/>
<rect width="2.56626" height="2.56626" transform="translate(63.0161 39.3447)" fill="#614540"/>
<rect width="2.56626" height="2.56626" transform="translate(61.8755 36.7783)" fill="#614540"/>
<rect width="2.56626" height="2.56626" transform="translate(60.7349 34.2139)" fill="#614540"/>
<rect width="2.56626" height="2.56626" transform="translate(61.8755 31.6465)" fill="#614540"/>
<rect width="2.56626" height="2.56626" transform="translate(61.8755 29.0811)" fill="#614540"/>
<rect width="2.56626" height="2.56626" transform="translate(63.3013 35.6377)" fill="#614540"/>
<rect width="2.56626" height="2.56626" transform="translate(65.8677 35.6377)" fill="#614540"/>
<rect width="2.56626" height="2.56626" transform="translate(68.4341 35.6377)" fill="#614540"/>
<rect width="2.56626" height="2.56626" transform="translate(61.3052 26.5146)" fill="#614540"/>
<rect width="2.56626" height="2.56626" transform="translate(61.3052 24.5186)" fill="#614540"/>
<rect width="2.56626" height="2.56626" transform="translate(59.8794 59.5879)" fill="#614540"/>
<rect width="2.56626" height="2.56626" transform="translate(9.40967 59.5879)" fill="#A47971"/>
<rect width="2.56626" height="2.56626" transform="translate(19.6748 60.1582)" fill="#A47971"/>
<rect width="2.56626" height="2.56626" transform="translate(29.9399 60.1582)" fill="#A47971"/>
<rect width="2.56626" height="2.56626" transform="translate(40.2051 60.1582)" fill="#A47971"/>
<rect width="2.56626" height="2.56626" transform="translate(22.2412 60.1582)" fill="#A47971"/>
<rect width="2.56626" height="2.56626" transform="translate(32.5063 60.1582)" fill="#A47971"/>
<rect width="2.56626" height="2.56626" transform="translate(42.771 60.1582)" fill="#A47971"/>
<rect width="2.56626" height="2.56626" transform="translate(24.8071 60.1582)" fill="#A47971"/>
<rect width="2.56626" height="2.56626" transform="translate(35.0728 60.1582)" fill="#A47971"/>
<rect width="2.56626" height="2.56626" transform="translate(45.3374 60.1582)" fill="#A47971"/>
<rect width="2.56626" height="2.56626" transform="translate(27.3735 60.1582)" fill="#A47971"/>
<rect width="2.56626" height="2.56626" transform="translate(37.6387 60.1582)" fill="#A47971"/>
<rect width="2.56626" height="2.56626" transform="translate(47.9038 60.1582)" fill="#A47971"/>
<rect width="2.56626" height="2.56626" transform="translate(49.0444 60.1582)" fill="#A47971"/>
<rect width="2.56626" height="2.56626" transform="translate(9.40967 62.1533)" fill="#A47971"/>
<rect width="2.56626" height="2.56626" transform="translate(6.84375 62.1533)" fill="#A47971"/>
<rect width="2.56626" height="2.56626" transform="translate(9.40967 57.0205)" fill="white"/>
<rect width="2.56626" height="2.56626" transform="translate(11.9756 62.1533)" fill="white"/>
<rect width="2.56626" height="2.56626" transform="translate(17.3936 62.1533)" fill="#614540"/>
<rect width="2.8514" height="2.8514" transform="translate(14.542 61.8682)" fill="white"/>
<rect width="2.56626" height="2.56626" transform="translate(58.1689 62.1533)" fill="#A47971"/>
<rect width="2.56626" height="2.56626" transform="translate(60.7349 62.1533)" fill="#A47971"/>
<g clip-path="url(#clip4_1672_43115)">
<rect width="2.56626" height="2.56626" transform="translate(53.0361 62.1533)" fill="white"/>
<rect width="2.58995" height="2.58995" transform="translate(51.5972 62.1533)" fill="#614540"/>
</g>
<rect width="2.56626" height="2.56626" transform="translate(55.6025 62.1533)" fill="white"/>
<rect width="2.56626" height="2.56626" transform="translate(58.1689 59.5879)" fill="#A47971"/>
<rect width="2.56626" height="2.56626" transform="translate(60.7349 49.3232)" fill="#A47971"/>
<rect width="2.56626" height="2.56626" transform="translate(60.7349 51.6045)" fill="#A47971"/>
<rect width="2.56626" height="2.56626" transform="translate(60.7349 54.1709)" fill="#A47971"/>
<rect width="2.56626" height="2.56626" transform="translate(60.7349 56.7373)" fill="#A47971"/>
<rect width="2.56626" height="2.56626" transform="translate(58.1689 41.9111)" fill="#A47971"/>
<rect width="2.56626" height="2.56626" transform="translate(58.1689 44.1914)" fill="#A47971"/>
<rect width="2.56626" height="2.56626" transform="translate(58.1689 46.7588)" fill="#A47971"/>
<rect width="2.56626" height="2.56626" transform="translate(58.1689 49.3232)" fill="white"/>
<rect width="2.56626" height="2.56626" transform="translate(58.1689 39.3447)" fill="white"/>
<rect width="2.56626" height="2.56626" transform="translate(60.7349 36.7783)" fill="white"/>
<rect width="2.56626" height="2.56626" transform="translate(60.7349 31.6465)" fill="white"/>
<rect width="2.56626" height="2.56626" transform="translate(60.7349 29.0811)" fill="white"/>
<rect width="2.56626" height="2.56626" transform="translate(58.7393 23.9492)" fill="#A47971"/>
<rect width="2.56626" height="2.56626" transform="translate(61.3052 22.2383)" fill="#A47971"/>
<rect width="2.56626" height="2.56626" transform="matrix(-1 0 0 1 54.1763 22.5244)" fill="#252525"/>
<rect width="2.56626" height="2.56626" transform="matrix(-1 0 0 1 56.4575 24.5195)" fill="#252525"/>
<rect width="2.56626" height="2.56626" transform="matrix(-1 0 0 1 56.4575 26.5146)" fill="#252525"/>
<rect width="2.56626" height="2.56626" transform="matrix(-1 0 0 1 56.4575 28.7959)" fill="#252525"/>
<rect width="2.56626" height="2.56626" transform="matrix(-1 0 0 1 53.8911 28.7959)" fill="#252525"/>
<rect width="2.56626" height="2.56626" transform="matrix(-1 0 0 1 53.8911 31.0762)" fill="#252525"/>
<rect width="2.56626" height="2.56626" transform="matrix(-1 0 0 1 49.0439 28.7959)" fill="#252525"/>
<rect width="2.56626" height="2.56626" transform="matrix(-1 0 0 1 49.0439 31.0762)" fill="#252525"/>
<rect width="2.56626" height="2.56626" transform="matrix(-1 0 0 1 51.3247 31.0762)" fill="#252525"/>
<rect width="2.56626" height="2.56626" transform="matrix(-1 0 0 1 59.0239 26.5146)" fill="#252525"/>
<rect width="2.56626" height="2.56626" transform="matrix(-1 0 0 1 59.0239 28.7959)" fill="#252525"/>
<rect width="2.56626" height="2.56626" transform="matrix(-1 0 0 1 59.0239 31.0762)" fill="#252525"/>
<rect width="2.56626" height="2.56626" transform="matrix(-1 0 0 1 51.6104 33.3584)" fill="#252525"/>
<rect width="2.56626" height="2.56626" transform="matrix(-1 0 0 1 56.7427 33.3584)" fill="#252525"/>
<rect width="2.56626" height="2.56626" transform="matrix(-1 0 0 1 51.6104 22.5244)" fill="#252525"/>
<rect width="2.56626" height="2.56626" transform="matrix(-1 0 0 1 49.0439 22.5244)" fill="#252525"/>
<rect width="2.56626" height="2.56626" transform="matrix(-1 0 0 1 63.8711 13.4004)" fill="#CC8282"/>
<rect width="2.56626" height="2.56626" transform="matrix(-1 0 0 1 66.1523 13.4004)" fill="#CC8282"/>
<rect width="2.56626" height="2.56626" transform="matrix(-1 0 0 1 61.5898 19.6729)" fill="#CC8282"/>
<rect width="2.56626" height="2.56626" transform="matrix(-1 0 0 1 61.5898 17.1074)" fill="#CC8282"/>
<rect width="2.56626" height="2.56626" transform="matrix(-1 0 0 1 68.4336 15.6816)" fill="#CC8282"/>
<rect width="2.56626" height="2.56626" transform="matrix(-1 0 0 1 66.1523 17.6768)" fill="#CC8282"/>
<rect width="2.56626" height="2.56626" transform="matrix(-1 0 0 1 63.5859 17.6768)" fill="#CC8282"/>
<rect width="2.56626" height="2.56626" transform="matrix(-1 0 0 1 63.5859 15.6816)" fill="#CC8282"/>
<rect width="2.56626" height="2.56626" transform="matrix(-1 0 0 1 65.8672 15.6816)" fill="#CC8282"/>
<rect width="2.56626" height="2.56626" transform="matrix(-1 0 0 1 46.7627 24.5195)" fill="#252525"/>
<rect width="2.56626" height="2.56626" transform="matrix(-1 0 0 1 46.7627 26.8008)" fill="#252525"/>
<rect width="2.56626" height="2.56626" transform="matrix(-1 0 0 1 46.7627 28.7959)" fill="#252525"/>
<rect width="2.56626" height="2.56626" transform="matrix(-1 0 0 1 46.7627 31.0762)" fill="#252525"/>
<rect width="2.56626" height="2.56626" transform="matrix(-1 0 0 1 53.8911 24.5195)" fill="#252525"/>
<rect width="2.56626" height="2.56626" transform="matrix(-1 0 0 1 49.0439 33.3584)" fill="#252525"/>
<rect width="2.56626" height="2.56626" transform="matrix(-1 0 0 1 54.1763 33.3584)" fill="#252525"/>
<rect width="2.56626" height="2.56626" transform="matrix(-1 0 0 1 56.4575 31.0762)" fill="#BFD8B8"/>
<rect width="2.56626" height="2.56626" transform="matrix(-1 0 0 1 53.8911 26.5146)" fill="#BFD8B8"/>
<rect width="2.56626" height="2.56626" transform="matrix(-1 0 0 1 51.3247 26.5146)" fill="#BFD8B8"/>
<rect width="2.56626" height="2.56626" transform="matrix(-1 0 0 1 51.3247 28.7959)" fill="#BFD8B8"/>
<rect width="2.56626" height="2.56626" transform="matrix(-1 0 0 1 51.3247 24.8057)" fill="#BFD8B8"/>
<rect width="2.56626" height="2.56626" transform="matrix(-1 0 0 1 49.0439 24.8057)" fill="#BFD8B8"/>
<rect width="2.56626" height="2.56626" transform="matrix(-1 0 0 1 49.0439 26.5146)" fill="#BFD8B8"/>
<rect width="2.56626" height="2.56626" transform="matrix(-1 0 0 1 61.3047 13.4004)" fill="#CC8282"/>
<rect width="2.56626" height="2.56626" transform="matrix(-1 0 0 1 59.0239 17.3926)" fill="#CC8282"/>
<rect width="2.56626" height="2.56626" transform="matrix(-1 0 0 1 61.3047 15.6816)" fill="#CC8282"/>
<rect width="2.56626" height="2.56626" transform="translate(65.8677 10.834)" fill="#A47971"/>
<rect width="2.56626" height="2.56626" transform="translate(63.5864 8.55273)" fill="#A47971"/>
<rect width="2.56626" height="2.56626" transform="translate(61.3052 8.55273)" fill="#A47971"/>
<rect width="2.56626" height="2.56626" transform="translate(58.7393 8.55273)" fill="#A47971"/>
<rect width="2.56626" height="2.56626" transform="translate(56.1729 10.834)" fill="#A47971"/>
<rect width="2.56626" height="2.56626" transform="translate(63.5864 4.56152)" fill="#A47971"/>
<rect width="2.56626" height="2.56626" transform="translate(65.8677 6.55664)" fill="#A47971"/>
<rect width="2.56626" height="2.56626" transform="translate(51.3252 2.28027)" fill="#A47971"/>
<rect width="2.56626" height="2.56626" transform="translate(56.458 2.28027)" fill="#A47971"/>
<rect width="2.56626" height="2.56626" transform="translate(53.8916 2.28027)" fill="#A47971"/>
<rect width="2.56626" height="2.56626" transform="translate(59.0239 2.28027)" fill="#A47971"/>
<rect width="2.56626" height="2.56626" transform="translate(61.02 2.28027)" fill="#A47971"/>
<rect width="2.56626" height="2.56626" transform="translate(2.56641 6.55664)" fill="#A47971"/>
<rect width="2.56626" height="2.56626" transform="translate(5.13281 4.27637)" fill="#A47971"/>
<rect width="2.56626" height="2.56626" transform="translate(7.41406 2.28027)" fill="#A47971"/>
<rect width="2.56626" height="2.56626" transform="translate(9.98047 2.28027)" fill="#A47971"/>
<rect width="2.56626" height="2.56626" transform="translate(12.5464 2.28027)" fill="#A47971"/>
<rect width="2.56626" height="2.56626" transform="translate(14.542 2.28027)" fill="#A47971"/>
<rect width="2.56626" height="2.56626" transform="translate(17.1084 2.28027)" fill="#A47971"/>
<rect width="2.56626" height="2.56626" transform="translate(19.6748 3.99023)" fill="#A47971"/>
<rect width="2.56626" height="2.56626" transform="translate(24.8071 6.55664)" fill="#A47971"/>
<rect width="2.56626" height="2.56626" transform="translate(27.3735 6.55664)" fill="#A47971"/>
<rect width="2.56626" height="2.56626" transform="translate(29.3696 4.56152)" fill="#A47971"/>
<rect width="2.56626" height="2.56626" transform="translate(31.936 6.55664)" fill="#A47971"/>
<rect width="2.56626" height="2.56626" transform="translate(34.2168 4.56152)" fill="#A47971"/>
<rect width="2.56626" height="2.56626" transform="translate(39.3491 4.56152)" fill="#A47971"/>
<rect width="2.56626" height="2.56626" transform="translate(36.7832 6.8418)" fill="#A47971"/>
<rect width="2.56626" height="2.56626" transform="translate(34.2168 6.55664)" fill="#A47971"/>
<rect width="2.56626" height="2.56626" transform="translate(39.3491 6.55664)" fill="#A47971"/>
<rect width="2.56626" height="2.56626" transform="translate(41.3452 6.55664)" fill="#A47971"/>
<rect width="2.56626" height="2.56626" transform="translate(22.2412 3.99023)" fill="#A47971"/>
<rect width="2.56626" height="2.56626" transform="translate(48.7588 4.56152)" fill="#A47971"/>
<rect width="2.56626" height="2.56626" transform="translate(46.478 4.56152)" fill="#A47971"/>
<rect width="2.56626" height="2.56626" transform="translate(43.9116 6.55664)" fill="#A47971"/>
<rect width="2.56626" height="2.56626" transform="translate(46.478 6.8418)" fill="#A47971"/>
<rect width="2.56626" height="2.56626" transform="translate(34.2168 31.3613)" fill="#7A5751"/>
<rect width="2.56626" height="2.56626" transform="translate(31.6509 33.9277)" fill="#7A5751"/>
<rect width="2.56626" height="2.56626" transform="translate(24.5225 37.6348)" fill="#7A5751"/>
<rect width="2.56626" height="2.56626" transform="translate(29.3696 42.1963)" fill="#7A5751"/>
<rect width="2.56626" height="2.56626" transform="translate(26.8032 51.3193)" fill="#C9968D"/>
<rect width="2.56626" height="2.56626" transform="translate(26.8037 53.0312)" fill="#C9968D"/>
<rect width="2.56626" height="2.56626" transform="translate(24.5225 53.3164)" fill="#C9968D"/>
<rect width="2.56626" height="2.56626" transform="translate(26.8037 48.7539)" fill="#7A5751"/>
<rect width="2.56626" height="2.56626" transform="translate(29.3701 51.0361)" fill="#7A5751"/>
<rect width="2.56626" height="2.56626" transform="translate(29.3701 53.5996)" fill="#7A5751"/>
<rect width="2.56626" height="2.56626" transform="translate(27.0889 55.5967)" fill="#7A5751"/>
<rect width="2.56626" height="2.56626" transform="translate(24.5225 55.5967)" fill="#7A5751"/>
<rect width="2.56626" height="2.56626" transform="translate(21.9561 53.3164)" fill="#7A5751"/>
<rect width="2.56626" height="2.56626" transform="matrix(-1 0 0 1 44.1963 51.3193)" fill="#C9968D"/>
<rect width="2.56626" height="2.56626" transform="matrix(-1 0 0 1 44.1963 53.0312)" fill="#C9968D"/>
<rect width="2.56626" height="2.56626" transform="matrix(-1 0 0 1 46.4775 53.3164)" fill="#C9968D"/>
<rect width="2.56626" height="2.56626" transform="matrix(-1 0 0 1 44.1963 48.7539)" fill="#7A5751"/>
<rect width="2.56626" height="2.56626" transform="matrix(-1 0 0 1 41.6304 51.0361)" fill="#7A5751"/>
<rect width="2.56626" height="2.56626" transform="matrix(-1 0 0 1 41.6304 53.5996)" fill="#7A5751"/>
<rect width="2.56626" height="2.56626" transform="matrix(-1 0 0 1 43.9111 55.5967)" fill="#7A5751"/>
<rect width="2.56626" height="2.56626" transform="matrix(-1 0 0 1 46.4775 55.5967)" fill="#7A5751"/>
<rect width="2.56626" height="2.56626" transform="matrix(-1 0 0 1 49.0439 53.3164)" fill="#7A5751"/>
<rect width="2.56626" height="2.56626" transform="translate(31.936 42.1963)" fill="#7A5751"/>
<rect width="2.56626" height="2.56626" transform="translate(34.5024 39.6299)" fill="#7A5751"/>
<rect width="2.56626" height="2.56626" transform="translate(37.0684 42.1963)" fill="#7A5751"/>
<rect width="2.56626" height="2.56626" transform="translate(34.5024 42.1963)" fill="#FF9898"/>
<rect width="2.56626" height="2.56626" transform="translate(39.6343 42.1963)" fill="#7A5751"/>
<rect width="2.56626" height="2.56626" transform="translate(44.4819 37.6348)" fill="#7A5751"/>
<rect width="2.56626" height="2.56626" transform="translate(36.7832 33.9277)" fill="#7A5751"/>
<rect width="2.56626" height="2.56626" transform="translate(22.2412 62.1533)" fill="#614540"/>
<rect width="2.56626" height="2.56626" transform="translate(32.5063 62.1533)" fill="#614540"/>
<rect width="2.56626" height="2.56626" transform="translate(42.771 62.1533)" fill="#614540"/>
<rect width="2.56626" height="2.56626" transform="translate(27.3735 62.1533)" fill="#614540"/>
<rect width="2.56626" height="2.56626" transform="translate(37.6387 62.1533)" fill="#614540"/>
<rect width="2.56626" height="2.56626" transform="translate(47.9038 62.1533)" fill="#614540"/>
<rect width="2.56626" height="2.56626" transform="translate(24.8071 62.1533)" fill="#614540"/>
<rect width="2.56626" height="2.56626" transform="translate(35.0728 62.1533)" fill="#614540"/>
<rect width="2.56626" height="2.56626" transform="translate(45.3374 62.1533)" fill="#614540"/>
<rect width="2.56626" height="2.56626" transform="translate(19.6748 62.1533)" fill="#614540"/>
<rect width="2.56626" height="2.56626" transform="translate(29.9399 62.1533)" fill="#614540"/>
<rect width="2.56626" height="2.56626" transform="translate(40.2051 62.1533)" fill="#614540"/>
<rect width="2.56626" height="2.56626" transform="translate(50.4702 62.1533)" fill="#614540"/>
<rect width="2.56616" height="2.56626" transform="translate(43.541 18.5322)" fill="#EF4444"/>
<rect width="2.56616" height="2.56626" transform="translate(43.541 39.0596)" fill="#EF4444"/>
<rect width="2.56616" height="2.56626" transform="translate(46.1064 18.5322)" fill="#EF4444"/>
<rect width="2.56616" height="2.56626" transform="translate(46.1064 39.0596)" fill="#EF4444"/>
<rect width="2.56616" height="2.56626" transform="translate(48.6724 18.5322)" fill="#EF4444"/>
<rect width="2.56616" height="2.56626" transform="translate(48.6724 39.0596)" fill="#EF4444"/>
<rect width="2.56616" height="2.56626" transform="translate(51.2383 18.5322)" fill="#EF4444"/>
<rect width="2.56616" height="2.56626" transform="translate(51.2383 39.0596)" fill="#EF4444"/>
<rect width="2.56616" height="2.56626" transform="translate(53.8042 18.5322)" fill="#EF4444"/>
<rect width="2.56616" height="2.56626" transform="translate(53.8042 39.0596)" fill="#EF4444"/>
<rect width="2.56616" height="2.56626" transform="translate(56.3701 36.4932)" fill="#EF4444"/>
<rect width="2.56616" height="2.56626" transform="translate(56.3701 21.0977)" fill="#EF4444"/>
<rect width="2.56616" height="2.56626" transform="translate(58.936 23.6621)" fill="#EF4444"/>
<rect width="2.56616" height="2.56626" transform="translate(38.4092 23.6621)" fill="#EF4444"/>
<rect width="2.56616" height="2.56626" transform="translate(40.9746 21.0977)" fill="#EF4444"/>
<rect width="2.56616" height="2.56626" transform="translate(40.9746 23.6621)" fill="#FFCECE"/>
<rect width="2.56616" height="2.56626" transform="translate(43.5405 21.0977)" fill="#FFCECE"/>
<rect width="2.56616" height="2.56626" transform="translate(40.9746 33.9268)" fill="#FFCECE"/>
<rect width="2.56616" height="2.56626" transform="translate(43.541 36.4932)" fill="#FFCECE"/>
<rect width="2.56616" height="2.56626" transform="translate(53.8042 36.4932)" fill="#FFCECE"/>
<rect width="2.56616" height="2.56626" transform="translate(56.3701 33.9268)" fill="#FFCECE"/>
<rect width="2.56616" height="2.56626" transform="translate(56.3701 23.6621)" fill="#FFCECE"/>
<rect width="2.56616" height="2.56626" transform="translate(53.8037 21.0977)" fill="#FFCECE"/>
<rect width="2.56616" height="2.56626" transform="translate(58.936 26.2295)" fill="#EF4444"/>
<rect width="2.56616" height="2.56626" transform="translate(38.4092 26.2295)" fill="#EF4444"/>
<rect width="2.56616" height="2.56626" transform="translate(58.936 28.7949)" fill="#EF4444"/>
<rect width="2.56616" height="2.56626" transform="translate(38.4092 28.7949)" fill="#EF4444"/>
<rect width="2.56616" height="2.56626" transform="translate(58.936 31.3613)" fill="#EF4444"/>
<rect width="2.56616" height="2.56626" transform="translate(38.4092 31.3613)" fill="#EF4444"/>
<rect width="2.56616" height="2.56626" transform="translate(58.936 33.9268)" fill="#EF4444"/>
<rect width="2.56616" height="2.56626" transform="translate(38.4092 33.9268)" fill="#EF4444"/>
<rect width="2.56616" height="2.56626" transform="translate(40.9751 36.4932)" fill="#EF4444"/>
<rect width="2.56618" height="2.56626" transform="translate(14.541 18.5322)" fill="#EF4444"/>
<rect width="2.56618" height="2.56626" transform="translate(14.541 39.0596)" fill="#EF4444"/>
<rect width="2.56618" height="2.56626" transform="translate(17.1074 18.5322)" fill="#EF4444"/>
<rect width="2.56618" height="2.56626" transform="translate(17.1074 39.0596)" fill="#EF4444"/>
<rect width="2.56618" height="2.56626" transform="translate(19.6733 18.5322)" fill="#EF4444"/>
<rect width="2.56618" height="2.56626" transform="translate(19.6733 39.0596)" fill="#EF4444"/>
<rect width="2.56618" height="2.56626" transform="translate(22.2393 18.5322)" fill="#EF4444"/>
<rect width="2.56618" height="2.56626" transform="translate(22.2393 39.0596)" fill="#EF4444"/>
<rect width="2.56618" height="2.56626" transform="translate(24.8047 18.5322)" fill="#EF4444"/>
<rect width="2.56618" height="2.56626" transform="translate(24.8047 39.0596)" fill="#EF4444"/>
<rect width="2.56618" height="2.56626" transform="translate(27.3711 36.4932)" fill="#EF4444"/>
<rect width="2.56618" height="2.56626" transform="translate(27.3711 21.0977)" fill="#EF4444"/>
<rect width="2.56618" height="2.56626" transform="translate(29.937 23.6631)" fill="#EF4444"/>
<rect width="2.56618" height="2.56626" transform="translate(32.5029 26.2295)" fill="#EF4444"/>
<rect width="2.56618" height="2.56626" transform="translate(35.0688 26.2295)" fill="#EF4444"/>
<rect width="2.56618" height="2.56626" transform="translate(37.0645 26.2295)" fill="#EF4444"/>
<rect width="2.56618" height="2.56626" transform="translate(9.40967 23.6631)" fill="#EF4444"/>
<rect width="2.56618" height="2.56626" transform="translate(11.9751 21.0977)" fill="#EF4444"/>
<rect width="2.56618" height="2.56626" transform="translate(11.9751 23.6631)" fill="#FFCECE"/>
<rect width="2.56618" height="2.56626" transform="translate(14.541 21.0977)" fill="#FFCECE"/>
<rect width="2.56618" height="2.56626" transform="translate(11.9751 33.9268)" fill="#FFCECE"/>
<rect width="2.56618" height="2.56626" transform="translate(14.541 36.4932)" fill="#FFCECE"/>
<rect width="2.56618" height="2.56626" transform="translate(24.8047 36.4932)" fill="#FFCECE"/>
<rect width="2.56618" height="2.56626" transform="translate(27.3711 33.9268)" fill="#FFCECE"/>
<rect width="2.56618" height="2.56626" transform="translate(27.3711 23.6631)" fill="#FFCECE"/>
<rect width="2.56618" height="2.56626" transform="translate(24.8047 21.0977)" fill="#FFCECE"/>
<rect width="2.56618" height="2.56626" transform="translate(29.937 26.2295)" fill="#EF4444"/>
<rect width="2.56618" height="2.56626" transform="translate(9.40967 26.2295)" fill="#EF4444"/>
<rect width="2.56618" height="2.56626" transform="translate(29.937 28.7949)" fill="#EF4444"/>
<rect width="2.56618" height="2.56626" transform="translate(9.40967 28.7949)" fill="#EF4444"/>
<rect width="2.56618" height="2.56626" transform="translate(29.937 31.3613)" fill="#EF4444"/>
<rect width="2.56618" height="2.56626" transform="translate(9.40967 31.3613)" fill="#EF4444"/>
<rect width="2.56618" height="2.56626" transform="translate(29.937 33.9268)" fill="#EF4444"/>
<rect width="2.56618" height="2.56626" transform="translate(9.40967 33.9268)" fill="#EF4444"/>
<rect width="2.56618" height="2.56626" transform="translate(11.9751 36.4932)" fill="#EF4444"/>
<defs>
<clipPath id="clip0_1672_43115">
<rect width="7.12851" height="7.12851" fill="white" transform="translate(31.6509 17.9619)"/>
</clipPath>
<clipPath id="clip1_1672_43115">
<rect width="4.2771" height="4.2771" fill="white" transform="translate(29.6548 25.0898)"/>
</clipPath>
<clipPath id="clip2_1672_43115">
<rect width="7.12851" height="7.12851" fill="white" transform="translate(36.498 24.2334)"/>
</clipPath>
<clipPath id="clip3_1672_43115">
<rect width="0.570281" height="4.2771" fill="white" transform="translate(43.6265 21.9531)"/>
</clipPath>
<clipPath id="clip4_1672_43115">
<rect width="2.56626" height="2.56626" fill="white" transform="translate(53.0361 62.1533)"/>
</clipPath>
</defs>
</svg>
