<svg width="49" height="38" viewBox="0 0 49 38" fill="none" xmlns="http://www.w3.org/2000/svg">
<g filter="url(#filter0_d_1347_15829)">
<rect x="4" y="4" width="41" height="30" rx="15" fill="white"/>
<path d="M23.2695 13.4961V21.2891H22.1562V18.3945H20.5156V17.457H22.1562V16.3555H20.5156V15.4414H22.1562V13.4961H23.2695ZM20.3984 14.3164V15.2188H19.3906V18.7344C19.8359 18.6992 20.2637 18.6641 20.6797 18.6172L20.7266 19.4375C18.7109 19.7539 16.3555 19.7891 14.668 19.8008L14.5273 18.8633L15.8047 18.8516V15.2188H14.8203V14.3164H20.3984ZM23.5391 22.8711V23.7734H16.4258V20.6562H17.5508V22.8711H23.5391ZM16.8828 18.8398C17.3574 18.8281 17.8379 18.8164 18.3242 18.793V15.2188H16.8828V18.8398ZM28.7773 15.1719C28.7773 16.4727 29.7969 17.6914 31.4141 18.1602L30.8516 19.0273C29.627 18.6582 28.7012 17.8555 28.2266 16.8242C27.752 17.9258 26.8145 18.7988 25.5547 19.2148L24.9922 18.3359C26.6211 17.832 27.6406 16.5547 27.6523 15.1719V15.0547H25.2969V14.1523H31.0859V15.0547H28.7773V15.1719ZM33.5938 13.4961V19.1797H32.4805V13.4961H33.5938ZM27.8164 19.6719V20.8438H32.4922V19.6719H33.5938V23.8672H26.7266V19.6719H27.8164ZM27.8164 22.9648H32.4922V21.7227H27.8164V22.9648Z" fill="#68AB6E"/>
</g>
<defs>
<filter id="filter0_d_1347_15829" x="0" y="0" width="49" height="38" filterUnits="userSpaceOnUse" color-interpolation-filters="sRGB">
<feFlood flood-opacity="0" result="BackgroundImageFix"/>
<feColorMatrix in="SourceAlpha" type="matrix" values="0 0 0 0 0 0 0 0 0 0 0 0 0 0 0 0 0 0 127 0" result="hardAlpha"/>
<feOffset/>
<feGaussianBlur stdDeviation="2"/>
<feComposite in2="hardAlpha" operator="out"/>
<feColorMatrix type="matrix" values="0 0 0 0 0 0 0 0 0 0 0 0 0 0 0 0 0 0 0.25 0"/>
<feBlend mode="normal" in2="BackgroundImageFix" result="effect1_dropShadow_1347_15829"/>
<feBlend mode="normal" in="SourceGraphic" in2="effect1_dropShadow_1347_15829" result="shape"/>
</filter>
</defs>
</svg>
