<svg width="70" height="32" viewBox="0 0 70 32" fill="none" xmlns="http://www.w3.org/2000/svg">
<g filter="url(#filter0_d_420_2507)">
<rect x="4" y="4" width="62" height="24" rx="12" fill="white"/>
<path d="M20.0234 11.4219C20.0117 12.8164 21.7227 14.1289 23.7852 14.3984L23.3516 15.3125C21.6348 15.0371 20.123 14.1465 19.4492 12.9102C18.7578 14.1523 17.252 15.0371 15.5469 15.3125L15.1016 14.3984C17.1641 14.1289 18.8516 12.8281 18.8633 11.4219V10.8477H20.0234V11.4219ZM24.2188 16.3438V17.2578H19.9531V20.9961H18.8633V17.2578H14.6445V16.3438H24.2188ZM33.7695 10.4961V16.7422H32.6562V14.082H30.6992V13.168H32.6562V10.4961H33.7695ZM30.2539 17.0352C32.457 17.0352 33.8047 17.7617 33.8047 19.0156C33.8047 20.2695 32.457 20.9844 30.2539 20.9961C28.0508 20.9844 26.6914 20.2695 26.7031 19.0156C26.6914 17.7617 28.0508 17.0352 30.2539 17.0352ZM30.2539 17.9023C28.7188 17.9023 27.8047 18.3008 27.8047 19.0156C27.8047 19.7188 28.7188 20.1289 30.2539 20.1172C31.7891 20.1289 32.7031 19.7188 32.7031 19.0156C32.7031 18.3008 31.7891 17.9023 30.2539 17.9023ZM28.7773 12.3477C28.7773 13.6836 29.7266 14.9727 31.3086 15.5117L30.7344 16.3906C29.5566 15.9805 28.6895 15.1426 28.2383 14.1055C27.7754 15.2832 26.8555 16.2266 25.6016 16.6836L25.0156 15.793C26.6445 15.2305 27.6406 13.8125 27.6406 12.3594V12.125H25.3672V11.2227H31.0273V12.125H28.7773V12.3477ZM43.5664 10.4961V14.75H45.2539V15.6758H43.5664V20.9961H42.4648V10.4961H43.5664ZM41.5508 12.1367V13.0508H35.3281V12.1367H37.918V10.6367H39.0312V12.1367H41.5508ZM38.4805 13.8242C39.9805 13.8242 41.082 14.832 41.0938 16.2617C41.082 17.7031 39.9805 18.6992 38.4805 18.7109C36.9688 18.6992 35.8672 17.7031 35.8672 16.2617C35.8672 14.832 36.9688 13.8242 38.4805 13.8242ZM38.4805 14.7383C37.5898 14.7383 36.9219 15.3594 36.9336 16.2617C36.9219 17.1758 37.5898 17.7852 38.4805 17.7734C39.3711 17.7852 40.0273 17.1758 40.0273 16.2617C40.0273 15.3594 39.3711 14.7383 38.4805 14.7383ZM54.4883 10.4961V20.9961H53.3633V10.4961H54.4883ZM51.3594 11.6211C51.3594 14.6914 50.0469 17.3633 46.4492 19.0859L45.8633 18.1836C48.6582 16.8535 50.0176 14.9609 50.2344 12.5117H46.3672V11.6211H51.3594Z" fill="#68AB6E"/>
</g>
<defs>
<filter id="filter0_d_420_2507" x="0" y="0" width="70" height="32" filterUnits="userSpaceOnUse" color-interpolation-filters="sRGB">
<feFlood flood-opacity="0" result="BackgroundImageFix"/>
<feColorMatrix in="SourceAlpha" type="matrix" values="0 0 0 0 0 0 0 0 0 0 0 0 0 0 0 0 0 0 127 0" result="hardAlpha"/>
<feOffset/>
<feGaussianBlur stdDeviation="2"/>
<feComposite in2="hardAlpha" operator="out"/>
<feColorMatrix type="matrix" values="0 0 0 0 0 0 0 0 0 0 0 0 0 0 0 0 0 0 0.25 0"/>
<feBlend mode="normal" in2="BackgroundImageFix" result="effect1_dropShadow_420_2507"/>
<feBlend mode="normal" in="SourceGraphic" in2="effect1_dropShadow_420_2507" result="shape"/>
</filter>
</defs>
</svg>
