<svg width="33" height="33" viewBox="0 0 33 33" fill="none" xmlns="http://www.w3.org/2000/svg">
<rect width="33" height="33" rx="16.5" fill="white"/>
<path fill-rule="evenodd" clip-rule="evenodd" d="M14.386 14.6062C13.7943 15.1979 13.399 15.9572 13.2536 16.7812L12.7942 19.3803C12.756 19.5957 12.7704 19.817 12.8361 20.0256C12.9018 20.2342 13.0169 20.4239 13.1715 20.5785C13.3261 20.7331 13.5158 20.8482 13.7244 20.9139C13.933 20.9796 14.1543 20.994 14.3697 20.9558L16.9688 20.4964C17.7928 20.351 18.5521 19.9557 19.1438 19.364L23.3171 15.1907L26.0358 12.472C26.2622 12.2438 26.3896 11.9356 26.3906 11.6142C26.3906 10.4858 25.9423 9.40353 25.1444 8.60559C24.3465 7.80765 23.2642 7.35938 22.1358 7.35938C21.8137 7.36037 21.505 7.48835 21.2767 7.71553L18.5579 10.4343L14.386 14.6062ZM19.7365 12.1403L15.8269 16.0485C15.5313 16.3444 15.3339 16.7241 15.2614 17.136L14.9719 18.7781L16.614 18.4886L16.6915 18.475C17.0742 18.3918 17.4248 18.2002 17.7015 17.9231L21.6097 14.0135C21.5409 13.5412 21.3214 13.1037 20.9839 12.7661C20.6463 12.4286 20.2088 12.2091 19.7365 12.1403ZM23.2138 12.4108C22.8039 11.6023 22.1474 10.9453 21.3392 10.5349L22.4539 9.42019C22.9271 9.4886 23.3655 9.70827 23.7036 10.0464C24.0417 10.3845 24.2614 10.8229 24.3298 11.2961L23.2138 12.4108ZM16.875 9.05859C16.875 8.7882 16.7676 8.52888 16.5764 8.33768C16.3852 8.14648 16.1259 8.03906 15.8555 8.03906H12.1172C11.0356 8.03906 9.99831 8.46872 9.23352 9.23352C8.46872 9.99831 8.03906 11.0356 8.03906 12.1172V21.6328C8.03906 22.7144 8.46872 23.7517 9.23352 24.5165C9.99831 25.2813 11.0356 25.7109 12.1172 25.7109H21.6328C22.7144 25.7109 23.7517 25.2813 24.5165 24.5165C25.2813 23.7517 25.7109 22.7144 25.7109 21.6328V17.8945C25.7109 17.6241 25.6035 17.3648 25.4123 17.1736C25.2211 16.9824 24.9618 16.875 24.6914 16.875C24.421 16.875 24.1617 16.9824 23.9705 17.1736C23.7793 17.3648 23.6719 17.6241 23.6719 17.8945V21.6328C23.6719 22.1736 23.457 22.6922 23.0746 23.0746C22.6922 23.457 22.1736 23.6719 21.6328 23.6719H12.1172C11.5764 23.6719 11.0578 23.457 10.6754 23.0746C10.293 22.6922 10.0781 22.1736 10.0781 21.6328V12.1172C10.0781 11.5764 10.293 11.0578 10.6754 10.6754C11.0578 10.293 11.5764 10.0781 12.1172 10.0781H15.8555C16.1259 10.0781 16.3852 9.97071 16.5764 9.77951C16.7676 9.58831 16.875 9.32899 16.875 9.05859Z" fill="#8FBC93"/>
</svg>
