<svg width="43" height="43" viewBox="0 0 43 43" fill="none" xmlns="http://www.w3.org/2000/svg">
<rect x="1" y="1" width="41" height="41" rx="20.5" fill="white"/>
<rect x="1" y="1" width="41" height="41" rx="20.5" stroke="#68AB6E" stroke-width="2"/>
<g clip-path="url(#clip0_1672_45348)">
<path d="M21.3188 17.9204C21.175 17.5112 20.9074 17.1569 20.5532 16.9066C20.199 16.6563 19.7757 16.5224 19.342 16.5234H17.7202C17.2585 16.5227 16.8128 16.6928 16.469 17.001C16.1252 17.3092 15.9075 17.7337 15.858 18.1927C15.8084 18.6518 15.9305 19.113 16.2006 19.4874C16.4707 19.8619 16.8698 20.1232 17.3211 20.221L19.7898 20.7616C20.2945 20.8723 20.7406 21.1656 21.0423 21.585C21.344 22.0045 21.4802 22.5207 21.4247 23.0344C21.3691 23.5481 21.1258 24.0232 20.7415 24.3686C20.3571 24.7139 19.8587 24.9051 19.342 24.9054H17.9465C17.5126 24.9064 17.0891 24.7722 16.7349 24.5216C16.3807 24.271 16.1132 23.9163 15.9697 23.5069M18.6442 16.5234V14.4287M18.6442 27.0001V24.9054" stroke="#614540" stroke-width="1.19898" stroke-linecap="round" stroke-linejoin="round"/>
<path d="M28.8571 11.2852H13.9285C13.095 11.2852 12.2956 11.6163 11.7062 12.2057C11.1168 12.7951 10.7856 13.5945 10.7856 14.428V31.7137L14.7142 29.3566L18.6428 31.7137L22.5714 29.3566L26.4999 31.7137V13.6423C26.4999 13.0171 26.7483 12.4176 27.1903 11.9755C27.6324 11.5335 28.2319 11.2852 28.8571 11.2852ZM28.8571 11.2852C29.4822 11.2852 30.0818 11.5335 30.5238 11.9755C30.9659 12.4176 31.2142 13.0171 31.2142 13.6423V19.1423H26.4999" stroke="#614540" stroke-width="1.19898" stroke-linecap="round" stroke-linejoin="round"/>
</g>
<defs>
<clipPath id="clip0_1672_45348">
<rect width="22" height="22" fill="white" transform="translate(10 10.5)"/>
</clipPath>
</defs>
</svg>
