<svg width="28" height="28" viewBox="0 0 28 28" fill="none" xmlns="http://www.w3.org/2000/svg">
<path d="M22.8334 9.02792L15.8334 2.89125C15.1918 2.31731 14.361 2 13.5001 2C12.6392 2 11.8085 2.31731 11.1668 2.89125L4.16678 9.02792C3.79621 9.35934 3.50049 9.7659 3.29933 10.2205C3.09816 10.6752 2.99616 11.1674 3.00011 11.6646V21.8613C3.00011 22.7895 3.36886 23.6798 4.02524 24.3361C4.68161 24.9925 5.57185 25.3613 6.50011 25.3613H20.5001C21.4284 25.3613 22.3186 24.9925 22.975 24.3361C23.6314 23.6798 24.0001 22.7895 24.0001 21.8613V11.6529C24.0024 11.1577 23.8996 10.6677 23.6985 10.2152C23.4974 9.76271 23.2025 9.35804 22.8334 9.02792ZM15.8334 23.0279H11.1668V17.1946C11.1668 16.8852 11.2897 16.5884 11.5085 16.3696C11.7273 16.1508 12.024 16.0279 12.3334 16.0279H14.6668C14.9762 16.0279 15.2729 16.1508 15.4917 16.3696C15.7105 16.5884 15.8334 16.8852 15.8334 17.1946V23.0279ZM21.6668 21.8613C21.6668 22.1707 21.5439 22.4674 21.3251 22.6862C21.1063 22.905 20.8095 23.0279 20.5001 23.0279H18.1668V17.1946C18.1668 16.2663 17.798 15.3761 17.1417 14.7197C16.4853 14.0633 15.595 13.6946 14.6668 13.6946H12.3334C11.4052 13.6946 10.5149 14.0633 9.85857 14.7197C9.20219 15.3761 8.83344 16.2663 8.83344 17.1946V23.0279H6.50011C6.19069 23.0279 5.89395 22.905 5.67515 22.6862C5.45636 22.4674 5.33344 22.1707 5.33344 21.8613V11.6529C5.33365 11.4873 5.36914 11.3236 5.43753 11.1727C5.50593 11.0218 5.60566 10.8872 5.73011 10.7779L12.7301 4.65292C12.943 4.46588 13.2167 4.36273 13.5001 4.36273C13.7835 4.36273 14.0572 4.46588 14.2701 4.65292L21.2701 10.7779C21.3946 10.8872 21.4943 11.0218 21.5627 11.1727C21.6311 11.3236 21.6666 11.4873 21.6668 11.6529V21.8613Z" fill="currentColor"/>
</svg>
