<svg width="43" height="43" viewBox="0 0 43 43" fill="none" xmlns="http://www.w3.org/2000/svg">
<rect x="1" y="1" width="41" height="41" rx="20.5" fill="white"/>
<rect x="1" y="1" width="41" height="41" rx="20.5" stroke="#68AB6E" stroke-width="2"/>
<g clip-path="url(#clip0_1672_45340)">
<path fill-rule="evenodd" clip-rule="evenodd" d="M25.8125 29.75C29.2362 29.75 32 28.375 32 26.3125V13.25C32 11.875 29.25 10.5 25.8125 10.5C22.375 10.5 19.625 11.875 19.625 13.25V18.0625C21.2337 18.7362 22.6088 19.8637 23.585 21.2937C24.2587 21.4257 25.0013 21.4986 25.8125 21.4986C27.6137 21.4986 29.1125 21.1398 30.185 20.5554C30.3373 20.4717 30.4855 20.3808 30.6291 20.2831V22.1806C30.6291 22.5037 30.372 23.0056 29.5264 23.4676C28.7069 23.9145 27.4501 24.2431 25.8139 24.2431C25.4866 24.2431 25.175 24.2308 24.8789 24.206C24.9889 24.6579 25.0622 25.1208 25.0989 25.5947C25.3308 25.6076 25.5691 25.614 25.8139 25.614C27.6151 25.614 29.1139 25.2551 30.1864 24.6707C30.3386 24.5871 30.4868 24.4962 30.6305 24.3985V26.296C30.6305 26.6205 30.4256 27.1017 29.5429 27.5775C28.6739 28.045 27.3704 28.3585 25.8166 28.3585C25.5004 28.3585 25.1942 28.3457 24.8981 28.32C24.7924 28.777 24.6503 29.2249 24.4732 29.6593C24.9059 29.7078 25.3533 29.7321 25.8152 29.7321L25.8125 29.75ZM29.525 19.355C30.3706 18.893 30.6277 18.3911 30.6277 18.068V16.1705C30.4857 16.2677 30.3376 16.3584 30.1836 16.4427C29.1139 17.0271 27.6124 17.386 25.8111 17.386C24.0099 17.386 22.5111 17.0271 21.4386 16.4427C21.2864 16.3591 21.1382 16.2682 20.9945 16.1705V18.068C20.9945 18.3911 21.2516 18.893 22.0973 19.3536C22.9168 19.8005 24.1735 20.1291 25.8098 20.1291C27.446 20.1291 28.6973 19.8005 29.5223 19.3536L29.525 19.355ZM21 13.9375C21 13.5415 21.1719 13.1606 21.4922 12.9283C21.6669 12.8017 21.8566 12.6752 22.0065 12.6065C22.3819 12.4332 24.2615 11.8736 25.8152 11.8736C27.369 11.8736 28.7165 12.1857 29.624 12.6065C29.7945 12.6849 29.9829 12.8073 30.1493 12.9283C30.4669 13.1579 30.6305 13.536 30.6305 13.9279V13.9361C30.6305 14.2593 30.3734 14.7611 29.5278 15.2231C28.7082 15.67 27.4515 15.9986 25.8152 15.9986C24.179 15.9986 22.9278 15.6686 22.1028 15.2231C21.2571 14.7625 21 14.2592 21 13.9375Z" fill="#614540"/>
<path fill-rule="evenodd" clip-rule="evenodd" d="M22.375 26.3125C22.375 29.7362 19.6112 32.5 16.1875 32.5C12.7638 32.5 10 29.7362 10 26.3125C10 22.8888 12.7638 20.125 16.1875 20.125C19.6112 20.125 22.375 22.8888 22.375 26.3125ZM21 26.3125C21 28.9662 18.8412 31.125 16.1875 31.125C13.5338 31.125 11.375 28.9662 11.375 26.3125C11.375 23.6588 13.5338 21.5 16.1875 21.5C18.8412 21.5 21 23.6588 21 26.3125Z" fill="#614540"/>
</g>
<defs>
<clipPath id="clip0_1672_45340">
<rect width="22" height="22" fill="white" transform="translate(10 10.5)"/>
</clipPath>
</defs>
</svg>
