<svg width="24" height="24" viewBox="0 0 24 24" fill="none" xmlns="http://www.w3.org/2000/svg">
<path d="M10.7322 5.07599C13.0615 4.7984 15.4178 5.29081 17.441 6.47804C19.4643 7.66527 21.0434 9.48207 21.9372 11.651C22.0205 11.8755 22.0205 12.1225 21.9372 12.347C21.5691 13.2377 21.0834 14.0751 20.4932 14.837M14.0832 14.158C13.5174 14.7045 12.7595 15.0068 11.973 15C11.1864 14.9932 10.4339 14.6777 9.8777 14.1214C9.32148 13.5652 9.00597 12.8128 8.99914 12.0262C8.9923 11.2396 9.29468 10.4818 9.84116 9.91599" stroke="#68AB6E" stroke-width="2" stroke-linecap="round" stroke-linejoin="round"/>
<path d="M17.4785 17.499C16.152 18.2848 14.672 18.776 13.1389 18.9394C11.6058 19.1028 10.0555 18.9345 8.59316 18.4459C7.13084 17.9573 5.79072 17.1599 4.66374 16.1077C3.53676 15.0556 2.64928 13.7734 2.06153 12.348C1.97819 12.1235 1.97819 11.8765 2.06153 11.652C2.94816 9.50186 4.5082 7.69725 6.50753 6.509M1.99953 2L21.9995 22" stroke="#68AB6E" stroke-width="2" stroke-linecap="round" stroke-linejoin="round"/>
</svg>
