<svg width="40" height="40" viewBox="0 0 40 40" fill="none" xmlns="http://www.w3.org/2000/svg">
<rect width="40" height="40" rx="20" transform="matrix(-1 0 0 1 40 0)" fill="white" fill-opacity="0.8"/>
<rect x="-1" y="1" width="38" height="38" rx="19" transform="matrix(-1 0 0 1 38 0)" stroke="#8FBC93" stroke-opacity="0.45" stroke-width="2"/>
<path d="M14.1001 18.8166L23.5334 9.39998C23.6884 9.24377 23.8727 9.11978 24.0758 9.03516C24.2789 8.95055 24.4968 8.90698 24.7168 8.90698C24.9368 8.90698 25.1546 8.95055 25.3577 9.03516C25.5608 9.11978 25.7452 9.24377 25.9001 9.39998C26.2105 9.71225 26.3848 10.1347 26.3848 10.575C26.3848 11.0153 26.2105 11.4377 25.9001 11.75L17.6501 20.0833L25.9001 28.3333C26.2105 28.6456 26.3848 29.068 26.3848 29.5083C26.3848 29.9486 26.2105 30.371 25.9001 30.6833C25.7458 30.8408 25.5617 30.9661 25.3586 31.0519C25.1554 31.1377 24.9373 31.1824 24.7168 31.1833C24.4963 31.1824 24.2781 31.1377 24.075 31.0519C23.8719 30.9661 23.6878 30.8408 23.5334 30.6833L14.1001 21.2666C13.9309 21.1106 13.7959 20.9212 13.7036 20.7103C13.6112 20.4995 13.5636 20.2718 13.5636 20.0416C13.5636 19.8115 13.6112 19.5838 13.7036 19.373C13.7959 19.1621 13.9309 18.9727 14.1001 18.8166Z" fill="#8FBC93"/>
</svg>
