<svg width="275" height="277" viewBox="0 0 275 277" fill="none" xmlns="http://www.w3.org/2000/svg">
<g filter="url(#filter0_d_1306_16538)">
<circle cx="138.5" cy="138.5" r="123.5" fill="#68AB6E"/>
</g>
<g filter="url(#filter1_d_1306_16538)">
<circle cx="138.5" cy="138.5" r="91.5" fill="white"/>
</g>
<rect width="5.4383" height="5.4383" transform="translate(104.693 80.6895)" fill="#A47971"/>
<rect width="5.4383" height="5.4383" transform="translate(99.2549 86.1274)" fill="#A47971"/>
<rect width="5.4383" height="5.4383" transform="translate(93.8174 91.5659)" fill="#A47971"/>
<rect width="5.4383" height="5.4383" transform="translate(93.8174 97.0044)" fill="#A47971"/>
<rect width="5.4383" height="5.4383" transform="translate(93.8174 102.442)" fill="#A47971"/>
<rect width="5.4383" height="5.4383" transform="translate(82.9404 113.319)" fill="#A47971"/>
<rect width="5.4383" height="5.4383" transform="translate(88.3789 113.319)" fill="#A47971"/>
<rect width="5.4383" height="5.4383" transform="translate(93.8174 114.528)" fill="#A47971"/>
<rect width="5.4383" height="5.4383" transform="translate(99.2549 110.298)" fill="#A47971"/>
<rect width="5.4383" height="5.4383" transform="translate(104.693 110.298)" fill="#A47971"/>
<rect width="5.4383" height="5.4383" transform="translate(110.132 110.298)" fill="#A47971"/>
<rect width="5.4383" height="5.4383" transform="translate(115.57 114.528)" fill="#A47971"/>
<rect width="5.4383" height="5.4383" transform="translate(120.404 119.362)" fill="white"/>
<rect width="5.4383" height="5.4383" transform="translate(120.404 124.196)" fill="white"/>
<rect width="5.4383" height="5.4383" transform="translate(120.404 129.634)" fill="white"/>
<rect width="5.4383" height="5.4383" transform="translate(120.404 135.072)" fill="white"/>
<rect width="5.4383" height="5.4383" transform="translate(115.57 139.302)" fill="white"/>
<rect width="5.4383" height="5.4383" transform="translate(114.966 142.323)" fill="white"/>
<rect width="5.4383" height="5.4383" transform="translate(120.404 142.323)" fill="white"/>
<rect width="5.4383" height="5.4383" transform="translate(120.404 140.511)" fill="white"/>
<rect width="5.4383" height="5.4383" transform="translate(120.404 147.762)" fill="white"/>
<rect width="5.4383" height="5.4383" transform="translate(125.843 147.762)" fill="white"/>
<rect width="5.4383" height="16.9191" transform="translate(124.634 134.468)" fill="white"/>
<rect width="18.7319" height="6.64681" transform="translate(129.468 145.345)" fill="white"/>
<rect width="9.06383" height="16.9191" transform="translate(146.388 133.26)" fill="white"/>
<rect width="5.4383" height="5.4383" transform="translate(130.677 147.762)" fill="white"/>
<rect width="5.4383" height="5.4383" transform="translate(141.553 147.762)" fill="white"/>
<rect width="5.4383" height="5.4383" transform="translate(146.991 147.762)" fill="white"/>
<rect width="5.4383" height="5.4383" transform="translate(151.825 147.762)" fill="white"/>
<rect width="5.4383" height="5.4383" transform="translate(162.702 147.762)" fill="white"/>
<rect width="5.4383" height="5.4383" transform="translate(162.702 157.43)" fill="white"/>
<rect width="5.4383" height="5.4383" transform="translate(120.404 151.992)" fill="white"/>
<rect width="5.4383" height="5.4383" transform="translate(125.843 151.992)" fill="white"/>
<rect width="5.4383" height="5.4383" transform="translate(141.553 151.992)" fill="white"/>
<rect width="5.4383" height="5.4383" transform="translate(130.677 151.992)" fill="white"/>
<rect width="5.4383" height="5.4383" transform="translate(146.991 151.992)" fill="white"/>
<rect width="5.4383" height="5.4383" transform="translate(162.702 151.992)" fill="white"/>
<rect width="5.4383" height="5.4383" transform="translate(151.825 151.992)" fill="white"/>
<rect width="5.4383" height="5.4383" transform="translate(162.702 161.66)" fill="white"/>
<rect width="5.4383" height="5.4383" transform="translate(83.5449 118.757)" fill="#A47971"/>
<rect width="5.4383" height="5.4383" transform="translate(83.5449 124.196)" fill="#A47971"/>
<rect width="5.4383" height="5.4383" transform="translate(82.9404 140.511)" fill="white"/>
<rect width="5.4383" height="5.4383" transform="translate(88.3789 139.302)" fill="white"/>
<rect width="5.4383" height="5.4383" transform="translate(93.2129 144.136)" fill="white"/>
<rect width="5.4383" height="5.4383" transform="translate(98.6514 144.136)" fill="white"/>
<rect width="5.4383" height="5.4383" transform="translate(104.09 144.136)" fill="white"/>
<rect width="5.4383" height="5.4383" transform="translate(109.527 144.136)" fill="white"/>
<rect width="5.4383" height="5.4383" transform="translate(109.527 149.575)" fill="white"/>
<rect width="5.4383" height="5.4383" transform="translate(109.527 155.013)" fill="white"/>
<rect width="5.4383" height="5.4383" transform="translate(114.361 158.638)" fill="white"/>
<rect width="11.4809" height="9.66809" transform="translate(108.319 159.847)" fill="white"/>
<rect width="11.4809" height="9.66809" transform="translate(98.6514 159.847)" fill="white"/>
<rect width="11.4809" height="9.66809" transform="translate(86.5664 172.536)" fill="white"/>
<rect width="11.4809" height="9.66809" transform="translate(93.2129 190.664)" fill="white"/>
<rect width="7.85532" height="15.1064" transform="translate(101.672 180.392)" fill="white"/>
<rect width="7.85532" height="9.06383" transform="translate(107.11 186.434)" fill="white"/>
<rect width="12.6894" height="4.22979" transform="translate(114.966 191.268)" fill="white"/>
<rect width="12.6894" height="4.22979" transform="translate(119.8 167.098)" fill="white"/>
<rect width="7.85532" height="9.06383" transform="translate(125.843 187.038)" fill="white"/>
<rect width="5.4383" height="5.4383" transform="translate(119.8 162.868)" fill="white"/>
<rect width="5.4383" height="5.4383" transform="translate(125.238 162.868)" fill="white"/>
<rect width="5.4383" height="5.4383" transform="translate(130.677 162.868)" fill="white"/>
<rect width="5.4383" height="5.4383" transform="translate(136.115 162.868)" fill="white"/>
<rect width="5.4383" height="5.4383" transform="translate(141.553 162.868)" fill="white"/>
<rect width="5.4383" height="5.4383" transform="translate(146.991 162.868)" fill="white"/>
<rect width="5.4383" height="5.4383" transform="translate(152.43 162.868)" fill="white"/>
<rect width="5.4383" height="5.4383" transform="translate(157.868 162.868)" fill="white"/>
<rect width="5.4383" height="5.4383" transform="translate(157.868 158.638)" fill="white"/>
<rect width="5.4383" height="5.4383" transform="translate(88.3789 144.74)" fill="white"/>
<rect width="5.4383" height="5.4383" transform="translate(88.3789 151.387)" fill="white"/>
<rect width="5.4383" height="5.4383" transform="translate(88.3789 148.97)" fill="white"/>
<rect width="5.4383" height="5.4383" transform="translate(90.1914 148.97)" fill="white"/>
<rect width="8.45957" height="8.45957" transform="translate(88.6807 153.2)" fill="white"/>
<rect width="5.4383" height="5.4383" transform="translate(82.9404 145.949)" fill="white"/>
<rect width="5.4383" height="5.4383" transform="translate(88.3789 156.826)" fill="white"/>
<rect width="5.4383" height="5.4383" transform="translate(110.132 80.6895)" fill="#A47971"/>
<rect width="5.4383" height="5.4383" transform="translate(125.843 87.3359)" fill="#A47971"/>
<rect width="5.4383" height="5.4383" transform="translate(131.281 87.3359)" fill="#A47971"/>
<rect width="6.64681" height="6.64681" transform="translate(136.719 90.9619)" fill="#A47971"/>
<rect width="5.4383" height="5.4383" transform="translate(145.179 87.3359)" fill="#A47971"/>
<rect width="5.4383" height="5.4383" transform="translate(156.659 100.63)" fill="#A47971"/>
<rect width="5.4383" height="5.4383" transform="translate(151.825 100.63)" fill="#A47971"/>
<rect width="5.4383" height="5.4383" transform="translate(146.991 97.0044)" fill="#A47971"/>
<rect width="5.4383" height="5.4383" transform="translate(142.762 95.7959)" fill="#A47971"/>
<rect width="5.4383" height="5.4383" transform="translate(131.885 96.3999)" fill="#A47971"/>
<rect width="5.4383" height="5.4383" transform="translate(115.57 86.1274)" fill="#A47971"/>
<rect width="5.4383" height="5.4383" transform="translate(121.009 86.1274)" fill="#A47971"/>
<rect width="5.4383" height="5.4383" transform="translate(125.843 81.8979)" fill="#A47971"/>
<rect width="5.4383" height="5.4383" transform="translate(131.281 86.1274)" fill="#A47971"/>
<rect width="5.4383" height="5.4383" transform="translate(125.843 91.5659)" fill="#A47971"/>
<rect width="5.4383" height="5.4383" transform="translate(131.281 91.5659)" fill="#A47971"/>
<rect width="5.4383" height="5.4383" transform="translate(137.323 95.7959)" fill="#A47971"/>
<rect width="5.4383" height="5.4383" transform="translate(140.949 86.7319)" fill="#A47971"/>
<rect width="5.4383" height="5.4383" transform="translate(136.115 86.7319)" fill="#A47971"/>
<rect width="5.4383" height="5.4383" transform="translate(145.179 91.5659)" fill="#A47971"/>
<rect width="5.4383" height="5.4383" transform="translate(140.345 91.5659)" fill="#A47971"/>
<rect width="5.4383" height="5.4383" transform="translate(156.659 104.859)" fill="#A47971"/>
<rect width="5.4383" height="5.4383" transform="translate(156.659 109.694)" fill="#A47971"/>
<rect width="5.4383" height="5.4383" transform="translate(151.825 104.859)" fill="#A47971"/>
<rect width="5.4383" height="5.4383" transform="translate(146.991 101.234)" fill="#A47971"/>
<rect width="5.4383" height="5.4383" transform="translate(142.762 100.025)" fill="#A47971"/>
<rect width="5.4383" height="5.4383" transform="translate(202.583 86.7319)" fill="#A47971"/>
<rect width="5.4383" height="5.4383" transform="translate(177.204 95.7959)" fill="#A47971"/>
<rect width="5.4383" height="5.4383" transform="translate(177.204 101.234)" fill="#A47971"/>
<rect width="5.4383" height="5.4383" transform="translate(177.204 106.068)" fill="#A47971"/>
<rect width="5.4383" height="5.4383" transform="translate(182.643 110.298)" fill="#A47971"/>
<rect width="5.4383" height="5.4383" transform="translate(187.477 115.132)" fill="#A47971"/>
<rect width="5.4383" height="5.4383" transform="translate(182.643 115.132)" fill="#A47971"/>
<rect width="5.4383" height="5.4383" transform="translate(177.809 110.902)" fill="#A47971"/>
<rect width="5.4383" height="5.4383" transform="translate(182.643 118.757)" fill="#A47971"/>
<rect width="5.4383" height="5.4383" transform="translate(177.809 114.528)" fill="#A47971"/>
<rect width="5.4383" height="5.4383" transform="translate(171.162 110.298)" fill="#A47971"/>
<rect width="5.4383" height="5.4383" transform="translate(174.183 110.298)" fill="#A47971"/>
<rect width="5.4383" height="5.4383" transform="translate(171.766 91.5659)" fill="#A47971"/>
<rect width="5.4383" height="5.4383" transform="translate(161.493 96.3999)" fill="#A47971"/>
<rect width="5.4383" height="5.4383" transform="translate(166.328 96.3999)" fill="#A47971"/>
<rect width="5.4383" height="5.4383" transform="translate(78.7109 77.668)" fill="#A47971"/>
<rect width="5.4383" height="5.4383" transform="translate(84.1494 77.668)" fill="#A47971"/>
<rect width="5.4383" height="5.4383" transform="translate(89.5869 77.668)" fill="#A47971"/>
<rect width="5.4383" height="5.4383" transform="translate(93.8174 77.668)" fill="#A47971"/>
<rect width="5.4383" height="5.4383" transform="translate(99.2549 77.668)" fill="#A47971"/>
<rect width="5.4383" height="5.4383" transform="translate(171.766 96.3999)" fill="#A47971"/>
<rect width="5.4383" height="5.4383" transform="translate(171.766 77.668)" fill="#A47971"/>
<rect width="5.4383" height="5.4383" transform="translate(177.204 77.668)" fill="#A47971"/>
<rect width="5.4383" height="5.4383" transform="translate(182.643 77.668)" fill="#A47971"/>
<rect width="5.4383" height="5.4383" transform="translate(188.081 77.668)" fill="#A47971"/>
<rect width="5.4383" height="5.4383" transform="translate(192.915 77.668)" fill="#A47971"/>
<rect width="5.4383" height="5.4383" transform="translate(166.328 82.502)" fill="#A47971"/>
<rect width="5.4383" height="5.4383" transform="translate(161.493 101.234)" fill="#A47971"/>
<rect width="5.4383" height="5.4383" transform="translate(156.056 86.7319)" fill="#A47971"/>
<rect width="5.4383" height="5.4383" transform="translate(150.617 86.7319)" fill="#A47971"/>
<rect width="5.4383" height="5.4383" transform="translate(166.328 101.234)" fill="#A47971"/>
<rect width="5.4383" height="5.4383" transform="translate(78.7109 86.1274)" fill="#A47971"/>
<rect width="5.4383" height="5.4383" transform="translate(84.1494 86.1274)" fill="#A47971"/>
<rect width="5.4383" height="5.4383" transform="translate(89.5869 86.1274)" fill="#A47971"/>
<rect width="5.4383" height="5.4383" transform="translate(88.9834 90.9619)" fill="#A47971"/>
<rect width="5.4383" height="5.4383" transform="translate(171.766 104.859)" fill="#A47971"/>
<rect width="5.4383" height="5.4383" transform="translate(93.8174 86.1274)" fill="#A47971"/>
<rect width="5.4383" height="5.4383" transform="translate(171.766 86.1274)" fill="#A47971"/>
<rect width="5.4383" height="5.4383" transform="translate(177.204 86.1274)" fill="#A47971"/>
<rect width="5.4383" height="5.4383" transform="translate(177.204 90.9619)" fill="#A47971"/>
<rect width="5.4383" height="5.4383" transform="translate(182.643 86.1274)" fill="#A47971"/>
<rect width="5.4383" height="5.4383" transform="translate(166.328 90.9619)" fill="#A47971"/>
<rect width="5.4383" height="5.4383" transform="translate(161.493 90.9619)" fill="#A47971"/>
<rect width="5.4383" height="5.4383" transform="translate(161.493 110.298)" fill="#A47971"/>
<rect width="5.4383" height="5.4383" transform="translate(156.056 95.1914)" fill="#A47971"/>
<rect width="5.4383" height="5.4383" transform="translate(150.617 95.1914)" fill="#A47971"/>
<rect width="5.4383" height="5.4383" transform="translate(166.328 110.298)" fill="#A47971"/>
<rect width="5.4383" height="5.4383" transform="translate(78.7109 82.502)" fill="#A47971"/>
<rect width="5.4383" height="5.4383" transform="translate(84.1494 82.502)" fill="#A47971"/>
<rect width="5.4383" height="5.4383" transform="translate(89.5869 82.502)" fill="#A47971"/>
<rect width="5.4383" height="5.4383" transform="translate(171.766 101.234)" fill="#A47971"/>
<rect width="5.4383" height="5.4383" transform="translate(93.8174 82.502)" fill="#A47971"/>
<rect width="5.4383" height="5.4383" transform="translate(99.2549 82.502)" fill="#A47971"/>
<rect width="5.4383" height="5.4383" transform="translate(171.766 82.502)" fill="#A47971"/>
<rect width="5.4383" height="5.4383" transform="translate(177.204 82.502)" fill="#A47971"/>
<rect width="5.4383" height="5.4383" transform="translate(182.643 82.502)" fill="#A47971"/>
<rect width="5.4383" height="5.4383" transform="translate(188.081 82.502)" fill="#A47971"/>
<rect width="5.4383" height="5.4383" transform="translate(192.915 82.502)" fill="#A47971"/>
<rect width="5.4383" height="5.4383" transform="translate(197.749 82.502)" fill="#A47971"/>
<rect width="5.4383" height="5.4383" transform="translate(166.328 87.3359)" fill="#A47971"/>
<rect width="5.4383" height="5.4383" transform="translate(161.493 87.3359)" fill="#A47971"/>
<rect width="5.4383" height="5.4383" transform="translate(161.493 106.068)" fill="#A47971"/>
<rect width="5.4383" height="5.4383" transform="translate(156.056 91.5659)" fill="#A47971"/>
<rect width="5.4383" height="5.4383" transform="translate(150.617 91.5659)" fill="#A47971"/>
<rect width="5.4383" height="5.4383" transform="translate(166.328 106.068)" fill="#A47971"/>
<rect width="5.4383" height="5.4383" transform="translate(73.877 81.8979)" fill="#A47971"/>
<rect width="5.4383" height="5.4383" transform="translate(73.877 86.1274)" fill="#A47971"/>
<rect width="5.4383" height="5.4383" transform="translate(68.4385 86.1274)" fill="#A47971"/>
<rect width="5.4383" height="5.4383" transform="translate(68.4385 91.5659)" fill="#A47971"/>
<rect width="5.4383" height="5.4383" transform="translate(180.83 162.264)" fill="#A47971"/>
<rect width="5.4383" height="5.4383" transform="translate(88.3789 161.66)" fill="#A47971"/>
<rect width="5.4383" height="5.4383" transform="translate(93.8174 161.66)" fill="white"/>
<rect width="5.4383" height="5.4383" transform="translate(135.511 139.906)" fill="#C9968D"/>
<rect width="5.4383" height="5.4383" transform="translate(130.072 134.468)" fill="#C9968D"/>
<rect width="5.4383" height="5.4383" transform="translate(114.966 153.2)" fill="#C9968D"/>
<rect width="5.4383" height="5.4383" transform="translate(157.264 153.2)" fill="#C9968D"/>
<rect width="5.4383" height="5.4383" transform="translate(152.43 157.43)" fill="#C9968D"/>
<rect width="5.4383" height="5.4383" transform="translate(119.8 157.43)" fill="#C9968D"/>
<rect width="5.4383" height="5.4383" transform="translate(140.949 134.468)" fill="#C9968D"/>
<rect width="5.4383" height="5.4383" transform="translate(88.3789 167.098)" fill="white"/>
<rect width="5.4383" height="5.4383" transform="translate(82.9404 172.536)" fill="white"/>
<rect width="5.4383" height="5.4383" transform="translate(180.83 167.098)" fill="white"/>
<rect width="5.4383" height="5.4383" transform="translate(175.392 161.66)" fill="white"/>
<rect width="5.4383" height="5.4383" transform="translate(180.83 156.826)" fill="white"/>
<rect width="5.4383" height="5.4383" transform="translate(186.269 140.511)" fill="white"/>
<rect width="5.4383" height="5.4383" transform="translate(183.247 139.302)" fill="white"/>
<rect width="5.4383" height="5.4383" transform="translate(180.83 144.136)" fill="white"/>
<rect width="5.4383" height="5.4383" transform="translate(175.392 144.136)" fill="white"/>
<rect width="5.4383" height="5.4383" transform="translate(169.953 144.136)" fill="white"/>
<rect width="5.4383" height="5.4383" transform="translate(168.141 144.136)" fill="white"/>
<rect width="13.8979" height="13.8979" transform="translate(167.536 147.762)" fill="white"/>
<rect width="13.8979" height="13.8979" transform="translate(162.702 161.66)" fill="white"/>
<rect width="13.8979" height="13.8979" transform="translate(156.659 167.098)" fill="white"/>
<rect width="15.1064" height="15.1064" transform="translate(130.677 165.889)" fill="white"/>
<rect width="7.25106" height="5.4383" transform="translate(125.238 170.724)" fill="white"/>
<rect width="15.1064" height="15.1064" transform="translate(104.693 165.889)" fill="white"/>
<rect width="15.1064" height="15.1064" transform="translate(93.8174 165.889)" fill="white"/>
<rect width="5.4383" height="5.4383" transform="translate(104.09 96.3999)" fill="#A47971"/>
<rect width="5.4383" height="5.4383" transform="translate(99.2549 96.3999)" fill="#A47971"/>
<rect width="5.4383" height="5.4383" transform="translate(107.11 96.3999)" fill="#A47971"/>
<rect width="5.4383" height="5.4383" transform="translate(99.2549 101.838)" fill="#A47971"/>
<rect width="5.4383" height="5.4383" transform="translate(104.693 101.838)" fill="#A47971"/>
<rect width="5.4383" height="5.4383" transform="translate(106.507 101.838)" fill="#A47971"/>
<rect width="5.4383" height="5.4383" transform="translate(100.464 105.464)" fill="#A47971"/>
<rect width="5.4383" height="5.4383" transform="translate(105.902 105.464)" fill="#A47971"/>
<rect width="7.25106" height="7.25106" transform="translate(93.2129 107.276)" fill="#A47971"/>
<rect width="4.22979" height="4.22979" transform="translate(122.217 96.3999)" fill="#A47971"/>
<rect width="9.06383" height="9.06383" transform="translate(113.153 109.089)" fill="#A47971"/>
<rect width="9.06383" height="9.06383" transform="translate(123.426 102.442)" fill="#A47971"/>
<rect width="11.4809" height="11.4809" transform="translate(119.498 107.881)" fill="#A47971"/>
<rect width="7.85532" height="7.85532" transform="translate(125.238 113.319)" fill="#A47971"/>
<g clip-path="url(#clip0_1306_16538)">
<rect width="15.1064" height="15.1064" transform="translate(130.072 106.068)" fill="white"/>
<rect width="5.4383" height="5.4383" transform="translate(134.906 113.319)" fill="#A47971"/>
<rect width="13.8979" height="13.8979" transform="translate(132.489 105.463)" fill="#A47971"/>
<rect width="5.4383" height="5.4383" transform="translate(134.906 104.859)" fill="#A47971"/>
<rect width="5.4383" height="5.4383" transform="translate(140.345 104.859)" fill="#A47971"/>
<rect width="5.4383" height="5.4383" transform="translate(129.468 105.463)" fill="#A47971"/>
<rect width="5.4383" height="5.4383" transform="translate(129.468 110.298)" fill="#A47971"/>
<rect width="5.4383" height="5.4383" transform="translate(129.468 115.736)" fill="#A47971"/>
</g>
<rect width="5.4383" height="5.4383" transform="translate(134.906 118.153)" fill="#A47971"/>
<rect width="5.4383" height="5.4383" transform="translate(134.906 123.591)" fill="#A47971"/>
<rect width="5.4383" height="5.4383" transform="translate(134.906 129.03)" fill="white"/>
<g clip-path="url(#clip1_1306_16538)">
<rect width="9.06383" height="9.06383" transform="translate(125.843 121.174)" fill="white"/>
<rect width="5.4383" height="5.4383" transform="translate(130.072 119.966)" fill="#A47971"/>
</g>
<rect width="9.06383" height="9.06383" transform="translate(125.843 125.404)" fill="white"/>
<g clip-path="url(#clip2_1306_16538)">
<rect width="15.1064" height="15.1064" transform="translate(140.345 119.362)" fill="white"/>
<rect width="5.4383" height="16.9191" transform="translate(139.74 108.485)" fill="#A47971"/>
</g>
<rect width="15.7106" height="25.3787" transform="translate(153.034 122.383)" fill="white"/>
<rect width="42.9021" height="32.6298" transform="translate(143.366 168.306)" fill="white"/>
<rect width="7.25106" height="9.66809" transform="translate(142.762 110.902)" fill="#A47971"/>
<rect width="7.85532" height="7.85532" transform="translate(150.617 110.902)" fill="#A47971"/>
<rect width="7.85532" height="7.85532" transform="translate(146.991 110.902)" fill="#A47971"/>
<rect width="5.4383" height="0.604255" transform="translate(150.013 118.757)" fill="white"/>
<g clip-path="url(#clip3_1306_16538)">
<rect width="1.20851" height="9.06383" transform="translate(155.451 114.528)" fill="white"/>
<rect width="7.85532" height="7.85532" transform="translate(149.408 110.902)" fill="#A47971"/>
</g>
<rect width="15.1064" height="15.1064" transform="translate(94.4209 147.762)" fill="white"/>
<rect width="15.1064" height="15.1064" transform="translate(88.3789 179.183)" fill="white"/>
<rect width="15.1064" height="15.1064" transform="translate(130.677 180.392)" fill="white"/>
<rect width="13.8979" height="13.8979" transform="translate(166.932 166.494)" fill="white"/>
<rect width="13.8979" height="13.8979" transform="translate(166.932 179.183)" fill="white"/>
<rect width="13.8979" height="13.8979" transform="translate(172.37 172.536)" fill="white"/>
<rect width="5.4383" height="5.4383" transform="translate(180.83 149.575)" fill="white"/>
<rect width="5.4383" height="5.4383" transform="translate(180.83 151.992)" fill="white"/>
<rect width="5.4383" height="5.4383" transform="translate(186.269 145.949)" fill="white"/>
<rect width="5.4383" height="5.4383" transform="translate(187.477 124.196)" fill="#A47971"/>
<rect width="5.4383" height="5.4383" transform="translate(188.081 129.634)" fill="white"/>
<rect width="5.4383" height="5.4383" transform="translate(188.081 135.072)" fill="white"/>
<rect width="5.4383" height="5.4383" transform="translate(82.9404 177.975)" fill="white"/>
<rect width="5.4383" height="5.4383" transform="translate(186.269 177.975)" fill="white"/>
<rect width="5.4383" height="5.4383" transform="translate(82.9404 183.413)" fill="white"/>
<rect width="5.4383" height="5.4383" transform="translate(186.269 183.413)" fill="white"/>
<rect width="5.4383" height="5.4383" transform="translate(186.269 188.851)" fill="white"/>
<rect width="5.4383" height="5.4383" transform="translate(88.3789 194.29)" fill="white"/>
<rect width="5.4383" height="5.4383" transform="translate(180.83 194.29)" fill="white"/>
<rect width="5.4383" height="5.4383" transform="translate(77.502 113.319)" fill="#A47971"/>
<rect width="5.4383" height="5.4383" transform="translate(104.693 86.1274)" fill="#A47971"/>
<rect width="5.4383" height="5.4383" transform="translate(99.2549 91.5659)" fill="#A47971"/>
<rect width="5.4383" height="5.4383" transform="translate(110.132 91.5659)" fill="#A47971"/>
<rect width="5.4383" height="5.4383" transform="translate(110.132 86.1274)" fill="#A47971"/>
<rect width="5.4383" height="5.4383" transform="translate(104.693 91.5659)" fill="#A47971"/>
<rect width="5.4383" height="5.4383" transform="translate(115.57 91.5659)" fill="#A47971"/>
<rect width="5.4383" height="5.4383" transform="translate(121.009 91.5659)" fill="#A47971"/>
<rect width="5.4383" height="5.4383" transform="translate(126.447 97.0044)" fill="#A47971"/>
<rect width="5.4383" height="5.4383" transform="translate(112.549 97.0044)" fill="#A47971"/>
<rect width="5.4383" height="5.4383" transform="translate(117.987 97.0044)" fill="#A47971"/>
<rect width="5.4383" height="5.4383" transform="translate(111.944 101.838)" fill="#A47971"/>
<rect width="5.4383" height="5.4383" transform="translate(110.132 106.068)" fill="#A47971"/>
<rect width="5.4383" height="5.4383" transform="translate(115.57 105.464)" fill="#A47971"/>
<rect width="5.4383" height="5.4383" transform="translate(117.383 101.838)" fill="#A47971"/>
<rect width="5.4383" height="5.4383" transform="translate(118.592 103.047)" fill="#A47971"/>
<rect width="5.4383" height="5.4383" transform="translate(121.612 99.4214)" fill="#A47971"/>
<rect width="5.4383" height="5.4383" transform="translate(131.885 101.234)" fill="#A47971"/>
<rect width="5.4383" height="5.4383" transform="translate(137.323 101.234)" fill="#A47971"/>
<rect width="5.4383" height="5.4383" transform="translate(142.762 105.464)" fill="#A47971"/>
<rect width="5.4383" height="5.4383" transform="translate(146.388 105.464)" fill="#A47971"/>
<rect width="5.4383" height="5.4383" transform="translate(151.825 110.298)" fill="#A47971"/>
<rect width="4.83404" height="5.4383" transform="translate(156.659 114.528)" fill="#A47971"/>
<rect width="5.4383" height="5.4383" transform="translate(83.5449 107.881)" fill="#CC8282"/>
<rect width="5.4383" height="5.4383" transform="translate(82.9404 104.255)" fill="#CC8282"/>
<rect width="5.4383" height="5.4383" transform="translate(88.3789 104.859)" fill="#CC8282"/>
<rect width="5.4383" height="5.4383" transform="translate(99.2559 115.736)" fill="#252525"/>
<rect width="5.4383" height="5.4383" transform="translate(94.4219 119.966)" fill="#252525"/>
<rect width="5.4383" height="5.4383" transform="translate(73.877 96.3999)" fill="#CC8282"/>
<rect width="5.4383" height="5.4383" transform="translate(68.4385 100.63)" fill="#CC8282"/>
<rect width="5.4383" height="5.4383" transform="translate(73.877 101.234)" fill="#CC8282"/>
<rect width="5.4383" height="5.4383" transform="translate(79.3154 101.234)" fill="#CC8282"/>
<rect width="5.4383" height="5.4383" transform="translate(79.3154 105.464)" fill="#CC8282"/>
<rect width="5.4383" height="5.4383" transform="translate(84.1494 101.234)" fill="#CC8282"/>
<rect width="5.4383" height="5.4383" transform="translate(73.877 105.464)" fill="#CC8282"/>
<rect width="5.4383" height="5.4383" transform="translate(79.3154 96.3999)" fill="#CC8282"/>
<rect width="5.4383" height="5.4383" transform="translate(84.1494 96.3999)" fill="#CC8282"/>
<rect width="5.4383" height="5.4383" transform="translate(94.4219 124.196)" fill="#252525"/>
<rect width="5.4383" height="5.4383" transform="translate(94.4219 129.03)" fill="#252525"/>
<rect width="5.4383" height="5.4383" transform="translate(99.8594 129.03)" fill="#252525"/>
<rect width="5.4383" height="5.4383" transform="translate(99.8594 133.864)" fill="#252525"/>
<rect width="5.4383" height="5.4383" transform="translate(110.132 129.03)" fill="#252525"/>
<rect width="5.4383" height="5.4383" transform="translate(110.132 133.864)" fill="#252525"/>
<rect width="5.4383" height="5.4383" transform="translate(105.298 133.864)" fill="#252525"/>
<rect width="5.4383" height="5.4383" transform="translate(88.9834 124.196)" fill="#252525"/>
<rect width="5.4383" height="5.4383" transform="translate(88.9834 129.03)" fill="#252525"/>
<rect width="5.4383" height="5.4383" transform="translate(88.9834 133.864)" fill="#252525"/>
<rect width="5.4383" height="5.4383" transform="translate(104.693 138.698)" fill="#252525"/>
<rect width="5.4383" height="5.4383" transform="translate(93.8174 138.698)" fill="#252525"/>
<rect width="5.4383" height="5.4383" transform="translate(104.693 115.736)" fill="#252525"/>
<rect width="5.4383" height="5.4383" transform="translate(110.132 115.736)" fill="#252525"/>
<rect width="5.4383" height="5.4383" transform="translate(114.966 119.966)" fill="#252525"/>
<rect width="5.4383" height="5.4383" transform="translate(114.966 124.8)" fill="#252525"/>
<rect width="5.4383" height="5.4383" transform="translate(114.966 129.03)" fill="#252525"/>
<rect width="5.4383" height="5.4383" transform="translate(114.966 133.864)" fill="#252525"/>
<rect width="5.4383" height="5.4383" transform="translate(99.8594 119.966)" fill="#252525"/>
<rect width="5.4383" height="5.4383" transform="translate(110.132 138.698)" fill="#252525"/>
<rect width="5.4383" height="5.4383" transform="translate(99.2559 138.698)" fill="#252525"/>
<rect width="5.4383" height="5.4383" transform="translate(94.4219 133.864)" fill="#BFD8B8"/>
<rect width="5.4383" height="5.4383" transform="translate(99.8594 124.196)" fill="#BFD8B8"/>
<rect width="5.4383" height="5.4383" transform="translate(105.298 124.196)" fill="#BFD8B8"/>
<rect width="5.4383" height="5.4383" transform="translate(105.298 129.03)" fill="#BFD8B8"/>
<rect width="5.4383" height="5.4383" transform="translate(105.298 120.57)" fill="#BFD8B8"/>
<rect width="5.4383" height="5.4383" transform="translate(110.132 120.57)" fill="#BFD8B8"/>
<rect width="5.4383" height="5.4383" transform="translate(110.132 124.196)" fill="#BFD8B8"/>
<rect width="5.4383" height="5.4383" transform="translate(88.3789 107.881)" fill="#A47971"/>
<rect width="5.4383" height="5.4383" transform="translate(88.9834 118.757)" fill="#A47971"/>
<rect width="5.4383" height="5.4383" transform="translate(83.5449 129.634)" fill="white"/>
<rect width="5.4383" height="5.4383" transform="translate(82.3359 129.634)" fill="white"/>
<rect width="5.4383" height="5.4383" transform="translate(83.5449 135.072)" fill="white"/>
<rect width="5.4383" height="5.4383" transform="translate(81.7314 135.072)" fill="white"/>
<rect width="5.4383" height="5.4383" transform="translate(68.4385 95.7959)" fill="#614540"/>
<rect width="5.4383" height="5.4383" transform="translate(63 81.8979)" fill="#614540"/>
<rect width="5.4383" height="5.4383" transform="translate(68.4385 76.4595)" fill="#614540"/>
<rect width="5.4383" height="5.4383" transform="translate(73.2725 72.834)" fill="#614540"/>
<rect width="5.4383" height="5.4383" transform="translate(78.7109 68)" fill="#614540"/>
<rect width="5.4383" height="5.4383" transform="translate(84.1494 68)" fill="#614540"/>
<rect width="5.4383" height="5.4383" transform="translate(89.5869 68)" fill="#614540"/>
<rect width="5.4383" height="5.4383" transform="translate(95.0254 68)" fill="#614540"/>
<rect width="5.4383" height="5.4383" transform="translate(99.2549 68)" fill="#614540"/>
<rect width="5.4383" height="5.4383" transform="translate(104.09 72.834)" fill="#614540"/>
<rect width="5.4383" height="5.4383" transform="translate(125.238 72.834)" fill="#614540"/>
<rect width="5.4383" height="5.4383" transform="translate(115.57 77.668)" fill="#614540"/>
<rect width="5.4383" height="5.4383" transform="translate(120.404 77.668)" fill="#614540"/>
<rect width="5.4383" height="5.4383" transform="translate(130.677 77.668)" fill="#614540"/>
<rect width="5.4383" height="5.4383" transform="translate(140.949 77.668)" fill="#614540"/>
<rect width="5.4383" height="5.4383" transform="translate(151.825 77.668)" fill="#614540"/>
<rect width="5.4383" height="5.4383" transform="translate(157.264 77.668)" fill="#614540"/>
<rect width="5.4383" height="5.4383" transform="translate(161.493 72.834)" fill="#614540"/>
<rect width="5.4383" height="5.4383" transform="translate(166.932 72.834)" fill="#614540"/>
<rect width="5.4383" height="5.4383" transform="translate(135.511 72.834)" fill="#614540"/>
<rect width="5.4383" height="5.4383" transform="translate(146.388 72.834)" fill="#614540"/>
<rect width="5.4383" height="5.4383" transform="translate(109.527 72.834)" fill="#614540"/>
<rect width="5.4383" height="5.4383" transform="translate(63 87.3359)" fill="#614540"/>
<rect width="5.4383" height="5.4383" transform="translate(63 92.7744)" fill="#614540"/>
<rect width="5.4383" height="5.4383" transform="translate(63 98.2129)" fill="#614540"/>
<rect width="5.4383" height="5.4383" transform="translate(63 100.63)" fill="#614540"/>
<rect width="5.4383" height="5.4383" transform="translate(73.877 90.9619)" fill="#614540"/>
<rect width="5.4383" height="5.4383" transform="translate(79.3145 90.9619)" fill="#614540"/>
<rect width="5.4383" height="5.4383" transform="translate(83.5449 90.9619)" fill="#614540"/>
<rect width="5.4383" height="5.4383" transform="translate(88.9834 96.3999)" fill="#614540"/>
<rect width="5.4383" height="5.4383" transform="translate(182.643 96.3999)" fill="#614540"/>
<rect width="5.4383" height="5.4383" transform="translate(187.477 90.9619)" fill="#614540"/>
<rect width="5.4383" height="5.4383" transform="translate(192.915 90.9619)" fill="#614540"/>
<rect width="5.4383" height="5.4383" transform="translate(197.749 90.9619)" fill="#614540"/>
<rect width="5.4383" height="5.4383" transform="translate(203.188 95.7959)" fill="#614540"/>
<rect width="5.4383" height="5.4383" transform="translate(198.354 115.132)" fill="#614540"/>
<rect width="5.4383" height="5.4383" transform="translate(193.52 109.694)" fill="#614540"/>
<rect width="5.4383" height="5.4383" transform="translate(198.354 109.694)" fill="#614540"/>
<rect width="5.4383" height="5.4383" transform="translate(202.583 105.464)" fill="#614540"/>
<rect width="5.4383" height="5.4383" transform="translate(208.021 101.234)" fill="#614540"/>
<rect width="5.4383" height="5.4383" transform="translate(208.021 95.7959)" fill="#614540"/>
<rect width="5.4383" height="5.4383" transform="translate(208.021 90.3574)" fill="#614540"/>
<rect width="5.4383" height="5.4383" transform="translate(208.021 84.9189)" fill="#614540"/>
<rect width="5.4383" height="5.4383" transform="translate(208.021 81.8979)" fill="#614540"/>
<rect width="5.4383" height="5.4383" transform="translate(202.583 76.4595)" fill="#614540"/>
<rect width="5.4383" height="5.4383" transform="translate(197.749 72.834)" fill="#614540"/>
<rect width="5.4383" height="5.4383" transform="translate(192.311 68)" fill="#614540"/>
<rect width="5.4383" height="5.4383" transform="translate(186.872 68)" fill="#614540"/>
<rect width="5.4383" height="5.4383" transform="translate(181.434 68)" fill="#614540"/>
<rect width="5.4383" height="5.4383" transform="translate(175.996 68)" fill="#614540"/>
<rect width="5.4383" height="5.4383" transform="translate(171.766 68)" fill="#614540"/>
<rect width="5.4383" height="5.4383" transform="translate(88.9834 99.4214)" fill="#614540"/>
<rect width="5.4383" height="5.4383" transform="translate(182.643 99.4214)" fill="#614540"/>
<rect width="5.4383" height="5.4383" transform="translate(68.4385 106.068)" fill="#614540"/>
<rect width="5.4383" height="5.4383" transform="translate(72.668 110.902)" fill="#614540"/>
<rect width="5.4383" height="5.4383" transform="translate(72.668 115.132)" fill="#614540"/>
<rect width="5.4383" height="5.4383" transform="translate(78.1064 118.757)" fill="#614540"/>
<rect width="5.4383" height="5.4383" transform="translate(73.877 129.634)" fill="#614540"/>
<rect width="5.4383" height="5.4383" transform="translate(73.877 139.906)" fill="#614540"/>
<rect width="5.4383" height="5.4383" transform="translate(73.877 147.157)" fill="#614540"/>
<rect width="5.4383" height="5.4383" transform="translate(77.502 140.511)" fill="#614540"/>
<rect width="5.4383" height="5.4383" transform="translate(78.1064 124.196)" fill="#614540"/>
<rect width="5.4383" height="5.4383" transform="translate(73.877 135.072)" fill="#614540"/>
<rect width="5.4383" height="5.4383" transform="translate(73.877 145.345)" fill="#614540"/>
<rect width="5.4383" height="5.4383" transform="translate(73.877 152.596)" fill="#614540"/>
<rect width="5.4383" height="5.4383" transform="translate(78.7109 151.387)" fill="#614540"/>
<rect width="5.4383" height="5.4383" transform="translate(78.7109 161.66)" fill="#614540"/>
<rect width="5.4383" height="5.4383" transform="translate(73.877 177.975)" fill="#614540"/>
<rect width="5.4383" height="5.4383" transform="translate(78.7109 156.221)" fill="#614540"/>
<rect width="5.4383" height="5.4383" transform="translate(73.877 172.536)" fill="#614540"/>
<rect width="5.4383" height="5.4383" transform="translate(78.7109 167.098)" fill="#614540"/>
<rect width="5.4383" height="5.4383" transform="translate(73.877 183.413)" fill="#614540"/>
<rect width="5.4383" height="5.4383" transform="translate(73.877 185.83)" fill="#614540"/>
<rect width="5.4383" height="5.4383" transform="translate(63 143.532)" fill="#614540"/>
<rect width="5.4383" height="5.4383" transform="translate(68.4385 143.532)" fill="#614540"/>
<rect width="5.4383" height="5.4383" transform="translate(78.1064 110.902)" fill="#614540"/>
<rect width="5.4383" height="5.4383" transform="translate(77.502 129.634)" fill="white"/>
<rect width="5.4383" height="5.4383" transform="translate(77.502 135.072)" fill="white"/>
<rect width="5.4383" height="5.4383" transform="translate(77.502 145.949)" fill="white"/>
<rect width="5.4383" height="5.4383" transform="translate(82.9404 151.387)" fill="white"/>
<rect width="5.4383" height="5.4383" transform="translate(82.9404 156.826)" fill="#A47971"/>
<rect width="5.4383" height="5.4383" transform="translate(82.9404 162.264)" fill="#A47971"/>
<rect width="5.4383" height="5.4383" transform="translate(82.9404 167.098)" fill="#A47971"/>
<rect width="5.4383" height="5.4383" transform="translate(77.502 172.536)" fill="#A47971"/>
<rect width="5.4383" height="5.4383" transform="translate(77.502 180.996)" fill="#A47971"/>
<rect width="5.4383" height="5.4383" transform="translate(77.502 177.37)" fill="#A47971"/>
<rect width="5.4383" height="5.4383" transform="translate(77.502 185.83)" fill="#A47971"/>
<rect width="5.4383" height="5.4383" transform="translate(79.3145 191.268)" fill="#614540"/>
<rect width="5.4383" height="5.4383" transform="translate(79.3145 194.29)" fill="#614540"/>
<rect width="5.4383" height="5.4383" transform="translate(73.877 199.728)" fill="#614540"/>
<rect width="5.4383" height="5.4383" transform="translate(79.3145 204.562)" fill="#614540"/>
<rect width="5.4383" height="5.4383" transform="translate(177.809 204.562)" fill="#614540"/>
<rect width="5.4383" height="5.4383" transform="translate(84.7529 204.562)" fill="#614540"/>
<rect width="5.4383" height="5.4383" transform="translate(183.247 204.562)" fill="#614540"/>
<rect width="5.4383" height="5.4383" transform="translate(90.1914 204.562)" fill="#614540"/>
<rect width="5.4383" height="5.4383" transform="translate(188.686 204.562)" fill="#614540"/>
<rect width="5.4383" height="5.4383" transform="translate(94.4209 204.562)" fill="#614540"/>
<rect width="5.4383" height="5.4383" transform="translate(192.915 204.562)" fill="#614540"/>
<rect width="5.4383" height="5.4383" transform="translate(195.332 199.728)" fill="#614540"/>
<rect width="5.4383" height="5.4383" transform="translate(191.706 194.29)" fill="#614540"/>
<rect width="5.4383" height="5.4383" transform="translate(191.706 190.664)" fill="#614540"/>
<rect width="5.4383" height="5.4383" transform="translate(191.706 190.664)" fill="#614540"/>
<rect width="5.4383" height="5.4383" transform="translate(195.332 185.83)" fill="#614540"/>
<rect width="5.4383" height="5.4383" transform="translate(191.103 167.702)" fill="#614540"/>
<rect width="5.4383" height="5.4383" transform="translate(195.332 180.996)" fill="#614540"/>
<rect width="5.4383" height="5.4383" transform="translate(191.103 162.868)" fill="#614540"/>
<rect width="5.4383" height="5.4383" transform="translate(195.332 176.766)" fill="#614540"/>
<rect width="5.4383" height="5.4383" transform="translate(191.103 158.638)" fill="#614540"/>
<rect width="5.4383" height="5.4383" transform="translate(195.332 172.536)" fill="#614540"/>
<rect width="5.4383" height="5.4383" transform="translate(191.103 154.409)" fill="#614540"/>
<rect width="5.4383" height="5.4383" transform="translate(191.103 151.387)" fill="#614540"/>
<rect width="5.4383" height="5.4383" transform="translate(196.54 151.387)" fill="#614540"/>
<rect width="5.4383" height="5.4383" transform="translate(194.123 145.949)" fill="#614540"/>
<rect width="5.4383" height="5.4383" transform="translate(191.706 140.511)" fill="#614540"/>
<rect width="5.4383" height="5.4383" transform="translate(194.123 135.072)" fill="#614540"/>
<rect width="5.4383" height="5.4383" transform="translate(194.123 129.634)" fill="#614540"/>
<rect width="5.4383" height="5.4383" transform="translate(197.145 143.532)" fill="#614540"/>
<rect width="5.4383" height="5.4383" transform="translate(202.583 143.532)" fill="#614540"/>
<rect width="5.4383" height="5.4383" transform="translate(208.021 143.532)" fill="#614540"/>
<rect width="5.4383" height="5.4383" transform="translate(192.915 124.196)" fill="#614540"/>
<rect width="5.4383" height="5.4383" transform="translate(192.915 119.966)" fill="#614540"/>
<rect width="5.4383" height="5.4383" transform="translate(189.894 194.29)" fill="#614540"/>
<rect width="5.4383" height="5.4383" transform="translate(82.9404 194.29)" fill="#A47971"/>
<rect width="5.4383" height="5.4383" transform="translate(104.693 195.498)" fill="#A47971"/>
<rect width="5.4383" height="5.4383" transform="translate(126.447 195.498)" fill="#A47971"/>
<rect width="5.4383" height="5.4383" transform="translate(148.2 195.498)" fill="#A47971"/>
<rect width="5.4383" height="5.4383" transform="translate(110.132 195.498)" fill="#A47971"/>
<rect width="5.4383" height="5.4383" transform="translate(131.885 195.498)" fill="#A47971"/>
<rect width="5.4383" height="5.4383" transform="translate(153.639 195.498)" fill="#A47971"/>
<rect width="5.4383" height="5.4383" transform="translate(115.57 195.498)" fill="#A47971"/>
<rect width="5.4383" height="5.4383" transform="translate(137.323 195.498)" fill="#A47971"/>
<rect width="5.4383" height="5.4383" transform="translate(159.076 195.498)" fill="#A47971"/>
<rect width="5.4383" height="5.4383" transform="translate(121.009 195.498)" fill="#A47971"/>
<rect width="5.4383" height="5.4383" transform="translate(142.762 195.498)" fill="#A47971"/>
<rect width="5.4383" height="5.4383" transform="translate(164.515 195.498)" fill="#A47971"/>
<rect width="5.4383" height="5.4383" transform="translate(166.932 195.498)" fill="#A47971"/>
<rect width="5.4383" height="5.4383" transform="translate(82.9404 199.728)" fill="#A47971"/>
<rect width="5.4383" height="5.4383" transform="translate(77.502 199.728)" fill="#A47971"/>
<rect width="5.4383" height="5.4383" transform="translate(82.9404 188.851)" fill="white"/>
<rect width="5.4383" height="5.4383" transform="translate(88.3789 199.728)" fill="white"/>
<rect width="5.4383" height="5.4383" transform="translate(99.8594 199.728)" fill="#614540"/>
<rect width="6.04255" height="6.04255" transform="translate(93.8174 199.124)" fill="white"/>
<rect width="5.4383" height="5.4383" transform="translate(186.269 199.728)" fill="#A47971"/>
<rect width="5.4383" height="5.4383" transform="translate(191.706 199.728)" fill="#A47971"/>
<g clip-path="url(#clip4_1306_16538)">
<rect width="5.4383" height="5.4383" transform="translate(175.392 199.728)" fill="white"/>
<rect width="5.4383" height="5.4383" transform="translate(172.37 199.728)" fill="#614540"/>
</g>
<rect width="5.4383" height="5.4383" transform="translate(180.83 199.728)" fill="white"/>
<rect width="5.4383" height="5.4383" transform="translate(186.269 194.29)" fill="#A47971"/>
<rect width="5.4383" height="5.4383" transform="translate(191.706 172.536)" fill="#A47971"/>
<rect width="5.4383" height="5.4383" transform="translate(191.706 177.37)" fill="#A47971"/>
<rect width="5.4383" height="5.4383" transform="translate(191.706 182.809)" fill="#A47971"/>
<rect width="5.4383" height="5.4383" transform="translate(191.706 188.247)" fill="#A47971"/>
<rect width="5.4383" height="5.4383" transform="translate(186.269 156.826)" fill="#A47971"/>
<rect width="5.4383" height="5.4383" transform="translate(186.269 161.66)" fill="#A47971"/>
<rect width="5.4383" height="5.4383" transform="translate(186.269 167.098)" fill="#A47971"/>
<rect width="5.4383" height="5.4383" transform="translate(186.269 172.536)" fill="white"/>
<rect width="5.4383" height="5.4383" transform="translate(186.269 151.387)" fill="white"/>
<rect width="5.4383" height="5.4383" transform="translate(191.706 145.949)" fill="white"/>
<rect width="5.4383" height="5.4383" transform="translate(191.706 135.072)" fill="white"/>
<rect width="5.4383" height="5.4383" transform="translate(191.706 129.634)" fill="white"/>
<rect width="5.4383" height="5.4383" transform="translate(187.477 118.757)" fill="#A47971"/>
<rect width="5.4383" height="5.4383" transform="translate(192.915 115.132)" fill="#A47971"/>
<rect width="5.4383" height="5.4383" transform="matrix(-1 0 0 1 177.809 115.736)" fill="#252525"/>
<rect width="5.4383" height="5.4383" transform="matrix(-1 0 0 1 182.643 119.966)" fill="#252525"/>
<rect width="5.4383" height="5.4383" transform="matrix(-1 0 0 1 182.643 124.196)" fill="#252525"/>
<rect width="5.4383" height="5.4383" transform="matrix(-1 0 0 1 182.643 129.03)" fill="#252525"/>
<rect width="5.4383" height="5.4383" transform="matrix(-1 0 0 1 177.204 129.03)" fill="#252525"/>
<rect width="5.4383" height="5.4383" transform="matrix(-1 0 0 1 177.204 133.864)" fill="#252525"/>
<rect width="5.4383" height="5.4383" transform="matrix(-1 0 0 1 166.932 129.03)" fill="#252525"/>
<rect width="5.4383" height="5.4383" transform="matrix(-1 0 0 1 166.932 133.864)" fill="#252525"/>
<rect width="5.4383" height="5.4383" transform="matrix(-1 0 0 1 171.767 133.864)" fill="#252525"/>
<rect width="5.4383" height="5.4383" transform="matrix(-1 0 0 1 188.081 124.196)" fill="#252525"/>
<rect width="5.4383" height="5.4383" transform="matrix(-1 0 0 1 188.081 129.03)" fill="#252525"/>
<rect width="5.4383" height="5.4383" transform="matrix(-1 0 0 1 188.081 133.864)" fill="#252525"/>
<rect width="5.4383" height="5.4383" transform="matrix(-1 0 0 1 172.37 138.698)" fill="#252525"/>
<rect width="5.4383" height="5.4383" transform="matrix(-1 0 0 1 183.247 138.698)" fill="#252525"/>
<rect width="5.4383" height="5.4383" transform="matrix(-1 0 0 1 172.37 115.736)" fill="#252525"/>
<rect width="5.4383" height="5.4383" transform="matrix(-1 0 0 1 166.932 115.736)" fill="#252525"/>
<rect width="5.4383" height="5.4383" transform="matrix(-1 0 0 1 198.354 96.3999)" fill="#CC8282"/>
<rect width="5.4383" height="5.4383" transform="matrix(-1 0 0 1 203.188 96.3999)" fill="#CC8282"/>
<rect width="5.4383" height="5.4383" transform="matrix(-1 0 0 1 193.52 109.693)" fill="#CC8282"/>
<rect width="5.4383" height="5.4383" transform="matrix(-1 0 0 1 193.52 104.255)" fill="#CC8282"/>
<rect width="5.4383" height="5.4383" transform="matrix(-1 0 0 1 208.021 101.234)" fill="#CC8282"/>
<rect width="5.4383" height="5.4383" transform="matrix(-1 0 0 1 203.188 105.464)" fill="#CC8282"/>
<rect width="5.4383" height="5.4383" transform="matrix(-1 0 0 1 197.749 105.464)" fill="#CC8282"/>
<rect width="5.4383" height="5.4383" transform="matrix(-1 0 0 1 197.749 101.234)" fill="#CC8282"/>
<rect width="5.4383" height="5.4383" transform="matrix(-1 0 0 1 202.583 101.234)" fill="#CC8282"/>
<rect width="5.4383" height="5.4383" transform="matrix(-1 0 0 1 162.098 119.966)" fill="#252525"/>
<rect width="5.4383" height="5.4383" transform="matrix(-1 0 0 1 162.098 124.8)" fill="#252525"/>
<rect width="5.4383" height="5.4383" transform="matrix(-1 0 0 1 162.098 129.03)" fill="#252525"/>
<rect width="5.4383" height="5.4383" transform="matrix(-1 0 0 1 162.098 133.864)" fill="#252525"/>
<rect width="5.4383" height="5.4383" transform="matrix(-1 0 0 1 177.204 119.966)" fill="#252525"/>
<rect width="5.4383" height="5.4383" transform="matrix(-1 0 0 1 166.932 138.698)" fill="#252525"/>
<rect width="5.4383" height="5.4383" transform="matrix(-1 0 0 1 177.809 138.698)" fill="#252525"/>
<rect width="5.4383" height="5.4383" transform="matrix(-1 0 0 1 182.643 133.864)" fill="#BFD8B8"/>
<rect width="5.4383" height="5.4383" transform="matrix(-1 0 0 1 177.204 124.196)" fill="#BFD8B8"/>
<rect width="5.4383" height="5.4383" transform="matrix(-1 0 0 1 171.767 124.196)" fill="#BFD8B8"/>
<rect width="5.4383" height="5.4383" transform="matrix(-1 0 0 1 171.767 129.03)" fill="#BFD8B8"/>
<rect width="5.4383" height="5.4383" transform="matrix(-1 0 0 1 171.767 120.57)" fill="#BFD8B8"/>
<rect width="5.4383" height="5.4383" transform="matrix(-1 0 0 1 166.932 120.57)" fill="#BFD8B8"/>
<rect width="5.4383" height="5.4383" transform="matrix(-1 0 0 1 166.932 124.196)" fill="#BFD8B8"/>
<rect width="5.4383" height="5.4383" transform="matrix(-1 0 0 1 192.915 96.3999)" fill="#CC8282"/>
<rect width="5.4383" height="5.4383" transform="matrix(-1 0 0 1 188.081 104.859)" fill="#CC8282"/>
<rect width="5.4383" height="5.4383" transform="matrix(-1 0 0 1 192.915 101.234)" fill="#CC8282"/>
<rect width="5.4383" height="5.4383" transform="translate(202.583 90.9619)" fill="#A47971"/>
<rect width="5.4383" height="5.4383" transform="translate(197.749 86.1274)" fill="#A47971"/>
<rect width="5.4383" height="5.4383" transform="translate(192.915 86.1274)" fill="#A47971"/>
<rect width="5.4383" height="5.4383" transform="translate(187.477 86.1274)" fill="#A47971"/>
<rect width="5.4383" height="5.4383" transform="translate(182.038 90.9619)" fill="#A47971"/>
<rect width="5.4383" height="5.4383" transform="translate(197.749 77.668)" fill="#A47971"/>
<rect width="5.4383" height="5.4383" transform="translate(202.583 81.8979)" fill="#A47971"/>
<rect width="5.4383" height="5.4383" transform="translate(171.766 72.834)" fill="#A47971"/>
<rect width="5.4383" height="5.4383" transform="translate(182.643 72.834)" fill="#A47971"/>
<rect width="5.4383" height="5.4383" transform="translate(177.204 72.834)" fill="#A47971"/>
<rect width="5.4383" height="5.4383" transform="translate(188.081 72.834)" fill="#A47971"/>
<rect width="5.4383" height="5.4383" transform="translate(192.311 72.834)" fill="#A47971"/>
<rect width="5.4383" height="5.4383" transform="translate(68.4385 81.8979)" fill="#A47971"/>
<rect width="5.4383" height="5.4383" transform="translate(73.877 77.064)" fill="#A47971"/>
<rect width="5.4383" height="5.4383" transform="translate(78.7109 72.834)" fill="#A47971"/>
<rect width="5.4383" height="5.4383" transform="translate(84.1494 72.834)" fill="#A47971"/>
<rect width="5.4383" height="5.4383" transform="translate(89.5869 72.834)" fill="#A47971"/>
<rect width="5.4383" height="5.4383" transform="translate(93.8174 72.834)" fill="#A47971"/>
<rect width="5.4383" height="5.4383" transform="translate(99.2549 72.834)" fill="#A47971"/>
<rect width="5.4383" height="5.4383" transform="translate(104.693 76.4595)" fill="#A47971"/>
<rect width="5.4383" height="5.4383" transform="translate(115.57 81.8979)" fill="#A47971"/>
<rect width="5.4383" height="5.4383" transform="translate(121.009 81.8979)" fill="#A47971"/>
<rect width="5.4383" height="5.4383" transform="translate(125.238 77.668)" fill="#A47971"/>
<rect width="5.4383" height="5.4383" transform="translate(130.677 81.8979)" fill="#A47971"/>
<rect width="5.4383" height="5.4383" transform="translate(135.511 77.668)" fill="#A47971"/>
<rect width="5.4383" height="5.4383" transform="translate(146.388 77.668)" fill="#A47971"/>
<rect width="5.4383" height="5.4383" transform="translate(140.949 82.502)" fill="#A47971"/>
<rect width="5.4383" height="5.4383" transform="translate(135.511 81.8979)" fill="#A47971"/>
<rect width="5.4383" height="5.4383" transform="translate(146.388 81.8979)" fill="#A47971"/>
<rect width="5.4383" height="5.4383" transform="translate(150.617 81.8979)" fill="#A47971"/>
<rect width="5.4383" height="5.4383" transform="translate(110.132 76.4595)" fill="#A47971"/>
<rect width="5.4383" height="5.4383" transform="translate(166.328 77.668)" fill="#A47971"/>
<rect width="5.4383" height="5.4383" transform="translate(161.493 77.668)" fill="#A47971"/>
<rect width="5.4383" height="5.4383" transform="translate(156.056 81.8979)" fill="#A47971"/>
<rect width="5.4383" height="5.4383" transform="translate(161.493 82.502)" fill="#A47971"/>
<rect width="5.4383" height="5.4383" transform="translate(135.511 134.468)" fill="#7A5751"/>
<rect width="5.4383" height="5.4383" transform="translate(130.072 139.906)" fill="#7A5751"/>
<rect width="5.4383" height="5.4383" transform="translate(114.966 147.762)" fill="#7A5751"/>
<rect width="5.4383" height="5.4383" transform="translate(125.238 157.43)" fill="#7A5751"/>
<rect width="5.4383" height="5.4383" transform="translate(119.8 176.766)" fill="#C9968D"/>
<rect width="5.4383" height="5.4383" transform="translate(119.8 180.392)" fill="#C9968D"/>
<rect width="5.4383" height="5.4383" transform="translate(114.966 180.996)" fill="#C9968D"/>
<rect width="5.4383" height="5.4383" transform="translate(119.8 171.328)" fill="#7A5751"/>
<rect width="5.4383" height="5.4383" transform="translate(125.238 176.162)" fill="#7A5751"/>
<rect width="5.4383" height="5.4383" transform="translate(125.238 181.6)" fill="#7A5751"/>
<rect width="5.4383" height="5.4383" transform="translate(120.404 185.83)" fill="#7A5751"/>
<rect width="5.4383" height="5.4383" transform="translate(114.966 185.83)" fill="#7A5751"/>
<rect width="5.4383" height="5.4383" transform="translate(109.527 180.996)" fill="#7A5751"/>
<rect width="5.4383" height="5.4383" transform="matrix(-1 0 0 1 156.659 176.766)" fill="#C9968D"/>
<rect width="5.4383" height="5.4383" transform="matrix(-1 0 0 1 156.659 180.392)" fill="#C9968D"/>
<rect width="5.4383" height="5.4383" transform="matrix(-1 0 0 1 161.493 180.996)" fill="#C9968D"/>
<rect width="5.4383" height="5.4383" transform="matrix(-1 0 0 1 156.659 171.328)" fill="#7A5751"/>
<rect width="5.4383" height="5.4383" transform="matrix(-1 0 0 1 151.221 176.162)" fill="#7A5751"/>
<rect width="5.4383" height="5.4383" transform="matrix(-1 0 0 1 151.221 181.6)" fill="#7A5751"/>
<rect width="5.4383" height="5.4383" transform="matrix(-1 0 0 1 156.055 185.83)" fill="#7A5751"/>
<rect width="5.4383" height="5.4383" transform="matrix(-1 0 0 1 161.493 185.83)" fill="#7A5751"/>
<rect width="5.4383" height="5.4383" transform="matrix(-1 0 0 1 166.932 180.996)" fill="#7A5751"/>
<rect width="5.4383" height="5.4383" transform="translate(130.677 157.43)" fill="#7A5751"/>
<rect width="5.4383" height="5.4383" transform="translate(136.115 151.992)" fill="#7A5751"/>
<rect width="5.4383" height="5.4383" transform="translate(141.553 157.43)" fill="#7A5751"/>
<rect width="5.4383" height="5.4383" transform="translate(136.115 157.43)" fill="#FF9898"/>
<rect width="5.4383" height="5.4383" transform="translate(146.991 157.43)" fill="#7A5751"/>
<rect width="5.4383" height="5.4383" transform="translate(157.264 147.762)" fill="#7A5751"/>
<rect width="5.4383" height="5.4383" transform="translate(140.949 139.906)" fill="#7A5751"/>
<rect width="5.4383" height="5.4383" transform="translate(110.132 199.728)" fill="#614540"/>
<rect width="5.4383" height="5.4383" transform="translate(131.885 199.728)" fill="#614540"/>
<rect width="5.4383" height="5.4383" transform="translate(153.639 199.728)" fill="#614540"/>
<rect width="5.4383" height="5.4383" transform="translate(121.009 199.728)" fill="#614540"/>
<rect width="5.4383" height="5.4383" transform="translate(142.762 199.728)" fill="#614540"/>
<rect width="5.4383" height="5.4383" transform="translate(164.515 199.728)" fill="#614540"/>
<rect width="5.4383" height="5.4383" transform="translate(115.57 199.728)" fill="#614540"/>
<rect width="5.4383" height="5.4383" transform="translate(137.323 199.728)" fill="#614540"/>
<rect width="5.4383" height="5.4383" transform="translate(159.076 199.728)" fill="#614540"/>
<rect width="5.4383" height="5.4383" transform="translate(104.693 199.728)" fill="#614540"/>
<rect width="5.4383" height="5.4383" transform="translate(126.447 199.728)" fill="#614540"/>
<rect width="5.4383" height="5.4383" transform="translate(148.2 199.728)" fill="#614540"/>
<rect width="5.4383" height="5.4383" transform="translate(169.953 199.728)" fill="#614540"/>
<rect width="5.4383" height="5.4383" transform="translate(155.265 107.276)" fill="#EF4444"/>
<rect width="5.4383" height="5.4383" transform="translate(155.265 150.783)" fill="#EF4444"/>
<rect width="5.4383" height="5.4383" transform="translate(160.702 107.276)" fill="#EF4444"/>
<rect width="5.4383" height="5.4383" transform="translate(160.702 150.783)" fill="#EF4444"/>
<rect width="5.4383" height="5.4383" transform="translate(166.141 107.276)" fill="#EF4444"/>
<rect width="5.4383" height="5.4383" transform="translate(166.141 150.783)" fill="#EF4444"/>
<rect width="5.4383" height="5.4383" transform="translate(171.579 107.276)" fill="#EF4444"/>
<rect width="5.4383" height="5.4383" transform="translate(171.579 150.783)" fill="#EF4444"/>
<rect width="5.4383" height="5.4383" transform="translate(177.018 107.276)" fill="#EF4444"/>
<rect width="5.4383" height="5.4383" transform="translate(177.018 150.783)" fill="#EF4444"/>
<rect width="5.4383" height="5.4383" transform="translate(182.456 145.344)" fill="#EF4444"/>
<rect width="5.4383" height="5.4383" transform="translate(182.456 112.715)" fill="#EF4444"/>
<rect width="5.4383" height="5.4383" transform="translate(187.895 118.153)" fill="#EF4444"/>
<rect width="5.4383" height="5.4383" transform="translate(144.388 118.153)" fill="#EF4444"/>
<rect width="5.4383" height="5.4383" transform="translate(149.826 112.715)" fill="#EF4444"/>
<rect width="5.4383" height="5.4383" transform="translate(149.826 118.153)" fill="#FFCECE"/>
<rect width="5.4383" height="5.4383" transform="translate(155.265 112.715)" fill="#FFCECE"/>
<rect width="5.4383" height="5.4383" transform="translate(149.826 139.906)" fill="#FFCECE"/>
<rect width="5.4383" height="5.4383" transform="translate(155.265 145.344)" fill="#FFCECE"/>
<rect width="5.4383" height="5.4383" transform="translate(177.018 145.344)" fill="#FFCECE"/>
<rect width="5.4383" height="5.4383" transform="translate(182.456 139.906)" fill="#FFCECE"/>
<rect width="5.4383" height="5.4383" transform="translate(182.456 118.153)" fill="#FFCECE"/>
<rect width="5.4383" height="5.4383" transform="translate(177.018 112.715)" fill="#FFCECE"/>
<rect width="5.4383" height="5.4383" transform="translate(187.895 123.591)" fill="#EF4444"/>
<rect width="5.4383" height="5.4383" transform="translate(144.388 123.591)" fill="#EF4444"/>
<rect width="5.4383" height="5.4383" transform="translate(187.895 129.03)" fill="#EF4444"/>
<rect width="5.4383" height="5.4383" transform="translate(144.388 129.03)" fill="#EF4444"/>
<rect width="5.4383" height="5.4383" transform="translate(187.895 134.468)" fill="#EF4444"/>
<rect width="5.4383" height="5.4383" transform="translate(144.388 134.468)" fill="#EF4444"/>
<rect width="5.4383" height="5.4383" transform="translate(187.895 139.906)" fill="#EF4444"/>
<rect width="5.4383" height="5.4383" transform="translate(144.388 139.906)" fill="#EF4444"/>
<rect width="5.4383" height="5.4383" transform="translate(149.826 145.344)" fill="#EF4444"/>
<rect width="5.4383" height="5.4383" transform="translate(93.8174 107.276)" fill="#EF4444"/>
<rect width="5.4383" height="5.4383" transform="translate(93.8174 150.783)" fill="#EF4444"/>
<rect width="5.4383" height="5.4383" transform="translate(99.2549 107.276)" fill="#EF4444"/>
<rect width="5.4383" height="5.4383" transform="translate(99.2549 150.783)" fill="#EF4444"/>
<rect width="5.4383" height="5.4383" transform="translate(104.693 107.276)" fill="#EF4444"/>
<rect width="5.4383" height="5.4383" transform="translate(104.693 150.783)" fill="#EF4444"/>
<rect width="5.4383" height="5.4383" transform="translate(110.132 107.276)" fill="#EF4444"/>
<rect width="5.4383" height="5.4383" transform="translate(110.132 150.783)" fill="#EF4444"/>
<rect width="5.4383" height="5.4383" transform="translate(115.57 107.276)" fill="#EF4444"/>
<rect width="5.4383" height="5.4383" transform="translate(115.57 150.783)" fill="#EF4444"/>
<rect width="5.4383" height="5.4383" transform="translate(121.009 145.344)" fill="#EF4444"/>
<rect width="5.4383" height="5.4383" transform="translate(121.009 112.715)" fill="#EF4444"/>
<rect width="5.4383" height="5.4383" transform="translate(126.447 118.153)" fill="#EF4444"/>
<rect width="5.4383" height="5.4383" transform="translate(131.885 123.591)" fill="#EF4444"/>
<rect width="5.4383" height="5.4383" transform="translate(137.323 123.591)" fill="#EF4444"/>
<rect width="5.4383" height="5.4383" transform="translate(141.553 123.591)" fill="#EF4444"/>
<rect width="5.4383" height="5.4383" transform="translate(82.9404 118.153)" fill="#EF4444"/>
<rect width="5.4383" height="5.4383" transform="translate(88.3789 112.715)" fill="#EF4444"/>
<rect width="5.4383" height="5.4383" transform="translate(88.3789 118.153)" fill="#FFCECE"/>
<rect width="5.4383" height="5.4383" transform="translate(93.8174 112.715)" fill="#FFCECE"/>
<rect width="5.4383" height="5.4383" transform="translate(88.3789 139.906)" fill="#FFCECE"/>
<rect width="5.4383" height="5.4383" transform="translate(93.8174 145.344)" fill="#FFCECE"/>
<rect width="5.4383" height="5.4383" transform="translate(115.57 145.344)" fill="#FFCECE"/>
<rect width="5.4383" height="5.4383" transform="translate(121.009 139.906)" fill="#FFCECE"/>
<rect width="5.4383" height="5.4383" transform="translate(121.009 118.153)" fill="#FFCECE"/>
<rect width="5.4383" height="5.4383" transform="translate(115.57 112.715)" fill="#FFCECE"/>
<rect width="5.4383" height="5.4383" transform="translate(126.447 123.591)" fill="#EF4444"/>
<rect width="5.4383" height="5.4383" transform="translate(82.9404 123.591)" fill="#EF4444"/>
<rect width="5.4383" height="5.4383" transform="translate(126.447 129.03)" fill="#EF4444"/>
<rect width="5.4383" height="5.4383" transform="translate(82.9404 129.03)" fill="#EF4444"/>
<rect width="5.4383" height="5.4383" transform="translate(126.447 134.468)" fill="#EF4444"/>
<rect width="5.4383" height="5.4383" transform="translate(82.9404 134.468)" fill="#EF4444"/>
<rect width="5.4383" height="5.4383" transform="translate(126.447 139.906)" fill="#EF4444"/>
<rect width="5.4383" height="5.4383" transform="translate(82.9404 139.906)" fill="#EF4444"/>
<rect width="5.4383" height="5.4383" transform="translate(88.3789 145.344)" fill="#EF4444"/>
<defs>
<filter id="filter0_d_1306_16538" x="0" y="0" width="277" height="277" filterUnits="userSpaceOnUse" color-interpolation-filters="sRGB">
<feFlood flood-opacity="0" result="BackgroundImageFix"/>
<feColorMatrix in="SourceAlpha" type="matrix" values="0 0 0 0 0 0 0 0 0 0 0 0 0 0 0 0 0 0 127 0" result="hardAlpha"/>
<feOffset/>
<feGaussianBlur stdDeviation="7.5"/>
<feComposite in2="hardAlpha" operator="out"/>
<feColorMatrix type="matrix" values="0 0 0 0 0.407843 0 0 0 0 0.670588 0 0 0 0 0.431373 0 0 0 1 0"/>
<feBlend mode="normal" in2="BackgroundImageFix" result="effect1_dropShadow_1306_16538"/>
<feBlend mode="normal" in="SourceGraphic" in2="effect1_dropShadow_1306_16538" result="shape"/>
</filter>
<filter id="filter1_d_1306_16538" x="37" y="37" width="203" height="203" filterUnits="userSpaceOnUse" color-interpolation-filters="sRGB">
<feFlood flood-opacity="0" result="BackgroundImageFix"/>
<feColorMatrix in="SourceAlpha" type="matrix" values="0 0 0 0 0 0 0 0 0 0 0 0 0 0 0 0 0 0 127 0" result="hardAlpha"/>
<feOffset/>
<feGaussianBlur stdDeviation="5"/>
<feComposite in2="hardAlpha" operator="out"/>
<feColorMatrix type="matrix" values="0 0 0 0 0 0 0 0 0 0 0 0 0 0 0 0 0 0 0.25 0"/>
<feBlend mode="normal" in2="BackgroundImageFix" result="effect1_dropShadow_1306_16538"/>
<feBlend mode="normal" in="SourceGraphic" in2="effect1_dropShadow_1306_16538" result="shape"/>
</filter>
<clipPath id="clip0_1306_16538">
<rect width="15.1064" height="15.1064" fill="white" transform="translate(130.072 106.068)"/>
</clipPath>
<clipPath id="clip1_1306_16538">
<rect width="9.06383" height="9.06383" fill="white" transform="translate(125.843 121.174)"/>
</clipPath>
<clipPath id="clip2_1306_16538">
<rect width="15.1064" height="15.1064" fill="white" transform="translate(140.345 119.362)"/>
</clipPath>
<clipPath id="clip3_1306_16538">
<rect width="1.20851" height="9.06383" fill="white" transform="translate(155.451 114.528)"/>
</clipPath>
<clipPath id="clip4_1306_16538">
<rect width="5.4383" height="5.4383" fill="white" transform="translate(175.392 199.728)"/>
</clipPath>
</defs>
</svg>
