<svg width="105" height="99" viewBox="0 0 105 99" fill="none" xmlns="http://www.w3.org/2000/svg">
<rect width="3.79149" height="3.79149" transform="translate(29.0684 8.84668)" fill="#A47971"/>
<rect width="3.79149" height="3.79149" transform="translate(25.2764 12.6387)" fill="#A47971"/>
<rect width="3.79149" height="3.79149" transform="translate(21.4854 16.4297)" fill="#A47971"/>
<rect width="3.79149" height="3.79149" transform="translate(21.4854 20.2217)" fill="#A47971"/>
<rect width="3.79149" height="3.79149" transform="translate(21.4854 24.0127)" fill="#A47971"/>
<rect width="3.79149" height="3.79149" transform="translate(13.9023 31.5957)" fill="#A47971"/>
<rect width="3.79149" height="3.79149" transform="translate(17.6934 31.5957)" fill="#A47971"/>
<rect width="3.79149" height="3.79149" transform="translate(21.4854 32.4385)" fill="#A47971"/>
<rect width="3.79149" height="3.79149" transform="translate(25.2764 29.4893)" fill="#A47971"/>
<rect width="3.79149" height="3.79149" transform="translate(29.0684 29.4893)" fill="#A47971"/>
<rect width="3.79149" height="3.79149" transform="translate(32.8594 29.4893)" fill="#A47971"/>
<rect width="3.79149" height="3.79149" transform="translate(36.6514 32.4385)" fill="#A47971"/>
<rect width="3.79149" height="3.79149" transform="translate(40.0215 35.8086)" fill="white"/>
<rect width="3.79149" height="3.79149" transform="translate(40.0215 39.1787)" fill="white"/>
<rect width="3.79149" height="3.79149" transform="translate(40.0215 42.9697)" fill="white"/>
<rect width="3.79149" height="3.79149" transform="translate(40.0215 46.7617)" fill="white"/>
<rect width="3.79149" height="3.79149" transform="translate(36.6514 49.7109)" fill="white"/>
<rect width="3.79149" height="3.79149" transform="translate(36.2295 51.8174)" fill="white"/>
<rect width="3.79149" height="3.79149" transform="translate(40.0215 51.8174)" fill="white"/>
<rect width="3.79149" height="3.79149" transform="translate(40.0215 50.5527)" fill="white"/>
<rect width="3.79149" height="3.79149" transform="translate(40.0215 55.6084)" fill="white"/>
<rect width="3.79149" height="3.79149" transform="translate(43.8125 55.6084)" fill="white"/>
<rect width="3.79149" height="11.7957" transform="translate(42.9697 46.3408)" fill="white"/>
<rect width="13.0596" height="4.63404" transform="translate(46.3408 53.9238)" fill="white"/>
<rect width="6.31915" height="11.7957" transform="translate(58.1357 45.498)" fill="white"/>
<rect width="3.79149" height="3.79149" transform="translate(47.1826 55.6084)" fill="white"/>
<rect width="3.79149" height="3.79149" transform="translate(54.7656 55.6084)" fill="white"/>
<rect width="3.79149" height="3.79149" transform="translate(58.5576 55.6084)" fill="white"/>
<rect width="3.79149" height="3.79149" transform="translate(61.9277 55.6084)" fill="white"/>
<rect width="3.79149" height="3.79149" transform="translate(69.5107 55.6084)" fill="white"/>
<rect width="3.79149" height="3.79149" transform="translate(69.5107 62.3486)" fill="white"/>
<rect width="3.79149" height="3.79149" transform="translate(40.0215 58.5576)" fill="white"/>
<rect width="3.79149" height="3.79149" transform="translate(43.8125 58.5576)" fill="white"/>
<rect width="3.79149" height="3.79149" transform="translate(54.7656 58.5576)" fill="white"/>
<rect width="3.79149" height="3.79149" transform="translate(47.1826 58.5576)" fill="white"/>
<rect width="3.79149" height="3.79149" transform="translate(58.5576 58.5576)" fill="white"/>
<rect width="3.79149" height="3.79149" transform="translate(69.5107 58.5576)" fill="white"/>
<rect width="3.79149" height="3.79149" transform="translate(61.9277 58.5576)" fill="white"/>
<rect width="3.79149" height="3.79149" transform="translate(69.5107 65.2979)" fill="white"/>
<rect width="3.79149" height="3.79149" transform="translate(14.3232 35.3877)" fill="#A47971"/>
<rect width="3.79149" height="3.79149" transform="translate(14.3232 39.1787)" fill="#A47971"/>
<rect width="3.79149" height="3.79149" transform="translate(13.9023 50.5527)" fill="white"/>
<rect width="3.79149" height="3.79149" transform="translate(17.6934 49.7109)" fill="white"/>
<rect width="3.79149" height="3.79149" transform="translate(21.0635 53.0811)" fill="white"/>
<rect width="3.79149" height="3.79149" transform="translate(24.8555 53.0811)" fill="white"/>
<rect width="3.79149" height="3.79149" transform="translate(28.6465 53.0811)" fill="white"/>
<rect width="3.79149" height="3.79149" transform="translate(32.4385 53.0811)" fill="white"/>
<rect width="3.79149" height="3.79149" transform="translate(32.4385 56.8721)" fill="white"/>
<rect width="3.79149" height="3.79149" transform="translate(32.4385 60.6641)" fill="white"/>
<rect width="3.79149" height="3.79149" transform="translate(35.8086 63.1914)" fill="white"/>
<rect width="8.00426" height="6.74043" transform="translate(31.5957 64.0342)" fill="white"/>
<rect width="8.00426" height="6.74043" transform="translate(24.8555 64.0342)" fill="white"/>
<rect width="8.00426" height="6.74043" transform="translate(16.4297 72.8809)" fill="white"/>
<rect width="8.00426" height="6.74043" transform="translate(21.0635 85.5195)" fill="white"/>
<rect width="5.4766" height="10.5319" transform="translate(26.9619 78.3574)" fill="white"/>
<rect width="5.4766" height="6.31915" transform="translate(30.7529 82.5703)" fill="white"/>
<rect width="8.84681" height="2.94894" transform="translate(36.2295 85.9404)" fill="white"/>
<rect width="8.84681" height="2.94894" transform="translate(39.5996 69.0898)" fill="white"/>
<rect width="5.4766" height="6.31915" transform="translate(43.8125 82.9912)" fill="white"/>
<rect width="3.79149" height="3.79149" transform="translate(39.5996 66.1406)" fill="white"/>
<rect width="3.79149" height="3.79149" transform="translate(43.3916 66.1406)" fill="white"/>
<rect width="3.79149" height="3.79149" transform="translate(47.1826 66.1406)" fill="white"/>
<rect width="3.79149" height="3.79149" transform="translate(50.9746 66.1406)" fill="white"/>
<rect width="3.79149" height="3.79149" transform="translate(54.7656 66.1406)" fill="white"/>
<rect width="3.79149" height="3.79149" transform="translate(58.5576 66.1406)" fill="white"/>
<rect width="3.79149" height="3.79149" transform="translate(62.3486 66.1406)" fill="white"/>
<rect width="3.79149" height="3.79149" transform="translate(66.1406 66.1406)" fill="white"/>
<rect width="3.79149" height="3.79149" transform="translate(66.1406 63.1914)" fill="white"/>
<rect width="3.79149" height="3.79149" transform="translate(17.6934 53.502)" fill="white"/>
<rect width="3.79149" height="3.79149" transform="translate(17.6934 58.1357)" fill="white"/>
<rect width="3.79149" height="3.79149" transform="translate(17.6934 56.4512)" fill="white"/>
<rect width="3.79149" height="3.79149" transform="translate(18.957 56.4512)" fill="white"/>
<rect width="5.89787" height="5.89787" transform="translate(17.9043 59.4004)" fill="white"/>
<rect width="3.79149" height="3.79149" transform="translate(13.9023 54.3447)" fill="white"/>
<rect width="3.79149" height="3.79149" transform="translate(17.6934 61.9277)" fill="white"/>
<rect width="3.79149" height="3.79149" transform="translate(32.8594 8.84668)" fill="#A47971"/>
<rect width="3.79149" height="3.79149" transform="translate(43.8125 13.4805)" fill="#A47971"/>
<rect width="3.79149" height="3.79149" transform="translate(47.6045 13.4805)" fill="#A47971"/>
<rect width="4.63404" height="4.63404" transform="translate(51.3955 16.0088)" fill="#A47971"/>
<rect width="3.79149" height="3.79149" transform="translate(57.2939 13.4805)" fill="#A47971"/>
<rect width="3.79149" height="3.79149" transform="translate(65.2979 22.749)" fill="#A47971"/>
<rect width="3.79149" height="3.79149" transform="translate(61.9277 22.749)" fill="#A47971"/>
<rect width="3.79149" height="3.79149" transform="translate(58.5576 20.2217)" fill="#A47971"/>
<rect width="3.79149" height="3.79149" transform="translate(55.6084 19.3789)" fill="#A47971"/>
<rect width="3.79149" height="3.79149" transform="translate(48.0254 19.7998)" fill="#A47971"/>
<rect width="3.79149" height="3.79149" transform="translate(36.6514 12.6387)" fill="#A47971"/>
<rect width="3.79149" height="3.79149" transform="translate(40.4424 12.6387)" fill="#A47971"/>
<rect width="3.79149" height="3.79149" transform="translate(43.8125 9.68945)" fill="#A47971"/>
<rect width="3.79149" height="3.79149" transform="translate(47.6045 12.6387)" fill="#A47971"/>
<rect width="3.79149" height="3.79149" transform="translate(43.8125 16.4297)" fill="#A47971"/>
<rect width="3.79149" height="3.79149" transform="translate(47.6045 16.4297)" fill="#A47971"/>
<rect width="3.79149" height="3.79149" transform="translate(51.8174 19.3789)" fill="#A47971"/>
<rect width="3.79149" height="3.79149" transform="translate(54.3447 13.0596)" fill="#A47971"/>
<rect width="3.79149" height="3.79149" transform="translate(50.9746 13.0596)" fill="#A47971"/>
<rect width="3.79149" height="3.79149" transform="translate(57.2939 16.4297)" fill="#A47971"/>
<rect width="3.79149" height="3.79149" transform="translate(53.9238 16.4297)" fill="#A47971"/>
<rect width="3.79149" height="3.79149" transform="translate(65.2979 25.6982)" fill="#A47971"/>
<rect width="3.79149" height="3.79149" transform="translate(65.2979 29.0684)" fill="#A47971"/>
<rect width="3.79149" height="3.79149" transform="translate(61.9277 25.6982)" fill="#A47971"/>
<rect width="3.79149" height="3.79149" transform="translate(58.5576 23.1699)" fill="#A47971"/>
<rect width="3.79149" height="3.79149" transform="translate(55.6084 22.3281)" fill="#A47971"/>
<rect width="3.79149" height="3.79149" transform="translate(97.3145 13.0596)" fill="#A47971"/>
<rect width="3.79149" height="3.79149" transform="translate(79.6211 19.3789)" fill="#A47971"/>
<rect width="3.79149" height="3.79149" transform="translate(79.6211 23.1699)" fill="#A47971"/>
<rect width="3.79149" height="3.79149" transform="translate(79.6211 26.54)" fill="#A47971"/>
<rect width="3.79149" height="3.79149" transform="translate(83.4131 29.4893)" fill="#A47971"/>
<rect width="3.79149" height="3.79149" transform="translate(86.7832 32.8594)" fill="#A47971"/>
<rect width="3.79149" height="3.79149" transform="translate(83.4131 32.8594)" fill="#A47971"/>
<rect width="3.79149" height="3.79149" transform="translate(80.043 29.9102)" fill="#A47971"/>
<rect width="3.79149" height="3.79149" transform="translate(83.4131 35.3877)" fill="#A47971"/>
<rect width="3.79149" height="3.79149" transform="translate(80.043 32.4385)" fill="#A47971"/>
<rect width="3.79149" height="3.79149" transform="translate(75.4082 29.4893)" fill="#A47971"/>
<rect width="3.79149" height="3.79149" transform="translate(77.5146 29.4893)" fill="#A47971"/>
<rect width="3.79149" height="3.79149" transform="translate(75.8301 16.4297)" fill="#A47971"/>
<rect width="3.79149" height="3.79149" transform="translate(68.668 19.7998)" fill="#A47971"/>
<rect width="3.79149" height="3.79149" transform="translate(72.0381 19.7998)" fill="#A47971"/>
<rect width="3.79149" height="3.79149" transform="translate(10.9531 6.74023)" fill="#A47971"/>
<rect width="3.79149" height="3.79149" transform="translate(14.7451 6.74023)" fill="#A47971"/>
<rect width="3.79149" height="3.79149" transform="translate(18.5361 6.74023)" fill="#A47971"/>
<rect width="3.79149" height="3.79149" transform="translate(21.4854 6.74023)" fill="#A47971"/>
<rect width="3.79149" height="3.79149" transform="translate(25.2764 6.74023)" fill="#A47971"/>
<rect width="3.79149" height="3.79149" transform="translate(75.8301 19.7998)" fill="#A47971"/>
<rect width="3.79149" height="3.79149" transform="translate(75.8301 6.74023)" fill="#A47971"/>
<rect width="3.79149" height="3.79149" transform="translate(79.6211 6.74023)" fill="#A47971"/>
<rect width="3.79149" height="3.79149" transform="translate(83.4131 6.74023)" fill="#A47971"/>
<rect width="3.79149" height="3.79149" transform="translate(87.2041 6.74023)" fill="#A47971"/>
<rect width="3.79149" height="3.79149" transform="translate(90.5742 6.74023)" fill="#A47971"/>
<rect width="3.79149" height="3.79149" transform="translate(72.0381 10.1104)" fill="#A47971"/>
<rect width="3.79149" height="3.79149" transform="translate(68.668 23.1699)" fill="#A47971"/>
<rect width="3.79149" height="3.79149" transform="translate(64.877 13.0596)" fill="#A47971"/>
<rect width="3.79149" height="3.79149" transform="translate(61.085 13.0596)" fill="#A47971"/>
<rect width="3.79149" height="3.79149" transform="translate(72.0381 23.1699)" fill="#A47971"/>
<rect width="3.79149" height="3.79149" transform="translate(10.9531 12.6387)" fill="#A47971"/>
<rect width="3.79149" height="3.79149" transform="translate(14.7451 12.6387)" fill="#A47971"/>
<rect width="3.79149" height="3.79149" transform="translate(18.5361 12.6387)" fill="#A47971"/>
<rect width="3.79149" height="3.79149" transform="translate(18.1152 16.0088)" fill="#A47971"/>
<rect width="3.79149" height="3.79149" transform="translate(75.8301 25.6982)" fill="#A47971"/>
<rect width="3.79149" height="3.79149" transform="translate(21.4854 12.6387)" fill="#A47971"/>
<rect width="3.79149" height="3.79149" transform="translate(75.8301 12.6387)" fill="#A47971"/>
<rect width="3.79149" height="3.79149" transform="translate(79.6211 12.6387)" fill="#A47971"/>
<rect width="3.79149" height="3.79149" transform="translate(79.6211 16.0088)" fill="#A47971"/>
<rect width="3.79149" height="3.79149" transform="translate(83.4131 12.6387)" fill="#A47971"/>
<rect width="3.79149" height="3.79149" transform="translate(72.0381 16.0088)" fill="#A47971"/>
<rect width="3.79149" height="3.79149" transform="translate(68.668 16.0088)" fill="#A47971"/>
<rect width="3.79149" height="3.79149" transform="translate(68.668 29.4893)" fill="#A47971"/>
<rect width="3.79149" height="3.79149" transform="translate(64.877 18.957)" fill="#A47971"/>
<rect width="3.79149" height="3.79149" transform="translate(61.085 18.957)" fill="#A47971"/>
<rect width="3.79149" height="3.79149" transform="translate(72.0381 29.4893)" fill="#A47971"/>
<rect width="3.79149" height="3.79149" transform="translate(10.9531 10.1104)" fill="#A47971"/>
<rect width="3.79149" height="3.79149" transform="translate(14.7451 10.1104)" fill="#A47971"/>
<rect width="3.79149" height="3.79149" transform="translate(18.5361 10.1104)" fill="#A47971"/>
<rect width="3.79149" height="3.79149" transform="translate(75.8301 23.1699)" fill="#A47971"/>
<rect width="3.79149" height="3.79149" transform="translate(21.4854 10.1104)" fill="#A47971"/>
<rect width="3.79149" height="3.79149" transform="translate(25.2764 10.1104)" fill="#A47971"/>
<rect width="3.79149" height="3.79149" transform="translate(75.8301 10.1104)" fill="#A47971"/>
<rect width="3.79149" height="3.79149" transform="translate(79.6211 10.1104)" fill="#A47971"/>
<rect width="3.79149" height="3.79149" transform="translate(83.4131 10.1104)" fill="#A47971"/>
<rect width="3.79149" height="3.79149" transform="translate(87.2041 10.1104)" fill="#A47971"/>
<rect width="3.79149" height="3.79149" transform="translate(90.5742 10.1104)" fill="#A47971"/>
<rect width="3.79149" height="3.79149" transform="translate(93.9443 10.1104)" fill="#A47971"/>
<rect width="3.79149" height="3.79149" transform="translate(72.0381 13.4805)" fill="#A47971"/>
<rect width="3.79149" height="3.79149" transform="translate(68.668 13.4805)" fill="#A47971"/>
<rect width="3.79149" height="3.79149" transform="translate(68.668 26.54)" fill="#A47971"/>
<rect width="3.79149" height="3.79149" transform="translate(64.877 16.4297)" fill="#A47971"/>
<rect width="3.79149" height="3.79149" transform="translate(61.085 16.4297)" fill="#A47971"/>
<rect width="3.79149" height="3.79149" transform="translate(72.0381 26.54)" fill="#A47971"/>
<rect width="3.79149" height="3.79149" transform="translate(7.58301 9.68945)" fill="#A47971"/>
<rect width="3.79149" height="3.79149" transform="translate(7.58301 12.6387)" fill="#A47971"/>
<rect width="3.79149" height="3.79149" transform="translate(3.79102 12.6387)" fill="#A47971"/>
<rect width="3.79149" height="3.79149" transform="translate(3.79102 16.4297)" fill="#A47971"/>
<rect width="3.79149" height="3.79149" transform="translate(82.1494 65.7188)" fill="#A47971"/>
<rect width="3.79149" height="3.79149" transform="translate(17.6934 65.2979)" fill="#A47971"/>
<rect width="3.79149" height="3.79149" transform="translate(21.4854 65.2979)" fill="white"/>
<rect width="3.79149" height="3.79149" transform="translate(50.5527 50.1318)" fill="#C9968D"/>
<rect width="3.79149" height="3.79149" transform="translate(46.7617 46.3408)" fill="#C9968D"/>
<rect width="3.79149" height="3.79149" transform="translate(36.2295 59.4004)" fill="#C9968D"/>
<rect width="3.79149" height="3.79149" transform="translate(65.7188 59.4004)" fill="#C9968D"/>
<rect width="3.79149" height="3.79149" transform="translate(62.3486 62.3486)" fill="#C9968D"/>
<rect width="3.79149" height="3.79149" transform="translate(39.5996 62.3486)" fill="#C9968D"/>
<rect width="3.79149" height="3.79149" transform="translate(54.3447 46.3408)" fill="#C9968D"/>
<rect width="3.79149" height="3.79149" transform="translate(17.6934 69.0898)" fill="white"/>
<rect width="3.79149" height="3.79149" transform="translate(13.9023 72.8809)" fill="white"/>
<rect width="3.79149" height="3.79149" transform="translate(82.1494 69.0898)" fill="white"/>
<rect width="3.79149" height="3.79149" transform="translate(78.3574 65.2979)" fill="white"/>
<rect width="3.79149" height="3.79149" transform="translate(82.1494 61.9277)" fill="white"/>
<rect width="3.79149" height="3.79149" transform="translate(85.9404 50.5527)" fill="white"/>
<rect width="3.79149" height="3.79149" transform="translate(83.834 49.7109)" fill="white"/>
<rect width="3.79149" height="3.79149" transform="translate(82.1494 53.0811)" fill="white"/>
<rect width="3.79149" height="3.79149" transform="translate(78.3574 53.0811)" fill="white"/>
<rect width="3.79149" height="3.79149" transform="translate(74.5664 53.0811)" fill="white"/>
<rect width="3.79149" height="3.79149" transform="translate(73.3018 53.0811)" fill="white"/>
<rect width="9.68936" height="9.68936" transform="translate(72.8809 55.6084)" fill="white"/>
<rect width="9.68936" height="9.68936" transform="translate(69.5107 65.2979)" fill="white"/>
<rect width="9.68936" height="9.68936" transform="translate(65.2979 69.0898)" fill="white"/>
<rect width="10.5319" height="10.5319" transform="translate(47.1826 68.2471)" fill="white"/>
<rect width="5.05532" height="3.79149" transform="translate(43.3916 71.6172)" fill="white"/>
<rect width="10.5319" height="10.5319" transform="translate(29.0684 68.2471)" fill="white"/>
<rect width="10.5319" height="10.5319" transform="translate(21.4854 68.2471)" fill="white"/>
<rect width="3.79149" height="3.79149" transform="translate(28.6465 19.7998)" fill="#A47971"/>
<rect width="3.79149" height="3.79149" transform="translate(25.2764 19.7998)" fill="#A47971"/>
<rect width="3.79149" height="3.79149" transform="translate(30.7529 19.7998)" fill="#A47971"/>
<rect width="3.79149" height="3.79149" transform="translate(25.2764 23.5918)" fill="#A47971"/>
<rect width="3.79149" height="3.79149" transform="translate(29.0684 23.5918)" fill="#A47971"/>
<rect width="3.79149" height="3.79149" transform="translate(30.332 23.5918)" fill="#A47971"/>
<rect width="3.79149" height="3.79149" transform="translate(26.1191 26.1191)" fill="#A47971"/>
<rect width="3.79149" height="3.79149" transform="translate(29.9102 26.1191)" fill="#A47971"/>
<rect width="5.05532" height="5.05532" transform="translate(21.0635 27.3828)" fill="#A47971"/>
<rect width="2.94894" height="2.94894" transform="translate(41.2852 19.7998)" fill="#A47971"/>
<rect width="6.31915" height="6.31915" transform="translate(34.9658 28.6465)" fill="#A47971"/>
<rect width="6.31915" height="6.31915" transform="translate(42.1279 24.0127)" fill="#A47971"/>
<rect width="8.00426" height="8.00426" transform="translate(39.3896 27.8047)" fill="#A47971"/>
<rect width="5.4766" height="5.4766" transform="translate(43.3916 31.5957)" fill="#A47971"/>
<g clip-path="url(#clip0_900_14195)">
<rect width="10.5319" height="10.5319" transform="translate(46.7617 26.54)" fill="white"/>
<rect width="3.79149" height="3.79149" transform="translate(50.1318 31.5957)" fill="#A47971"/>
<rect width="9.68936" height="9.68936" transform="translate(48.4473 26.1191)" fill="#A47971"/>
<rect width="3.79149" height="3.79149" transform="translate(50.1318 25.6973)" fill="#A47971"/>
<rect width="3.79149" height="3.79149" transform="translate(53.9238 25.6973)" fill="#A47971"/>
<rect width="3.79149" height="3.79149" transform="translate(46.3408 26.1191)" fill="#A47971"/>
<rect width="3.79149" height="3.79149" transform="translate(46.3408 29.4893)" fill="#A47971"/>
<rect width="3.79149" height="3.79149" transform="translate(46.3408 33.2803)" fill="#A47971"/>
</g>
<rect width="3.79149" height="3.79149" transform="translate(50.1318 34.9658)" fill="#A47971"/>
<rect width="3.79149" height="3.79149" transform="translate(50.1318 38.7578)" fill="#A47971"/>
<rect width="3.79149" height="3.79149" transform="translate(50.1318 42.5488)" fill="white"/>
<g clip-path="url(#clip1_900_14195)">
<rect width="6.31915" height="6.31915" transform="translate(43.8125 37.0723)" fill="white"/>
<rect width="3.79149" height="3.79149" transform="translate(46.7617 36.2295)" fill="#A47971"/>
</g>
<rect width="6.31915" height="6.31915" transform="translate(43.8125 40.0215)" fill="white"/>
<g clip-path="url(#clip2_900_14195)">
<rect width="10.5319" height="10.5319" transform="translate(53.9238 35.8086)" fill="white"/>
<rect width="3.79149" height="11.7957" transform="translate(53.5029 28.2256)" fill="#A47971"/>
</g>
<rect width="10.9532" height="17.6936" transform="translate(62.7705 37.915)" fill="white"/>
<rect width="29.9106" height="22.7489" transform="translate(56.0293 69.9316)" fill="white"/>
<rect width="5.05532" height="6.74043" transform="translate(55.6084 29.9102)" fill="#A47971"/>
<rect width="5.4766" height="5.4766" transform="translate(61.085 29.9102)" fill="#A47971"/>
<rect width="5.4766" height="5.4766" transform="translate(58.5576 29.9102)" fill="#A47971"/>
<rect width="3.79149" height="0.421277" transform="translate(60.6641 35.3877)" fill="white"/>
<g clip-path="url(#clip3_900_14195)">
<rect width="0.842553" height="6.31915" transform="translate(64.4551 32.4385)" fill="white"/>
<rect width="5.4766" height="5.4766" transform="translate(60.2422 29.9111)" fill="#A47971"/>
</g>
<rect width="10.5319" height="10.5319" transform="translate(21.9062 55.6084)" fill="white"/>
<rect width="10.5319" height="10.5319" transform="translate(17.6934 77.5146)" fill="white"/>
<rect width="10.5319" height="10.5319" transform="translate(47.1826 78.3574)" fill="white"/>
<rect width="9.68936" height="9.68936" transform="translate(72.46 68.668)" fill="white"/>
<rect width="9.68936" height="9.68936" transform="translate(72.46 77.5146)" fill="white"/>
<rect width="9.68936" height="9.68936" transform="translate(76.251 72.8809)" fill="white"/>
<rect width="3.79149" height="3.79149" transform="translate(82.1494 56.8721)" fill="white"/>
<rect width="3.79149" height="3.79149" transform="translate(82.1494 58.5576)" fill="white"/>
<rect width="3.79149" height="3.79149" transform="translate(85.9404 54.3447)" fill="white"/>
<rect width="3.79149" height="3.79149" transform="translate(86.7832 39.1787)" fill="#A47971"/>
<rect width="3.79149" height="3.79149" transform="translate(87.2041 42.9697)" fill="white"/>
<rect width="3.79149" height="3.79149" transform="translate(87.2041 46.7617)" fill="white"/>
<rect width="3.79149" height="3.79149" transform="translate(13.9023 76.6719)" fill="white"/>
<rect width="3.79149" height="3.79149" transform="translate(85.9404 76.6719)" fill="white"/>
<rect width="3.79149" height="3.79149" transform="translate(13.9023 80.4639)" fill="white"/>
<rect width="3.79149" height="3.79149" transform="translate(85.9404 80.4639)" fill="white"/>
<rect width="3.79149" height="3.79149" transform="translate(85.9404 84.2549)" fill="white"/>
<rect width="3.79149" height="3.79149" transform="translate(17.6934 88.0469)" fill="white"/>
<rect width="3.79149" height="3.79149" transform="translate(82.1494 88.0469)" fill="white"/>
<rect width="3.79149" height="3.79149" transform="translate(10.1104 31.5957)" fill="#A47971"/>
<rect width="3.79149" height="3.79149" transform="translate(29.0684 12.6387)" fill="#A47971"/>
<rect width="3.79149" height="3.79149" transform="translate(25.2764 16.4297)" fill="#A47971"/>
<rect width="3.79149" height="3.79149" transform="translate(32.8594 16.4297)" fill="#A47971"/>
<rect width="3.79149" height="3.79149" transform="translate(32.8594 12.6387)" fill="#A47971"/>
<rect width="3.79149" height="3.79149" transform="translate(29.0684 16.4297)" fill="#A47971"/>
<rect width="3.79149" height="3.79149" transform="translate(36.6514 16.4297)" fill="#A47971"/>
<rect width="3.79149" height="3.79149" transform="translate(40.4424 16.4297)" fill="#A47971"/>
<rect width="3.79149" height="3.79149" transform="translate(44.2344 20.2217)" fill="#A47971"/>
<rect width="3.79149" height="3.79149" transform="translate(34.5449 20.2217)" fill="#A47971"/>
<rect width="3.79149" height="3.79149" transform="translate(38.3359 20.2217)" fill="#A47971"/>
<rect width="3.79149" height="3.79149" transform="translate(34.123 23.5918)" fill="#A47971"/>
<rect width="3.79149" height="3.79149" transform="translate(32.8594 26.54)" fill="#A47971"/>
<rect width="3.79149" height="3.79149" transform="translate(36.6514 26.1191)" fill="#A47971"/>
<rect width="3.79149" height="3.79149" transform="translate(37.915 23.5918)" fill="#A47971"/>
<rect width="3.79149" height="3.79149" transform="translate(38.7578 24.4336)" fill="#A47971"/>
<rect width="3.79149" height="3.79149" transform="translate(40.8643 21.9062)" fill="#A47971"/>
<rect width="3.79149" height="3.79149" transform="translate(48.0254 23.1699)" fill="#A47971"/>
<rect width="3.79149" height="3.79149" transform="translate(51.8174 23.1699)" fill="#A47971"/>
<rect width="3.79149" height="3.79149" transform="translate(55.6084 26.1191)" fill="#A47971"/>
<rect width="3.79149" height="3.79149" transform="translate(58.1357 26.1191)" fill="#A47971"/>
<rect width="3.79149" height="3.79149" transform="translate(61.9277 29.4893)" fill="#A47971"/>
<rect width="3.37021" height="3.79149" transform="translate(65.2979 32.4385)" fill="#A47971"/>
<rect width="3.79149" height="3.79149" transform="translate(14.3232 27.8037)" fill="#CC8282"/>
<rect width="3.79149" height="3.79149" transform="translate(13.9014 25.2764)" fill="#CC8282"/>
<rect width="3.79149" height="3.79149" transform="translate(17.6934 25.6973)" fill="#CC8282"/>
<rect width="3.79149" height="3.79149" transform="translate(25.2764 33.2803)" fill="#252525"/>
<rect width="3.79149" height="3.79149" transform="translate(21.9062 36.2295)" fill="#252525"/>
<rect width="3.79149" height="3.79149" transform="translate(7.58203 19.7998)" fill="#CC8282"/>
<rect width="3.79149" height="3.79149" transform="translate(3.79102 22.749)" fill="#CC8282"/>
<rect width="3.79149" height="3.79149" transform="translate(7.58203 23.1699)" fill="#CC8282"/>
<rect width="3.79149" height="3.79149" transform="translate(11.374 23.1699)" fill="#CC8282"/>
<rect width="3.79149" height="3.79149" transform="translate(11.374 26.1191)" fill="#CC8282"/>
<rect width="3.79149" height="3.79149" transform="translate(14.7441 23.1699)" fill="#CC8282"/>
<rect width="3.79149" height="3.79149" transform="translate(7.58203 26.1191)" fill="#CC8282"/>
<rect width="3.79149" height="3.79149" transform="translate(11.374 19.7998)" fill="#CC8282"/>
<rect width="3.79149" height="3.79149" transform="translate(14.7441 19.7998)" fill="#CC8282"/>
<rect width="3.79149" height="3.79149" transform="translate(21.9062 39.1787)" fill="#252525"/>
<rect width="3.79149" height="3.79149" transform="translate(21.9062 42.5488)" fill="#252525"/>
<rect width="3.79149" height="3.79149" transform="translate(25.6973 42.5488)" fill="#252525"/>
<rect width="3.79149" height="3.79149" transform="translate(25.6973 45.9189)" fill="#252525"/>
<rect width="3.79149" height="3.79149" transform="translate(32.8594 42.5488)" fill="#252525"/>
<rect width="3.79149" height="3.79149" transform="translate(32.8594 45.9189)" fill="#252525"/>
<rect width="3.79149" height="3.79149" transform="translate(29.4893 45.9189)" fill="#252525"/>
<rect width="3.79149" height="3.79149" transform="translate(18.1143 39.1787)" fill="#252525"/>
<rect width="3.79149" height="3.79149" transform="translate(18.1143 42.5488)" fill="#252525"/>
<rect width="3.79149" height="3.79149" transform="translate(18.1143 45.9189)" fill="#252525"/>
<rect width="3.79149" height="3.79149" transform="translate(29.0674 49.2891)" fill="#252525"/>
<rect width="3.79149" height="3.79149" transform="translate(21.4844 49.2891)" fill="#252525"/>
<rect width="3.79149" height="3.79149" transform="translate(29.0674 33.2803)" fill="#252525"/>
<rect width="3.79149" height="3.79149" transform="translate(32.8594 33.2803)" fill="#252525"/>
<rect width="3.79149" height="3.79149" transform="translate(36.2295 36.2295)" fill="#252525"/>
<rect width="3.79149" height="3.79149" transform="translate(36.2295 39.5996)" fill="#252525"/>
<rect width="3.79149" height="3.79149" transform="translate(36.2295 42.5488)" fill="#252525"/>
<rect width="3.79149" height="3.79149" transform="translate(36.2295 45.9189)" fill="#252525"/>
<rect width="3.79149" height="3.79149" transform="translate(25.6973 36.2295)" fill="#252525"/>
<rect width="3.79149" height="3.79149" transform="translate(32.8594 49.2891)" fill="#252525"/>
<rect width="3.79149" height="3.79149" transform="translate(25.2764 49.2891)" fill="#252525"/>
<rect width="3.79149" height="3.79149" transform="translate(21.9062 45.9189)" fill="#BFD8B8"/>
<rect width="3.79149" height="3.79149" transform="translate(25.6973 39.1787)" fill="#BFD8B8"/>
<rect width="3.79149" height="3.79149" transform="translate(29.4893 39.1787)" fill="#BFD8B8"/>
<rect width="3.79149" height="3.79149" transform="translate(29.4893 42.5488)" fill="#BFD8B8"/>
<rect width="3.79149" height="3.79149" transform="translate(29.4893 36.6504)" fill="#BFD8B8"/>
<rect width="3.79149" height="3.79149" transform="translate(32.8594 36.6504)" fill="#BFD8B8"/>
<rect width="3.79149" height="3.79149" transform="translate(32.8594 39.1787)" fill="#BFD8B8"/>
<rect width="3.79149" height="3.79149" transform="translate(17.6934 27.8047)" fill="#A47971"/>
<rect width="3.79149" height="3.79149" transform="translate(18.1152 35.3877)" fill="#A47971"/>
<rect width="3.79149" height="3.79149" transform="translate(14.3232 42.9697)" fill="white"/>
<rect width="3.79149" height="3.79149" transform="translate(13.4805 42.9697)" fill="white"/>
<rect width="3.79149" height="3.79149" transform="translate(14.3232 46.7617)" fill="white"/>
<rect width="3.79149" height="3.79149" transform="translate(13.0596 46.7617)" fill="white"/>
<rect width="3.79149" height="3.79149" transform="translate(3.79102 19.3789)" fill="#614540"/>
<rect width="3.79149" height="3.79149" transform="translate(0 9.68945)" fill="#614540"/>
<rect width="3.79149" height="3.79149" transform="translate(3.79102 5.89746)" fill="#614540"/>
<rect width="3.79149" height="3.79149" transform="translate(7.16211 3.37012)" fill="#614540"/>
<rect width="3.79149" height="3.79149" transform="translate(10.9531)" fill="#614540"/>
<rect width="3.79149" height="3.79149" transform="translate(14.7451)" fill="#614540"/>
<rect width="3.79149" height="3.79149" transform="translate(18.5361)" fill="#614540"/>
<rect width="3.79149" height="3.79149" transform="translate(22.3281)" fill="#614540"/>
<rect width="3.79149" height="3.79149" transform="translate(25.2764)" fill="#614540"/>
<rect width="3.79149" height="3.79149" transform="translate(28.6465 3.37012)" fill="#614540"/>
<rect width="3.79149" height="3.79149" transform="translate(43.3916 3.37012)" fill="#614540"/>
<rect width="3.79149" height="3.79149" transform="translate(36.6514 6.74023)" fill="#614540"/>
<rect width="3.79149" height="3.79149" transform="translate(40.0215 6.74023)" fill="#614540"/>
<rect width="3.79149" height="3.79149" transform="translate(47.1826 6.74023)" fill="#614540"/>
<rect width="3.79149" height="3.79149" transform="translate(54.3447 6.74023)" fill="#614540"/>
<rect width="3.79149" height="3.79149" transform="translate(61.9277 6.74023)" fill="#614540"/>
<rect width="3.79149" height="3.79149" transform="translate(65.7188 6.74023)" fill="#614540"/>
<rect width="3.79149" height="3.79149" transform="translate(68.668 3.37012)" fill="#614540"/>
<rect width="3.79149" height="3.79149" transform="translate(72.46 3.37012)" fill="#614540"/>
<rect width="3.79149" height="3.79149" transform="translate(50.5527 3.37012)" fill="#614540"/>
<rect width="3.79149" height="3.79149" transform="translate(58.1357 3.37012)" fill="#614540"/>
<rect width="3.79149" height="3.79149" transform="translate(32.4385 3.37012)" fill="#614540"/>
<rect width="3.79149" height="3.79149" transform="translate(0 13.4805)" fill="#614540"/>
<rect width="3.79149" height="3.79149" transform="translate(0 17.2725)" fill="#614540"/>
<rect width="3.79149" height="3.79149" transform="translate(0 21.0635)" fill="#614540"/>
<rect width="3.79149" height="3.79149" transform="translate(0 22.749)" fill="#614540"/>
<rect width="3.79149" height="3.79149" transform="translate(7.58301 16.0088)" fill="#614540"/>
<rect width="3.79149" height="3.79149" transform="translate(11.374 16.0088)" fill="#614540"/>
<rect width="3.79149" height="3.79149" transform="translate(14.3232 16.0088)" fill="#614540"/>
<rect width="3.79149" height="3.79149" transform="translate(18.1152 19.7998)" fill="#614540"/>
<rect width="3.79149" height="3.79149" transform="translate(83.4131 19.7998)" fill="#614540"/>
<rect width="3.79149" height="3.79149" transform="translate(86.7832 16.0088)" fill="#614540"/>
<rect width="3.79149" height="3.79149" transform="translate(90.5742 16.0088)" fill="#614540"/>
<rect width="3.79149" height="3.79149" transform="translate(93.9443 16.0088)" fill="#614540"/>
<rect width="3.79149" height="3.79149" transform="translate(97.7363 19.3789)" fill="#614540"/>
<rect width="3.79149" height="3.79149" transform="translate(94.3662 32.8594)" fill="#614540"/>
<rect width="3.79149" height="3.79149" transform="translate(90.9961 29.0684)" fill="#614540"/>
<rect width="3.79149" height="3.79149" transform="translate(94.3662 29.0684)" fill="#614540"/>
<rect width="3.79149" height="3.79149" transform="translate(97.3145 26.1191)" fill="#614540"/>
<rect width="3.79149" height="3.79149" transform="translate(101.106 23.1699)" fill="#614540"/>
<rect width="3.79149" height="3.79149" transform="translate(101.106 19.3789)" fill="#614540"/>
<rect width="3.79149" height="3.79149" transform="translate(101.106 15.5869)" fill="#614540"/>
<rect width="3.79149" height="3.79149" transform="translate(101.106 11.7959)" fill="#614540"/>
<rect width="3.79149" height="3.79149" transform="translate(101.106 9.68945)" fill="#614540"/>
<rect width="3.79149" height="3.79149" transform="translate(97.3145 5.89746)" fill="#614540"/>
<rect width="3.79149" height="3.79149" transform="translate(93.9443 3.37012)" fill="#614540"/>
<rect width="3.79149" height="3.79149" transform="translate(90.1533)" fill="#614540"/>
<rect width="3.79149" height="3.79149" transform="translate(86.3613)" fill="#614540"/>
<rect width="3.79149" height="3.79149" transform="translate(82.5703)" fill="#614540"/>
<rect width="3.79149" height="3.79149" transform="translate(78.7783)" fill="#614540"/>
<rect width="3.79149" height="3.79149" transform="translate(75.8301)" fill="#614540"/>
<rect width="3.79149" height="3.79149" transform="translate(18.1152 21.9062)" fill="#614540"/>
<rect width="3.79149" height="3.79149" transform="translate(83.4131 21.9062)" fill="#614540"/>
<rect width="3.79149" height="3.79149" transform="translate(3.79102 26.54)" fill="#614540"/>
<rect width="3.79149" height="3.79149" transform="translate(6.74023 29.9102)" fill="#614540"/>
<rect width="3.79149" height="3.79149" transform="translate(6.74023 32.8594)" fill="#614540"/>
<rect width="3.79149" height="3.79149" transform="translate(10.5322 35.3877)" fill="#614540"/>
<rect width="3.79149" height="3.79149" transform="translate(7.58301 42.9697)" fill="#614540"/>
<rect width="3.79149" height="3.79149" transform="translate(7.58301 50.1318)" fill="#614540"/>
<rect width="3.79149" height="3.79149" transform="translate(7.58301 55.1875)" fill="#614540"/>
<rect width="3.79149" height="3.79149" transform="translate(10.1104 50.5527)" fill="#614540"/>
<rect width="3.79149" height="3.79149" transform="translate(10.5322 39.1787)" fill="#614540"/>
<rect width="3.79149" height="3.79149" transform="translate(7.58301 46.7617)" fill="#614540"/>
<rect width="3.79149" height="3.79149" transform="translate(7.58301 53.9238)" fill="#614540"/>
<rect width="3.79149" height="3.79149" transform="translate(7.58301 58.9785)" fill="#614540"/>
<rect width="3.79149" height="3.79149" transform="translate(10.9531 58.1357)" fill="#614540"/>
<rect width="3.79149" height="3.79149" transform="translate(10.9531 65.2979)" fill="#614540"/>
<rect width="3.79149" height="3.79149" transform="translate(7.58301 76.6719)" fill="#614540"/>
<rect width="3.79149" height="3.79149" transform="translate(10.9531 61.5068)" fill="#614540"/>
<rect width="3.79149" height="3.79149" transform="translate(7.58301 72.8809)" fill="#614540"/>
<rect width="3.79149" height="3.79149" transform="translate(10.9531 69.0898)" fill="#614540"/>
<rect width="3.79149" height="3.79149" transform="translate(7.58301 80.4639)" fill="#614540"/>
<rect width="3.79149" height="3.79149" transform="translate(7.58301 82.1494)" fill="#614540"/>
<rect width="3.79149" height="3.79149" transform="translate(0 52.6592)" fill="#614540"/>
<rect width="3.79149" height="3.79149" transform="translate(3.79102 52.6592)" fill="#614540"/>
<rect width="3.79149" height="3.79149" transform="translate(10.5322 29.9102)" fill="#614540"/>
<rect width="3.79149" height="3.79149" transform="translate(10.1104 42.9697)" fill="white"/>
<rect width="3.79149" height="3.79149" transform="translate(10.1104 46.7617)" fill="white"/>
<rect width="3.79149" height="3.79149" transform="translate(10.1104 54.3447)" fill="white"/>
<rect width="3.79149" height="3.79149" transform="translate(13.9023 58.1357)" fill="white"/>
<rect width="3.79149" height="3.79149" transform="translate(13.9023 61.9277)" fill="#A47971"/>
<rect width="3.79149" height="3.79149" transform="translate(13.9023 65.7188)" fill="#A47971"/>
<rect width="3.79149" height="3.79149" transform="translate(13.9023 69.0898)" fill="#A47971"/>
<rect width="3.79149" height="3.79149" transform="translate(10.1104 72.8809)" fill="#A47971"/>
<rect width="3.79149" height="3.79149" transform="translate(10.1104 78.7783)" fill="#A47971"/>
<rect width="3.79149" height="3.79149" transform="translate(10.1104 76.251)" fill="#A47971"/>
<rect width="3.79149" height="3.79149" transform="translate(10.1104 82.1494)" fill="#A47971"/>
<rect width="3.79149" height="3.79149" transform="translate(11.374 85.9404)" fill="#614540"/>
<rect width="3.79149" height="3.79149" transform="translate(11.374 88.0469)" fill="#614540"/>
<rect width="3.79149" height="3.79149" transform="translate(7.58301 91.8379)" fill="#614540"/>
<rect width="3.79149" height="3.79149" transform="translate(11.374 95.209)" fill="#614540"/>
<rect width="3.79149" height="3.79149" transform="translate(80.043 95.209)" fill="#614540"/>
<rect width="3.79149" height="3.79149" transform="translate(15.166 95.209)" fill="#614540"/>
<rect width="3.79149" height="3.79149" transform="translate(83.834 95.209)" fill="#614540"/>
<rect width="3.79149" height="3.79149" transform="translate(18.957 95.209)" fill="#614540"/>
<rect width="3.79149" height="3.79149" transform="translate(87.626 95.209)" fill="#614540"/>
<rect width="3.79149" height="3.79149" transform="translate(21.9062 95.209)" fill="#614540"/>
<rect width="3.79149" height="3.79149" transform="translate(90.5742 95.209)" fill="#614540"/>
<rect width="3.79149" height="3.79149" transform="translate(92.2598 91.8379)" fill="#614540"/>
<rect width="3.79149" height="3.79149" transform="translate(89.7314 88.0469)" fill="#614540"/>
<rect width="3.79149" height="3.79149" transform="translate(89.7314 85.5195)" fill="#614540"/>
<rect width="3.79149" height="3.79149" transform="translate(89.7314 85.5195)" fill="#614540"/>
<rect width="3.79149" height="3.79149" transform="translate(92.2598 82.1494)" fill="#614540"/>
<rect width="3.79149" height="3.79149" transform="translate(89.3105 69.5107)" fill="#614540"/>
<rect width="3.79149" height="3.79149" transform="translate(92.2598 78.7783)" fill="#614540"/>
<rect width="3.79149" height="3.79149" transform="translate(89.3105 66.1406)" fill="#614540"/>
<rect width="3.79149" height="3.79149" transform="translate(92.2598 75.8301)" fill="#614540"/>
<rect width="3.79149" height="3.79149" transform="translate(89.3105 63.1914)" fill="#614540"/>
<rect width="3.79149" height="3.79149" transform="translate(92.2598 72.8809)" fill="#614540"/>
<rect width="3.79149" height="3.79149" transform="translate(89.3105 60.2422)" fill="#614540"/>
<rect width="3.79149" height="3.79149" transform="translate(89.3105 58.1357)" fill="#614540"/>
<rect width="3.79149" height="3.79149" transform="translate(93.1025 58.1357)" fill="#614540"/>
<rect width="3.79149" height="3.79149" transform="translate(91.417 54.3447)" fill="#614540"/>
<rect width="3.79149" height="3.79149" transform="translate(89.7314 50.5527)" fill="#614540"/>
<rect width="3.79149" height="3.79149" transform="translate(91.417 46.7617)" fill="#614540"/>
<rect width="3.79149" height="3.79149" transform="translate(91.417 42.9697)" fill="#614540"/>
<rect width="3.79149" height="3.79149" transform="translate(93.5234 52.6592)" fill="#614540"/>
<rect width="3.79149" height="3.79149" transform="translate(97.3145 52.6592)" fill="#614540"/>
<rect width="3.79149" height="3.79149" transform="translate(101.106 52.6592)" fill="#614540"/>
<rect width="3.79149" height="3.79149" transform="translate(90.5742 39.1787)" fill="#614540"/>
<rect width="3.79149" height="3.79149" transform="translate(90.5742 36.2295)" fill="#614540"/>
<rect width="3.79149" height="3.79149" transform="translate(88.4678 88.0469)" fill="#614540"/>
<rect width="3.79149" height="3.79149" transform="translate(13.9023 88.0469)" fill="#A47971"/>
<rect width="3.79149" height="3.79149" transform="translate(29.0684 88.8896)" fill="#A47971"/>
<rect width="3.79149" height="3.79149" transform="translate(44.2344 88.8896)" fill="#A47971"/>
<rect width="3.79149" height="3.79149" transform="translate(59.4004 88.8896)" fill="#A47971"/>
<rect width="3.79149" height="3.79149" transform="translate(32.8594 88.8896)" fill="#A47971"/>
<rect width="3.79149" height="3.79149" transform="translate(48.0254 88.8896)" fill="#A47971"/>
<rect width="3.79149" height="3.79149" transform="translate(63.1914 88.8896)" fill="#A47971"/>
<rect width="3.79149" height="3.79149" transform="translate(36.6514 88.8896)" fill="#A47971"/>
<rect width="3.79149" height="3.79149" transform="translate(51.8174 88.8896)" fill="#A47971"/>
<rect width="3.79149" height="3.79149" transform="translate(66.9834 88.8896)" fill="#A47971"/>
<rect width="3.79149" height="3.79149" transform="translate(40.4424 88.8896)" fill="#A47971"/>
<rect width="3.79149" height="3.79149" transform="translate(55.6084 88.8896)" fill="#A47971"/>
<rect width="3.79149" height="3.79149" transform="translate(70.7744 88.8896)" fill="#A47971"/>
<rect width="3.79149" height="3.79149" transform="translate(72.46 88.8896)" fill="#A47971"/>
<rect width="3.79149" height="3.79149" transform="translate(13.9023 91.8379)" fill="#A47971"/>
<rect width="3.79149" height="3.79149" transform="translate(10.1104 91.8379)" fill="#A47971"/>
<rect width="3.79149" height="3.79149" transform="translate(13.9023 84.2549)" fill="white"/>
<rect width="3.79149" height="3.79149" transform="translate(17.6934 91.8379)" fill="white"/>
<rect width="3.79149" height="3.79149" transform="translate(25.6982 91.8379)" fill="#614540"/>
<rect width="4.21277" height="4.21277" transform="translate(21.4854 91.417)" fill="white"/>
<rect width="3.79149" height="3.79149" transform="translate(85.9404 91.8379)" fill="#A47971"/>
<rect width="3.79149" height="3.79149" transform="translate(89.7314 91.8379)" fill="#A47971"/>
<g clip-path="url(#clip4_900_14195)">
<rect width="3.79149" height="3.79149" transform="translate(78.3574 91.8379)" fill="white"/>
<rect width="3.79149" height="3.79149" transform="translate(76.251 91.8379)" fill="#614540"/>
</g>
<rect width="3.79149" height="3.79149" transform="translate(82.1494 91.8379)" fill="white"/>
<rect width="3.79149" height="3.79149" transform="translate(85.9404 88.0469)" fill="#A47971"/>
<rect width="3.79149" height="3.79149" transform="translate(89.7314 72.8809)" fill="#A47971"/>
<rect width="3.79149" height="3.79149" transform="translate(89.7314 76.251)" fill="#A47971"/>
<rect width="3.79149" height="3.79149" transform="translate(89.7314 80.043)" fill="#A47971"/>
<rect width="3.79149" height="3.79149" transform="translate(89.7314 83.834)" fill="#A47971"/>
<rect width="3.79149" height="3.79149" transform="translate(85.9404 61.9277)" fill="#A47971"/>
<rect width="3.79149" height="3.79149" transform="translate(85.9404 65.2979)" fill="#A47971"/>
<rect width="3.79149" height="3.79149" transform="translate(85.9404 69.0898)" fill="#A47971"/>
<rect width="3.79149" height="3.79149" transform="translate(85.9404 72.8809)" fill="white"/>
<rect width="3.79149" height="3.79149" transform="translate(85.9404 58.1357)" fill="white"/>
<rect width="3.79149" height="3.79149" transform="translate(89.7314 54.3447)" fill="white"/>
<rect width="3.79149" height="3.79149" transform="translate(89.7314 46.7617)" fill="white"/>
<rect width="3.79149" height="3.79149" transform="translate(89.7314 42.9697)" fill="white"/>
<rect width="3.79149" height="3.79149" transform="translate(86.7832 35.3877)" fill="#A47971"/>
<rect width="3.79149" height="3.79149" transform="translate(90.5742 32.8594)" fill="#A47971"/>
<rect width="3.79149" height="3.79149" transform="matrix(-1 0 0 1 80.043 33.2803)" fill="#252525"/>
<rect width="3.79149" height="3.79149" transform="matrix(-1 0 0 1 83.4131 36.2295)" fill="#252525"/>
<rect width="3.79149" height="3.79149" transform="matrix(-1 0 0 1 83.4131 39.1787)" fill="#252525"/>
<rect width="3.79149" height="3.79149" transform="matrix(-1 0 0 1 83.4131 42.5488)" fill="#252525"/>
<rect width="3.79149" height="3.79149" transform="matrix(-1 0 0 1 79.6211 42.5488)" fill="#252525"/>
<rect width="3.79149" height="3.79149" transform="matrix(-1 0 0 1 79.6211 45.9189)" fill="#252525"/>
<rect width="3.79149" height="3.79149" transform="matrix(-1 0 0 1 72.46 42.5488)" fill="#252525"/>
<rect width="3.79149" height="3.79149" transform="matrix(-1 0 0 1 72.46 45.9189)" fill="#252525"/>
<rect width="3.79149" height="3.79149" transform="matrix(-1 0 0 1 75.8301 45.9189)" fill="#252525"/>
<rect width="3.79149" height="3.79149" transform="matrix(-1 0 0 1 87.2041 39.1787)" fill="#252525"/>
<rect width="3.79149" height="3.79149" transform="matrix(-1 0 0 1 87.2041 42.5488)" fill="#252525"/>
<rect width="3.79149" height="3.79149" transform="matrix(-1 0 0 1 87.2041 45.9189)" fill="#252525"/>
<rect width="3.79149" height="3.79149" transform="matrix(-1 0 0 1 76.251 49.2891)" fill="#252525"/>
<rect width="3.79149" height="3.79149" transform="matrix(-1 0 0 1 83.834 49.2891)" fill="#252525"/>
<rect width="3.79149" height="3.79149" transform="matrix(-1 0 0 1 76.251 33.2803)" fill="#252525"/>
<rect width="3.79149" height="3.79149" transform="matrix(-1 0 0 1 72.46 33.2803)" fill="#252525"/>
<rect width="3.79149" height="3.79149" transform="matrix(-1 0 0 1 94.3662 19.7998)" fill="#CC8282"/>
<rect width="3.79149" height="3.79149" transform="matrix(-1 0 0 1 97.7363 19.7998)" fill="#CC8282"/>
<rect width="3.79149" height="3.79149" transform="matrix(-1 0 0 1 90.9961 29.0684)" fill="#CC8282"/>
<rect width="3.79149" height="3.79149" transform="matrix(-1 0 0 1 90.9961 25.2764)" fill="#CC8282"/>
<rect width="3.79149" height="3.79149" transform="matrix(-1 0 0 1 101.106 23.1699)" fill="#CC8282"/>
<rect width="3.79149" height="3.79149" transform="matrix(-1 0 0 1 97.7363 26.1191)" fill="#CC8282"/>
<rect width="3.79149" height="3.79149" transform="matrix(-1 0 0 1 93.9443 26.1191)" fill="#CC8282"/>
<rect width="3.79149" height="3.79149" transform="matrix(-1 0 0 1 93.9443 23.1699)" fill="#CC8282"/>
<rect width="3.79149" height="3.79149" transform="matrix(-1 0 0 1 97.3154 23.1699)" fill="#CC8282"/>
<rect width="3.79149" height="3.79149" transform="matrix(-1 0 0 1 69.0898 36.2295)" fill="#252525"/>
<rect width="3.79149" height="3.79149" transform="matrix(-1 0 0 1 69.0898 39.5996)" fill="#252525"/>
<rect width="3.79149" height="3.79149" transform="matrix(-1 0 0 1 69.0898 42.5488)" fill="#252525"/>
<rect width="3.79149" height="3.79149" transform="matrix(-1 0 0 1 69.0898 45.9189)" fill="#252525"/>
<rect width="3.79149" height="3.79149" transform="matrix(-1 0 0 1 79.6211 36.2295)" fill="#252525"/>
<rect width="3.79149" height="3.79149" transform="matrix(-1 0 0 1 72.46 49.2891)" fill="#252525"/>
<rect width="3.79149" height="3.79149" transform="matrix(-1 0 0 1 80.043 49.2891)" fill="#252525"/>
<rect width="3.79149" height="3.79149" transform="matrix(-1 0 0 1 83.4131 45.9189)" fill="#BFD8B8"/>
<rect width="3.79149" height="3.79149" transform="matrix(-1 0 0 1 79.6211 39.1787)" fill="#BFD8B8"/>
<rect width="3.79149" height="3.79149" transform="matrix(-1 0 0 1 75.8301 39.1787)" fill="#BFD8B8"/>
<rect width="3.79149" height="3.79149" transform="matrix(-1 0 0 1 75.8301 42.5488)" fill="#BFD8B8"/>
<rect width="3.79149" height="3.79149" transform="matrix(-1 0 0 1 75.8301 36.6504)" fill="#BFD8B8"/>
<rect width="3.79149" height="3.79149" transform="matrix(-1 0 0 1 72.46 36.6504)" fill="#BFD8B8"/>
<rect width="3.79149" height="3.79149" transform="matrix(-1 0 0 1 72.46 39.1787)" fill="#BFD8B8"/>
<rect width="3.79149" height="3.79149" transform="matrix(-1 0 0 1 90.5742 19.7998)" fill="#CC8282"/>
<rect width="3.79149" height="3.79149" transform="matrix(-1 0 0 1 87.2041 25.6973)" fill="#CC8282"/>
<rect width="3.79149" height="3.79149" transform="matrix(-1 0 0 1 90.5742 23.1699)" fill="#CC8282"/>
<rect width="3.79149" height="3.79149" transform="translate(97.3145 16.0088)" fill="#A47971"/>
<rect width="3.79149" height="3.79149" transform="translate(93.9443 12.6387)" fill="#A47971"/>
<rect width="3.79149" height="3.79149" transform="translate(90.5742 12.6387)" fill="#A47971"/>
<rect width="3.79149" height="3.79149" transform="translate(86.7832 12.6387)" fill="#A47971"/>
<rect width="3.79149" height="3.79149" transform="translate(82.9912 16.0088)" fill="#A47971"/>
<rect width="3.79149" height="3.79149" transform="translate(93.9443 6.74023)" fill="#A47971"/>
<rect width="3.79149" height="3.79149" transform="translate(97.3145 9.68945)" fill="#A47971"/>
<rect width="3.79149" height="3.79149" transform="translate(75.8301 3.37012)" fill="#A47971"/>
<rect width="3.79149" height="3.79149" transform="translate(83.4131 3.37012)" fill="#A47971"/>
<rect width="3.79149" height="3.79149" transform="translate(79.6211 3.37012)" fill="#A47971"/>
<rect width="3.79149" height="3.79149" transform="translate(87.2041 3.37012)" fill="#A47971"/>
<rect width="3.79149" height="3.79149" transform="translate(90.1533 3.37012)" fill="#A47971"/>
<rect width="3.79149" height="3.79149" transform="translate(3.79102 9.68945)" fill="#A47971"/>
<rect width="3.79149" height="3.79149" transform="translate(7.58301 6.31934)" fill="#A47971"/>
<rect width="3.79149" height="3.79149" transform="translate(10.9531 3.37012)" fill="#A47971"/>
<rect width="3.79149" height="3.79149" transform="translate(14.7451 3.37012)" fill="#A47971"/>
<rect width="3.79149" height="3.79149" transform="translate(18.5361 3.37012)" fill="#A47971"/>
<rect width="3.79149" height="3.79149" transform="translate(21.4854 3.37012)" fill="#A47971"/>
<rect width="3.79149" height="3.79149" transform="translate(25.2764 3.37012)" fill="#A47971"/>
<rect width="3.79149" height="3.79149" transform="translate(29.0684 5.89746)" fill="#A47971"/>
<rect width="3.79149" height="3.79149" transform="translate(36.6514 9.68945)" fill="#A47971"/>
<rect width="3.79149" height="3.79149" transform="translate(40.4424 9.68945)" fill="#A47971"/>
<rect width="3.79149" height="3.79149" transform="translate(43.3916 6.74023)" fill="#A47971"/>
<rect width="3.79149" height="3.79149" transform="translate(47.1826 9.68945)" fill="#A47971"/>
<rect width="3.79149" height="3.79149" transform="translate(50.5527 6.74023)" fill="#A47971"/>
<rect width="3.79149" height="3.79149" transform="translate(58.1357 6.74023)" fill="#A47971"/>
<rect width="3.79149" height="3.79149" transform="translate(54.3447 10.1104)" fill="#A47971"/>
<rect width="3.79149" height="3.79149" transform="translate(50.5527 9.68945)" fill="#A47971"/>
<rect width="3.79149" height="3.79149" transform="translate(58.1357 9.68945)" fill="#A47971"/>
<rect width="3.79149" height="3.79149" transform="translate(61.085 9.68945)" fill="#A47971"/>
<rect width="3.79149" height="3.79149" transform="translate(32.8594 5.89746)" fill="#A47971"/>
<rect width="3.79149" height="3.79149" transform="translate(72.0381 6.74023)" fill="#A47971"/>
<rect width="3.79149" height="3.79149" transform="translate(68.668 6.74023)" fill="#A47971"/>
<rect width="3.79149" height="3.79149" transform="translate(64.877 9.68945)" fill="#A47971"/>
<rect width="3.79149" height="3.79149" transform="translate(68.668 10.1104)" fill="#A47971"/>
<rect width="3.79149" height="3.79149" transform="translate(50.5527 46.3408)" fill="#7A5751"/>
<rect width="3.79149" height="3.79149" transform="translate(46.7617 50.1318)" fill="#7A5751"/>
<rect width="3.79149" height="3.79149" transform="translate(36.2295 55.6084)" fill="#7A5751"/>
<rect width="3.79149" height="3.79149" transform="translate(43.3916 62.3486)" fill="#7A5751"/>
<rect width="3.79149" height="3.79149" transform="translate(39.6006 75.8291)" fill="#C9968D"/>
<rect width="3.79149" height="3.79149" transform="translate(39.6006 78.3574)" fill="#C9968D"/>
<rect width="3.79149" height="3.79149" transform="translate(36.2295 78.7783)" fill="#C9968D"/>
<rect width="3.79149" height="3.79149" transform="translate(39.6006 72.0381)" fill="#7A5751"/>
<rect width="3.79149" height="3.79149" transform="translate(43.3916 75.4082)" fill="#7A5751"/>
<rect width="3.79149" height="3.79149" transform="translate(43.3916 79.2002)" fill="#7A5751"/>
<rect width="3.79149" height="3.79149" transform="translate(40.0215 82.1484)" fill="#7A5751"/>
<rect width="3.79149" height="3.79149" transform="translate(36.2295 82.1484)" fill="#7A5751"/>
<rect width="3.79149" height="3.79149" transform="translate(32.4385 78.7783)" fill="#7A5751"/>
<rect width="3.79149" height="3.79149" transform="matrix(-1 0 0 1 65.2979 75.8291)" fill="#C9968D"/>
<rect width="3.79149" height="3.79149" transform="matrix(-1 0 0 1 65.2979 78.3574)" fill="#C9968D"/>
<rect width="3.79149" height="3.79149" transform="matrix(-1 0 0 1 68.6689 78.7783)" fill="#C9968D"/>
<rect width="3.79149" height="3.79149" transform="matrix(-1 0 0 1 65.2979 72.0381)" fill="#7A5751"/>
<rect width="3.79149" height="3.79149" transform="matrix(-1 0 0 1 61.5068 75.4082)" fill="#7A5751"/>
<rect width="3.79149" height="3.79149" transform="matrix(-1 0 0 1 61.5068 79.2002)" fill="#7A5751"/>
<rect width="3.79149" height="3.79149" transform="matrix(-1 0 0 1 64.877 82.1484)" fill="#7A5751"/>
<rect width="3.79149" height="3.79149" transform="matrix(-1 0 0 1 68.6689 82.1484)" fill="#7A5751"/>
<rect width="3.79149" height="3.79149" transform="matrix(-1 0 0 1 72.46 78.7783)" fill="#7A5751"/>
<rect width="3.79149" height="3.79149" transform="translate(47.1826 62.3486)" fill="#7A5751"/>
<rect width="3.79149" height="3.79149" transform="translate(50.9746 58.5576)" fill="#7A5751"/>
<rect width="3.79149" height="3.79149" transform="translate(54.7656 62.3486)" fill="#7A5751"/>
<rect width="3.79149" height="3.79149" transform="translate(50.9746 62.3486)" fill="#FF9898"/>
<rect width="3.79149" height="3.79149" transform="translate(58.5576 62.3486)" fill="#7A5751"/>
<rect width="3.79149" height="3.79149" transform="translate(65.7188 55.6084)" fill="#7A5751"/>
<rect width="3.79149" height="3.79149" transform="translate(54.3447 50.1318)" fill="#7A5751"/>
<rect width="3.79149" height="3.79149" transform="translate(32.8594 91.8379)" fill="#614540"/>
<rect width="3.79149" height="3.79149" transform="translate(48.0254 91.8379)" fill="#614540"/>
<rect width="3.79149" height="3.79149" transform="translate(63.1914 91.8379)" fill="#614540"/>
<rect width="3.79149" height="3.79149" transform="translate(40.4424 91.8379)" fill="#614540"/>
<rect width="3.79149" height="3.79149" transform="translate(55.6084 91.8379)" fill="#614540"/>
<rect width="3.79149" height="3.79149" transform="translate(70.7744 91.8379)" fill="#614540"/>
<rect width="3.79149" height="3.79149" transform="translate(36.6514 91.8379)" fill="#614540"/>
<rect width="3.79149" height="3.79149" transform="translate(51.8174 91.8379)" fill="#614540"/>
<rect width="3.79149" height="3.79149" transform="translate(66.9834 91.8379)" fill="#614540"/>
<rect width="3.79149" height="3.79149" transform="translate(29.0684 91.8379)" fill="#614540"/>
<rect width="3.79149" height="3.79149" transform="translate(44.2344 91.8379)" fill="#614540"/>
<rect width="3.79149" height="3.79149" transform="translate(59.4004 91.8379)" fill="#614540"/>
<rect width="3.79149" height="3.79149" transform="translate(74.5664 91.8379)" fill="#614540"/>
<defs>
<clipPath id="clip0_900_14195">
<rect width="10.5319" height="10.5319" fill="white" transform="translate(46.7617 26.54)"/>
</clipPath>
<clipPath id="clip1_900_14195">
<rect width="6.31915" height="6.31915" fill="white" transform="translate(43.8125 37.0723)"/>
</clipPath>
<clipPath id="clip2_900_14195">
<rect width="10.5319" height="10.5319" fill="white" transform="translate(53.9238 35.8086)"/>
</clipPath>
<clipPath id="clip3_900_14195">
<rect width="0.842553" height="6.31915" fill="white" transform="translate(64.4551 32.4385)"/>
</clipPath>
<clipPath id="clip4_900_14195">
<rect width="3.79149" height="3.79149" fill="white" transform="translate(78.3574 91.8379)"/>
</clipPath>
</defs>
</svg>
