<svg width="72" height="74" viewBox="0 0 72 74" fill="none" xmlns="http://www.w3.org/2000/svg">
<rect width="3.29719" height="3.29719" transform="translate(0 42.5054) rotate(-16.4313)" fill="#FFEEB9"/>
<rect width="3.29719" height="3.29719" transform="translate(0.932617 45.6677) rotate(-16.4313)" fill="#FFEEB9"/>
<rect width="3.29719" height="3.29719" transform="translate(1.86548 48.8303) rotate(-16.4313)" fill="#FFEEB9"/>
<rect width="3.29719" height="3.29719" transform="translate(2.33154 50.4116) rotate(-16.4313)" fill="#FFEEB9"/>
<rect width="3.29719" height="3.29719" transform="translate(3.1709 53.2578) rotate(-16.4313)" fill="#FFDE7A"/>
<rect width="3.29719" height="3.29719" transform="translate(6.54053 55.3582) rotate(-16.4313)" fill="#FFDE7A"/>
<rect width="3.29719" height="3.29719" transform="translate(7.37988 58.2043) rotate(-16.4313)" fill="#FFDE7A"/>
<rect width="3.29719" height="3.29719" transform="translate(10.2261 57.365) rotate(-16.4313)" fill="#FFDE7A"/>
<rect width="5.93495" height="5.93495" transform="translate(10.9724 59.895) rotate(-16.4313)" fill="#FFDE7A"/>
<rect width="5.93495" height="5.93495" transform="translate(14.3416 61.9951) rotate(-16.4313)" fill="#FFDE7A"/>
<rect width="5.93495" height="5.93495" transform="translate(18.0273 64.002) rotate(-16.4313)" fill="#FFDE7A"/>
<rect width="5.93495" height="5.93495" transform="translate(21.6196 65.6926) rotate(-16.4313)" fill="#FFDE7A"/>
<rect width="10.8807" height="5.93495" transform="translate(51.6638 56.8325) rotate(-16.4313)" fill="#FFDE7A"/>
<rect width="10.8807" height="5.93495" transform="translate(53.4478 53.5562) rotate(-16.4313)" fill="#FFDE7A"/>
<rect width="10.8807" height="5.93495" transform="translate(55.4546 49.8706) rotate(-16.4313)" fill="#FFDE7A"/>
<rect width="10.8807" height="5.93495" transform="translate(57.4614 46.1848) rotate(-16.4313)" fill="#FFDE7A"/>
<rect width="5.60523" height="5.93495" transform="translate(63.4661 38.5703) rotate(-16.4313)" fill="#FFDE7A"/>
<rect width="5.93495" height="19.7832" transform="translate(60.4934 19.165) rotate(-16.4313)" fill="#FFDE7A"/>
<rect width="3.29719" height="8.90242" transform="translate(58.5916 13.8821) rotate(-16.4313)" fill="#FFDE7A"/>
<rect width="31.6531" height="6.26467" transform="translate(27.2678 66.7771) rotate(-16.4313)" fill="#FFDE7A"/>
<rect width="20.1129" height="4.94579" transform="translate(34.0146 69.2561) rotate(-16.4313)" fill="#FFDE7A"/>
<rect width="3.29719" height="3.29719" transform="translate(4.0791 48.1775) rotate(-16.4313)" fill="#FFEEB9"/>
<rect width="3.29719" height="3.29719" transform="translate(7.26196 49.6453) rotate(-16.4313)" fill="#FFEEB9"/>
<rect width="3.29719" height="3.29719" transform="translate(5.23486 50.9304) rotate(-16.4313)" fill="#FFEEB9"/>
<rect width="3.29719" height="3.29719" transform="translate(5.70117 52.5117) rotate(-16.4313)" fill="#FFEEB9"/>
<rect width="3.29719" height="3.29719" transform="translate(7.91479 51.8589) rotate(-16.4313)" fill="#FFEEB9"/>
<rect width="3.29719" height="3.29719" transform="translate(8.75415 54.7051) rotate(-16.4313)" fill="#FFEEB9"/>
<rect width="3.29719" height="3.29719" transform="translate(11.9167 53.7725) rotate(-16.4313)" fill="#FFEEB9"/>
<rect width="3.29719" height="3.29719" transform="translate(14.4468 53.0264) rotate(-16.4313)" fill="#FFEEB9"/>
<rect width="3.29719" height="3.29719" transform="translate(12.3467 56.3958) rotate(-16.4313)" fill="#FFEEB9"/>
<rect width="3.29719" height="3.29719" transform="translate(15.1929 55.5564) rotate(-16.4313)" fill="#FFEEB9"/>
<rect width="3.29719" height="3.29719" transform="translate(16.0322 58.4028) rotate(-16.4313)" fill="#FFEEB9"/>
<rect width="3.29719" height="3.29719" transform="translate(18.542 55.2563) rotate(-16.4313)" fill="#FFEEB9"/>
<rect width="3.29719" height="3.29719" transform="translate(21.7046 54.3237) rotate(-16.4313)" fill="#FFEEB9"/>
<rect width="3.29719" height="3.29719" transform="translate(23.4907 3.2644) rotate(-16.4313)" fill="#FFEEB9"/>
<rect width="3.29719" height="3.29719" transform="translate(26.6536 2.33179) rotate(-16.4313)" fill="#FFEEB9"/>
<rect width="3.29719" height="3.29719" transform="translate(29.8159 1.39893) rotate(-16.4313)" fill="#FFEEB9"/>
<rect width="3.29719" height="3.29719" transform="translate(31.3972 0.932617) rotate(-16.4313)" fill="#FFEEB9"/>
<rect width="3.29719" height="3.29719" transform="translate(29.7065 4.52515) rotate(-16.4313)" fill="#FFEEB9"/>
<rect width="3.29719" height="3.29719" transform="translate(32.2366 3.77905) rotate(-16.4313)" fill="#FFEEB9"/>
<rect width="3.29719" height="3.29719" transform="translate(35.3992 2.84644) rotate(-16.4313)" fill="#FFEEB9"/>
<rect width="3.29719" height="3.29719" transform="translate(37.6128 2.19336) rotate(-16.4313)" fill="#FFEEB9"/>
<rect width="3.29719" height="3.29719" transform="translate(35.8291 5.46948) rotate(-16.4313)" fill="#FFEEB9"/>
<rect width="3.29719" height="3.29719" transform="translate(38.3591 4.72339) rotate(-16.4313)" fill="#FFEEB9"/>
<rect width="3.29719" height="3.29719" transform="translate(39.1985 7.56982) rotate(-16.4313)" fill="#FFEEB9"/>
<rect width="3.29719" height="3.29719" transform="translate(41.2053 3.88403) rotate(-16.4313)" fill="#FFEEB9"/>
<rect width="3.29719" height="3.29719" transform="translate(43.7354 3.13794) rotate(-16.4313)" fill="#FFEEB9"/>
<rect width="3.29719" height="3.29719" transform="translate(43.2004 9.4834) rotate(-16.4313)" fill="#FFEEB9"/>
<rect width="3.29719" height="3.29719" transform="translate(46.363 8.55078) rotate(-16.4313)" fill="#FFEEB9"/>
<rect width="3.29719" height="8.24298" transform="translate(48.0376 8.40063) rotate(-16.4313)" fill="#FFEEB9"/>
<rect width="5.60523" height="2.63776" transform="translate(42.1379 7.04663) rotate(-16.4313)" fill="#FFEEB9"/>
<rect width="3.29719" height="3.29719" transform="translate(47.5142 5.46118) rotate(-16.4313)" fill="#FFEEB9"/>
<rect width="3.29719" height="3.29719" transform="translate(50.7905 7.24512) rotate(-16.4313)" fill="#FFEEB9"/>
<rect width="3.29719" height="3.29719" transform="translate(54.1599 9.34521) rotate(-16.4313)" fill="#FFEEB9"/>
<rect width="3.29719" height="3.29719" transform="translate(55.0925 12.5076) rotate(-16.4313)" fill="#FFEEB9"/>
<rect width="3.29719" height="3.29719" transform="translate(46.5698 11.5835) rotate(-16.4313)" fill="#FFEEB9"/>
<rect width="3.29719" height="3.29719" transform="translate(47.2227 13.7971) rotate(-16.4313)" fill="#FFEEB9"/>
<rect width="3.29719" height="3.29719" transform="translate(51.0017 16.1204) rotate(-16.4313)" fill="#FFEEB9"/>
<rect width="3.29719" height="30.9936" transform="translate(51.8411 18.9668) rotate(-16.4313)" fill="#FFEEB9"/>
<rect width="3.29719" height="24.0695" transform="translate(56.0251 15.6702) rotate(-16.4313)" fill="#FFEEB9"/>
<rect width="3.29719" height="36.5989" transform="translate(51.7231 10.4075) rotate(-16.4313)" fill="#FFEEB9"/>
<rect width="3.29719" height="11.2105" transform="translate(60.9233 21.7883) rotate(-16.4313)" fill="#FFEEB9"/>
<rect width="3.29719" height="25.7181" transform="translate(51.2332 27.3962) rotate(-16.4313)" fill="#FFEEB9"/>
<rect width="3.29719" height="17.1454" transform="translate(51.1279 36.365) rotate(-16.4313)" fill="#FFEEB9"/>
<rect width="3.29719" height="17.1454" transform="translate(49.1208 40.0505) rotate(-16.4313)" fill="#FFEEB9"/>
<rect width="3.29719" height="16.8157" transform="translate(44.5842 44.4824) rotate(-16.4313)" fill="#FFEEB9"/>
<rect width="3.29719" height="14.1779" transform="translate(46.7979 43.8296) rotate(-16.4313)" fill="#FFEEB9"/>
<rect width="3.29719" height="3.29719" transform="translate(24.8669 53.3909) rotate(-16.4313)" fill="#FFEEB9"/>
<rect width="3.29719" height="3.29719" transform="translate(26.1321 53.0181) rotate(-16.4313)" fill="#FFEEB9"/>
<rect width="3.29719" height="3.29719" transform="translate(26.9714 55.8643) rotate(-16.4313)" fill="#FFEEB9"/>
<rect width="8.24298" height="8.24298" transform="translate(25.3457 59.0935) rotate(-16.4313)" fill="#FFEEB9"/>
<rect width="16.8157" height="11.2105" transform="translate(30.0408 54.6152) rotate(-16.4313)" fill="#FFEEB9"/>
<rect width="8.57271" height="2.96747" transform="translate(35.7417 64.6218) rotate(-16.4313)" fill="#FFEEB9"/>
<rect width="8.57271" height="2.96747" transform="translate(40.0471 48.9143) rotate(-16.4313)" fill="#FFEEB9"/>
<rect width="3.29719" height="3.29719" transform="translate(19.4746 58.4187) rotate(-16.4313)" fill="#FFEEB9"/>
<rect width="3.29719" height="3.29719" transform="translate(19.6248 60.0935) rotate(-16.4313)" fill="#FFEEB9"/>
<rect width="3.29719" height="3.29719" transform="translate(22.6372 57.4861) rotate(-16.4313)" fill="#FFEEB9"/>
<rect width="3.29719" height="3.29719" transform="translate(25.7998 56.5535) rotate(-16.4313)" fill="#FFEEB9"/>
<rect width="3.29719" height="3.29719" transform="translate(22.844 60.519) rotate(-16.4313)" fill="#FFEEB9"/>
<rect width="3.29719" height="3.29719" transform="translate(23.3103 62.1003) rotate(-16.4313)" fill="#FFEEB9"/>
<rect width="3.29719" height="3.29719" transform="translate(26.0066 59.5864) rotate(-16.4313)" fill="#FFEEB9"/>
<rect width="3.29719" height="3.29719" transform="translate(26.5864 63.8843) rotate(-16.4313)" fill="#FFEEB9"/>
<rect width="3.29719" height="3.29719" transform="translate(26.5662 61.4839) rotate(-16.4313)" fill="#FFEEB9"/>
</svg>
