<svg width="72" height="74" viewBox="0 0 72 74" fill="none" xmlns="http://www.w3.org/2000/svg">
<rect width="3.29719" height="3.29719" transform="translate(0 42.5054) rotate(-16.4313)" fill="#FFEEB9"/>
<rect width="3.29719" height="3.29719" transform="translate(0.932617 45.668) rotate(-16.4313)" fill="#FFEEB9"/>
<rect width="3.29719" height="3.29719" transform="translate(1.86523 48.8306) rotate(-16.4313)" fill="#FFEEB9"/>
<rect width="3.29719" height="3.29719" transform="translate(2.33203 50.4116) rotate(-16.4313)" fill="#FFEEB9"/>
<rect width="3.29719" height="3.29719" transform="translate(3.1709 53.2578) rotate(-16.4313)" fill="#FFDE7A"/>
<rect width="3.29719" height="3.29719" transform="translate(6.54004 55.3579) rotate(-16.4313)" fill="#FFDE7A"/>
<rect width="3.29719" height="3.29719" transform="translate(7.37988 58.2041) rotate(-16.4313)" fill="#FFDE7A"/>
<rect width="3.29719" height="3.29719" transform="translate(10.2266 57.3647) rotate(-16.4313)" fill="#FFDE7A"/>
<rect width="5.93495" height="5.93495" transform="translate(10.9727 59.895) rotate(-16.4313)" fill="#FFDE7A"/>
<rect width="5.93495" height="5.93495" transform="translate(14.3418 61.9951) rotate(-16.4313)" fill="#FFDE7A"/>
<rect width="5.93495" height="5.93495" transform="translate(18.0273 64.002) rotate(-16.4313)" fill="#FFDE7A"/>
<rect width="5.93495" height="5.93495" transform="translate(21.6201 65.6929) rotate(-16.4313)" fill="#FFDE7A"/>
<rect width="10.8807" height="5.93495" transform="translate(51.6641 56.8325) rotate(-16.4313)" fill="#FFDE7A"/>
<rect width="10.8807" height="5.93495" transform="translate(53.4482 53.5562) rotate(-16.4313)" fill="#FFDE7A"/>
<rect width="10.8807" height="5.93495" transform="translate(55.4551 49.8706) rotate(-16.4313)" fill="#FFDE7A"/>
<rect width="10.8807" height="5.93495" transform="translate(57.4619 46.1851) rotate(-16.4313)" fill="#FFDE7A"/>
<rect width="5.60523" height="5.93495" transform="translate(63.4658 38.5703) rotate(-16.4313)" fill="#FFDE7A"/>
<rect width="5.93495" height="19.7832" transform="translate(60.4932 19.165) rotate(-16.4313)" fill="#FFDE7A"/>
<rect width="3.29719" height="8.90242" transform="translate(58.5918 13.8818) rotate(-16.4313)" fill="#FFDE7A"/>
<rect width="31.6531" height="6.26467" transform="translate(27.2676 66.7773) rotate(-16.4313)" fill="#FFDE7A"/>
<rect width="20.1129" height="4.94579" transform="translate(34.0146 69.2563) rotate(-16.4313)" fill="#FFDE7A"/>
<rect width="3.29719" height="3.29719" transform="translate(4.0791 48.1777) rotate(-16.4313)" fill="#FFEEB9"/>
<rect width="3.29719" height="3.29719" transform="translate(7.26172 49.645) rotate(-16.4313)" fill="#FFEEB9"/>
<rect width="3.29719" height="3.29719" transform="translate(5.23438 50.9307) rotate(-16.4313)" fill="#FFEEB9"/>
<rect width="3.29719" height="3.29719" transform="translate(5.70117 52.5117) rotate(-16.4313)" fill="#FFEEB9"/>
<rect width="3.29719" height="3.29719" transform="translate(7.91504 51.8589) rotate(-16.4313)" fill="#FFEEB9"/>
<rect width="3.29719" height="3.29719" transform="translate(8.75391 54.7051) rotate(-16.4313)" fill="#FFEEB9"/>
<rect width="3.29719" height="3.29719" transform="translate(11.917 53.7725) rotate(-16.4313)" fill="#FFEEB9"/>
<rect width="3.29719" height="3.29719" transform="translate(14.4463 53.0264) rotate(-16.4313)" fill="#FFEEB9"/>
<rect width="3.29719" height="3.29719" transform="translate(12.3467 56.396) rotate(-16.4313)" fill="#FFEEB9"/>
<rect width="3.29719" height="3.29719" transform="translate(15.1924 55.5566) rotate(-16.4313)" fill="#FFEEB9"/>
<rect width="3.29719" height="3.29719" transform="translate(16.0322 58.4028) rotate(-16.4313)" fill="#FFEEB9"/>
<rect width="3.29719" height="3.29719" transform="translate(18.542 55.2563) rotate(-16.4313)" fill="#FFEEB9"/>
<rect width="3.29719" height="3.29719" transform="translate(21.7041 54.3237) rotate(-16.4313)" fill="#FFEEB9"/>
<rect width="3.29719" height="3.29719" transform="translate(23.4912 3.26416) rotate(-16.4313)" fill="#FFEEB9"/>
<rect width="3.29719" height="3.29719" transform="translate(26.6533 2.33154) rotate(-16.4313)" fill="#FFEEB9"/>
<rect width="3.29719" height="3.29719" transform="translate(29.8164 1.39893) rotate(-16.4313)" fill="#FFEEB9"/>
<rect width="3.29719" height="3.29719" transform="translate(31.3975 0.932617) rotate(-16.4313)" fill="#FFEEB9"/>
<rect width="3.29719" height="3.29719" transform="translate(29.707 4.5249) rotate(-16.4313)" fill="#FFEEB9"/>
<rect width="3.29719" height="3.29719" transform="translate(32.2363 3.77881) rotate(-16.4313)" fill="#FFEEB9"/>
<rect width="3.29719" height="3.29719" transform="translate(35.3994 2.84619) rotate(-16.4313)" fill="#FFEEB9"/>
<rect width="3.29719" height="3.29719" transform="translate(37.6133 2.19336) rotate(-16.4313)" fill="#FFEEB9"/>
<rect width="3.29719" height="3.29719" transform="translate(35.8291 5.46973) rotate(-16.4313)" fill="#FFEEB9"/>
<rect width="3.29719" height="3.29719" transform="translate(38.3594 4.72363) rotate(-16.4313)" fill="#FFEEB9"/>
<rect width="3.29719" height="3.29719" transform="translate(39.1982 7.56982) rotate(-16.4313)" fill="#FFEEB9"/>
<rect width="3.29719" height="3.29719" transform="translate(41.2051 3.88428) rotate(-16.4313)" fill="#FFEEB9"/>
<rect width="3.29719" height="3.29719" transform="translate(43.7354 3.1377) rotate(-16.4313)" fill="#FFEEB9"/>
<rect width="3.29719" height="3.29719" transform="translate(43.2002 9.4834) rotate(-16.4313)" fill="#FFEEB9"/>
<rect width="3.29719" height="3.29719" transform="translate(46.3633 8.55078) rotate(-16.4313)" fill="#FFEEB9"/>
<rect width="3.29719" height="8.24298" transform="translate(48.0371 8.40088) rotate(-16.4313)" fill="#FFEEB9"/>
<rect width="5.60523" height="2.63776" transform="translate(42.1377 7.04639) rotate(-16.4313)" fill="#FFEEB9"/>
<rect width="3.29719" height="3.29719" transform="translate(47.5146 5.46094) rotate(-16.4313)" fill="#FFEEB9"/>
<rect width="3.29719" height="3.29719" transform="translate(50.79 7.24512) rotate(-16.4313)" fill="#FFEEB9"/>
<rect width="3.29719" height="3.29719" transform="translate(54.1602 9.34521) rotate(-16.4313)" fill="#FFEEB9"/>
<rect width="3.29719" height="3.29719" transform="translate(55.0928 12.5078) rotate(-16.4313)" fill="#FFEEB9"/>
<rect width="3.29719" height="3.29719" transform="translate(46.5693 11.5835) rotate(-16.4313)" fill="#FFEEB9"/>
<rect width="3.29719" height="3.29719" transform="translate(47.2227 13.7974) rotate(-16.4313)" fill="#FFEEB9"/>
<rect width="3.29719" height="3.29719" transform="translate(51.002 16.1206) rotate(-16.4313)" fill="#FFEEB9"/>
<rect width="3.29719" height="30.9936" transform="translate(51.8408 18.9668) rotate(-16.4313)" fill="#FFEEB9"/>
<rect width="3.29719" height="24.0695" transform="translate(56.0254 15.6699) rotate(-16.4313)" fill="#FFEEB9"/>
<rect width="3.29719" height="36.5989" transform="translate(51.7227 10.4077) rotate(-16.4313)" fill="#FFEEB9"/>
<rect width="3.29719" height="11.2105" transform="translate(60.9238 21.7886) rotate(-16.4313)" fill="#FFEEB9"/>
<rect width="3.29719" height="25.7181" transform="translate(51.2334 27.396) rotate(-16.4313)" fill="#FFEEB9"/>
<rect width="3.29719" height="17.1454" transform="translate(51.1279 36.3647) rotate(-16.4313)" fill="#FFEEB9"/>
<rect width="3.29719" height="17.1454" transform="translate(49.1211 40.0508) rotate(-16.4313)" fill="#FFEEB9"/>
<rect width="3.29719" height="16.8157" transform="translate(44.584 44.4824) rotate(-16.4313)" fill="#FFEEB9"/>
<rect width="3.29719" height="14.1779" transform="translate(46.7979 43.8296) rotate(-16.4313)" fill="#FFEEB9"/>
<rect width="3.29719" height="3.29719" transform="translate(24.8672 53.3911) rotate(-16.4313)" fill="#FFEEB9"/>
<rect width="3.29719" height="3.29719" transform="translate(26.1318 53.0181) rotate(-16.4313)" fill="#FFEEB9"/>
<rect width="3.29719" height="3.29719" transform="translate(26.9717 55.8643) rotate(-16.4313)" fill="#FFEEB9"/>
<rect width="8.24298" height="8.24298" transform="translate(25.3457 59.0938) rotate(-16.4313)" fill="#FFEEB9"/>
<rect width="16.8157" height="11.2105" transform="translate(30.041 54.6152) rotate(-16.4313)" fill="#FFEEB9"/>
<rect width="8.57271" height="2.96747" transform="translate(35.7422 64.6216) rotate(-16.4313)" fill="#FFEEB9"/>
<rect width="8.57271" height="2.96747" transform="translate(40.0469 48.9141) rotate(-16.4313)" fill="#FFEEB9"/>
<rect width="3.29719" height="3.29719" transform="translate(19.4746 58.4189) rotate(-16.4313)" fill="#FFEEB9"/>
<rect width="3.29719" height="3.29719" transform="translate(19.625 60.0933) rotate(-16.4313)" fill="#FFEEB9"/>
<rect width="3.29719" height="3.29719" transform="translate(22.6377 57.4863) rotate(-16.4313)" fill="#FFEEB9"/>
<rect width="3.29719" height="3.29719" transform="translate(25.7998 56.5532) rotate(-16.4313)" fill="#FFEEB9"/>
<rect width="3.29719" height="3.29719" transform="translate(22.8438 60.519) rotate(-16.4313)" fill="#FFEEB9"/>
<rect width="3.29719" height="3.29719" transform="translate(23.3105 62.1001) rotate(-16.4313)" fill="#FFEEB9"/>
<rect width="3.29719" height="3.29719" transform="translate(26.0068 59.5864) rotate(-16.4313)" fill="#FFEEB9"/>
<rect width="3.29719" height="3.29719" transform="translate(26.5869 63.8843) rotate(-16.4313)" fill="#FFEEB9"/>
<rect width="3.29719" height="3.29719" transform="translate(26.5664 61.4839) rotate(-16.4313)" fill="#FFEEB9"/>
</svg>
