<svg width="73" height="36" viewBox="0 0 73 36" fill="none" xmlns="http://www.w3.org/2000/svg">
<g filter="url(#filter0_d_1672_42025)">
<rect x="4" y="4" width="65" height="28" rx="14" fill="white"/>
<path d="M23.3516 12.7656V13.6094H21.8281V15.4375H23.3047V16.2695H20.0117V17.1719H24.2539V18.0508H14.6797V17.1719H18.8984V16.2695H15.6055V15.4375H17.0938V13.6094H15.5586V12.7656H23.3516ZM23.0469 18.8008V21.168H16.9297V22.0469H23.3398V22.8906H15.8398V20.3828H21.9453V19.6094H15.8281V18.8008H23.0469ZM18.1953 15.4375H20.7148V13.6094H18.1953V15.4375ZM30.3828 13.4688V14.3945H26.6914V19.5156C28.4492 19.5098 29.6621 19.4453 31.0391 19.1758L31.168 20.0898C29.6562 20.3711 28.3789 20.4414 26.3984 20.4414H25.5664V13.4688H30.3828ZM33.8164 12.4961V23.0195H32.7031V17.1719H29.7852V16.2461H32.7031V12.4961H33.8164ZM47.0469 12.4961V23.0195H45.9336V12.4961H47.0469ZM41.4336 13.2812C42.9922 13.2812 44.1406 14.7109 44.1406 16.9609C44.1406 19.2227 42.9922 20.6523 41.4336 20.6523C39.8516 20.6523 38.7148 19.2227 38.7148 16.9609C38.7148 14.7109 39.8516 13.2812 41.4336 13.2812ZM41.4336 14.2773C40.4609 14.2773 39.793 15.3086 39.793 16.9609C39.793 18.625 40.4609 19.6562 41.4336 19.6562C42.3945 19.6562 43.0625 18.625 43.0625 16.9609C43.0625 15.3086 42.3945 14.2773 41.4336 14.2773ZM58.3086 17.6055V18.4961H48.7227V17.6055H52.9766V16.4922H49.918V12.9766H57.125V13.8555H51.0195V15.6016H57.1953V16.4922H54.0547V17.6055H58.3086ZM53.5039 19.1758C55.7656 19.1758 57.125 19.8672 57.125 21.0859C57.125 22.3047 55.7656 22.9844 53.5039 22.9961C51.2305 22.9844 49.8594 22.3047 49.8594 21.0859C49.8594 19.8672 51.2305 19.1758 53.5039 19.1758ZM53.5039 20.043C51.8984 20.043 50.9844 20.418 50.9844 21.0859C50.9844 21.7539 51.8984 22.1289 53.5039 22.1172C55.0859 22.1289 56.0117 21.7539 56.0117 21.0859C56.0117 20.418 55.0859 20.043 53.5039 20.043Z" fill="black"/>
</g>
<defs>
<filter id="filter0_d_1672_42025" x="0" y="0" width="73" height="36" filterUnits="userSpaceOnUse" color-interpolation-filters="sRGB">
<feFlood flood-opacity="0" result="BackgroundImageFix"/>
<feColorMatrix in="SourceAlpha" type="matrix" values="0 0 0 0 0 0 0 0 0 0 0 0 0 0 0 0 0 0 127 0" result="hardAlpha"/>
<feOffset/>
<feGaussianBlur stdDeviation="2"/>
<feComposite in2="hardAlpha" operator="out"/>
<feColorMatrix type="matrix" values="0 0 0 0 0 0 0 0 0 0 0 0 0 0 0 0 0 0 0.25 0"/>
<feBlend mode="normal" in2="BackgroundImageFix" result="effect1_dropShadow_1672_42025"/>
<feBlend mode="normal" in="SourceGraphic" in2="effect1_dropShadow_1672_42025" result="shape"/>
</filter>
</defs>
</svg>
