<svg width="40" height="40" viewBox="0 0 40 40" fill="none" xmlns="http://www.w3.org/2000/svg">
<path d="M19.1668 5C20.8054 4.99957 22.3989 5.53575 23.704 6.52655C25.009 7.51736 25.9536 8.90828 26.3935 10.4867L26.4802 10.8283L29.5968 10.05C29.8246 9.9933 30.0618 9.98536 30.2929 10.0267C30.524 10.0681 30.7438 10.1577 30.9378 10.2899C31.1318 10.4221 31.2957 10.5938 31.4187 10.7937C31.5418 10.9936 31.6212 11.2173 31.6518 11.45L31.6668 11.6667V14.6833C32.6069 15.5838 33.377 16.6464 33.9402 17.82L34.1702 18.3333H35.0002C35.4084 18.3334 35.8024 18.4833 36.1074 18.7545C36.4125 19.0258 36.6074 19.3996 36.6552 19.805L36.6668 20V25C36.6669 25.2743 36.5992 25.5444 36.4698 25.7863C36.3404 26.0282 36.1534 26.2344 35.9252 26.3867L35.7452 26.49L33.7985 27.465C33.0029 29.0077 31.8483 30.3367 30.4318 31.34L30.0002 31.63V33.3333C30.0001 33.7416 29.8502 34.1356 29.579 34.4406C29.3077 34.7457 28.9339 34.9406 28.5285 34.9883L28.3335 35H23.3335C22.9253 34.9999 22.5313 34.8501 22.2262 34.5788C21.9212 34.3075 21.7263 33.9338 21.6785 33.5283L21.6668 33.3333H20.0002C20.0001 33.7416 19.8502 34.1356 19.579 34.4406C19.3077 34.7457 18.9339 34.9406 18.5285 34.9883L18.3335 35H13.3335C12.9253 34.9999 12.5313 34.8501 12.2262 34.5788C11.9212 34.3075 11.7263 33.9338 11.6785 33.5283L11.6668 33.3333V31.63C10.4623 30.8608 9.4219 29.8609 8.60554 28.6878C7.78917 27.5147 7.21298 26.1917 6.91016 24.795C5.92713 24.5029 5.05768 23.9156 4.41968 23.1128C3.78167 22.3099 3.40597 21.3303 3.3435 20.3067L3.3335 20V19.1667C3.33397 18.7419 3.49663 18.3333 3.78824 18.0244C4.07986 17.7155 4.47842 17.5296 4.90249 17.5047C5.32656 17.4798 5.74413 17.6178 6.06988 17.8904C6.39564 18.1631 6.60499 18.5498 6.65516 18.9717L6.66683 19.1667V20C6.66905 20.2489 6.71905 20.4794 6.81683 20.6917C7.07082 19.1911 7.63815 17.7608 8.48185 16.4941C9.32555 15.2274 10.4267 14.1527 11.7135 13.34C11.5952 12.2908 11.6998 11.2285 12.0205 10.2225C12.3411 9.21651 12.8705 8.28957 13.5741 7.50231C14.2776 6.71504 15.1395 6.0852 16.1033 5.65399C17.067 5.22278 18.111 4.99993 19.1668 5ZM28.3335 13.8L23.7368 14.95L23.5368 14.9883L23.3335 15H17.5002C15.8149 14.9989 14.1785 15.5654 12.8546 16.6081C11.5307 17.6508 10.5966 19.109 10.2028 20.7476C9.80906 22.3862 9.97862 24.1096 10.6842 25.64C11.3897 27.1704 12.5901 28.4186 14.0918 29.1833C14.3338 29.307 14.5418 29.488 14.6978 29.7106C14.8538 29.9331 14.953 30.1904 14.9868 30.46L15.0002 30.6667V31.6667H16.6668C16.6669 31.2584 16.8168 30.8644 17.088 30.5594C17.3593 30.2543 17.7331 30.0594 18.1385 30.0117L18.3335 30H23.3335C23.7417 30.0001 24.1357 30.1499 24.4408 30.4212C24.7458 30.6925 24.9407 31.0662 24.9885 31.4717L25.0002 31.6667H26.6668V30.6667C26.667 30.3598 26.7519 30.0588 26.9121 29.7971C27.0724 29.5354 27.3019 29.323 27.5752 29.1833C29.1048 28.4007 30.3209 27.1187 31.0218 25.55C31.1469 25.2695 31.347 25.029 31.6002 24.855L31.7985 24.7383L33.3335 23.97V21.6667H32.9885C32.6256 21.6666 32.2726 21.548 31.9833 21.329C31.6939 21.11 31.4839 20.8026 31.3852 20.4533C30.9686 18.987 30.1152 17.6824 28.9385 16.7133C28.6121 16.4437 28.4006 16.0599 28.3468 15.64L28.3335 15.4283V13.8ZM26.6668 18.3333C27.1089 18.3333 27.5328 18.5089 27.8453 18.8215C28.1579 19.134 28.3335 19.558 28.3335 20C28.3335 20.442 28.1579 20.8659 27.8453 21.1785C27.5328 21.4911 27.1089 21.6667 26.6668 21.6667C26.2248 21.6667 25.8009 21.4911 25.4883 21.1785C25.1758 20.8659 25.0002 20.442 25.0002 20C25.0002 19.558 25.1758 19.134 25.4883 18.8215C25.8009 18.5089 26.2248 18.3333 26.6668 18.3333ZM19.1668 8.33333C18.1573 8.33333 17.1821 8.69983 16.4225 9.36473C15.6629 10.0296 15.1705 10.9477 15.0368 11.9483C15.8445 11.7605 16.671 11.666 17.5002 11.6667H23.1285L23.2452 11.6383C23.0475 10.7033 22.5344 9.86456 21.7919 9.26284C21.0494 8.66111 20.1226 8.33294 19.1668 8.33333Z" fill="#68AB6E"/>
</svg>
