<svg width="132" height="132" viewBox="0 0 132 132" fill="none" xmlns="http://www.w3.org/2000/svg">
<g filter="url(#filter0_d_873_13933)">
<rect x="4" y="4" width="124" height="124" rx="62" fill="#FFE1E1"/>
<rect width="3.79149" height="3.79149" transform="translate(42.5684 25.8467)" fill="#E2E2E2"/>
<rect width="3.79149" height="3.79149" transform="translate(38.7764 29.6387)" fill="#E2E2E2"/>
<rect width="3.79149" height="3.79149" transform="translate(34.9854 33.4297)" fill="#E2E2E2"/>
<rect width="3.79149" height="3.79149" transform="translate(34.9854 37.2217)" fill="#E2E2E2"/>
<rect width="3.79149" height="3.79149" transform="translate(34.9854 41.0127)" fill="#E2E2E2"/>
<rect width="3.79149" height="3.79149" transform="translate(27.4023 48.5957)" fill="#E2E2E2"/>
<rect width="3.79149" height="3.79149" transform="translate(31.1934 48.5957)" fill="#E2E2E2"/>
<rect width="3.79149" height="3.79149" transform="translate(34.9854 49.4385)" fill="#E2E2E2"/>
<rect width="3.79149" height="3.79149" transform="translate(38.7764 46.4893)" fill="#E2E2E2"/>
<rect width="3.79149" height="3.79149" transform="translate(42.5684 46.4893)" fill="#E2E2E2"/>
<rect width="3.79149" height="3.79149" transform="translate(46.3594 46.4893)" fill="#E2E2E2"/>
<rect width="3.79149" height="3.79149" transform="translate(50.1514 49.4385)" fill="#E2E2E2"/>
<rect width="3.79149" height="3.79149" transform="translate(53.5215 52.8086)" fill="white"/>
<rect width="3.79149" height="3.79149" transform="translate(53.5215 56.1787)" fill="white"/>
<rect width="3.79149" height="3.79149" transform="translate(53.5215 59.9697)" fill="white"/>
<rect width="3.79149" height="3.79149" transform="translate(53.5215 63.7617)" fill="white"/>
<rect width="3.79149" height="3.79149" transform="translate(50.1514 66.7109)" fill="white"/>
<rect width="3.79149" height="3.79149" transform="translate(49.7295 68.8174)" fill="white"/>
<rect width="3.79149" height="3.79149" transform="translate(53.5215 68.8174)" fill="white"/>
<rect width="3.79149" height="3.79149" transform="translate(53.5215 67.5527)" fill="white"/>
<rect width="3.79149" height="3.79149" transform="translate(53.5215 72.6094)" fill="white"/>
<rect width="3.79149" height="3.79149" transform="translate(57.3125 72.6094)" fill="white"/>
<rect width="3.79149" height="11.7957" transform="translate(56.4697 63.3408)" fill="white"/>
<rect width="13.0596" height="4.63404" transform="translate(59.8408 70.9238)" fill="white"/>
<rect width="6.31915" height="11.7957" transform="translate(71.6357 62.498)" fill="white"/>
<rect width="3.79149" height="3.79149" transform="translate(60.6826 72.6094)" fill="white"/>
<rect width="3.79149" height="3.79149" transform="translate(68.2656 72.6094)" fill="white"/>
<rect width="3.79149" height="3.79149" transform="translate(72.0576 72.6094)" fill="white"/>
<rect width="3.79149" height="3.79149" transform="translate(75.4277 72.6094)" fill="white"/>
<rect width="3.79149" height="3.79149" transform="translate(83.0107 72.6094)" fill="white"/>
<rect width="3.79149" height="3.79149" transform="translate(83.0107 79.3496)" fill="white"/>
<rect width="3.79149" height="3.79149" transform="translate(53.5215 75.5566)" fill="white"/>
<rect width="3.79149" height="3.79149" transform="translate(57.3125 75.5566)" fill="white"/>
<rect width="3.79149" height="3.79149" transform="translate(68.2656 75.5566)" fill="white"/>
<rect width="3.79149" height="3.79149" transform="translate(60.6826 75.5566)" fill="white"/>
<rect width="3.79149" height="3.79149" transform="translate(72.0576 75.5566)" fill="white"/>
<rect width="3.79149" height="3.79149" transform="translate(83.0107 75.5566)" fill="white"/>
<rect width="3.79149" height="3.79149" transform="translate(75.4277 75.5566)" fill="white"/>
<rect width="3.79149" height="3.79149" transform="translate(83.0107 82.2988)" fill="white"/>
<rect width="3.79149" height="3.79149" transform="translate(27.8232 52.3877)" fill="#E2E2E2"/>
<rect width="3.79149" height="3.79149" transform="translate(27.8232 56.1787)" fill="#E2E2E2"/>
<rect width="3.79149" height="3.79149" transform="translate(27.4023 67.5527)" fill="white"/>
<rect width="3.79149" height="3.79149" transform="translate(31.1934 66.7109)" fill="white"/>
<rect width="3.79149" height="3.79149" transform="translate(34.5635 70.0811)" fill="white"/>
<rect width="3.79149" height="3.79149" transform="translate(38.3555 70.0811)" fill="white"/>
<rect width="3.79149" height="3.79149" transform="translate(42.1465 70.0811)" fill="white"/>
<rect width="3.79149" height="3.79149" transform="translate(45.9385 70.0811)" fill="white"/>
<rect width="3.79149" height="3.79149" transform="translate(45.9385 73.873)" fill="white"/>
<rect width="3.79149" height="3.79149" transform="translate(45.9385 77.6641)" fill="white"/>
<rect width="3.79149" height="3.79149" transform="translate(49.3086 80.1914)" fill="white"/>
<rect width="8.00426" height="6.74043" transform="translate(45.0957 81.0332)" fill="white"/>
<rect width="8.00426" height="6.74043" transform="translate(38.3555 81.0332)" fill="white"/>
<rect width="8.00426" height="6.74043" transform="translate(29.9297 89.8809)" fill="white"/>
<rect width="8.00426" height="6.74043" transform="translate(34.5635 102.52)" fill="white"/>
<rect width="5.4766" height="10.5319" transform="translate(40.4619 95.3574)" fill="white"/>
<rect width="5.4766" height="6.31915" transform="translate(44.2529 99.5703)" fill="white"/>
<rect width="8.84681" height="2.94894" transform="translate(49.7295 102.939)" fill="white"/>
<rect width="8.84681" height="2.94894" transform="translate(53.0996 86.0898)" fill="white"/>
<rect width="5.4766" height="6.31915" transform="translate(57.3125 99.9922)" fill="white"/>
<rect width="3.79149" height="3.79149" transform="translate(53.0996 83.1406)" fill="white"/>
<rect width="3.79149" height="3.79149" transform="translate(56.8916 83.1406)" fill="white"/>
<rect width="3.79149" height="3.79149" transform="translate(60.6826 83.1406)" fill="white"/>
<rect width="3.79149" height="3.79149" transform="translate(64.4746 83.1406)" fill="white"/>
<rect width="3.79149" height="3.79149" transform="translate(68.2656 83.1406)" fill="white"/>
<rect width="3.79149" height="3.79149" transform="translate(72.0576 83.1406)" fill="white"/>
<rect width="3.79149" height="3.79149" transform="translate(75.8486 83.1406)" fill="white"/>
<rect width="3.79149" height="3.79149" transform="translate(79.6406 83.1406)" fill="white"/>
<rect width="3.79149" height="3.79149" transform="translate(79.6406 80.1914)" fill="white"/>
<rect width="3.79149" height="3.79149" transform="translate(31.1934 70.502)" fill="white"/>
<rect width="3.79149" height="3.79149" transform="translate(31.1934 75.1367)" fill="white"/>
<rect width="3.79149" height="3.79149" transform="translate(31.1934 73.4512)" fill="white"/>
<rect width="3.79149" height="3.79149" transform="translate(32.457 73.4512)" fill="white"/>
<rect width="5.89787" height="5.89787" transform="translate(31.4043 76.4004)" fill="white"/>
<rect width="3.79149" height="3.79149" transform="translate(27.4023 71.3447)" fill="white"/>
<rect width="3.79149" height="3.79149" transform="translate(31.1934 78.9277)" fill="white"/>
<rect width="3.79149" height="3.79149" transform="translate(46.3594 25.8467)" fill="#E2E2E2"/>
<rect width="3.79149" height="3.79149" transform="translate(57.3125 30.4805)" fill="#E2E2E2"/>
<rect width="3.79149" height="3.79149" transform="translate(61.1045 30.4805)" fill="#E2E2E2"/>
<rect width="4.63404" height="4.63404" transform="translate(64.8955 33.0088)" fill="#E2E2E2"/>
<rect width="3.79149" height="3.79149" transform="translate(70.7939 30.4805)" fill="#E2E2E2"/>
<rect width="3.79149" height="3.79149" transform="translate(78.7979 39.749)" fill="#E2E2E2"/>
<rect width="3.79149" height="3.79149" transform="translate(75.4277 39.749)" fill="#E2E2E2"/>
<rect width="3.79149" height="3.79149" transform="translate(72.0576 37.2217)" fill="#E2E2E2"/>
<rect width="3.79149" height="3.79149" transform="translate(69.1084 36.3789)" fill="#E2E2E2"/>
<rect width="3.79149" height="3.79149" transform="translate(61.5254 36.7998)" fill="#E2E2E2"/>
<rect width="3.79149" height="3.79149" transform="translate(50.1514 29.6387)" fill="#E2E2E2"/>
<rect width="3.79149" height="3.79149" transform="translate(53.9424 29.6387)" fill="#E2E2E2"/>
<rect width="3.79149" height="3.79149" transform="translate(57.3125 26.6895)" fill="#E2E2E2"/>
<rect width="3.79149" height="3.79149" transform="translate(61.1045 29.6387)" fill="#E2E2E2"/>
<rect width="3.79149" height="3.79149" transform="translate(57.3125 33.4297)" fill="#E2E2E2"/>
<rect width="3.79149" height="3.79149" transform="translate(61.1045 33.4297)" fill="#E2E2E2"/>
<rect width="3.79149" height="3.79149" transform="translate(65.3174 36.3789)" fill="#E2E2E2"/>
<rect width="3.79149" height="3.79149" transform="translate(67.8447 30.0596)" fill="#E2E2E2"/>
<rect width="3.79149" height="3.79149" transform="translate(64.4746 30.0596)" fill="#E2E2E2"/>
<rect width="3.79149" height="3.79149" transform="translate(70.7939 33.4297)" fill="#E2E2E2"/>
<rect width="3.79149" height="3.79149" transform="translate(67.4238 33.4297)" fill="#E2E2E2"/>
<rect width="3.79149" height="3.79149" transform="translate(78.7979 42.6982)" fill="#E2E2E2"/>
<rect width="3.79149" height="3.79149" transform="translate(78.7979 46.0684)" fill="#E2E2E2"/>
<rect width="3.79149" height="3.79149" transform="translate(75.4277 42.6982)" fill="#E2E2E2"/>
<rect width="3.79149" height="3.79149" transform="translate(72.0576 40.1699)" fill="#E2E2E2"/>
<rect width="3.79149" height="3.79149" transform="translate(69.1084 39.3281)" fill="#E2E2E2"/>
<rect width="3.79149" height="3.79149" transform="translate(110.814 30.0596)" fill="#E2E2E2"/>
<rect width="3.79149" height="3.79149" transform="translate(93.1211 36.3789)" fill="#E2E2E2"/>
<rect width="3.79149" height="3.79149" transform="translate(93.1211 40.1699)" fill="#E2E2E2"/>
<rect width="3.79149" height="3.79149" transform="translate(93.1211 43.54)" fill="#E2E2E2"/>
<rect width="3.79149" height="3.79149" transform="translate(96.9131 46.4893)" fill="#E2E2E2"/>
<rect width="3.79149" height="3.79149" transform="translate(100.283 49.8594)" fill="#E2E2E2"/>
<rect width="3.79149" height="3.79149" transform="translate(96.9131 49.8594)" fill="#E2E2E2"/>
<rect width="3.79149" height="3.79149" transform="translate(93.543 46.9102)" fill="#E2E2E2"/>
<rect width="3.79149" height="3.79149" transform="translate(96.9131 52.3877)" fill="#E2E2E2"/>
<rect width="3.79149" height="3.79149" transform="translate(93.543 49.4385)" fill="#E2E2E2"/>
<rect width="3.79149" height="3.79149" transform="translate(88.9082 46.4893)" fill="#E2E2E2"/>
<rect width="3.79149" height="3.79149" transform="translate(91.0146 46.4893)" fill="#E2E2E2"/>
<rect width="3.79149" height="3.79149" transform="translate(89.3301 33.4297)" fill="#E2E2E2"/>
<rect width="3.79149" height="3.79149" transform="translate(82.168 36.7998)" fill="#E2E2E2"/>
<rect width="3.79149" height="3.79149" transform="translate(85.5381 36.7998)" fill="#E2E2E2"/>
<rect width="3.79149" height="3.79149" transform="translate(24.4531 23.7402)" fill="#E2E2E2"/>
<rect width="3.79149" height="3.79149" transform="translate(28.2451 23.7402)" fill="#E2E2E2"/>
<rect width="3.79149" height="3.79149" transform="translate(32.0361 23.7402)" fill="#E2E2E2"/>
<rect width="3.79149" height="3.79149" transform="translate(34.9854 23.7402)" fill="#E2E2E2"/>
<rect width="3.79149" height="3.79149" transform="translate(38.7764 23.7402)" fill="#E2E2E2"/>
<rect width="3.79149" height="3.79149" transform="translate(89.3301 36.7998)" fill="#E2E2E2"/>
<rect width="3.79149" height="3.79149" transform="translate(89.3301 23.7402)" fill="#E2E2E2"/>
<rect width="3.79149" height="3.79149" transform="translate(93.1211 23.7402)" fill="#E2E2E2"/>
<rect width="3.79149" height="3.79149" transform="translate(96.9131 23.7402)" fill="#E2E2E2"/>
<rect width="3.79149" height="3.79149" transform="translate(100.704 23.7402)" fill="#E2E2E2"/>
<rect width="3.79149" height="3.79149" transform="translate(104.074 23.7402)" fill="#E2E2E2"/>
<rect width="3.79149" height="3.79149" transform="translate(85.5381 27.1104)" fill="#E2E2E2"/>
<rect width="3.79149" height="3.79149" transform="translate(82.168 40.1699)" fill="#E2E2E2"/>
<rect width="3.79149" height="3.79149" transform="translate(78.377 30.0596)" fill="#E2E2E2"/>
<rect width="3.79149" height="3.79149" transform="translate(74.585 30.0596)" fill="#E2E2E2"/>
<rect width="3.79149" height="3.79149" transform="translate(85.5381 40.1699)" fill="#E2E2E2"/>
<rect width="3.79149" height="3.79149" transform="translate(24.4531 29.6387)" fill="#E2E2E2"/>
<rect width="3.79149" height="3.79149" transform="translate(28.2451 29.6387)" fill="#E2E2E2"/>
<rect width="3.79149" height="3.79149" transform="translate(32.0361 29.6387)" fill="#E2E2E2"/>
<rect width="3.79149" height="3.79149" transform="translate(31.6152 33.0088)" fill="#E2E2E2"/>
<rect width="3.79149" height="3.79149" transform="translate(89.3301 42.6982)" fill="#E2E2E2"/>
<rect width="3.79149" height="3.79149" transform="translate(34.9854 29.6387)" fill="#E2E2E2"/>
<rect width="3.79149" height="3.79149" transform="translate(89.3301 29.6387)" fill="#E2E2E2"/>
<rect width="3.79149" height="3.79149" transform="translate(93.1211 29.6387)" fill="#E2E2E2"/>
<rect width="3.79149" height="3.79149" transform="translate(93.1211 33.0088)" fill="#E2E2E2"/>
<rect width="3.79149" height="3.79149" transform="translate(96.9131 29.6387)" fill="#E2E2E2"/>
<rect width="3.79149" height="3.79149" transform="translate(85.5381 33.0088)" fill="#E2E2E2"/>
<rect width="3.79149" height="3.79149" transform="translate(82.168 33.0088)" fill="#E2E2E2"/>
<rect width="3.79149" height="3.79149" transform="translate(82.168 46.4893)" fill="#E2E2E2"/>
<rect width="3.79149" height="3.79149" transform="translate(78.377 35.957)" fill="#E2E2E2"/>
<rect width="3.79149" height="3.79149" transform="translate(74.585 35.957)" fill="#E2E2E2"/>
<rect width="3.79149" height="3.79149" transform="translate(85.5381 46.4893)" fill="#E2E2E2"/>
<rect width="3.79149" height="3.79149" transform="translate(24.4531 27.1104)" fill="#E2E2E2"/>
<rect width="3.79149" height="3.79149" transform="translate(28.2451 27.1104)" fill="#E2E2E2"/>
<rect width="3.79149" height="3.79149" transform="translate(32.0361 27.1104)" fill="#E2E2E2"/>
<rect width="3.79149" height="3.79149" transform="translate(89.3301 40.1699)" fill="#E2E2E2"/>
<rect width="3.79149" height="3.79149" transform="translate(34.9854 27.1104)" fill="#E2E2E2"/>
<rect width="3.79149" height="3.79149" transform="translate(38.7764 27.1104)" fill="#E2E2E2"/>
<rect width="3.79149" height="3.79149" transform="translate(89.3301 27.1104)" fill="#E2E2E2"/>
<rect width="3.79149" height="3.79149" transform="translate(93.1211 27.1104)" fill="#E2E2E2"/>
<rect width="3.79149" height="3.79149" transform="translate(96.9131 27.1104)" fill="#E2E2E2"/>
<rect width="3.79149" height="3.79149" transform="translate(100.704 27.1104)" fill="#E2E2E2"/>
<rect width="3.79149" height="3.79149" transform="translate(104.074 27.1104)" fill="#E2E2E2"/>
<rect width="3.79149" height="3.79149" transform="translate(107.444 27.1104)" fill="#E2E2E2"/>
<rect width="3.79149" height="3.79149" transform="translate(85.5381 30.4805)" fill="#E2E2E2"/>
<rect width="3.79149" height="3.79149" transform="translate(82.168 30.4805)" fill="#E2E2E2"/>
<rect width="3.79149" height="3.79149" transform="translate(82.168 43.54)" fill="#E2E2E2"/>
<rect width="3.79149" height="3.79149" transform="translate(78.377 33.4297)" fill="#E2E2E2"/>
<rect width="3.79149" height="3.79149" transform="translate(74.585 33.4297)" fill="#E2E2E2"/>
<rect width="3.79149" height="3.79149" transform="translate(85.5381 43.54)" fill="#E2E2E2"/>
<rect width="3.79149" height="3.79149" transform="translate(21.083 26.6895)" fill="#E2E2E2"/>
<rect width="3.79149" height="3.79149" transform="translate(21.083 29.6387)" fill="#E2E2E2"/>
<rect width="3.79149" height="3.79149" transform="translate(17.291 29.6387)" fill="#E2E2E2"/>
<rect width="3.79149" height="3.79149" transform="translate(17.291 33.4297)" fill="#E2E2E2"/>
<rect width="3.79149" height="3.79149" transform="translate(95.6494 82.7188)" fill="#E2E2E2"/>
<rect width="3.79149" height="3.79149" transform="translate(31.1934 82.2988)" fill="#E2E2E2"/>
<rect width="3.79149" height="3.79149" transform="translate(34.9854 82.2988)" fill="white"/>
<rect width="3.79149" height="3.79149" transform="translate(64.0527 67.1318)" fill="#E2E2E2"/>
<rect width="3.79149" height="3.79149" transform="translate(60.2617 63.3408)" fill="#E2E2E2"/>
<rect width="3.79149" height="3.79149" transform="translate(49.7295 76.4004)" fill="#E2E2E2"/>
<rect width="3.79149" height="3.79149" transform="translate(79.2188 76.4004)" fill="#E2E2E2"/>
<rect width="3.79149" height="3.79149" transform="translate(75.8486 79.3496)" fill="#E2E2E2"/>
<rect width="3.79149" height="3.79149" transform="translate(53.0996 79.3496)" fill="#E2E2E2"/>
<rect width="3.79149" height="3.79149" transform="translate(67.8447 63.3408)" fill="#E2E2E2"/>
<rect width="3.79149" height="3.79149" transform="translate(31.1934 86.0898)" fill="white"/>
<rect width="3.79149" height="3.79149" transform="translate(27.4023 89.8809)" fill="white"/>
<rect width="3.79149" height="3.79149" transform="translate(95.6494 86.0898)" fill="white"/>
<rect width="3.79149" height="3.79149" transform="translate(91.8574 82.2988)" fill="white"/>
<rect width="3.79149" height="3.79149" transform="translate(95.6494 78.9277)" fill="white"/>
<rect width="3.79149" height="3.79149" transform="translate(99.4404 67.5527)" fill="white"/>
<rect width="3.79149" height="3.79149" transform="translate(97.334 66.7109)" fill="white"/>
<rect width="3.79149" height="3.79149" transform="translate(95.6494 70.0811)" fill="white"/>
<rect width="3.79149" height="3.79149" transform="translate(91.8574 70.0811)" fill="white"/>
<rect width="3.79149" height="3.79149" transform="translate(88.0664 70.0811)" fill="white"/>
<rect width="3.79149" height="3.79149" transform="translate(86.8018 70.0811)" fill="white"/>
<rect width="9.68936" height="9.68936" transform="translate(86.3809 72.6094)" fill="white"/>
<rect width="9.68936" height="9.68936" transform="translate(83.0107 82.2988)" fill="white"/>
<rect width="9.68936" height="9.68936" transform="translate(78.7979 86.0898)" fill="white"/>
<rect width="10.5319" height="10.5319" transform="translate(60.6826 85.2461)" fill="white"/>
<rect width="5.05532" height="3.79149" transform="translate(56.8916 88.6172)" fill="white"/>
<rect width="10.5319" height="10.5319" transform="translate(42.5684 85.2461)" fill="white"/>
<rect width="10.5319" height="10.5319" transform="translate(34.9854 85.2461)" fill="white"/>
<rect width="3.79149" height="3.79149" transform="translate(42.1465 36.7998)" fill="#E2E2E2"/>
<rect width="3.79149" height="3.79149" transform="translate(38.7764 36.7998)" fill="#E2E2E2"/>
<rect width="3.79149" height="3.79149" transform="translate(44.2529 36.7998)" fill="#E2E2E2"/>
<rect width="3.79149" height="3.79149" transform="translate(38.7764 40.5918)" fill="#E2E2E2"/>
<rect width="3.79149" height="3.79149" transform="translate(42.5684 40.5918)" fill="#E2E2E2"/>
<rect width="3.79149" height="3.79149" transform="translate(43.832 40.5918)" fill="#E2E2E2"/>
<rect width="3.79149" height="3.79149" transform="translate(39.6191 43.1191)" fill="#E2E2E2"/>
<rect width="3.79149" height="3.79149" transform="translate(43.4102 43.1191)" fill="#E2E2E2"/>
<rect width="5.05532" height="5.05532" transform="translate(34.5635 44.3828)" fill="#E2E2E2"/>
<rect width="2.94894" height="2.94894" transform="translate(54.7852 36.7998)" fill="#E2E2E2"/>
<rect width="6.31915" height="6.31915" transform="translate(48.4658 45.6465)" fill="#E2E2E2"/>
<rect width="6.31915" height="6.31915" transform="translate(55.6279 41.0127)" fill="#E2E2E2"/>
<rect width="8.00426" height="8.00426" transform="translate(52.8896 44.8047)" fill="#E2E2E2"/>
<rect width="5.4766" height="5.4766" transform="translate(56.8916 48.5957)" fill="#E2E2E2"/>
<g clip-path="url(#clip0_873_13933)">
<rect width="10.5319" height="10.5319" transform="translate(60.2617 43.54)" fill="white"/>
<rect width="3.79149" height="3.79149" transform="translate(63.6318 48.5957)" fill="#E2E2E2"/>
<rect width="9.68936" height="9.68936" transform="translate(61.9473 43.1191)" fill="#E2E2E2"/>
<rect width="3.79149" height="3.79149" transform="translate(63.6318 42.6973)" fill="#E2E2E2"/>
<rect width="3.79149" height="3.79149" transform="translate(67.4238 42.6973)" fill="#E2E2E2"/>
<rect width="3.79149" height="3.79149" transform="translate(59.8408 43.1191)" fill="#E2E2E2"/>
<rect width="3.79149" height="3.79149" transform="translate(59.8408 46.4893)" fill="#E2E2E2"/>
<rect width="3.79149" height="3.79149" transform="translate(59.8408 50.2803)" fill="#E2E2E2"/>
</g>
<rect width="3.79149" height="3.79149" transform="translate(63.6318 51.9658)" fill="#E2E2E2"/>
<rect width="3.79149" height="3.79149" transform="translate(63.6318 55.7578)" fill="#E2E2E2"/>
<rect width="3.79149" height="3.79149" transform="translate(63.6318 59.5488)" fill="white"/>
<g clip-path="url(#clip1_873_13933)">
<rect width="6.31915" height="6.31915" transform="translate(57.3125 54.0723)" fill="white"/>
<rect width="3.79149" height="3.79149" transform="translate(60.2617 53.2295)" fill="#E2E2E2"/>
</g>
<rect width="6.31915" height="6.31915" transform="translate(57.3125 57.0215)" fill="white"/>
<g clip-path="url(#clip2_873_13933)">
<rect width="10.5319" height="10.5319" transform="translate(67.4238 52.8086)" fill="white"/>
<rect width="3.79149" height="11.7957" transform="translate(67.0029 45.2256)" fill="#E2E2E2"/>
</g>
<rect width="10.9532" height="17.6936" transform="translate(76.2705 54.915)" fill="white"/>
<rect width="29.9106" height="22.7489" transform="translate(69.5293 86.9316)" fill="white"/>
<rect width="5.05532" height="6.74043" transform="translate(69.1084 46.9102)" fill="#E2E2E2"/>
<rect width="5.4766" height="5.4766" transform="translate(74.585 46.9102)" fill="#E2E2E2"/>
<rect width="5.4766" height="5.4766" transform="translate(72.0576 46.9102)" fill="#E2E2E2"/>
<rect width="3.79149" height="0.421277" transform="translate(74.1641 52.3877)" fill="white"/>
<g clip-path="url(#clip3_873_13933)">
<rect width="0.842553" height="6.31915" transform="translate(77.9551 49.4385)" fill="white"/>
<rect width="5.4766" height="5.4766" transform="translate(73.7422 46.9111)" fill="#E2E2E2"/>
</g>
<rect width="10.5319" height="10.5319" transform="translate(35.4062 72.6094)" fill="white"/>
<rect width="10.5319" height="10.5319" transform="translate(31.1934 94.5156)" fill="white"/>
<rect width="10.5319" height="10.5319" transform="translate(60.6826 95.3574)" fill="white"/>
<rect width="9.68936" height="9.68936" transform="translate(85.96 85.668)" fill="white"/>
<rect width="9.68936" height="9.68936" transform="translate(85.96 94.5156)" fill="white"/>
<rect width="9.68936" height="9.68936" transform="translate(89.751 89.8809)" fill="white"/>
<rect width="3.79149" height="3.79149" transform="translate(95.6494 73.873)" fill="white"/>
<rect width="3.79149" height="3.79149" transform="translate(95.6494 75.5566)" fill="white"/>
<rect width="3.79149" height="3.79149" transform="translate(99.4404 71.3447)" fill="white"/>
<rect width="3.79149" height="3.79149" transform="translate(100.283 56.1787)" fill="#E2E2E2"/>
<rect width="3.79149" height="3.79149" transform="translate(100.704 59.9697)" fill="white"/>
<rect width="3.79149" height="3.79149" transform="translate(100.704 63.7617)" fill="white"/>
<rect width="3.79149" height="3.79149" transform="translate(27.4023 93.6719)" fill="white"/>
<rect width="3.79149" height="3.79149" transform="translate(99.4404 93.6719)" fill="white"/>
<rect width="3.79149" height="3.79149" transform="translate(27.4023 97.4629)" fill="white"/>
<rect width="3.79149" height="3.79149" transform="translate(99.4404 97.4629)" fill="white"/>
<rect width="3.79149" height="3.79149" transform="translate(99.4404 101.256)" fill="white"/>
<rect width="3.79149" height="3.79149" transform="translate(31.1934 105.047)" fill="white"/>
<rect width="3.79149" height="3.79149" transform="translate(95.6494 105.047)" fill="white"/>
<rect width="3.79149" height="3.79149" transform="translate(23.6104 48.5957)" fill="#E2E2E2"/>
<rect width="3.79149" height="3.79149" transform="translate(42.5684 29.6387)" fill="#E2E2E2"/>
<rect width="3.79149" height="3.79149" transform="translate(38.7764 33.4297)" fill="#E2E2E2"/>
<rect width="3.79149" height="3.79149" transform="translate(46.3594 33.4297)" fill="#E2E2E2"/>
<rect width="3.79149" height="3.79149" transform="translate(46.3594 29.6387)" fill="#E2E2E2"/>
<rect width="3.79149" height="3.79149" transform="translate(42.5684 33.4297)" fill="#E2E2E2"/>
<rect width="3.79149" height="3.79149" transform="translate(50.1514 33.4297)" fill="#E2E2E2"/>
<rect width="3.79149" height="3.79149" transform="translate(53.9424 33.4297)" fill="#E2E2E2"/>
<rect width="3.79149" height="3.79149" transform="translate(57.7344 37.2217)" fill="#E2E2E2"/>
<rect width="3.79149" height="3.79149" transform="translate(48.0449 37.2217)" fill="#E2E2E2"/>
<rect width="3.79149" height="3.79149" transform="translate(51.8359 37.2217)" fill="#E2E2E2"/>
<rect width="3.79149" height="3.79149" transform="translate(47.623 40.5918)" fill="#E2E2E2"/>
<rect width="3.79149" height="3.79149" transform="translate(46.3594 43.54)" fill="#E2E2E2"/>
<rect width="3.79149" height="3.79149" transform="translate(50.1514 43.1191)" fill="#E2E2E2"/>
<rect width="3.79149" height="3.79149" transform="translate(51.415 40.5918)" fill="#E2E2E2"/>
<rect width="3.79149" height="3.79149" transform="translate(52.2578 41.4336)" fill="#E2E2E2"/>
<rect width="3.79149" height="3.79149" transform="translate(54.3643 38.9062)" fill="#E2E2E2"/>
<rect width="3.79149" height="3.79149" transform="translate(61.5254 40.1699)" fill="#E2E2E2"/>
<rect width="3.79149" height="3.79149" transform="translate(65.3174 40.1699)" fill="#E2E2E2"/>
<rect width="3.79149" height="3.79149" transform="translate(69.1084 43.1191)" fill="#E2E2E2"/>
<rect width="3.79149" height="3.79149" transform="translate(71.6357 43.1191)" fill="#E2E2E2"/>
<rect width="3.79149" height="3.79149" transform="translate(75.4277 46.4893)" fill="#E2E2E2"/>
<rect width="3.37021" height="3.79149" transform="translate(78.7979 49.4385)" fill="#E2E2E2"/>
<rect width="3.79149" height="3.79149" transform="translate(27.8232 44.8037)" fill="white"/>
<rect width="3.79149" height="3.79149" transform="translate(27.4014 42.2764)" fill="white"/>
<rect width="3.79149" height="3.79149" transform="translate(31.1934 42.6973)" fill="white"/>
<rect width="3.79149" height="3.79149" transform="translate(38.7764 50.2803)" fill="#DADADA"/>
<rect width="3.79149" height="3.79149" transform="translate(35.4062 53.2295)" fill="#DADADA"/>
<rect width="3.79149" height="3.79149" transform="translate(21.082 36.7998)" fill="white"/>
<rect width="3.79149" height="3.79149" transform="translate(17.291 39.749)" fill="white"/>
<rect width="3.79149" height="3.79149" transform="translate(21.082 40.1699)" fill="white"/>
<rect width="3.79149" height="3.79149" transform="translate(24.874 40.1699)" fill="white"/>
<rect width="3.79149" height="3.79149" transform="translate(24.874 43.1191)" fill="white"/>
<rect width="3.79149" height="3.79149" transform="translate(28.2441 40.1699)" fill="white"/>
<rect width="3.79149" height="3.79149" transform="translate(21.082 43.1191)" fill="white"/>
<rect width="3.79149" height="3.79149" transform="translate(24.874 36.7998)" fill="white"/>
<rect width="3.79149" height="3.79149" transform="translate(28.2441 36.7998)" fill="white"/>
<rect width="3.79149" height="3.79149" transform="translate(35.4062 56.1787)" fill="#DADADA"/>
<rect width="3.79149" height="3.79149" transform="translate(35.4062 59.5488)" fill="#DADADA"/>
<rect width="3.79149" height="3.79149" transform="translate(39.1973 59.5488)" fill="#DADADA"/>
<rect width="3.79149" height="3.79149" transform="translate(39.1973 62.9189)" fill="#DADADA"/>
<rect width="3.79149" height="3.79149" transform="translate(46.3594 59.5488)" fill="#DADADA"/>
<rect width="3.79149" height="3.79149" transform="translate(46.3594 62.9189)" fill="#DADADA"/>
<rect width="3.79149" height="3.79149" transform="translate(42.9893 62.9189)" fill="#DADADA"/>
<rect width="3.79149" height="3.79149" transform="translate(31.6143 56.1787)" fill="#DADADA"/>
<rect width="3.79149" height="3.79149" transform="translate(31.6143 59.5488)" fill="#DADADA"/>
<rect width="3.79149" height="3.79149" transform="translate(31.6143 62.9189)" fill="#DADADA"/>
<rect width="3.79149" height="3.79149" transform="translate(42.5674 66.2891)" fill="#DADADA"/>
<rect width="3.79149" height="3.79149" transform="translate(34.9844 66.2891)" fill="#DADADA"/>
<rect width="3.79149" height="3.79149" transform="translate(42.5674 50.2803)" fill="#DADADA"/>
<rect width="3.79149" height="3.79149" transform="translate(46.3594 50.2803)" fill="#DADADA"/>
<rect width="3.79149" height="3.79149" transform="translate(49.7295 53.2295)" fill="#DADADA"/>
<rect width="3.79149" height="3.79149" transform="translate(49.7295 56.5996)" fill="#DADADA"/>
<rect width="3.79149" height="3.79149" transform="translate(49.7295 59.5488)" fill="#DADADA"/>
<rect width="3.79149" height="3.79149" transform="translate(49.7295 62.9189)" fill="#DADADA"/>
<rect width="3.79149" height="3.79149" transform="translate(39.1973 53.2295)" fill="#DADADA"/>
<rect width="3.79149" height="3.79149" transform="translate(46.3594 66.2891)" fill="#DADADA"/>
<rect width="3.79149" height="3.79149" transform="translate(38.7764 66.2891)" fill="#DADADA"/>
<rect width="3.79149" height="3.79149" transform="translate(35.4062 62.9189)" fill="white"/>
<rect width="3.79149" height="3.79149" transform="translate(39.1973 56.1787)" fill="white"/>
<rect width="3.79149" height="3.79149" transform="translate(42.9893 56.1787)" fill="white"/>
<rect width="3.79149" height="3.79149" transform="translate(42.9893 59.5488)" fill="white"/>
<rect width="3.79149" height="3.79149" transform="translate(42.9893 53.6504)" fill="white"/>
<rect width="3.79149" height="3.79149" transform="translate(46.3594 53.6504)" fill="white"/>
<rect width="3.79149" height="3.79149" transform="translate(46.3594 56.1787)" fill="white"/>
<rect width="3.79149" height="3.79149" transform="translate(31.1934 44.8047)" fill="#E2E2E2"/>
<rect width="3.79149" height="3.79149" transform="translate(31.6152 52.3877)" fill="#E2E2E2"/>
<rect width="3.79149" height="3.79149" transform="translate(27.8232 59.9697)" fill="white"/>
<rect width="3.79149" height="3.79149" transform="translate(26.9805 59.9697)" fill="white"/>
<rect width="3.79149" height="3.79149" transform="translate(27.8232 63.7617)" fill="white"/>
<rect width="3.79149" height="3.79149" transform="translate(26.5596 63.7617)" fill="white"/>
<rect width="3.79149" height="3.79149" transform="translate(17.291 36.3789)" fill="#DADADA"/>
<rect width="3.79149" height="3.79149" transform="translate(13.5 26.6895)" fill="#DADADA"/>
<rect width="3.79149" height="3.79149" transform="translate(17.291 22.8975)" fill="#DADADA"/>
<rect width="3.79149" height="3.79149" transform="translate(20.6621 20.3701)" fill="#DADADA"/>
<rect width="3.79149" height="3.79149" transform="translate(24.4531 17)" fill="#DADADA"/>
<rect width="3.79149" height="3.79149" transform="translate(28.2451 17)" fill="#DADADA"/>
<rect width="3.79149" height="3.79149" transform="translate(32.0361 17)" fill="#DADADA"/>
<rect width="3.79149" height="3.79149" transform="translate(35.8281 17)" fill="#DADADA"/>
<rect width="3.79149" height="3.79149" transform="translate(38.7764 17)" fill="#DADADA"/>
<rect width="3.79149" height="3.79149" transform="translate(42.1465 20.3701)" fill="#DADADA"/>
<rect width="3.79149" height="3.79149" transform="translate(56.8916 20.3701)" fill="#DADADA"/>
<rect width="3.79149" height="3.79149" transform="translate(50.1514 23.7402)" fill="#DADADA"/>
<rect width="3.79149" height="3.79149" transform="translate(53.5215 23.7402)" fill="#DADADA"/>
<rect width="3.79149" height="3.79149" transform="translate(60.6826 23.7402)" fill="#DADADA"/>
<rect width="3.79149" height="3.79149" transform="translate(67.8447 23.7402)" fill="#DADADA"/>
<rect width="3.79149" height="3.79149" transform="translate(75.4277 23.7402)" fill="#DADADA"/>
<rect width="3.79149" height="3.79149" transform="translate(79.2188 23.7402)" fill="#DADADA"/>
<rect width="3.79149" height="3.79149" transform="translate(82.168 20.3701)" fill="#DADADA"/>
<rect width="3.79149" height="3.79149" transform="translate(85.96 20.3701)" fill="#DADADA"/>
<rect width="3.79149" height="3.79149" transform="translate(64.0527 20.3701)" fill="#DADADA"/>
<rect width="3.79149" height="3.79149" transform="translate(71.6357 20.3701)" fill="#DADADA"/>
<rect width="3.79149" height="3.79149" transform="translate(45.9385 20.3701)" fill="#DADADA"/>
<rect width="3.79149" height="3.79149" transform="translate(13.5 30.4805)" fill="#DADADA"/>
<rect width="3.79149" height="3.79149" transform="translate(13.5 34.2725)" fill="#DADADA"/>
<rect width="3.79149" height="3.79149" transform="translate(13.5 38.0635)" fill="#DADADA"/>
<rect width="3.79149" height="3.79149" transform="translate(13.5 39.749)" fill="#DADADA"/>
<rect width="3.79149" height="3.79149" transform="translate(21.083 33.0088)" fill="#DADADA"/>
<rect width="3.79149" height="3.79149" transform="translate(24.874 33.0088)" fill="#DADADA"/>
<rect width="3.79149" height="3.79149" transform="translate(27.8232 33.0088)" fill="#DADADA"/>
<rect width="3.79149" height="3.79149" transform="translate(31.6152 36.7998)" fill="#DADADA"/>
<rect width="3.79149" height="3.79149" transform="translate(96.9131 36.7998)" fill="#DADADA"/>
<rect width="3.79149" height="3.79149" transform="translate(100.283 33.0088)" fill="#DADADA"/>
<rect width="3.79149" height="3.79149" transform="translate(104.074 33.0088)" fill="#DADADA"/>
<rect width="3.79149" height="3.79149" transform="translate(107.444 33.0088)" fill="#DADADA"/>
<rect width="3.79149" height="3.79149" transform="translate(111.236 36.3789)" fill="#DADADA"/>
<rect width="3.79149" height="3.79149" transform="translate(107.866 49.8594)" fill="#DADADA"/>
<rect width="3.79149" height="3.79149" transform="translate(104.496 46.0684)" fill="#DADADA"/>
<rect width="3.79149" height="3.79149" transform="translate(107.866 46.0684)" fill="#DADADA"/>
<rect width="3.79149" height="3.79149" transform="translate(110.814 43.1191)" fill="#DADADA"/>
<rect width="3.79149" height="3.79149" transform="translate(114.606 40.1699)" fill="#DADADA"/>
<rect width="3.79149" height="3.79149" transform="translate(114.606 36.3789)" fill="#DADADA"/>
<rect width="3.79149" height="3.79149" transform="translate(114.606 32.5869)" fill="#DADADA"/>
<rect width="3.79149" height="3.79149" transform="translate(114.606 28.7959)" fill="#DADADA"/>
<rect width="3.79149" height="3.79149" transform="translate(114.606 26.6895)" fill="#DADADA"/>
<rect width="3.79149" height="3.79149" transform="translate(110.814 22.8975)" fill="#DADADA"/>
<rect width="3.79149" height="3.79149" transform="translate(107.444 20.3701)" fill="#DADADA"/>
<rect width="3.79149" height="3.79149" transform="translate(103.653 17)" fill="#DADADA"/>
<rect width="3.79149" height="3.79149" transform="translate(99.8613 17)" fill="#DADADA"/>
<rect width="3.79149" height="3.79149" transform="translate(96.0703 17)" fill="#DADADA"/>
<rect width="3.79149" height="3.79149" transform="translate(92.2783 17)" fill="#DADADA"/>
<rect width="3.79149" height="3.79149" transform="translate(89.3301 17)" fill="#DADADA"/>
<rect width="3.79149" height="3.79149" transform="translate(31.6152 38.9062)" fill="#DADADA"/>
<rect width="3.79149" height="3.79149" transform="translate(96.9131 38.9062)" fill="#DADADA"/>
<rect width="3.79149" height="3.79149" transform="translate(17.291 43.54)" fill="#DADADA"/>
<rect width="3.79149" height="3.79149" transform="translate(20.2402 46.9102)" fill="#DADADA"/>
<rect width="3.79149" height="3.79149" transform="translate(20.2402 49.8594)" fill="#DADADA"/>
<rect width="3.79149" height="3.79149" transform="translate(24.0322 52.3877)" fill="#DADADA"/>
<rect width="3.79149" height="3.79149" transform="translate(21.083 59.9697)" fill="#DADADA"/>
<rect width="3.79149" height="3.79149" transform="translate(21.083 67.1318)" fill="#DADADA"/>
<rect width="3.79149" height="3.79149" transform="translate(21.083 72.1875)" fill="#DADADA"/>
<rect width="3.79149" height="3.79149" transform="translate(23.6104 67.5527)" fill="#DADADA"/>
<rect width="3.79149" height="3.79149" transform="translate(24.0322 56.1787)" fill="#DADADA"/>
<rect width="3.79149" height="3.79149" transform="translate(21.083 63.7617)" fill="#DADADA"/>
<rect width="3.79149" height="3.79149" transform="translate(21.083 70.9238)" fill="#DADADA"/>
<rect width="3.79149" height="3.79149" transform="translate(21.083 75.9785)" fill="#DADADA"/>
<rect width="3.79149" height="3.79149" transform="translate(24.4531 75.1367)" fill="#DADADA"/>
<rect width="3.79149" height="3.79149" transform="translate(24.4531 82.2988)" fill="#DADADA"/>
<rect width="3.79149" height="3.79149" transform="translate(21.083 93.6719)" fill="#DADADA"/>
<rect width="3.79149" height="3.79149" transform="translate(24.4531 78.5059)" fill="#DADADA"/>
<rect width="3.79149" height="3.79149" transform="translate(21.083 89.8809)" fill="#DADADA"/>
<rect width="3.79149" height="3.79149" transform="translate(24.4531 86.0898)" fill="#DADADA"/>
<rect width="3.79149" height="3.79149" transform="translate(21.083 97.4629)" fill="#DADADA"/>
<rect width="3.79149" height="3.79149" transform="translate(21.083 99.1484)" fill="#DADADA"/>
<rect width="3.79149" height="3.79149" transform="translate(13.5 69.6592)" fill="#DADADA"/>
<rect width="3.79149" height="3.79149" transform="translate(17.291 69.6592)" fill="#DADADA"/>
<rect width="3.79149" height="3.79149" transform="translate(24.0322 46.9102)" fill="#DADADA"/>
<rect width="3.79149" height="3.79149" transform="translate(23.6104 59.9697)" fill="white"/>
<rect width="3.79149" height="3.79149" transform="translate(23.6104 63.7617)" fill="white"/>
<rect width="3.79149" height="3.79149" transform="translate(23.6104 71.3447)" fill="white"/>
<rect width="3.79149" height="3.79149" transform="translate(27.4023 75.1367)" fill="white"/>
<rect width="3.79149" height="3.79149" transform="translate(27.4023 78.9277)" fill="#E2E2E2"/>
<rect width="3.79149" height="3.79149" transform="translate(27.4023 82.7188)" fill="#E2E2E2"/>
<rect width="3.79149" height="3.79149" transform="translate(27.4023 86.0898)" fill="#E2E2E2"/>
<rect width="3.79149" height="3.79149" transform="translate(23.6104 89.8809)" fill="#E2E2E2"/>
<rect width="3.79149" height="3.79149" transform="translate(23.6104 95.7793)" fill="#E2E2E2"/>
<rect width="3.79149" height="3.79149" transform="translate(23.6104 93.252)" fill="#E2E2E2"/>
<rect width="3.79149" height="3.79149" transform="translate(23.6104 99.1484)" fill="#E2E2E2"/>
<rect width="3.79149" height="3.79149" transform="translate(24.874 102.939)" fill="#DADADA"/>
<rect width="3.79149" height="3.79149" transform="translate(24.874 105.047)" fill="#DADADA"/>
<rect width="3.79149" height="3.79149" transform="translate(21.083 108.838)" fill="#DADADA"/>
<rect width="3.79149" height="3.79149" transform="translate(24.874 112.209)" fill="#DADADA"/>
<rect width="3.79149" height="3.79149" transform="translate(93.543 112.209)" fill="#DADADA"/>
<rect width="3.79149" height="3.79149" transform="translate(28.666 112.209)" fill="#DADADA"/>
<rect width="3.79149" height="3.79149" transform="translate(97.334 112.209)" fill="#DADADA"/>
<rect width="3.79149" height="3.79149" transform="translate(32.457 112.209)" fill="#DADADA"/>
<rect width="3.79149" height="3.79149" transform="translate(101.126 112.209)" fill="#DADADA"/>
<rect width="3.79149" height="3.79149" transform="translate(35.4062 112.209)" fill="#DADADA"/>
<rect width="3.79149" height="3.79149" transform="translate(104.074 112.209)" fill="#DADADA"/>
<rect width="3.79149" height="3.79149" transform="translate(105.76 108.838)" fill="#DADADA"/>
<rect width="3.79149" height="3.79149" transform="translate(103.231 105.047)" fill="#DADADA"/>
<rect width="3.79149" height="3.79149" transform="translate(103.231 102.52)" fill="#DADADA"/>
<rect width="3.79149" height="3.79149" transform="translate(103.231 102.52)" fill="#DADADA"/>
<rect width="3.79149" height="3.79149" transform="translate(105.76 99.1484)" fill="#DADADA"/>
<rect width="3.79149" height="3.79149" transform="translate(102.811 86.5098)" fill="#DADADA"/>
<rect width="3.79149" height="3.79149" transform="translate(105.76 95.7793)" fill="#DADADA"/>
<rect width="3.79149" height="3.79149" transform="translate(102.811 83.1406)" fill="#DADADA"/>
<rect width="3.79149" height="3.79149" transform="translate(105.76 92.8301)" fill="#DADADA"/>
<rect width="3.79149" height="3.79149" transform="translate(102.811 80.1914)" fill="#DADADA"/>
<rect width="3.79149" height="3.79149" transform="translate(105.76 89.8809)" fill="#DADADA"/>
<rect width="3.79149" height="3.79149" transform="translate(102.811 77.2422)" fill="#DADADA"/>
<rect width="3.79149" height="3.79149" transform="translate(102.811 75.1367)" fill="#DADADA"/>
<rect width="3.79149" height="3.79149" transform="translate(106.603 75.1367)" fill="#DADADA"/>
<rect width="3.79149" height="3.79149" transform="translate(104.917 71.3447)" fill="#DADADA"/>
<rect width="3.79149" height="3.79149" transform="translate(103.231 67.5527)" fill="#DADADA"/>
<rect width="3.79149" height="3.79149" transform="translate(104.917 63.7617)" fill="#DADADA"/>
<rect width="3.79149" height="3.79149" transform="translate(104.917 59.9697)" fill="#DADADA"/>
<rect width="3.79149" height="3.79149" transform="translate(107.023 69.6592)" fill="#DADADA"/>
<rect width="3.79149" height="3.79149" transform="translate(110.814 69.6592)" fill="#DADADA"/>
<rect width="3.79149" height="3.79149" transform="translate(114.606 69.6592)" fill="#DADADA"/>
<rect width="3.79149" height="3.79149" transform="translate(104.074 56.1787)" fill="#DADADA"/>
<rect width="3.79149" height="3.79149" transform="translate(104.074 53.2295)" fill="#DADADA"/>
<rect width="3.79149" height="3.79149" transform="translate(101.968 105.047)" fill="#DADADA"/>
<rect width="3.79149" height="3.79149" transform="translate(27.4023 105.047)" fill="#E2E2E2"/>
<rect width="3.79149" height="3.79149" transform="translate(42.5684 105.889)" fill="#E2E2E2"/>
<rect width="3.79149" height="3.79149" transform="translate(57.7344 105.889)" fill="#E2E2E2"/>
<rect width="3.79149" height="3.79149" transform="translate(72.9004 105.889)" fill="#E2E2E2"/>
<rect width="3.79149" height="3.79149" transform="translate(46.3594 105.889)" fill="#E2E2E2"/>
<rect width="3.79149" height="3.79149" transform="translate(61.5254 105.889)" fill="#E2E2E2"/>
<rect width="3.79149" height="3.79149" transform="translate(76.6914 105.889)" fill="#E2E2E2"/>
<rect width="3.79149" height="3.79149" transform="translate(50.1514 105.889)" fill="#E2E2E2"/>
<rect width="3.79149" height="3.79149" transform="translate(65.3174 105.889)" fill="#E2E2E2"/>
<rect width="3.79149" height="3.79149" transform="translate(80.4834 105.889)" fill="#E2E2E2"/>
<rect width="3.79149" height="3.79149" transform="translate(53.9424 105.889)" fill="#E2E2E2"/>
<rect width="3.79149" height="3.79149" transform="translate(69.1084 105.889)" fill="#E2E2E2"/>
<rect width="3.79149" height="3.79149" transform="translate(84.2744 105.889)" fill="#E2E2E2"/>
<rect width="3.79149" height="3.79149" transform="translate(85.96 105.889)" fill="#E2E2E2"/>
<rect width="3.79149" height="3.79149" transform="translate(27.4023 108.838)" fill="#E2E2E2"/>
<rect width="3.79149" height="3.79149" transform="translate(23.6104 108.838)" fill="#E2E2E2"/>
<rect width="3.79149" height="3.79149" transform="translate(27.4023 101.256)" fill="white"/>
<rect width="3.79149" height="3.79149" transform="translate(31.1934 108.838)" fill="white"/>
<rect width="3.79149" height="3.79149" transform="translate(39.1982 108.838)" fill="#DADADA"/>
<rect width="4.21277" height="4.21277" transform="translate(34.9854 108.418)" fill="white"/>
<rect width="3.79149" height="3.79149" transform="translate(99.4404 108.838)" fill="#E2E2E2"/>
<rect width="3.79149" height="3.79149" transform="translate(103.231 108.838)" fill="#E2E2E2"/>
<g clip-path="url(#clip4_873_13933)">
<rect width="3.79149" height="3.79149" transform="translate(91.8574 108.838)" fill="white"/>
<rect width="3.79149" height="3.79149" transform="translate(89.751 108.838)" fill="#DADADA"/>
</g>
<rect width="3.79149" height="3.79149" transform="translate(95.6494 108.838)" fill="white"/>
<rect width="3.79149" height="3.79149" transform="translate(99.4404 105.047)" fill="#E2E2E2"/>
<rect width="3.79149" height="3.79149" transform="translate(103.231 89.8809)" fill="#E2E2E2"/>
<rect width="3.79149" height="3.79149" transform="translate(103.231 93.252)" fill="#E2E2E2"/>
<rect width="3.79149" height="3.79149" transform="translate(103.231 97.043)" fill="#E2E2E2"/>
<rect width="3.79149" height="3.79149" transform="translate(103.231 100.834)" fill="#E2E2E2"/>
<rect width="3.79149" height="3.79149" transform="translate(99.4404 78.9277)" fill="#E2E2E2"/>
<rect width="3.79149" height="3.79149" transform="translate(99.4404 82.2988)" fill="#E2E2E2"/>
<rect width="3.79149" height="3.79149" transform="translate(99.4404 86.0898)" fill="#E2E2E2"/>
<rect width="3.79149" height="3.79149" transform="translate(99.4404 89.8809)" fill="white"/>
<rect width="3.79149" height="3.79149" transform="translate(99.4404 75.1367)" fill="white"/>
<rect width="3.79149" height="3.79149" transform="translate(103.231 71.3447)" fill="white"/>
<rect width="3.79149" height="3.79149" transform="translate(103.231 63.7617)" fill="white"/>
<rect width="3.79149" height="3.79149" transform="translate(103.231 59.9697)" fill="white"/>
<rect width="3.79149" height="3.79149" transform="translate(100.283 52.3877)" fill="#E2E2E2"/>
<rect width="3.79149" height="3.79149" transform="translate(104.074 49.8594)" fill="#E2E2E2"/>
<rect width="3.79149" height="3.79149" transform="matrix(-1 0 0 1 93.543 50.2803)" fill="#DADADA"/>
<rect width="3.79149" height="3.79149" transform="matrix(-1 0 0 1 96.9131 53.2295)" fill="#DADADA"/>
<rect width="3.79149" height="3.79149" transform="matrix(-1 0 0 1 96.9131 56.1787)" fill="#DADADA"/>
<rect width="3.79149" height="3.79149" transform="matrix(-1 0 0 1 96.9131 59.5488)" fill="#DADADA"/>
<rect width="3.79149" height="3.79149" transform="matrix(-1 0 0 1 93.1211 59.5488)" fill="#DADADA"/>
<rect width="3.79149" height="3.79149" transform="matrix(-1 0 0 1 93.1211 62.9189)" fill="#DADADA"/>
<rect width="3.79149" height="3.79149" transform="matrix(-1 0 0 1 85.96 59.5488)" fill="#DADADA"/>
<rect width="3.79149" height="3.79149" transform="matrix(-1 0 0 1 85.96 62.9189)" fill="#DADADA"/>
<rect width="3.79149" height="3.79149" transform="matrix(-1 0 0 1 89.3301 62.9189)" fill="#DADADA"/>
<rect width="3.79149" height="3.79149" transform="matrix(-1 0 0 1 100.704 56.1787)" fill="#DADADA"/>
<rect width="3.79149" height="3.79149" transform="matrix(-1 0 0 1 100.704 59.5488)" fill="#DADADA"/>
<rect width="3.79149" height="3.79149" transform="matrix(-1 0 0 1 100.704 62.9189)" fill="#DADADA"/>
<rect width="3.79149" height="3.79149" transform="matrix(-1 0 0 1 89.751 66.2891)" fill="#DADADA"/>
<rect width="3.79149" height="3.79149" transform="matrix(-1 0 0 1 97.334 66.2891)" fill="#DADADA"/>
<rect width="3.79149" height="3.79149" transform="matrix(-1 0 0 1 89.751 50.2803)" fill="#DADADA"/>
<rect width="3.79149" height="3.79149" transform="matrix(-1 0 0 1 85.96 50.2803)" fill="#DADADA"/>
<rect width="3.79149" height="3.79149" transform="matrix(-1 0 0 1 107.866 36.7998)" fill="white"/>
<rect width="3.79149" height="3.79149" transform="matrix(-1 0 0 1 111.236 36.7998)" fill="white"/>
<rect width="3.79149" height="3.79149" transform="matrix(-1 0 0 1 104.496 46.0684)" fill="white"/>
<rect width="3.79149" height="3.79149" transform="matrix(-1 0 0 1 104.496 42.2764)" fill="white"/>
<rect width="3.79149" height="3.79149" transform="matrix(-1 0 0 1 114.606 40.1699)" fill="white"/>
<rect width="3.79149" height="3.79149" transform="matrix(-1 0 0 1 111.236 43.1191)" fill="white"/>
<rect width="3.79149" height="3.79149" transform="matrix(-1 0 0 1 107.444 43.1191)" fill="white"/>
<rect width="3.79149" height="3.79149" transform="matrix(-1 0 0 1 107.444 40.1699)" fill="white"/>
<rect width="3.79149" height="3.79149" transform="matrix(-1 0 0 1 110.815 40.1699)" fill="white"/>
<rect width="3.79149" height="3.79149" transform="matrix(-1 0 0 1 82.5898 53.2295)" fill="#DADADA"/>
<rect width="3.79149" height="3.79149" transform="matrix(-1 0 0 1 82.5898 56.5996)" fill="#DADADA"/>
<rect width="3.79149" height="3.79149" transform="matrix(-1 0 0 1 82.5898 59.5488)" fill="#DADADA"/>
<rect width="3.79149" height="3.79149" transform="matrix(-1 0 0 1 82.5898 62.9189)" fill="#DADADA"/>
<rect width="3.79149" height="3.79149" transform="matrix(-1 0 0 1 93.1211 53.2295)" fill="#DADADA"/>
<rect width="3.79149" height="3.79149" transform="matrix(-1 0 0 1 85.96 66.2891)" fill="#DADADA"/>
<rect width="3.79149" height="3.79149" transform="matrix(-1 0 0 1 93.543 66.2891)" fill="#DADADA"/>
<rect width="3.79149" height="3.79149" transform="matrix(-1 0 0 1 96.9131 62.9189)" fill="white"/>
<rect width="3.79149" height="3.79149" transform="matrix(-1 0 0 1 93.1211 56.1787)" fill="white"/>
<rect width="3.79149" height="3.79149" transform="matrix(-1 0 0 1 89.3301 56.1787)" fill="white"/>
<rect width="3.79149" height="3.79149" transform="matrix(-1 0 0 1 89.3301 59.5488)" fill="white"/>
<rect width="3.79149" height="3.79149" transform="matrix(-1 0 0 1 89.3301 53.6504)" fill="white"/>
<rect width="3.79149" height="3.79149" transform="matrix(-1 0 0 1 85.96 53.6504)" fill="white"/>
<rect width="3.79149" height="3.79149" transform="matrix(-1 0 0 1 85.96 56.1787)" fill="white"/>
<rect width="3.79149" height="3.79149" transform="matrix(-1 0 0 1 104.074 36.7998)" fill="white"/>
<rect width="3.79149" height="3.79149" transform="matrix(-1 0 0 1 100.704 42.6973)" fill="white"/>
<rect width="3.79149" height="3.79149" transform="matrix(-1 0 0 1 104.074 40.1699)" fill="white"/>
<rect width="3.79149" height="3.79149" transform="translate(110.814 33.0088)" fill="#E2E2E2"/>
<rect width="3.79149" height="3.79149" transform="translate(107.444 29.6387)" fill="#E2E2E2"/>
<rect width="3.79149" height="3.79149" transform="translate(104.074 29.6387)" fill="#E2E2E2"/>
<rect width="3.79149" height="3.79149" transform="translate(100.283 29.6387)" fill="#E2E2E2"/>
<rect width="3.79149" height="3.79149" transform="translate(96.4912 33.0088)" fill="#E2E2E2"/>
<rect width="3.79149" height="3.79149" transform="translate(107.444 23.7402)" fill="#E2E2E2"/>
<rect width="3.79149" height="3.79149" transform="translate(110.814 26.6895)" fill="#E2E2E2"/>
<rect width="3.79149" height="3.79149" transform="translate(89.3301 20.3701)" fill="#E2E2E2"/>
<rect width="3.79149" height="3.79149" transform="translate(96.9131 20.3701)" fill="#E2E2E2"/>
<rect width="3.79149" height="3.79149" transform="translate(93.1211 20.3701)" fill="#E2E2E2"/>
<rect width="3.79149" height="3.79149" transform="translate(100.704 20.3701)" fill="#E2E2E2"/>
<rect width="3.79149" height="3.79149" transform="translate(103.653 20.3701)" fill="#E2E2E2"/>
<rect width="3.79149" height="3.79149" transform="translate(17.291 26.6895)" fill="#E2E2E2"/>
<rect width="3.79149" height="3.79149" transform="translate(21.083 23.3193)" fill="#E2E2E2"/>
<rect width="3.79149" height="3.79149" transform="translate(24.4531 20.3701)" fill="#E2E2E2"/>
<rect width="3.79149" height="3.79149" transform="translate(28.2451 20.3701)" fill="#E2E2E2"/>
<rect width="3.79149" height="3.79149" transform="translate(32.0361 20.3701)" fill="#E2E2E2"/>
<rect width="3.79149" height="3.79149" transform="translate(34.9854 20.3701)" fill="#E2E2E2"/>
<rect width="3.79149" height="3.79149" transform="translate(38.7764 20.3701)" fill="#E2E2E2"/>
<rect width="3.79149" height="3.79149" transform="translate(42.5684 22.8975)" fill="#E2E2E2"/>
<rect width="3.79149" height="3.79149" transform="translate(50.1514 26.6895)" fill="#E2E2E2"/>
<rect width="3.79149" height="3.79149" transform="translate(53.9424 26.6895)" fill="#E2E2E2"/>
<rect width="3.79149" height="3.79149" transform="translate(56.8916 23.7402)" fill="#E2E2E2"/>
<rect width="3.79149" height="3.79149" transform="translate(60.6826 26.6895)" fill="#E2E2E2"/>
<rect width="3.79149" height="3.79149" transform="translate(64.0527 23.7402)" fill="#E2E2E2"/>
<rect width="3.79149" height="3.79149" transform="translate(71.6357 23.7402)" fill="#E2E2E2"/>
<rect width="3.79149" height="3.79149" transform="translate(67.8447 27.1104)" fill="#E2E2E2"/>
<rect width="3.79149" height="3.79149" transform="translate(64.0527 26.6895)" fill="#E2E2E2"/>
<rect width="3.79149" height="3.79149" transform="translate(71.6357 26.6895)" fill="#E2E2E2"/>
<rect width="3.79149" height="3.79149" transform="translate(74.585 26.6895)" fill="#E2E2E2"/>
<rect width="3.79149" height="3.79149" transform="translate(46.3594 22.8975)" fill="#E2E2E2"/>
<rect width="3.79149" height="3.79149" transform="translate(85.5381 23.7402)" fill="#E2E2E2"/>
<rect width="3.79149" height="3.79149" transform="translate(82.168 23.7402)" fill="#E2E2E2"/>
<rect width="3.79149" height="3.79149" transform="translate(78.377 26.6895)" fill="#E2E2E2"/>
<rect width="3.79149" height="3.79149" transform="translate(82.168 27.1104)" fill="#E2E2E2"/>
<rect width="3.79149" height="3.79149" transform="translate(64.0527 63.3408)" fill="#DADADA"/>
<rect width="3.79149" height="3.79149" transform="translate(60.2617 67.1318)" fill="#DADADA"/>
<rect width="3.79149" height="3.79149" transform="translate(49.7295 72.6094)" fill="#DADADA"/>
<rect width="3.79149" height="3.79149" transform="translate(56.8916 79.3496)" fill="#DADADA"/>
<rect width="3.79149" height="3.79149" transform="translate(53.1006 92.8301)" fill="#E2E2E2"/>
<rect width="3.79149" height="3.79149" transform="translate(53.1006 95.3574)" fill="#E2E2E2"/>
<rect width="3.79149" height="3.79149" transform="translate(49.7295 95.7793)" fill="#E2E2E2"/>
<rect width="3.79149" height="3.79149" transform="translate(53.1006 89.0391)" fill="#DADADA"/>
<rect width="3.79149" height="3.79149" transform="translate(56.8916 92.4102)" fill="#DADADA"/>
<rect width="3.79149" height="3.79149" transform="translate(56.8916 96.2012)" fill="#DADADA"/>
<rect width="3.79149" height="3.79149" transform="translate(53.5215 99.1504)" fill="#DADADA"/>
<rect width="3.79149" height="3.79149" transform="translate(49.7295 99.1504)" fill="#DADADA"/>
<rect width="3.79149" height="3.79149" transform="translate(45.9385 95.7793)" fill="#DADADA"/>
<rect width="3.79149" height="3.79149" transform="matrix(-1 0 0 1 78.7979 92.8301)" fill="#E2E2E2"/>
<rect width="3.79149" height="3.79149" transform="matrix(-1 0 0 1 78.7979 95.3574)" fill="#E2E2E2"/>
<rect width="3.79149" height="3.79149" transform="matrix(-1 0 0 1 82.1689 95.7793)" fill="#E2E2E2"/>
<rect width="3.79149" height="3.79149" transform="matrix(-1 0 0 1 78.7979 89.0391)" fill="#DADADA"/>
<rect width="3.79149" height="3.79149" transform="matrix(-1 0 0 1 75.0068 92.4102)" fill="#DADADA"/>
<rect width="3.79149" height="3.79149" transform="matrix(-1 0 0 1 75.0068 96.2012)" fill="#DADADA"/>
<rect width="3.79149" height="3.79149" transform="matrix(-1 0 0 1 78.377 99.1504)" fill="#DADADA"/>
<rect width="3.79149" height="3.79149" transform="matrix(-1 0 0 1 82.1689 99.1504)" fill="#DADADA"/>
<rect width="3.79149" height="3.79149" transform="matrix(-1 0 0 1 85.96 95.7793)" fill="#DADADA"/>
<rect width="3.79149" height="3.79149" transform="translate(60.6826 79.3496)" fill="#DADADA"/>
<rect width="3.79149" height="3.79149" transform="translate(64.4746 75.5566)" fill="#DADADA"/>
<rect width="3.79149" height="3.79149" transform="translate(68.2656 79.3496)" fill="#DADADA"/>
<rect width="3.79149" height="3.79149" transform="translate(64.4746 79.3496)" fill="#EEEEEE"/>
<rect width="3.79149" height="3.79149" transform="translate(72.0576 79.3496)" fill="#DADADA"/>
<rect width="3.79149" height="3.79149" transform="translate(79.2188 72.6094)" fill="#DADADA"/>
<rect width="3.79149" height="3.79149" transform="translate(67.8447 67.1318)" fill="#DADADA"/>
<rect width="3.79149" height="3.79149" transform="translate(46.3594 108.838)" fill="#DADADA"/>
<rect width="3.79149" height="3.79149" transform="translate(61.5254 108.838)" fill="#DADADA"/>
<rect width="3.79149" height="3.79149" transform="translate(76.6914 108.838)" fill="#DADADA"/>
<rect width="3.79149" height="3.79149" transform="translate(53.9424 108.838)" fill="#DADADA"/>
<rect width="3.79149" height="3.79149" transform="translate(69.1084 108.838)" fill="#DADADA"/>
<rect width="3.79149" height="3.79149" transform="translate(84.2744 108.838)" fill="#DADADA"/>
<rect width="3.79149" height="3.79149" transform="translate(50.1514 108.838)" fill="#DADADA"/>
<rect width="3.79149" height="3.79149" transform="translate(65.3174 108.838)" fill="#DADADA"/>
<rect width="3.79149" height="3.79149" transform="translate(80.4834 108.838)" fill="#DADADA"/>
<rect width="3.79149" height="3.79149" transform="translate(42.5684 108.838)" fill="#DADADA"/>
<rect width="3.79149" height="3.79149" transform="translate(57.7344 108.838)" fill="#DADADA"/>
<rect width="3.79149" height="3.79149" transform="translate(72.9004 108.838)" fill="#DADADA"/>
<rect width="3.79149" height="3.79149" transform="translate(88.0664 108.838)" fill="#DADADA"/>
</g>
<defs>
<filter id="filter0_d_873_13933" x="0" y="0" width="132" height="132" filterUnits="userSpaceOnUse" color-interpolation-filters="sRGB">
<feFlood flood-opacity="0" result="BackgroundImageFix"/>
<feColorMatrix in="SourceAlpha" type="matrix" values="0 0 0 0 0 0 0 0 0 0 0 0 0 0 0 0 0 0 127 0" result="hardAlpha"/>
<feOffset/>
<feGaussianBlur stdDeviation="2"/>
<feComposite in2="hardAlpha" operator="out"/>
<feColorMatrix type="matrix" values="0 0 0 0 0 0 0 0 0 0 0 0 0 0 0 0 0 0 0.25 0"/>
<feBlend mode="normal" in2="BackgroundImageFix" result="effect1_dropShadow_873_13933"/>
<feBlend mode="normal" in="SourceGraphic" in2="effect1_dropShadow_873_13933" result="shape"/>
</filter>
<clipPath id="clip0_873_13933">
<rect width="10.5319" height="10.5319" fill="white" transform="translate(60.2617 43.54)"/>
</clipPath>
<clipPath id="clip1_873_13933">
<rect width="6.31915" height="6.31915" fill="white" transform="translate(57.3125 54.0723)"/>
</clipPath>
<clipPath id="clip2_873_13933">
<rect width="10.5319" height="10.5319" fill="white" transform="translate(67.4238 52.8086)"/>
</clipPath>
<clipPath id="clip3_873_13933">
<rect width="0.842553" height="6.31915" fill="white" transform="translate(77.9551 49.4385)"/>
</clipPath>
<clipPath id="clip4_873_13933">
<rect width="3.79149" height="3.79149" fill="white" transform="translate(91.8574 108.838)"/>
</clipPath>
</defs>
</svg>
