<svg width="41" height="41" viewBox="0 0 41 41" fill="none" xmlns="http://www.w3.org/2000/svg">
<path d="M14.292 16.3337H14.3124M26.542 16.3337H26.5624M2.04199 20.417C2.04199 22.83 2.51728 25.2194 3.44071 27.4488C4.36414 29.6782 5.71763 31.7038 7.4239 33.4101C9.13018 35.1164 11.1558 36.4699 13.3852 37.3933C15.6145 38.3167 18.004 38.792 20.417 38.792C22.83 38.792 25.2194 38.3167 27.4488 37.3933C29.6782 36.4699 31.7038 35.1164 33.4101 33.4101C35.1164 31.7038 36.4699 29.6782 37.3933 27.4488C38.3167 25.2194 38.792 22.83 38.792 20.417C38.792 18.004 38.3167 15.6145 37.3933 13.3852C36.4699 11.1558 35.1164 9.13018 33.4101 7.42391C31.7038 5.71763 29.6782 4.36414 27.4488 3.44071C25.2194 2.51728 22.83 2.04199 20.417 2.04199C18.004 2.04199 15.6145 2.51728 13.3852 3.44071C11.1558 4.36414 9.13018 5.71763 7.4239 7.42391C5.71763 9.13018 4.36414 11.1558 3.44071 13.3852C2.51728 15.6145 2.04199 18.004 2.04199 20.417Z" stroke="#999999" stroke-width="4.08333" stroke-linecap="round" stroke-linejoin="round"/>
<path d="M15.3125 27.052C15.9778 26.373 16.772 25.8335 17.6484 25.4652C18.5249 25.0969 19.466 24.9072 20.4167 24.9072C21.3673 24.9072 22.3085 25.0969 23.1849 25.4652C24.0614 25.8335 24.8555 26.373 25.5208 27.052" stroke="#999999" stroke-width="4.08333" stroke-linecap="round" stroke-linejoin="round"/>
</svg>
