<svg width="40" height="40" viewBox="0 0 40 40" fill="none" xmlns="http://www.w3.org/2000/svg">
<path d="M24.205 23.9504C22.8959 25.0059 21.265 25.5815 19.5833 25.5815C17.9017 25.5815 16.2708 25.0059 14.9617 23.9504C14.5618 23.618 14.0462 23.4581 13.5283 23.5058C13.0105 23.5536 12.5328 23.8051 12.2004 24.205C11.868 24.6049 11.7081 25.1205 11.7558 25.6384C11.8036 26.1562 12.0551 26.6338 12.455 26.9663C14.4551 28.6359 16.9779 29.5505 19.5833 29.5505C22.1888 29.5505 24.7116 28.6359 26.7117 26.9663C27.1116 26.6338 27.3631 26.1562 27.4108 25.6384C27.4586 25.1205 27.2987 24.6049 26.9663 24.205C26.8017 24.007 26.5997 23.8433 26.3718 23.7234C26.144 23.6034 25.8948 23.5295 25.6384 23.5058C25.1205 23.4581 24.6049 23.618 24.205 23.9504ZM13.7083 17.625C14.0957 17.625 14.4743 17.5101 14.7963 17.295C15.1184 17.0798 15.3694 16.7739 15.5176 16.4161C15.6658 16.0583 15.7046 15.6645 15.629 15.2846C15.5535 14.9047 15.367 14.5558 15.0931 14.2819C14.8192 14.008 14.4703 13.8215 14.0904 13.746C13.7105 13.6704 13.3168 13.7092 12.9589 13.8574C12.6011 14.0056 12.2952 14.2566 12.08 14.5787C11.8649 14.9007 11.75 15.2793 11.75 15.6667C11.75 16.186 11.9563 16.6842 12.3236 17.0514C12.6909 17.4187 13.189 17.625 13.7083 17.625ZM25.4583 13.7083C25.071 13.7083 24.6924 13.8232 24.3703 14.0384C24.0483 14.2536 23.7973 14.5594 23.6491 14.9172C23.5009 15.2751 23.4621 15.6688 23.5376 16.0487C23.6132 16.4286 23.7997 16.7775 24.0736 17.0514C24.3475 17.3253 24.6964 17.5118 25.0763 17.5874C25.4562 17.6629 25.8499 17.6242 26.2078 17.4759C26.5656 17.3277 26.8715 17.0767 27.0866 16.7547C27.3018 16.4326 27.4167 16.054 27.4167 15.6667C27.4167 15.1473 27.2104 14.6492 26.8431 14.2819C26.4758 13.9147 25.9777 13.7083 25.4583 13.7083ZM19.5833 0C15.7101 0 11.9239 1.14854 8.70343 3.30039C5.48296 5.45223 2.97292 8.51073 1.4907 12.0891C0.00848515 15.6675 -0.37933 19.6051 0.376297 23.4039C1.13192 27.2026 2.99706 30.6921 5.73583 33.4308C8.47461 36.1696 11.964 38.0348 15.7628 38.7904C19.5616 39.546 23.4992 39.1582 27.0776 37.676C30.6559 36.1938 33.7144 33.6837 35.8663 30.4633C38.0181 27.2428 39.1667 23.4566 39.1667 19.5833C39.1667 17.0116 38.6601 14.4651 37.676 12.0891C36.6918 9.71316 35.2493 7.55431 33.4309 5.73583C31.6124 3.91735 29.4535 2.47485 27.0776 1.49069C24.7016 0.506538 22.1551 0 19.5833 0ZM19.5833 35.25C16.4848 35.25 13.4558 34.3312 10.8794 32.6097C8.30304 30.8882 6.295 28.4414 5.10923 25.5787C3.92346 22.716 3.6132 19.566 4.21771 16.5269C4.82221 13.4879 6.31431 10.6964 8.50534 8.50533C10.6964 6.3143 13.4879 4.8222 16.5269 4.2177C19.566 3.6132 22.716 3.92345 25.5787 5.10922C28.4414 6.29499 30.8882 8.30303 32.6097 10.8794C34.3312 13.4558 35.25 16.4848 35.25 19.5833C35.25 23.7384 33.5994 27.7233 30.6614 30.6613C27.7233 33.5994 23.7384 35.25 19.5833 35.25Z" fill="#8FBC93"/>
</svg>
