<svg width="27" height="34" viewBox="0 0 27 34" fill="none" xmlns="http://www.w3.org/2000/svg">
<rect width="2.0128" height="1.30769" transform="translate(12.0771 9.1543)" fill="#614540"/>
<rect width="2.0128" height="1.30769" transform="translate(12.0771 2.61523)" fill="#614540"/>
<rect width="2.0128" height="1.30769" transform="translate(12.0771)" fill="#614540"/>
<rect width="2.0128" height="1.30769" transform="translate(10.0645 1.30762)" fill="#614540"/>
<rect width="2.0128" height="1.30769" transform="translate(8.05078 2.61523)" fill="#614540"/>
<rect width="2.0128" height="1.30769" transform="translate(6.03809 3.92285)" fill="#614540"/>
<rect width="2.0128" height="1.30769" transform="translate(6.03809 5.23047)" fill="#614540"/>
<rect width="2.0128" height="1.30769" transform="translate(4.02539 6.53809)" fill="#614540"/>
<rect width="2.0128" height="1.30769" transform="translate(4.02539 7.8457)" fill="#614540"/>
<rect width="2.0128" height="1.30769" transform="translate(2.0127 9.1543)" fill="#614540"/>
<rect width="2.0128" height="1.30769" transform="translate(4.02539 14.3848)" fill="#614540"/>
<rect width="2.0128" height="1.30769" transform="translate(4.02539 18.3076)" fill="#614540"/>
<rect width="2.0128" height="1.30769" transform="translate(4.02539 23.5381)" fill="#614540"/>
<rect width="2.0128" height="1.30769" transform="translate(0 13.0771)" fill="#614540"/>
<rect width="2.0128" height="1.30769" transform="translate(0 17)" fill="#614540"/>
<rect width="2.0128" height="1.30769" transform="translate(0 20.9229)" fill="#614540"/>
<rect width="2.0128" height="1.30769" transform="translate(0 24.8457)" fill="#614540"/>
<rect width="2.0128" height="1.30769" transform="translate(2.0127 10.4619)" fill="#614540"/>
<rect width="2.0128" height="1.30769" transform="translate(4.02539 15.6924)" fill="#614540"/>
<rect width="2.0128" height="1.30769" transform="translate(4.02539 19.6152)" fill="#614540"/>
<rect width="2.0128" height="1.30769" transform="translate(4.02539 24.8457)" fill="#614540"/>
<rect width="2.0128" height="1.30769" transform="translate(0 14.3848)" fill="#614540"/>
<rect width="2.0128" height="1.30769" transform="translate(0 18.3076)" fill="#614540"/>
<rect width="2.0128" height="1.30769" transform="translate(0 22.2305)" fill="#614540"/>
<rect width="2.0128" height="1.30769" transform="translate(0 26.1543)" fill="#614540"/>
<rect width="2.0128" height="1.30769" transform="translate(2.0127 28.7695)" fill="#614540"/>
<rect width="2.0128" height="1.30769" transform="translate(2.0127 11.7695)" fill="#614540"/>
<rect width="2.0128" height="1.30769" transform="translate(4.02539 17)" fill="#614540"/>
<rect width="2.0128" height="1.30769" transform="translate(4.02539 22.2305)" fill="#614540"/>
<rect width="2.0128" height="1.30769" transform="translate(4.02539 20.9229)" fill="#614540"/>
<rect width="2.0128" height="1.30769" transform="translate(4.02539 26.1543)" fill="#614540"/>
<rect width="2.0128" height="1.30769" transform="translate(0 15.6924)" fill="#614540"/>
<rect width="2.0128" height="1.30769" transform="translate(0 19.6152)" fill="#614540"/>
<rect width="2.0128" height="1.30769" transform="translate(0 23.5381)" fill="#614540"/>
<rect width="2.0128" height="1.30769" transform="translate(0 27.4619)" fill="#614540"/>
<rect width="2.0128" height="1.30769" transform="translate(2.0127 30.0771)" fill="#614540"/>
<rect width="2.0128" height="1.30769" transform="translate(4.02539 31.3848)" fill="#614540"/>
<rect width="2.0128" height="1.30769" transform="translate(14.0898 1.30762)" fill="#614540"/>
<rect width="2.0128" height="1.30769" transform="translate(16.1025 2.61523)" fill="#614540"/>
<rect width="2.0128" height="1.30769" transform="translate(18.1152 3.92285)" fill="#614540"/>
<rect width="2.0128" height="1.30769" transform="translate(18.1152 5.23047)" fill="#614540"/>
<rect width="2.0128" height="1.30769" transform="translate(20.1279 6.53809)" fill="#614540"/>
<rect width="2.0128" height="1.30769" transform="translate(22.1406 10.4619)" fill="#614540"/>
<rect width="2.0128" height="1.30769" transform="translate(24.1533 14.3848)" fill="#614540"/>
<rect width="2.0128" height="1.30769" transform="translate(24.1533 18.3076)" fill="#614540"/>
<rect width="2.0128" height="1.30769" transform="translate(24.1533 22.2305)" fill="#614540"/>
<rect width="2.0128" height="1.30769" transform="translate(24.1533 26.1543)" fill="#614540"/>
<rect width="2.0128" height="1.30769" transform="translate(20.1279 7.8457)" fill="#614540"/>
<rect width="2.0128" height="1.30769" transform="translate(22.1406 11.7695)" fill="#614540"/>
<rect width="2.0128" height="1.30769" transform="translate(24.1533 15.6924)" fill="#614540"/>
<rect width="2.0128" height="1.30769" transform="translate(24.1533 19.6152)" fill="#614540"/>
<rect width="2.0128" height="1.30769" transform="translate(24.1533 23.5381)" fill="#614540"/>
<rect width="2.0128" height="1.30769" transform="translate(24.1533 27.4619)" fill="#614540"/>
<rect width="2.0128" height="1.30769" transform="translate(22.1406 28.7695)" fill="#614540"/>
<rect width="2.0128" height="1.30769" transform="translate(22.1406 30.0771)" fill="#614540"/>
<rect width="2.0128" height="1.30769" transform="translate(20.1279 31.3848)" fill="#614540"/>
<rect width="2.0128" height="1.30769" transform="translate(18.1152 32.6924)" fill="#614540"/>
<rect width="2.0128" height="1.30769" transform="translate(22.1406 9.1543)" fill="#614540"/>
<rect width="2.0128" height="1.30769" transform="translate(24.1533 13.0771)" fill="#614540"/>
<rect width="2.0128" height="1.30769" transform="translate(24.1533 17)" fill="#614540"/>
<rect width="2.0128" height="1.30769" transform="translate(24.1533 20.9229)" fill="#614540"/>
<rect width="2.0128" height="1.30769" transform="translate(24.1533 24.8457)" fill="#614540"/>
<rect width="2.0128" height="1.30769" transform="translate(10.0645 5.23047)" fill="#614540"/>
<rect width="2.0128" height="1.30769" transform="translate(8.05078 7.8457)" fill="#614540"/>
<rect width="2.0128" height="1.30769" transform="translate(16.1025 7.8457)" fill="#614540"/>
<rect width="2.0128" height="1.30769" transform="translate(18.1152 10.4619)" fill="#614540"/>
<rect width="2.0128" height="1.30769" transform="translate(6.03809 10.4619)" fill="#614540"/>
<rect width="2.0128" height="1.30769" transform="translate(6.03809 14.3848)" fill="#614540"/>
<rect width="2.0128" height="1.30769" transform="translate(6.03809 18.3076)" fill="#614540"/>
<rect width="2.0128" height="1.30769" transform="translate(6.03809 22.2305)" fill="#614540"/>
<rect width="2.0128" height="1.30769" transform="translate(18.1152 17)" fill="#614540"/>
<rect width="2.0128" height="1.30769" transform="translate(20.1279 17)" fill="#614540"/>
<rect width="2.0128" height="1.30769" transform="translate(20.1279 22.2305)" fill="#614540"/>
<rect width="2.0128" height="1.30769" transform="translate(18.1152 23.5381)" fill="#614540"/>
<rect width="2.0128" height="1.30769" transform="translate(8.05078 11.7695)" fill="#614540"/>
<rect width="2.0128" height="1.30769" transform="translate(16.1025 11.7695)" fill="#614540"/>
<rect width="2.0128" height="1.30769" transform="translate(18.1152 14.3848)" fill="#614540"/>
<rect width="2.0128" height="1.30769" transform="translate(20.1279 14.3848)" fill="#614540"/>
<rect width="2.0128" height="1.30769" transform="translate(18.1152 20.9229)" fill="#614540"/>
<rect width="2.0128" height="1.30769" transform="translate(20.1279 20.9229)" fill="#614540"/>
<rect width="2.0128" height="1.30769" transform="translate(20.1279 26.1543)" fill="#614540"/>
<rect width="2.0128" height="1.30769" transform="translate(18.1152 27.4619)" fill="#614540"/>
<rect width="2.0128" height="1.30769" transform="translate(16.1025 28.7695)" fill="#614540"/>
<rect width="2.0128" height="1.30769" transform="translate(14.0898 5.23047)" fill="#614540"/>
<rect width="2.0128" height="1.30769" transform="translate(12.0771 13.0771)" fill="#614540"/>
<rect width="2.0128" height="1.30769" transform="translate(12.0771 17)" fill="#614540"/>
<rect width="2.0128" height="1.30769" transform="translate(14.0898 17)" fill="#614540"/>
<rect width="2.0128" height="1.30769" transform="translate(10.0645 17)" fill="#614540"/>
<rect width="2.0128" height="1.30769" transform="translate(12.0771 20.9229)" fill="#614540"/>
<rect width="2.0128" height="1.30769" transform="translate(14.0898 20.9229)" fill="#614540"/>
<rect width="2.0128" height="1.30769" transform="translate(10.0645 20.9229)" fill="#614540"/>
<rect width="2.0128" height="1.30769" transform="translate(12.0771 24.8457)" fill="#614540"/>
<rect width="2.0128" height="1.30769" transform="translate(14.0898 24.8457)" fill="#614540"/>
<rect width="2.0128" height="1.30769" transform="translate(10.0645 24.8457)" fill="#614540"/>
<rect width="2.0128" height="1.30769" transform="translate(12.0771 28.7695)" fill="#614540"/>
<rect width="2.0128" height="1.30769" transform="translate(12.0771 10.4619)" fill="#614540"/>
<rect width="2.0128" height="1.30769" transform="translate(12.0771 3.92285)" fill="#614540"/>
<rect width="2.0128" height="1.30769" transform="translate(10.0645 6.53809)" fill="#614540"/>
<rect width="2.0128" height="1.30769" transform="translate(8.05078 9.1543)" fill="#614540"/>
<rect width="2.0128" height="1.30769" transform="translate(16.1025 9.1543)" fill="#614540"/>
<rect width="2.0128" height="1.30769" transform="translate(18.1152 11.7695)" fill="#614540"/>
<rect width="2.0128" height="1.30769" transform="translate(6.03809 11.7695)" fill="#614540"/>
<rect width="2.0128" height="1.30769" transform="translate(6.03809 15.6924)" fill="#614540"/>
<rect width="2.0128" height="1.30769" transform="translate(6.03809 19.6152)" fill="#614540"/>
<rect width="2.0128" height="1.30769" transform="translate(6.03809 23.5381)" fill="#614540"/>
<rect width="2.0128" height="1.30769" transform="translate(6.03809 26.1543)" fill="#614540"/>
<rect width="2.0128" height="1.30769" transform="translate(18.1152 18.3076)" fill="#614540"/>
<rect width="2.0128" height="1.30769" transform="translate(20.1279 18.3076)" fill="#614540"/>
<rect width="2.0128" height="1.30769" transform="translate(20.1279 23.5381)" fill="#614540"/>
<rect width="2.0128" height="1.30769" transform="translate(18.1152 24.8457)" fill="#614540"/>
<rect width="2.0128" height="1.30769" transform="translate(8.05078 13.0771)" fill="#614540"/>
<rect width="2.0128" height="1.30769" transform="translate(16.1025 13.0771)" fill="#614540"/>
<rect width="2.0128" height="1.30769" transform="translate(18.1152 15.6924)" fill="#614540"/>
<rect width="2.0128" height="1.30769" transform="translate(20.1279 15.6924)" fill="#614540"/>
<rect width="2.0128" height="1.30769" transform="translate(18.1152 22.2305)" fill="#614540"/>
<rect width="2.0128" height="1.30769" transform="translate(18.1152 28.7695)" fill="#614540"/>
<rect width="2.0128" height="1.30769" transform="translate(16.1025 30.0771)" fill="#614540"/>
<rect width="2.0128" height="1.30769" transform="translate(14.0898 6.53809)" fill="#614540"/>
<rect width="2.0128" height="1.30769" transform="translate(10.0645 7.8457)" fill="#614540"/>
<rect width="2.0128" height="1.30769" transform="translate(8.05078 10.4619)" fill="#614540"/>
<rect width="2.0128" height="1.30769" transform="translate(16.1025 10.4619)" fill="#614540"/>
<rect width="2.0128" height="1.30769" transform="translate(18.1152 13.0771)" fill="#614540"/>
<rect width="2.0128" height="1.30769" transform="translate(6.03809 13.0771)" fill="#614540"/>
<rect width="2.0128" height="1.30769" transform="translate(6.03809 17)" fill="#614540"/>
<rect width="2.0128" height="1.30769" transform="translate(6.03809 20.9229)" fill="#614540"/>
<rect width="2.0128" height="1.30769" transform="translate(6.03809 24.8457)" fill="#614540"/>
<rect width="2.0128" height="1.30769" transform="translate(6.03809 27.4619)" fill="#614540"/>
<rect width="2.0128" height="1.30769" transform="translate(18.1152 19.6152)" fill="#614540"/>
<rect width="2.0128" height="1.30769" transform="translate(20.1279 19.6152)" fill="#614540"/>
<rect width="2.0128" height="1.30769" transform="translate(20.1279 24.8457)" fill="#614540"/>
<rect width="2.0128" height="1.30769" transform="translate(18.1152 26.1543)" fill="#614540"/>
<rect width="2.0128" height="1.30769" transform="translate(10.0645 9.1543)" fill="#FFFFE6"/>
<rect width="2.0128" height="1.30769" transform="translate(10.0645 28.7695)" fill="#FFFFE6"/>
<rect width="2.0128" height="1.30769" transform="translate(14.0898 28.7695)" fill="#FFFFE6"/>
<rect width="2.0128" height="1.30769" transform="translate(14.0898 9.1543)" fill="#FFFFE6"/>
<rect width="2.0128" height="1.30769" transform="translate(16.1025 14.3848)" fill="#FFFFE6"/>
<rect width="2.0128" height="1.30769" transform="translate(22.1406 14.3848)" fill="#FFFFE6"/>
<rect width="2.0128" height="1.30769" transform="translate(8.05078 14.3848)" fill="#FFFFE6"/>
<rect width="2.0128" height="1.30769" transform="translate(2.0127 15.6924)" fill="#FFFFE6"/>
<rect width="2.0128" height="1.30769" transform="translate(8.05078 19.6152)" fill="#FFFFE6"/>
<rect width="2.0128" height="1.30769" transform="translate(2.0127 20.9229)" fill="#FFFFE6"/>
<rect width="2.0128" height="1.30769" transform="translate(2.0127 26.1543)" fill="#FFFFE6"/>
<rect width="2.0128" height="1.30769" transform="translate(2.0127 27.4619)" fill="#FFFFE6"/>
<rect width="2.0128" height="1.30769" transform="translate(4.02539 28.7695)" fill="#FFFFE6"/>
<rect width="2.0128" height="1.30769" transform="translate(4.02539 30.0771)" fill="#FFFFE6"/>
<rect width="2.0128" height="1.30769" transform="translate(4.02539 27.4619)" fill="#FFFFE6"/>
<rect width="2.0128" height="1.30769" transform="translate(6.03809 28.7695)" fill="#614540"/>
<rect width="2.0128" height="1.30769" transform="translate(6.03809 30.0771)" fill="#FFFFE6"/>
<rect width="2.0128" height="1.30769" transform="translate(6.03809 31.3848)" fill="#FFFFE6"/>
<rect width="2.0128" height="1.30769" transform="translate(8.05078 28.7695)" fill="#614540"/>
<rect width="2.0128" height="1.30769" transform="translate(8.05078 30.0771)" fill="#614540"/>
<rect width="2.0128" height="1.30769" transform="translate(8.05078 31.3848)" fill="#614540"/>
<rect width="2.0128" height="1.30769" transform="translate(8.05078 24.8457)" fill="#FFFFE6"/>
<rect width="2.0128" height="1.30769" transform="translate(16.1025 19.6152)" fill="#FFFFE6"/>
<rect width="2.0128" height="1.30769" transform="translate(22.1406 19.6152)" fill="#FFFFE6"/>
<rect width="2.0128" height="1.30769" transform="translate(22.1406 23.5381)" fill="#FFFFE6"/>
<rect width="2.0128" height="1.30769" transform="translate(22.1406 26.1543)" fill="#FFFFE6"/>
<rect width="2.0128" height="1.30769" transform="translate(16.1025 24.8457)" fill="#FFFFE6"/>
<rect width="2.0128" height="1.30769" transform="translate(12.0771 5.23047)" fill="#FFFFE6"/>
<rect width="2.0128" height="1.30769" transform="translate(8.05078 3.92285)" fill="#FFFFE6"/>
<rect width="2.0128" height="1.30769" transform="translate(6.03809 6.53809)" fill="#FFFFE6"/>
<rect width="2.0128" height="1.30769" transform="translate(4.02539 9.1543)" fill="#FFFFE6"/>
<rect width="2.0128" height="1.30769" transform="translate(4.02539 13.0771)" fill="#FFFFE6"/>
<rect width="2.0128" height="1.30769" transform="translate(16.1025 3.92285)" fill="#FFFFE6"/>
<rect width="2.0128" height="1.30769" transform="translate(10.0645 2.61523)" fill="#FFFFE6"/>
<rect width="2.0128" height="1.30769" transform="translate(14.0898 2.61523)" fill="#FFFFE6"/>
<rect width="2.0128" height="1.30769" transform="translate(12.0771 1.30762)" fill="#FFFFE6"/>
<rect width="2.0128" height="1.30769" transform="translate(10.0645 10.4619)" fill="#FFFFE6"/>
<rect width="2.0128" height="1.30769" transform="translate(10.0645 30.0771)" fill="#FFFFE6"/>
<rect width="2.0128" height="1.30769" transform="translate(14.0898 30.0771)" fill="#FFFFE6"/>
<rect width="2.0128" height="1.30769" transform="translate(14.0898 10.4619)" fill="#FFFFE6"/>
<rect width="2.0128" height="1.30769" transform="translate(16.1025 15.6924)" fill="#FFFFE6"/>
<rect width="2.0128" height="1.30769" transform="translate(22.1406 15.6924)" fill="#FFFFE6"/>
<rect width="2.0128" height="1.30769" transform="translate(8.05078 15.6924)" fill="#FFFFE6"/>
<rect width="2.0128" height="1.30769" transform="translate(2.0127 17)" fill="#FFFFE6"/>
<rect width="2.0128" height="1.30769" transform="translate(2.0127 22.2305)" fill="#FFFFE6"/>
<rect width="2.0128" height="1.30769" transform="translate(8.05078 20.9229)" fill="#FFFFE6"/>
<rect width="2.0128" height="1.30769" transform="translate(8.05078 26.1543)" fill="#FFFFE6"/>
<rect width="2.0128" height="1.30769" transform="translate(16.1025 20.9229)" fill="#FFFFE6"/>
<rect width="2.0128" height="1.30769" transform="translate(22.1406 20.9229)" fill="#FFFFE6"/>
<rect width="2.0128" height="1.30769" transform="translate(22.1406 24.8457)" fill="#FFFFE6"/>
<rect width="2.0128" height="1.30769" transform="translate(22.1406 27.4619)" fill="#FFFFE6"/>
<rect width="2.0128" height="1.30769" transform="translate(20.1279 27.4619)" fill="#FFFFE6"/>
<rect width="2.0128" height="1.30769" transform="translate(20.1279 28.7695)" fill="#FFFFE6"/>
<rect width="2.0128" height="1.30769" transform="translate(20.1279 30.0771)" fill="#FFFFE6"/>
<rect width="2.0128" height="1.30769" transform="translate(18.1152 30.0771)" fill="#FFFFE6"/>
<rect width="2.0128" height="1.30769" transform="translate(18.1152 31.3848)" fill="#FFFFE6"/>
<rect width="2.0128" height="1.30769" transform="translate(16.1025 26.1543)" fill="#FFFFE6"/>
<rect width="2.0128" height="1.30769" transform="translate(12.0771 6.53809)" fill="#FFFFE6"/>
<rect width="2.0128" height="1.30769" transform="translate(8.05078 5.23047)" fill="#FFFFE6"/>
<rect width="2.0128" height="1.30769" transform="translate(6.03809 7.8457)" fill="#FFFFE6"/>
<rect width="2.0128" height="1.30769" transform="translate(4.02539 10.4619)" fill="#FFFFE6"/>
<rect width="2.0128" height="1.30769" transform="translate(2.0127 13.0771)" fill="#FFFFE6"/>
<rect width="2.0128" height="1.30769" transform="translate(16.1025 5.23047)" fill="#FFFFE6"/>
<rect width="2.0128" height="1.30769" transform="translate(10.0645 3.92285)" fill="#FFFFE6"/>
<rect width="2.0128" height="1.30769" transform="translate(14.0898 3.92285)" fill="#FFFFE6"/>
<rect width="2.0128" height="1.30769" transform="translate(10.0645 11.7695)" fill="#FFFFE6"/>
<rect width="2.0128" height="1.30769" transform="translate(10.0645 31.3848)" fill="#FFFFE6"/>
<rect width="2.0128" height="1.30769" transform="translate(14.0898 31.3848)" fill="#FFFFE6"/>
<rect width="2.0128" height="1.30769" transform="translate(14.0898 11.7695)" fill="#FFFFE6"/>
<rect width="2.0128" height="1.30769" transform="translate(16.1025 17)" fill="#FFFFE6"/>
<rect width="2.0128" height="1.30769" transform="translate(22.1406 17)" fill="#FFFFE6"/>
<rect width="2.0128" height="1.30769" transform="translate(8.05078 17)" fill="#FFFFE6"/>
<rect width="2.0128" height="1.30769" transform="translate(2.0127 18.3076)" fill="#FFFFE6"/>
<rect width="2.0128" height="1.30769" transform="translate(2.0127 23.5381)" fill="#FFFFE6"/>
<rect width="2.0128" height="1.30769" transform="translate(8.05078 22.2305)" fill="#FFFFE6"/>
<rect width="2.0128" height="1.30769" transform="translate(8.05078 27.4619)" fill="#FFFFE6"/>
<rect width="2.0128" height="1.30769" transform="translate(16.1025 22.2305)" fill="#FFFFE6"/>
<rect width="2.0128" height="1.30769" transform="translate(16.1025 27.4619)" fill="#FFFFE6"/>
<rect width="2.0128" height="1.30769" transform="translate(12.0771 7.8457)" fill="#FFFFE6"/>
<rect width="2.0128" height="1.30769" transform="translate(8.05078 6.53809)" fill="#FFFFE6"/>
<rect width="2.0128" height="1.30769" transform="translate(6.03809 9.1543)" fill="#FFFFE6"/>
<rect width="2.0128" height="1.30769" transform="translate(4.02539 11.7695)" fill="#FFFFE6"/>
<rect width="2.0128" height="1.30769" transform="translate(2.0127 14.3848)" fill="#FFFFE6"/>
<rect width="2.0128" height="1.30769" transform="translate(16.1025 6.53809)" fill="#FFFFE6"/>
<rect width="2.0128" height="1.30769" transform="translate(18.1152 6.53809)" fill="#FFFFE6"/>
<rect width="2.0128" height="1.30769" transform="translate(18.1152 7.8457)" fill="#FFFFE6"/>
<rect width="2.0128" height="1.30769" transform="translate(18.1152 9.1543)" fill="#FFFFE6"/>
<rect width="2.0128" height="1.30769" transform="translate(20.1279 9.1543)" fill="#FFFFE6"/>
<rect width="2.0128" height="1.30769" transform="translate(20.1279 10.4619)" fill="#FFFFE6"/>
<rect width="2.0128" height="1.30769" transform="translate(20.1279 11.7695)" fill="#FFFFE6"/>
<rect width="2.0128" height="1.30769" transform="translate(20.1279 13.0771)" fill="#FFFFE6"/>
<rect width="2.0128" height="1.30769" transform="translate(22.1406 13.0771)" fill="#FFFFE6"/>
<rect width="2.0128" height="1.30769" transform="translate(10.0645 13.0771)" fill="#FFFFE6"/>
<rect width="2.0128" height="1.30769" transform="translate(14.0898 13.0771)" fill="#FFFFE6"/>
<rect width="2.0128" height="1.30769" transform="translate(16.1025 18.3076)" fill="#FFFFE6"/>
<rect width="2.0128" height="1.30769" transform="translate(22.1406 18.3076)" fill="#FFFFE6"/>
<rect width="2.0128" height="1.30769" transform="translate(22.1406 22.2305)" fill="#FFFFE6"/>
<rect width="2.0128" height="1.30769" transform="translate(8.05078 18.3076)" fill="#FFFFE6"/>
<rect width="2.0128" height="1.30769" transform="translate(2.0127 19.6152)" fill="#FFFFE6"/>
<rect width="2.0128" height="1.30769" transform="translate(2.0127 24.8457)" fill="#FFFFE6"/>
<rect width="2.0128" height="1.30769" transform="translate(8.05078 23.5381)" fill="#FFFFE6"/>
<rect width="2.0128" height="1.30769" transform="translate(16.1025 23.5381)" fill="#FFFFE6"/>
<rect width="2.0128" height="1.30769" transform="translate(14.0898 7.8457)" fill="#614540"/>
<rect width="2.0128" height="1.30769" transform="translate(12.0771 14.3848)" fill="#614540"/>
<rect width="2.0128" height="1.30769" transform="translate(14.0898 14.3848)" fill="#614540"/>
<rect width="2.0128" height="1.30769" transform="translate(10.0645 14.3848)" fill="#614540"/>
<rect width="2.0128" height="1.30769" transform="translate(12.0771 18.3076)" fill="#614540"/>
<rect width="2.0128" height="1.30769" transform="translate(14.0898 18.3076)" fill="#614540"/>
<rect width="2.0128" height="1.30769" transform="translate(10.0645 18.3076)" fill="#614540"/>
<rect width="2.0128" height="1.30769" transform="translate(12.0771 22.2305)" fill="#614540"/>
<rect width="2.0128" height="1.30769" transform="translate(14.0898 22.2305)" fill="#614540"/>
<rect width="2.0128" height="1.30769" transform="translate(10.0645 22.2305)" fill="#614540"/>
<rect width="2.0128" height="1.30769" transform="translate(12.0771 26.1543)" fill="#614540"/>
<rect width="2.0128" height="1.30769" transform="translate(14.0898 26.1543)" fill="#614540"/>
<rect width="2.0128" height="1.30769" transform="translate(10.0645 26.1543)" fill="#614540"/>
<rect width="2.0128" height="1.30769" transform="translate(12.0771 30.0771)" fill="#614540"/>
<rect width="2.0128" height="1.30769" transform="translate(12.0771 11.7695)" fill="#614540"/>
<rect width="2.0128" height="1.30769" transform="translate(12.0771 15.6924)" fill="#614540"/>
<rect width="2.0128" height="1.30769" transform="translate(14.0898 15.6924)" fill="#614540"/>
<rect width="2.0128" height="1.30769" transform="translate(10.0645 15.6924)" fill="#614540"/>
<rect width="2.0128" height="1.30769" transform="translate(12.0771 19.6152)" fill="#614540"/>
<rect width="2.0128" height="1.30769" transform="translate(14.0898 19.6152)" fill="#614540"/>
<rect width="2.0128" height="1.30769" transform="translate(10.0645 19.6152)" fill="#614540"/>
<rect width="2.0128" height="1.30769" transform="translate(12.0771 23.5381)" fill="#614540"/>
<rect width="2.0128" height="1.30769" transform="translate(14.0898 23.5381)" fill="#614540"/>
<rect width="2.0128" height="1.30769" transform="translate(10.0645 23.5381)" fill="#614540"/>
<rect width="2.0128" height="1.30769" transform="translate(12.0771 27.4619)" fill="#614540"/>
<rect width="2.0128" height="1.30769" transform="translate(14.0898 32.6924)" fill="#614540"/>
<rect width="2.0128" height="1.30769" transform="translate(8.05078 32.6924)" fill="#614540"/>
<rect width="2.0128" height="1.30769" transform="translate(14.0898 27.4619)" fill="#614540"/>
<rect width="2.0128" height="1.30769" transform="translate(16.1025 32.6924)" fill="#614540"/>
<rect width="2.0128" height="1.30769" transform="translate(10.0645 32.6924)" fill="#614540"/>
<rect width="2.0128" height="1.30769" transform="translate(10.0645 27.4619)" fill="#614540"/>
<rect width="2.0128" height="1.30769" transform="translate(12.0771 32.6924)" fill="#614540"/>
<rect width="2.0128" height="1.30769" transform="translate(6.03809 32.6924)" fill="#614540"/>
<rect width="2.0128" height="1.30769" transform="translate(12.0771 31.3848)" fill="#614540"/>
<rect width="2.0128" height="1.30769" transform="translate(16.1025 31.3848)" fill="#614540"/>
</svg>
