<svg width="27" height="35" viewBox="0 0 27 35" fill="none" xmlns="http://www.w3.org/2000/svg">
<rect width="2.072" height="1.34615" transform="translate(12.4316 9.42285)" fill="#68AB6E"/>
<rect width="2.072" height="1.34615" transform="translate(12.4316 2.69238)" fill="#68AB6E"/>
<rect width="2.072" height="1.34615" transform="translate(12.4316)" fill="#68AB6E"/>
<rect width="2.072" height="1.34615" transform="translate(10.3604 1.3457)" fill="#68AB6E"/>
<rect width="2.072" height="1.34615" transform="translate(8.28809 2.69238)" fill="#68AB6E"/>
<rect width="2.072" height="1.34615" transform="translate(6.21582 4.03809)" fill="#68AB6E"/>
<rect width="2.072" height="1.34615" transform="translate(6.21582 5.38477)" fill="#68AB6E"/>
<rect width="2.072" height="1.34615" transform="translate(4.14355 6.73047)" fill="#68AB6E"/>
<rect width="2.072" height="1.34615" transform="translate(4.14355 8.07715)" fill="#68AB6E"/>
<rect width="2.072" height="1.34615" transform="translate(2.07227 9.42285)" fill="#68AB6E"/>
<rect width="2.072" height="1.34615" transform="translate(4.14355 14.8076)" fill="#68AB6E"/>
<rect width="2.072" height="1.34615" transform="translate(4.14355 18.8457)" fill="#68AB6E"/>
<rect width="2.072" height="1.34615" transform="translate(4.14355 24.2305)" fill="#68AB6E"/>
<rect width="2.072" height="1.34615" transform="translate(0 13.4619)" fill="#68AB6E"/>
<rect width="2.072" height="1.34615" transform="translate(0 17.5)" fill="#68AB6E"/>
<rect width="2.072" height="1.34615" transform="translate(0 21.5381)" fill="#68AB6E"/>
<rect width="2.072" height="1.34615" transform="translate(0 25.5771)" fill="#68AB6E"/>
<rect width="2.072" height="1.34615" transform="translate(2.07227 10.7695)" fill="#68AB6E"/>
<rect width="2.072" height="1.34615" transform="translate(4.14355 16.1543)" fill="#68AB6E"/>
<rect width="2.072" height="1.34615" transform="translate(4.14355 20.1924)" fill="#68AB6E"/>
<rect width="2.072" height="1.34615" transform="translate(4.14355 25.5771)" fill="#68AB6E"/>
<rect width="2.072" height="1.34615" transform="translate(0 14.8076)" fill="#68AB6E"/>
<rect width="2.072" height="1.34615" transform="translate(0 18.8457)" fill="#68AB6E"/>
<rect width="2.072" height="1.34615" transform="translate(0 22.8848)" fill="#68AB6E"/>
<rect width="2.072" height="1.34615" transform="translate(0 26.9229)" fill="#68AB6E"/>
<rect width="2.072" height="1.34615" transform="translate(2.07227 29.6152)" fill="#68AB6E"/>
<rect width="2.072" height="1.34615" transform="translate(2.07227 12.1152)" fill="#68AB6E"/>
<rect width="2.072" height="1.34615" transform="translate(4.14355 17.5)" fill="#68AB6E"/>
<rect width="2.072" height="1.34615" transform="translate(4.14355 22.8848)" fill="#68AB6E"/>
<rect width="2.072" height="1.34615" transform="translate(4.14355 21.5381)" fill="#68AB6E"/>
<rect width="2.072" height="1.34615" transform="translate(4.14355 26.9229)" fill="#68AB6E"/>
<rect width="2.072" height="1.34615" transform="translate(0 16.1543)" fill="#68AB6E"/>
<rect width="2.072" height="1.34615" transform="translate(0 20.1924)" fill="#68AB6E"/>
<rect width="2.072" height="1.34615" transform="translate(0 24.2305)" fill="#68AB6E"/>
<rect width="2.072" height="1.34615" transform="translate(0 28.2695)" fill="#68AB6E"/>
<rect width="2.072" height="1.34615" transform="translate(2.07227 30.9619)" fill="#68AB6E"/>
<rect width="2.072" height="1.34615" transform="translate(4.14355 32.3076)" fill="#68AB6E"/>
<rect width="2.072" height="1.34615" transform="translate(14.5039 1.3457)" fill="#68AB6E"/>
<rect width="2.072" height="1.34615" transform="translate(16.5762 2.69238)" fill="#68AB6E"/>
<rect width="2.072" height="1.34615" transform="translate(18.6484 4.03809)" fill="#68AB6E"/>
<rect width="2.072" height="1.34615" transform="translate(18.6484 5.38477)" fill="#68AB6E"/>
<rect width="2.072" height="1.34615" transform="translate(20.7197 6.73047)" fill="#68AB6E"/>
<rect width="2.072" height="1.34615" transform="translate(22.792 10.7695)" fill="#68AB6E"/>
<rect width="2.072" height="1.34615" transform="translate(24.8643 14.8076)" fill="#68AB6E"/>
<rect width="2.072" height="1.34615" transform="translate(24.8643 18.8457)" fill="#68AB6E"/>
<rect width="2.072" height="1.34615" transform="translate(24.8643 22.8848)" fill="#68AB6E"/>
<rect width="2.072" height="1.34615" transform="translate(24.8643 26.9229)" fill="#68AB6E"/>
<rect width="2.072" height="1.34615" transform="translate(20.7197 8.07715)" fill="#68AB6E"/>
<rect width="2.072" height="1.34615" transform="translate(22.792 12.1152)" fill="#68AB6E"/>
<rect width="2.072" height="1.34615" transform="translate(24.8643 16.1543)" fill="#68AB6E"/>
<rect width="2.072" height="1.34615" transform="translate(24.8643 20.1924)" fill="#68AB6E"/>
<rect width="2.072" height="1.34615" transform="translate(24.8643 24.2305)" fill="#68AB6E"/>
<rect width="2.072" height="1.34615" transform="translate(24.8643 28.2695)" fill="#68AB6E"/>
<rect width="2.072" height="1.34615" transform="translate(22.792 29.6152)" fill="#68AB6E"/>
<rect width="2.072" height="1.34615" transform="translate(22.792 30.9619)" fill="#68AB6E"/>
<rect width="2.072" height="1.34615" transform="translate(20.7197 32.3076)" fill="#68AB6E"/>
<rect width="2.072" height="1.34615" transform="translate(18.6484 33.6543)" fill="#68AB6E"/>
<rect width="2.072" height="1.34615" transform="translate(22.792 9.42285)" fill="#68AB6E"/>
<rect width="2.072" height="1.34615" transform="translate(24.8643 13.4619)" fill="#68AB6E"/>
<rect width="2.072" height="1.34615" transform="translate(24.8643 17.5)" fill="#68AB6E"/>
<rect width="2.072" height="1.34615" transform="translate(24.8643 21.5381)" fill="#68AB6E"/>
<rect width="2.072" height="1.34615" transform="translate(24.8643 25.5771)" fill="#68AB6E"/>
<rect width="2.072" height="1.34615" transform="translate(10.3604 5.38477)" fill="#68AB6E"/>
<rect width="2.072" height="1.34615" transform="translate(8.28809 8.07715)" fill="#68AB6E"/>
<rect width="2.072" height="1.34615" transform="translate(16.5762 8.07715)" fill="#68AB6E"/>
<rect width="2.072" height="1.34615" transform="translate(18.6484 10.7695)" fill="#68AB6E"/>
<rect width="2.072" height="1.34615" transform="translate(6.21582 10.7695)" fill="#68AB6E"/>
<rect width="2.072" height="1.34615" transform="translate(6.21582 14.8076)" fill="#68AB6E"/>
<rect width="2.072" height="1.34615" transform="translate(6.21582 18.8457)" fill="#68AB6E"/>
<rect width="2.072" height="1.34615" transform="translate(6.21582 22.8848)" fill="#68AB6E"/>
<rect width="2.072" height="1.34615" transform="translate(18.6484 17.5)" fill="#68AB6E"/>
<rect width="2.072" height="1.34615" transform="translate(20.7197 17.5)" fill="#68AB6E"/>
<rect width="2.072" height="1.34615" transform="translate(20.7197 22.8848)" fill="#68AB6E"/>
<rect width="2.072" height="1.34615" transform="translate(18.6484 24.2305)" fill="#68AB6E"/>
<rect width="2.072" height="1.34615" transform="translate(8.28809 12.1152)" fill="#68AB6E"/>
<rect width="2.072" height="1.34615" transform="translate(16.5762 12.1152)" fill="#68AB6E"/>
<rect width="2.072" height="1.34615" transform="translate(18.6484 14.8076)" fill="#68AB6E"/>
<rect width="2.072" height="1.34615" transform="translate(20.7197 14.8076)" fill="#68AB6E"/>
<rect width="2.072" height="1.34615" transform="translate(18.6484 21.5381)" fill="#68AB6E"/>
<rect width="2.072" height="1.34615" transform="translate(20.7197 21.5381)" fill="#68AB6E"/>
<rect width="2.072" height="1.34615" transform="translate(20.7197 26.9229)" fill="#68AB6E"/>
<rect width="2.072" height="1.34615" transform="translate(18.6484 28.2695)" fill="#68AB6E"/>
<rect width="2.072" height="1.34615" transform="translate(16.5762 29.6152)" fill="#68AB6E"/>
<rect width="2.072" height="1.34615" transform="translate(14.5039 5.38477)" fill="#68AB6E"/>
<rect width="2.072" height="1.34615" transform="translate(12.4316 13.4619)" fill="#68AB6E"/>
<rect width="2.072" height="1.34615" transform="translate(12.4316 17.5)" fill="#68AB6E"/>
<rect width="2.072" height="1.34615" transform="translate(14.5039 17.5)" fill="#68AB6E"/>
<rect width="2.072" height="1.34615" transform="translate(10.3604 17.5)" fill="#68AB6E"/>
<rect width="2.072" height="1.34615" transform="translate(12.4316 21.5381)" fill="#68AB6E"/>
<rect width="2.072" height="1.34615" transform="translate(14.5039 21.5381)" fill="#68AB6E"/>
<rect width="2.072" height="1.34615" transform="translate(10.3604 21.5381)" fill="#68AB6E"/>
<rect width="2.072" height="1.34615" transform="translate(12.4316 25.5771)" fill="#68AB6E"/>
<rect width="2.072" height="1.34615" transform="translate(14.5039 25.5771)" fill="#68AB6E"/>
<rect width="2.072" height="1.34615" transform="translate(10.3604 25.5771)" fill="#68AB6E"/>
<rect width="2.072" height="1.34615" transform="translate(12.4316 29.6152)" fill="#68AB6E"/>
<rect width="2.072" height="1.34615" transform="translate(12.4316 10.7695)" fill="#68AB6E"/>
<rect width="2.072" height="1.34615" transform="translate(12.4316 4.03809)" fill="#68AB6E"/>
<rect width="2.072" height="1.34615" transform="translate(10.3604 6.73047)" fill="#68AB6E"/>
<rect width="2.072" height="1.34615" transform="translate(8.28809 9.42285)" fill="#68AB6E"/>
<rect width="2.072" height="1.34615" transform="translate(16.5762 9.42285)" fill="#68AB6E"/>
<rect width="2.072" height="1.34615" transform="translate(18.6484 12.1152)" fill="#68AB6E"/>
<rect width="2.072" height="1.34615" transform="translate(6.21582 12.1152)" fill="#68AB6E"/>
<rect width="2.072" height="1.34615" transform="translate(6.21582 16.1543)" fill="#68AB6E"/>
<rect width="2.072" height="1.34615" transform="translate(6.21582 20.1924)" fill="#68AB6E"/>
<rect width="2.072" height="1.34615" transform="translate(6.21582 24.2305)" fill="#68AB6E"/>
<rect width="2.072" height="1.34615" transform="translate(6.21582 26.9229)" fill="#68AB6E"/>
<rect width="2.072" height="1.34615" transform="translate(18.6484 18.8457)" fill="#68AB6E"/>
<rect width="2.072" height="1.34615" transform="translate(20.7197 18.8457)" fill="#68AB6E"/>
<rect width="2.072" height="1.34615" transform="translate(20.7197 24.2305)" fill="#68AB6E"/>
<rect width="2.072" height="1.34615" transform="translate(18.6484 25.5771)" fill="#68AB6E"/>
<rect width="2.072" height="1.34615" transform="translate(8.28809 13.4619)" fill="#68AB6E"/>
<rect width="2.072" height="1.34615" transform="translate(16.5762 13.4619)" fill="#68AB6E"/>
<rect width="2.072" height="1.34615" transform="translate(18.6484 16.1543)" fill="#68AB6E"/>
<rect width="2.072" height="1.34615" transform="translate(20.7197 16.1543)" fill="#68AB6E"/>
<rect width="2.072" height="1.34615" transform="translate(18.6484 22.8848)" fill="#68AB6E"/>
<rect width="2.072" height="1.34615" transform="translate(18.6484 29.6152)" fill="#68AB6E"/>
<rect width="2.072" height="1.34615" transform="translate(16.5762 30.9619)" fill="#68AB6E"/>
<rect width="2.072" height="1.34615" transform="translate(14.5039 6.73047)" fill="#68AB6E"/>
<rect width="2.072" height="1.34615" transform="translate(10.3604 8.07715)" fill="#68AB6E"/>
<rect width="2.072" height="1.34615" transform="translate(8.28809 10.7695)" fill="#68AB6E"/>
<rect width="2.072" height="1.34615" transform="translate(16.5762 10.7695)" fill="#68AB6E"/>
<rect width="2.072" height="1.34615" transform="translate(18.6484 13.4619)" fill="#68AB6E"/>
<rect width="2.072" height="1.34615" transform="translate(6.21582 13.4619)" fill="#68AB6E"/>
<rect width="2.072" height="1.34615" transform="translate(6.21582 17.5)" fill="#68AB6E"/>
<rect width="2.072" height="1.34615" transform="translate(6.21582 21.5381)" fill="#68AB6E"/>
<rect width="2.072" height="1.34615" transform="translate(6.21582 25.5771)" fill="#68AB6E"/>
<rect width="2.072" height="1.34615" transform="translate(6.21582 28.2695)" fill="#68AB6E"/>
<rect width="2.072" height="1.34615" transform="translate(18.6484 20.1924)" fill="#68AB6E"/>
<rect width="2.072" height="1.34615" transform="translate(20.7197 20.1924)" fill="#68AB6E"/>
<rect width="2.072" height="1.34615" transform="translate(20.7197 25.5771)" fill="#68AB6E"/>
<rect width="2.072" height="1.34615" transform="translate(18.6484 26.9229)" fill="#68AB6E"/>
<rect width="2.072" height="1.34615" transform="translate(10.3604 9.42285)" fill="#FAFFF9"/>
<rect width="2.072" height="1.34615" transform="translate(10.3604 29.6152)" fill="#FAFFF9"/>
<rect width="2.072" height="1.34615" transform="translate(14.5039 29.6152)" fill="#FAFFF9"/>
<rect width="2.072" height="1.34615" transform="translate(14.5039 9.42285)" fill="#FAFFF9"/>
<rect width="2.072" height="1.34615" transform="translate(16.5762 14.8076)" fill="#FAFFF9"/>
<rect width="2.072" height="1.34615" transform="translate(22.792 14.8076)" fill="#FAFFF9"/>
<rect width="2.072" height="1.34615" transform="translate(8.28809 14.8076)" fill="#FAFFF9"/>
<rect width="2.072" height="1.34615" transform="translate(2.07227 16.1543)" fill="#FAFFF9"/>
<rect width="2.072" height="1.34615" transform="translate(8.28809 20.1924)" fill="#FAFFF9"/>
<rect width="2.072" height="1.34615" transform="translate(2.07227 21.5381)" fill="#FAFFF9"/>
<rect width="2.072" height="1.34615" transform="translate(2.07227 26.9229)" fill="#FAFFF9"/>
<rect width="2.072" height="1.34615" transform="translate(2.07227 28.2695)" fill="#FAFFF9"/>
<rect width="2.072" height="1.34615" transform="translate(4.14355 29.6152)" fill="#FAFFF9"/>
<rect width="2.072" height="1.34615" transform="translate(4.14355 30.9619)" fill="#FAFFF9"/>
<rect width="2.072" height="1.34615" transform="translate(4.14355 28.2695)" fill="#FAFFF9"/>
<rect width="2.072" height="1.34615" transform="translate(6.21582 29.6152)" fill="#68AB6E"/>
<rect width="2.072" height="1.34615" transform="translate(6.21582 30.9619)" fill="#FAFFF9"/>
<rect width="2.072" height="1.34615" transform="translate(6.21582 32.3076)" fill="#FAFFF9"/>
<rect width="2.072" height="1.34615" transform="translate(8.28809 29.6152)" fill="#68AB6E"/>
<rect width="2.072" height="1.34615" transform="translate(8.28809 30.9619)" fill="#68AB6E"/>
<rect width="2.072" height="1.34615" transform="translate(8.28809 32.3076)" fill="#68AB6E"/>
<rect width="2.072" height="1.34615" transform="translate(8.28809 25.5771)" fill="#FAFFF9"/>
<rect width="2.072" height="1.34615" transform="translate(16.5762 20.1924)" fill="#FAFFF9"/>
<rect width="2.072" height="1.34615" transform="translate(22.792 20.1924)" fill="#FAFFF9"/>
<rect width="2.072" height="1.34615" transform="translate(22.792 24.2305)" fill="#FAFFF9"/>
<rect width="2.072" height="1.34615" transform="translate(22.792 26.9229)" fill="#FAFFF9"/>
<rect width="2.072" height="1.34615" transform="translate(16.5762 25.5771)" fill="#FAFFF9"/>
<rect width="2.072" height="1.34615" transform="translate(12.4316 5.38477)" fill="#FAFFF9"/>
<rect width="2.072" height="1.34615" transform="translate(8.28809 4.03809)" fill="#FAFFF9"/>
<rect width="2.072" height="1.34615" transform="translate(6.21582 6.73047)" fill="#FAFFF9"/>
<rect width="2.072" height="1.34615" transform="translate(4.14355 9.42285)" fill="#FAFFF9"/>
<rect width="2.072" height="1.34615" transform="translate(4.14355 13.4619)" fill="#FAFFF9"/>
<rect width="2.072" height="1.34615" transform="translate(16.5762 4.03809)" fill="#FAFFF9"/>
<rect width="2.072" height="1.34615" transform="translate(10.3604 2.69238)" fill="#FAFFF9"/>
<rect width="2.072" height="1.34615" transform="translate(14.5039 2.69238)" fill="#FAFFF9"/>
<rect width="2.072" height="1.34615" transform="translate(12.4316 1.3457)" fill="#FAFFF9"/>
<rect width="2.072" height="1.34615" transform="translate(10.3604 10.7695)" fill="#FAFFF9"/>
<rect width="2.072" height="1.34615" transform="translate(10.3604 30.9619)" fill="#FAFFF9"/>
<rect width="2.072" height="1.34615" transform="translate(14.5039 30.9619)" fill="#FAFFF9"/>
<rect width="2.072" height="1.34615" transform="translate(14.5039 10.7695)" fill="#FAFFF9"/>
<rect width="2.072" height="1.34615" transform="translate(16.5762 16.1543)" fill="#FAFFF9"/>
<rect width="2.072" height="1.34615" transform="translate(22.792 16.1543)" fill="#FAFFF9"/>
<rect width="2.072" height="1.34615" transform="translate(8.28809 16.1543)" fill="#FAFFF9"/>
<rect width="2.072" height="1.34615" transform="translate(2.07227 17.5)" fill="#FAFFF9"/>
<rect width="2.072" height="1.34615" transform="translate(2.07227 22.8848)" fill="#FAFFF9"/>
<rect width="2.072" height="1.34615" transform="translate(8.28809 21.5381)" fill="#FAFFF9"/>
<rect width="2.072" height="1.34615" transform="translate(8.28809 26.9229)" fill="#FAFFF9"/>
<rect width="2.072" height="1.34615" transform="translate(16.5762 21.5381)" fill="#FAFFF9"/>
<rect width="2.072" height="1.34615" transform="translate(22.792 21.5381)" fill="#FAFFF9"/>
<rect width="2.072" height="1.34615" transform="translate(22.792 25.5771)" fill="#FAFFF9"/>
<rect width="2.072" height="1.34615" transform="translate(22.792 28.2695)" fill="#FAFFF9"/>
<rect width="2.072" height="1.34615" transform="translate(20.7197 28.2695)" fill="#FAFFF9"/>
<rect width="2.072" height="1.34615" transform="translate(20.7197 29.6152)" fill="#FAFFF9"/>
<rect width="2.072" height="1.34615" transform="translate(20.7197 30.9619)" fill="#FAFFF9"/>
<rect width="2.072" height="1.34615" transform="translate(18.6484 30.9619)" fill="#FAFFF9"/>
<rect width="2.072" height="1.34615" transform="translate(18.6484 32.3076)" fill="#FAFFF9"/>
<rect width="2.072" height="1.34615" transform="translate(16.5762 26.9229)" fill="#FAFFF9"/>
<rect width="2.072" height="1.34615" transform="translate(12.4316 6.73047)" fill="#FAFFF9"/>
<rect width="2.072" height="1.34615" transform="translate(8.28809 5.38477)" fill="#FAFFF9"/>
<rect width="2.072" height="1.34615" transform="translate(6.21582 8.07715)" fill="#FAFFF9"/>
<rect width="2.072" height="1.34615" transform="translate(4.14355 10.7695)" fill="#FAFFF9"/>
<rect width="2.072" height="1.34615" transform="translate(2.07227 13.4619)" fill="#FAFFF9"/>
<rect width="2.072" height="1.34615" transform="translate(16.5762 5.38477)" fill="#FAFFF9"/>
<rect width="2.072" height="1.34615" transform="translate(10.3604 4.03809)" fill="#FAFFF9"/>
<rect width="2.072" height="1.34615" transform="translate(14.5039 4.03809)" fill="#FAFFF9"/>
<rect width="2.072" height="1.34615" transform="translate(10.3604 12.1152)" fill="#FAFFF9"/>
<rect width="2.072" height="1.34615" transform="translate(10.3604 32.3076)" fill="#FAFFF9"/>
<rect width="2.072" height="1.34615" transform="translate(14.5039 32.3076)" fill="#FAFFF9"/>
<rect width="2.072" height="1.34615" transform="translate(14.5039 12.1152)" fill="#FAFFF9"/>
<rect width="2.072" height="1.34615" transform="translate(16.5762 17.5)" fill="#FAFFF9"/>
<rect width="2.072" height="1.34615" transform="translate(22.792 17.5)" fill="#FAFFF9"/>
<rect width="2.072" height="1.34615" transform="translate(8.28809 17.5)" fill="#FAFFF9"/>
<rect width="2.072" height="1.34615" transform="translate(2.07227 18.8457)" fill="#FAFFF9"/>
<rect width="2.072" height="1.34615" transform="translate(2.07227 24.2305)" fill="#FAFFF9"/>
<rect width="2.072" height="1.34615" transform="translate(8.28809 22.8848)" fill="#FAFFF9"/>
<rect width="2.072" height="1.34615" transform="translate(8.28809 28.2695)" fill="#FAFFF9"/>
<rect width="2.072" height="1.34615" transform="translate(16.5762 22.8848)" fill="#FAFFF9"/>
<rect width="2.072" height="1.34615" transform="translate(16.5762 28.2695)" fill="#FAFFF9"/>
<rect width="2.072" height="1.34615" transform="translate(12.4316 8.07715)" fill="#FAFFF9"/>
<rect width="2.072" height="1.34615" transform="translate(8.28809 6.73047)" fill="#FAFFF9"/>
<rect width="2.072" height="1.34615" transform="translate(6.21582 9.42285)" fill="#FAFFF9"/>
<rect width="2.072" height="1.34615" transform="translate(4.14355 12.1152)" fill="#FAFFF9"/>
<rect width="2.072" height="1.34615" transform="translate(2.07227 14.8076)" fill="#FAFFF9"/>
<rect width="2.072" height="1.34615" transform="translate(16.5762 6.73047)" fill="#FAFFF9"/>
<rect width="2.072" height="1.34615" transform="translate(18.6484 6.73047)" fill="#FAFFF9"/>
<rect width="2.072" height="1.34615" transform="translate(18.6484 8.07715)" fill="#FAFFF9"/>
<rect width="2.072" height="1.34615" transform="translate(18.6484 9.42285)" fill="#FAFFF9"/>
<rect width="2.072" height="1.34615" transform="translate(20.7197 9.42285)" fill="#FAFFF9"/>
<rect width="2.072" height="1.34615" transform="translate(20.7197 10.7695)" fill="#FAFFF9"/>
<rect width="2.072" height="1.34615" transform="translate(20.7197 12.1152)" fill="#FAFFF9"/>
<rect width="2.072" height="1.34615" transform="translate(20.7197 13.4619)" fill="#FAFFF9"/>
<rect width="2.072" height="1.34615" transform="translate(22.792 13.4619)" fill="#FAFFF9"/>
<rect width="2.072" height="1.34615" transform="translate(10.3604 13.4619)" fill="#FAFFF9"/>
<rect width="2.072" height="1.34615" transform="translate(14.5039 13.4619)" fill="#FAFFF9"/>
<rect width="2.072" height="1.34615" transform="translate(16.5762 18.8457)" fill="#FAFFF9"/>
<rect width="2.072" height="1.34615" transform="translate(22.792 18.8457)" fill="#FAFFF9"/>
<rect width="2.072" height="1.34615" transform="translate(22.792 22.8848)" fill="#FAFFF9"/>
<rect width="2.072" height="1.34615" transform="translate(8.28809 18.8457)" fill="#FAFFF9"/>
<rect width="2.072" height="1.34615" transform="translate(2.07227 20.1924)" fill="#FAFFF9"/>
<rect width="2.072" height="1.34615" transform="translate(2.07227 25.5771)" fill="#FAFFF9"/>
<rect width="2.072" height="1.34615" transform="translate(8.28809 24.2305)" fill="#FAFFF9"/>
<rect width="2.072" height="1.34615" transform="translate(16.5762 24.2305)" fill="#FAFFF9"/>
<rect width="2.072" height="1.34615" transform="translate(14.5039 8.07715)" fill="#68AB6E"/>
<rect width="2.072" height="1.34615" transform="translate(12.4316 14.8076)" fill="#68AB6E"/>
<rect width="2.072" height="1.34615" transform="translate(14.5039 14.8076)" fill="#68AB6E"/>
<rect width="2.072" height="1.34615" transform="translate(10.3604 14.8076)" fill="#68AB6E"/>
<rect width="2.072" height="1.34615" transform="translate(12.4316 18.8457)" fill="#68AB6E"/>
<rect width="2.072" height="1.34615" transform="translate(14.5039 18.8457)" fill="#68AB6E"/>
<rect width="2.072" height="1.34615" transform="translate(10.3604 18.8457)" fill="#68AB6E"/>
<rect width="2.072" height="1.34615" transform="translate(12.4316 22.8848)" fill="#68AB6E"/>
<rect width="2.072" height="1.34615" transform="translate(14.5039 22.8848)" fill="#68AB6E"/>
<rect width="2.072" height="1.34615" transform="translate(10.3604 22.8848)" fill="#68AB6E"/>
<rect width="2.072" height="1.34615" transform="translate(12.4316 26.9229)" fill="#68AB6E"/>
<rect width="2.072" height="1.34615" transform="translate(14.5039 26.9229)" fill="#68AB6E"/>
<rect width="2.072" height="1.34615" transform="translate(10.3604 26.9229)" fill="#68AB6E"/>
<rect width="2.072" height="1.34615" transform="translate(12.4316 30.9619)" fill="#68AB6E"/>
<rect width="2.072" height="1.34615" transform="translate(12.4316 12.1152)" fill="#68AB6E"/>
<rect width="2.072" height="1.34615" transform="translate(12.4316 16.1543)" fill="#68AB6E"/>
<rect width="2.072" height="1.34615" transform="translate(14.5039 16.1543)" fill="#68AB6E"/>
<rect width="2.072" height="1.34615" transform="translate(10.3604 16.1543)" fill="#68AB6E"/>
<rect width="2.072" height="1.34615" transform="translate(12.4316 20.1924)" fill="#68AB6E"/>
<rect width="2.072" height="1.34615" transform="translate(14.5039 20.1924)" fill="#68AB6E"/>
<rect width="2.072" height="1.34615" transform="translate(10.3604 20.1924)" fill="#68AB6E"/>
<rect width="2.072" height="1.34615" transform="translate(12.4316 24.2305)" fill="#68AB6E"/>
<rect width="2.072" height="1.34615" transform="translate(14.5039 24.2305)" fill="#68AB6E"/>
<rect width="2.072" height="1.34615" transform="translate(10.3604 24.2305)" fill="#68AB6E"/>
<rect width="2.072" height="1.34615" transform="translate(12.4316 28.2695)" fill="#68AB6E"/>
<rect width="2.072" height="1.34615" transform="translate(14.5039 33.6543)" fill="#68AB6E"/>
<rect width="2.072" height="1.34615" transform="translate(8.28809 33.6543)" fill="#68AB6E"/>
<rect width="2.072" height="1.34615" transform="translate(14.5039 28.2695)" fill="#68AB6E"/>
<rect width="2.072" height="1.34615" transform="translate(16.5762 33.6543)" fill="#68AB6E"/>
<rect width="2.072" height="1.34615" transform="translate(10.3604 33.6543)" fill="#68AB6E"/>
<rect width="2.072" height="1.34615" transform="translate(10.3604 28.2695)" fill="#68AB6E"/>
<rect width="2.072" height="1.34615" transform="translate(12.4316 33.6543)" fill="#68AB6E"/>
<rect width="2.072" height="1.34615" transform="translate(6.21582 33.6543)" fill="#68AB6E"/>
<rect width="2.072" height="1.34615" transform="translate(12.4316 32.3076)" fill="#68AB6E"/>
<rect width="2.072" height="1.34615" transform="translate(16.5762 32.3076)" fill="#68AB6E"/>
</svg>
