<svg width="24" height="24" viewBox="0 0 24 24" fill="none" xmlns="http://www.w3.org/2000/svg">
<path d="M9.47403 16.0002L18.655 19.2842C18.8093 19.3397 18.974 19.3599 19.137 19.3435C19.3001 19.3272 19.4575 19.2745 19.5976 19.1895C19.7378 19.1045 19.8571 18.9892 19.947 18.8521C20.0369 18.7151 20.0949 18.5596 20.117 18.3972L21.99 4.23923C22.104 3.37723 21.211 2.73423 20.423 3.10923L2.62403 11.6052C1.74403 12.0252 1.81003 13.2952 2.73003 13.6222L5.17003 14.4902L6.50003 14.9572M13 17.2602L11.01 20.5862C10.36 21.3942 9.05103 20.9372 9.05103 19.9032V17.2402C9.05106 16.7377 9.24028 16.2536 9.58103 15.8842L13.452 11.6842" stroke="#68AB6E" stroke-width="2" stroke-linecap="round" stroke-linejoin="round"/>
</svg>
