<svg width="30" height="30" viewBox="0 0 30 30" fill="none" xmlns="http://www.w3.org/2000/svg">
<path d="M11.4425 6.76C13.0263 3.92 13.8175 2.5 15.0013 2.5C16.185 2.5 16.9763 3.92 18.56 6.76L18.97 7.495C19.42 8.3025 19.645 8.70625 19.995 8.9725C20.345 9.23875 20.7825 9.3375 21.6575 9.535L22.4525 9.715C25.5275 10.4113 27.0638 10.7588 27.43 11.935C27.795 13.11 26.7475 14.3363 24.6513 16.7875L24.1088 17.4213C23.5138 18.1175 23.215 18.4663 23.0813 18.8963C22.9475 19.3275 22.9925 19.7925 23.0825 20.7213L23.165 21.5675C23.4813 24.8388 23.64 26.4738 22.6825 27.2C21.725 27.9263 20.285 27.2638 17.4075 25.9388L16.6613 25.5963C15.8438 25.2188 15.435 25.0313 15.0013 25.0313C14.5675 25.0313 14.1588 25.2188 13.3413 25.5963L12.5963 25.9388C9.71752 27.2638 8.27752 27.9263 7.32127 27.2013C6.36252 26.4738 6.52127 24.8388 6.83752 21.5675L6.92002 20.7225C7.01002 19.7925 7.05502 19.3275 6.92002 18.8975C6.78752 18.4663 6.48877 18.1175 5.89377 17.4225L5.35127 16.7875C3.25502 14.3375 2.20752 13.1113 2.57252 11.935C2.93752 10.7588 4.47627 10.41 7.55127 9.715L8.34627 9.535C9.22002 9.3375 9.65627 9.23875 10.0075 8.9725C10.3588 8.70625 10.5825 8.3025 11.0325 7.495L11.4425 6.76Z" stroke="#EFEFEF" stroke-width="1.875"/>
</svg>
