<svg width="375" height="52" viewBox="0 0 375 52" fill="none" xmlns="http://www.w3.org/2000/svg">
<path d="M54.8957 22.0218C55.5082 22.0218 56.0891 22.1353 56.6382 22.3624C57.1874 22.5841 57.6732 22.9326 58.0956 23.4079C58.5233 23.8778 58.8586 24.4824 59.1015 25.2217C59.3444 25.9557 59.4659 26.8401 59.4659 27.8751V27.8909C59.4659 29.1741 59.2811 30.2724 58.9115 31.1859C58.5418 32.0994 58.0111 32.8017 57.3194 33.2928C56.633 33.7786 55.8119 34.0215 54.8561 34.0215C54.1538 34.0215 53.5202 33.8947 52.9552 33.6413C52.3954 33.3825 51.9308 33.0288 51.5611 32.5799C51.1968 32.1258 50.9513 31.6083 50.8245 31.0275L50.8087 30.9404H52.8126L52.8443 31.0196C52.9446 31.2836 53.0872 31.5159 53.272 31.7166C53.4621 31.9172 53.6891 32.073 53.9532 32.1839C54.2225 32.2895 54.5234 32.3423 54.8561 32.3423C55.4581 32.3423 55.9491 32.1654 56.3293 31.8116C56.7148 31.4526 57.0026 30.9747 57.1927 30.378C57.3881 29.776 57.4989 29.1107 57.5253 28.382C57.5306 28.3028 57.5333 28.2262 57.5333 28.1523C57.5333 28.0731 57.5333 27.9965 57.5333 27.9226L57.1768 26.0137C57.1768 25.5808 57.0765 25.1874 56.8759 24.8336C56.6752 24.4798 56.4033 24.1999 56.06 23.994C55.7221 23.7881 55.3393 23.6851 54.9116 23.6851C54.4997 23.6851 54.1221 23.7854 53.7789 23.9861C53.4357 24.1867 53.1611 24.4613 52.9552 24.8098C52.7492 25.153 52.6463 25.5385 52.6463 25.9662V25.9821C52.6463 26.4256 52.7439 26.819 52.9393 27.1622C53.1347 27.5002 53.4014 27.7668 53.7393 27.9622C54.0772 28.1576 54.4627 28.2553 54.8957 28.2553C55.3287 28.2553 55.7168 28.1602 56.06 27.9701C56.4033 27.78 56.6752 27.516 56.8759 27.1781C57.0765 26.8401 57.1768 26.4573 57.1768 26.0296V26.0137H57.6521V28.1206H57.3749C57.2376 28.4216 57.0343 28.7015 56.765 28.9602C56.4957 29.2189 56.163 29.4275 55.767 29.5859C55.3762 29.7443 54.9168 29.8236 54.3888 29.8236C53.6601 29.8236 53.0159 29.6599 52.4562 29.3325C51.8964 29.0051 51.4555 28.5563 51.1334 27.986C50.8166 27.4157 50.6582 26.7715 50.6582 26.0534V26.0375C50.6582 25.2613 50.8377 24.5722 51.1968 23.9702C51.5611 23.363 52.0628 22.8878 52.7017 22.5445C53.3459 22.196 54.0772 22.0218 54.8957 22.0218ZM63.0618 32.1997C62.7028 32.1997 62.4018 32.0809 62.1589 31.8433C61.9213 31.6004 61.8025 31.3047 61.8025 30.9562C61.8025 30.6024 61.9213 30.3067 62.1589 30.0691C62.4018 29.8262 62.7028 29.7047 63.0618 29.7047C63.4262 29.7047 63.7272 29.8262 63.9648 30.0691C64.2024 30.3067 64.3212 30.6024 64.3212 30.9562C64.3212 31.3047 64.2024 31.6004 63.9648 31.8433C63.7272 32.0809 63.4262 32.1997 63.0618 32.1997ZM63.0618 26.3227C62.7028 26.3227 62.4018 26.2038 62.1589 25.9662C61.9213 25.7233 61.8025 25.4276 61.8025 25.0791C61.8025 24.7253 61.9213 24.4296 62.1589 24.192C62.4018 23.9491 62.7028 23.8277 63.0618 23.8277C63.4262 23.8277 63.7272 23.9491 63.9648 24.192C64.2024 24.4296 64.3212 24.7253 64.3212 25.0791C64.3212 25.4276 64.2024 25.7233 63.9648 25.9662C63.7272 26.2038 63.4262 26.3227 63.0618 26.3227ZM72.2022 33.7363V31.5423H66.6103V29.8711C66.9112 29.3589 67.2122 28.844 67.5132 28.3266C67.8195 27.8091 68.1284 27.2942 68.4399 26.782C68.7567 26.2646 69.0709 25.755 69.3825 25.2534C69.6993 24.7465 70.0135 24.2475 70.325 23.7564C70.6418 23.26 70.9587 22.7769 71.2755 22.3069H74.1507V29.8552H75.6952V31.5423H74.1507V33.7363H72.2022ZM68.5112 29.9028H72.2339V23.9386H72.1151C71.8827 24.2976 71.6425 24.6672 71.3943 25.0474C71.1514 25.4276 70.9059 25.8157 70.6577 26.2118C70.4095 26.6078 70.164 27.0065 69.9211 27.4078C69.6782 27.8038 69.4379 28.2025 69.2003 28.6038C68.9627 28.9998 68.733 29.3932 68.5112 29.784V29.9028ZM80.4238 33.7363V24.3187H80.2812L77.4377 26.3227V24.4059L80.4238 22.3069H82.4594V33.7363H80.4238Z" fill="black"/>
<rect opacity="0.35" x="318.909" y="22.6607" width="22.9008" height="11.4504" rx="3.62595" stroke="black" stroke-width="0.954198"/>
<path opacity="0.4" d="M343.241 26.7456V30.6344C344.009 30.3051 344.508 29.5389 344.508 28.69C344.508 27.8411 344.009 27.075 343.241 26.7456Z" fill="black"/>
<rect x="320.34" y="24.0918" width="20.0382" height="8.58779" rx="2.3855" fill="black"/>
<path fill-rule="evenodd" clip-rule="evenodd" d="M303.423 25.1453C305.796 25.1454 308.079 26.0253 309.798 27.603C309.928 27.7248 310.135 27.7233 310.263 27.5996L311.501 26.394C311.565 26.3312 311.601 26.2462 311.601 26.1578C311.6 26.0694 311.563 25.9848 311.498 25.9228C306.983 21.7484 299.862 21.7484 295.347 25.9228C295.282 25.9847 295.245 26.0693 295.244 26.1577C295.244 26.2462 295.279 26.3312 295.344 26.394L296.582 27.5996C296.71 27.7235 296.917 27.725 297.047 27.603C298.767 26.0252 301.049 25.1453 303.423 25.1453ZM303.42 29.1723C304.715 29.1722 305.964 29.6605 306.924 30.5423C307.054 30.6675 307.258 30.6648 307.385 30.5362L308.613 29.2773C308.678 29.2113 308.714 29.1217 308.713 29.0286C308.712 28.9355 308.674 28.8467 308.608 28.782C305.685 26.0236 301.157 26.0236 298.234 28.782C298.168 28.8467 298.13 28.9356 298.129 29.0287C298.128 29.1218 298.164 29.2114 298.229 29.2773L299.457 30.5362C299.584 30.6648 299.788 30.6675 299.918 30.5423C300.877 29.6611 302.125 29.1728 303.42 29.1723ZM305.828 31.8379C305.83 31.9384 305.795 32.0353 305.731 32.1058L303.654 34.4481C303.593 34.5169 303.51 34.5556 303.423 34.5556C303.337 34.5556 303.254 34.5169 303.193 34.4481L301.115 32.1058C301.051 32.0353 301.016 31.9383 301.018 31.8378C301.02 31.7373 301.059 31.6421 301.125 31.5747C302.452 30.321 304.395 30.321 305.721 31.5747C305.788 31.6421 305.827 31.7374 305.828 31.8379Z" fill="black"/>
<path fill-rule="evenodd" clip-rule="evenodd" d="M288.088 23.7886C288.088 23.1845 287.632 22.6948 287.07 22.6948H286.053C285.49 22.6948 285.035 23.1845 285.035 23.7886V33.2675C285.035 33.8716 285.49 34.3612 286.053 34.3612H287.07C287.632 34.3612 288.088 33.8716 288.088 33.2675V23.7886ZM280.995 25.0281H282.012C282.575 25.0281 283.03 25.5295 283.03 26.1481V33.2413C283.03 33.8598 282.575 34.3613 282.012 34.3613H280.995C280.432 34.3613 279.977 33.8598 279.977 33.2413V26.1481C279.977 25.5295 280.432 25.0281 280.995 25.0281ZM276.861 27.5558H275.843C275.281 27.5558 274.826 28.0636 274.826 28.6901V33.227C274.826 33.8534 275.281 34.3612 275.843 34.3612H276.861C277.423 34.3612 277.879 33.8534 277.879 33.227V28.6901C277.879 28.0636 277.423 27.5558 276.861 27.5558ZM271.803 29.8891H270.785C270.223 29.8891 269.768 30.3897 269.768 31.0072V33.2432C269.768 33.8607 270.223 34.3613 270.785 34.3613H271.803C272.365 34.3613 272.821 33.8607 272.821 33.2432V31.0072C272.821 30.3897 272.365 29.8891 271.803 29.8891Z" fill="black"/>
</svg>
