<svg width="34" height="34" viewBox="0 0 34 34" fill="none" xmlns="http://www.w3.org/2000/svg">
<rect x="0.75" y="0.75" width="32.5" height="32.5" rx="16.25" fill="#FAFFF9"/>
<rect x="0.75" y="0.75" width="32.5" height="32.5" rx="16.25" stroke="#68AB6E" stroke-width="1.5"/>
<path d="M24.9958 15.621V24C24.9958 24.5304 24.7851 25.0391 24.4101 25.4142C24.035 25.7893 23.5263 26 22.9958 26H11.0038C10.4736 25.9997 9.96513 25.7889 9.59028 25.4139C9.21542 25.0388 9.00484 24.5303 9.00484 24V15.621M12.5018 13.75L13.0018 8M12.5018 13.75C12.5018 16.652 16.9998 16.652 16.9998 13.75M12.5018 13.75C12.5018 16.926 7.34684 16.27 8.06884 13.502L9.11384 9.495C9.22552 9.06703 9.47592 8.68815 9.82586 8.41765C10.1758 8.14714 10.6055 8.00026 11.0478 8H22.9518C23.3941 8.00026 23.8239 8.14714 24.1738 8.41765C24.5238 8.68815 24.7742 9.06703 24.8858 9.495L25.9308 13.502C26.6528 16.271 21.4978 16.926 21.4978 13.75M16.9998 13.75V8M16.9998 13.75C16.9998 16.652 21.4978 16.652 21.4978 13.75M21.4978 13.75L20.9978 8" stroke="#614540" stroke-linecap="round" stroke-linejoin="round"/>
</svg>
