<svg width="76" height="74" viewBox="0 0 76 74" fill="none" xmlns="http://www.w3.org/2000/svg">
<rect width="4.45783" height="4.4186" transform="matrix(0 -1 -1 0 62.7441 20.0601)" fill="#FF8438" fill-opacity="0.7"/>
<rect width="4.45783" height="4.4186" transform="matrix(0 -1 -1 0 67.1621 15.6021)" fill="#FFA065" fill-opacity="0.7"/>
<rect width="4.45783" height="4.4186" transform="matrix(0 -1 -1 0 71.5811 11.1445)" fill="#FFD065" fill-opacity="0.7"/>
<rect width="4.45783" height="4.4186" transform="matrix(0 1 -1 0 62.7441 56.1685)" fill="#FF8438" fill-opacity="0.7"/>
<rect width="4.45783" height="4.4186" transform="matrix(0 1 -1 0 67.1621 60.6265)" fill="#FFA065" fill-opacity="0.7"/>
<rect width="4.45783" height="4.4186" transform="matrix(0 1 -1 0 71.5811 65.084)" fill="#FFD065" fill-opacity="0.7"/>
<rect width="4.45783" height="4.4186" transform="matrix(0 1 1 0 13.2559 56.1685)" fill="#FF8438" fill-opacity="0.7"/>
<rect width="4.45783" height="4.4186" transform="matrix(0 1 1 0 8.83691 60.6265)" fill="#FFA065" fill-opacity="0.7"/>
<rect width="4.45783" height="4.4186" transform="matrix(0 1 1 0 4.41797 65.084)" fill="#FFD065" fill-opacity="0.7"/>
<rect width="4.45783" height="4.4186" transform="matrix(0 -1 1 0 13.2559 17.8315)" fill="#FF8438" fill-opacity="0.7"/>
<rect width="4.45783" height="4.4186" transform="matrix(0 -1 1 0 8.83691 13.3735)" fill="#FFA065" fill-opacity="0.7"/>
<rect width="4.45783" height="4.4186" transform="matrix(0 -1 1 0 4.41797 8.91602)" fill="#FFD065" fill-opacity="0.7"/>
<rect width="4.45783" height="4.4186" transform="matrix(0 -1 1 0 8.83691 39.229)" fill="#FF8438" fill-opacity="0.7"/>
<rect width="4.45783" height="4.4186" transform="matrix(0 -1 1 0 4.41895 39.229)" fill="#FFA065" fill-opacity="0.7"/>
<rect width="4.45783" height="4.4186" transform="matrix(0 -1 1 0 0 39.229)" fill="#FFD065" fill-opacity="0.7"/>
<rect width="4.45783" height="4.4186" transform="matrix(0 -1 -1 0 67.1631 39.229)" fill="#FF8438" fill-opacity="0.7"/>
<rect width="4.45783" height="4.4186" transform="matrix(0 -1 -1 0 71.5811 39.229)" fill="#FFA065" fill-opacity="0.7"/>
<rect width="4.45783" height="4.4186" transform="matrix(0 -1 -1 0 76 39.229)" fill="#FFD065" fill-opacity="0.7"/>
<rect width="4.4186" height="4.45783" transform="translate(35.791 8.91553)" fill="#FF8438" fill-opacity="0.7"/>
<rect width="4.4186" height="4.45783" transform="translate(35.791 4.45801)" fill="#FFA065" fill-opacity="0.7"/>
<rect width="4.4186" height="4.45783" transform="translate(35.791)" fill="#FFD065" fill-opacity="0.7"/>
<rect width="9.72093" height="29.4217" transform="translate(33.1387 22.2896)" fill="#FFA065" fill-opacity="0.7"/>
<rect width="9.72093" height="22.2892" transform="translate(26.5107 25.8555)" fill="#FFA065" fill-opacity="0.7"/>
<rect width="3.53488" height="9.80723" transform="translate(22.9766 32.0967)" fill="#FFA065" fill-opacity="0.7"/>
<rect width="3.53488" height="9.80723" transform="translate(49.4883 32.0967)" fill="#FFA065" fill-opacity="0.7"/>
<rect width="9.72093" height="22.2892" transform="translate(39.7666 25.8555)" fill="#FFA065" fill-opacity="0.7"/>
<rect width="9.72093" height="3.56627" transform="translate(33.1387 18.7231)" fill="#FFD065" fill-opacity="0.7"/>
<rect width="6.6279" height="3.56627" transform="translate(26.5107 22.2896)" fill="#FFD065" fill-opacity="0.7"/>
<rect width="6.6279" height="3.56627" transform="translate(26.5107 48.145)" fill="#FFD065" fill-opacity="0.7"/>
<rect width="6.6279" height="3.56627" transform="translate(42.8604 48.145)" fill="#FFD065" fill-opacity="0.7"/>
<rect width="3.53488" height="6.24096" transform="translate(22.9766 25.8555)" fill="#FFD065" fill-opacity="0.7"/>
<rect width="3.53488" height="6.24096" transform="translate(22.9766 41.9038)" fill="#FFD065" fill-opacity="0.7"/>
<rect width="3.53488" height="6.24096" transform="translate(49.4883 41.9038)" fill="#FFD065" fill-opacity="0.7"/>
<rect width="3.53488" height="9.80723" transform="translate(19.4414 32.0967)" fill="#FFD065" fill-opacity="0.7"/>
<rect width="3.53488" height="9.80723" transform="translate(53.0225 32.0967)" fill="#FFD065" fill-opacity="0.7"/>
<rect width="3.53488" height="6.24096" transform="translate(49.4883 25.8555)" fill="#FFD065" fill-opacity="0.7"/>
<rect width="6.6279" height="3.56627" transform="translate(42.8604 22.2896)" fill="#FFD065" fill-opacity="0.7"/>
<rect width="9.72093" height="3.56627" transform="translate(33.1387 51.7109)" fill="#FFD065" fill-opacity="0.7"/>
<rect width="4.4186" height="4.45783" transform="matrix(1 0 0 -1 35.791 65.0845)" fill="#FF8438" fill-opacity="0.7"/>
<rect width="4.4186" height="4.45783" transform="matrix(1 0 0 -1 35.791 69.542)" fill="#FFA065" fill-opacity="0.7"/>
<rect width="4.4186" height="4.45783" transform="matrix(1 0 0 -1 35.791 74)" fill="#FFD065" fill-opacity="0.7"/>
</svg>
