<svg width="76" height="74" viewBox="0 0 76 74" fill="none" xmlns="http://www.w3.org/2000/svg">
<rect width="4.45783" height="4.4186" transform="matrix(0 -1 -1 0 62.7441 20.0603)" fill="#FF8438" fill-opacity="0.7"/>
<rect width="4.45783" height="4.4186" transform="matrix(0 -1 -1 0 67.1626 15.6025)" fill="#FFA065" fill-opacity="0.7"/>
<rect width="4.45783" height="4.4186" transform="matrix(0 -1 -1 0 71.5813 11.1445)" fill="#FFD065" fill-opacity="0.7"/>
<rect width="4.45783" height="4.4186" transform="matrix(0 1 -1 0 62.7441 56.1687)" fill="#FF8438" fill-opacity="0.7"/>
<rect width="4.45783" height="4.4186" transform="matrix(0 1 -1 0 67.1626 60.6265)" fill="#FFA065" fill-opacity="0.7"/>
<rect width="4.45783" height="4.4186" transform="matrix(0 1 -1 0 71.5813 65.0845)" fill="#FFD065" fill-opacity="0.7"/>
<rect width="4.45783" height="4.4186" transform="matrix(0 1 1 0 13.2556 56.1687)" fill="#FF8438" fill-opacity="0.7"/>
<rect width="4.45783" height="4.4186" transform="matrix(0 1 1 0 8.83716 60.6265)" fill="#FFA065" fill-opacity="0.7"/>
<rect width="4.45783" height="4.4186" transform="matrix(0 1 1 0 4.41846 65.0845)" fill="#FFD065" fill-opacity="0.7"/>
<rect width="4.45783" height="4.4186" transform="matrix(0 -1 1 0 13.2556 17.8313)" fill="#FF8438" fill-opacity="0.7"/>
<rect width="4.45783" height="4.4186" transform="matrix(0 -1 1 0 8.83716 13.3735)" fill="#FFA065" fill-opacity="0.7"/>
<rect width="4.45783" height="4.4186" transform="matrix(0 -1 1 0 4.41846 8.91553)" fill="#FFD065" fill-opacity="0.7"/>
<rect width="4.45783" height="4.4186" transform="matrix(0 -1 1 0 8.83716 39.229)" fill="#FF8438" fill-opacity="0.7"/>
<rect width="4.45783" height="4.4186" transform="matrix(0 -1 1 0 4.41846 39.229)" fill="#FFA065" fill-opacity="0.7"/>
<rect width="4.45783" height="4.4186" transform="matrix(0 -1 1 0 0 39.229)" fill="#FFD065" fill-opacity="0.7"/>
<rect width="4.45783" height="4.4186" transform="matrix(0 -1 -1 0 67.1628 39.229)" fill="#FF8438" fill-opacity="0.7"/>
<rect width="4.45783" height="4.4186" transform="matrix(0 -1 -1 0 71.5813 39.229)" fill="#FFA065" fill-opacity="0.7"/>
<rect width="4.45783" height="4.4186" transform="matrix(0 -1 -1 0 76 39.229)" fill="#FFD065" fill-opacity="0.7"/>
<rect width="4.4186" height="4.45783" transform="translate(35.7905 8.91577)" fill="#FF8438" fill-opacity="0.7"/>
<rect width="4.4186" height="4.45783" transform="translate(35.7905 4.45776)" fill="#FFA065" fill-opacity="0.7"/>
<rect width="4.4186" height="4.45783" transform="translate(35.7905)" fill="#FFD065" fill-opacity="0.7"/>
<rect width="9.72093" height="29.4217" transform="translate(33.1394 22.2891)" fill="#FFA065" fill-opacity="0.7"/>
<rect width="9.72093" height="22.2892" transform="translate(26.5117 25.8555)" fill="#FFA065" fill-opacity="0.7"/>
<rect width="3.53488" height="9.80723" transform="translate(22.9768 32.0964)" fill="#FFA065" fill-opacity="0.7"/>
<rect width="3.53488" height="9.80723" transform="translate(49.4883 32.0964)" fill="#FFA065" fill-opacity="0.7"/>
<rect width="9.72093" height="22.2892" transform="translate(39.7676 25.8555)" fill="#FFA065" fill-opacity="0.7"/>
<rect width="9.72093" height="3.56627" transform="translate(33.1394 18.7229)" fill="#FFD065" fill-opacity="0.7"/>
<rect width="6.6279" height="3.56627" transform="translate(26.5117 22.2891)" fill="#FFD065" fill-opacity="0.7"/>
<rect width="6.6279" height="3.56627" transform="translate(26.5117 48.1445)" fill="#FFD065" fill-opacity="0.7"/>
<rect width="6.6279" height="3.56627" transform="translate(42.8606 48.1445)" fill="#FFD065" fill-opacity="0.7"/>
<rect width="3.53488" height="6.24096" transform="translate(22.9768 25.8555)" fill="#FFD065" fill-opacity="0.7"/>
<rect width="3.53488" height="6.24096" transform="translate(22.9768 41.9036)" fill="#FFD065" fill-opacity="0.7"/>
<rect width="3.53488" height="6.24096" transform="translate(49.4883 41.9036)" fill="#FFD065" fill-opacity="0.7"/>
<rect width="3.53488" height="9.80723" transform="translate(19.4419 32.0964)" fill="#FFD065" fill-opacity="0.7"/>
<rect width="3.53488" height="9.80723" transform="translate(53.0232 32.0964)" fill="#FFD065" fill-opacity="0.7"/>
<rect width="3.53488" height="6.24096" transform="translate(49.4883 25.8555)" fill="#FFD065" fill-opacity="0.7"/>
<rect width="6.6279" height="3.56627" transform="translate(42.8606 22.2891)" fill="#FFD065" fill-opacity="0.7"/>
<rect width="9.72093" height="3.56627" transform="translate(33.1394 51.7109)" fill="#FFD065" fill-opacity="0.7"/>
<rect width="4.4186" height="4.45783" transform="matrix(1 0 0 -1 35.7905 65.0845)" fill="#FF8438" fill-opacity="0.7"/>
<rect width="4.4186" height="4.45783" transform="matrix(1 0 0 -1 35.7905 69.5422)" fill="#FFA065" fill-opacity="0.7"/>
<rect width="4.4186" height="4.45783" transform="matrix(1 0 0 -1 35.7905 74)" fill="#FFD065" fill-opacity="0.7"/>
</svg>
