<svg width="28" height="28" viewBox="0 0 28 28" fill="none" xmlns="http://www.w3.org/2000/svg">
<path d="M17.1815 14.6045C18.5972 15.2728 19.8044 16.3138 20.6735 17.616C21.5426 18.9181 22.0409 20.4323 22.115 21.9961C22.1248 22.1393 22.106 22.2831 22.0595 22.419C22.0131 22.5548 21.94 22.68 21.8445 22.7873C21.749 22.8945 21.633 22.9815 21.5034 23.0433C21.3738 23.1051 21.2331 23.1404 21.0897 23.1471C20.9463 23.1538 20.803 23.1318 20.6682 23.0824C20.5334 23.0329 20.4098 22.9571 20.3047 22.8592C20.1996 22.7614 20.1151 22.6435 20.0562 22.5126C19.9973 22.3816 19.9651 22.2402 19.9616 22.0967C19.8832 20.4357 19.1682 18.8687 17.965 17.7209C16.7619 16.5732 15.1629 15.9328 13.5 15.9328C11.8372 15.9328 10.2382 16.5732 9.03502 17.7209C7.83182 18.8687 7.11683 20.4357 7.03847 22.0967C7.0191 22.3779 6.89042 22.6402 6.67998 22.8277C6.46954 23.0151 6.19407 23.1127 5.91257 23.0996C5.63106 23.0864 5.36589 22.9636 5.17385 22.7573C4.9818 22.5511 4.87815 22.2778 4.88509 21.9961C4.95902 20.4324 5.45711 18.9184 6.32597 17.6162C7.19482 16.3141 8.40168 15.273 9.81716 14.6045C8.91011 13.8479 8.25814 12.8303 7.94992 11.69C7.6417 10.5498 7.6922 9.3423 8.09455 8.23178C8.4969 7.12126 9.23156 6.16164 10.1986 5.48344C11.1657 4.80525 12.3182 4.44141 13.4993 4.44141C14.6805 4.44141 15.833 4.80525 16.8 5.48344C17.7671 6.16164 18.5017 7.12126 18.9041 8.23178C19.3064 9.3423 19.3569 10.5498 19.0487 11.69C18.7405 12.8303 18.0885 13.8479 17.1815 14.6045ZM17.0938 10.187C17.0938 9.2339 16.7152 8.31981 16.0412 7.64585C15.3672 6.97189 14.4532 6.59327 13.5 6.59327C12.5469 6.59327 11.6328 6.97189 10.9589 7.64585C10.2849 8.31981 9.90628 9.2339 9.90628 10.187C9.90628 11.1401 10.2849 12.0542 10.9589 12.7282C11.6328 13.4021 12.5469 13.7808 13.5 13.7808C14.4532 13.7808 15.3672 13.4021 16.0412 12.7282C16.7152 12.0542 17.0938 11.1401 17.0938 10.187Z" fill="currentColor"/>
</svg>
