<svg width="4" height="4" viewBox="0 0 4 4" fill="none" xmlns="http://www.w3.org/2000/svg">
<path d="M2 0C2.19034 0 2.34483 0.154483 2.34483 0.344828V1.65517H3.65517C3.74663 1.65517 3.83433 1.6915 3.899 1.75617C3.96367 1.82084 4 1.90855 4 2C4 2.09145 3.96367 2.17916 3.899 2.24383C3.83433 2.3085 3.74663 2.34483 3.65517 2.34483H2.34483V3.65517C2.34483 3.74663 2.3085 3.83433 2.24383 3.899C2.17916 3.96367 2.09145 4 2 4C1.90855 4 1.82084 3.96367 1.75617 3.899C1.6915 3.83433 1.65517 3.74663 1.65517 3.65517V2.34483H0.344828C0.253374 2.34483 0.165665 2.3085 0.100998 2.24383C0.0363299 2.17916 0 2.09145 0 2C0 1.90855 0.0363299 1.82084 0.100998 1.75617C0.165665 1.6915 0.253374 1.65517 0.344828 1.65517H1.65517V0.344828C1.65517 0.154483 1.80966 0 2 0Z" fill="#7A5751"/>
</svg>
