<svg width="112" height="22" viewBox="0 0 112 22" fill="none" xmlns="http://www.w3.org/2000/svg">
<path d="M18 -4.76837e-07V16H16V22H12V18H10V14H8V18H6V22H2V16H0V-4.76837e-07H4V12H6V8H8V4H10V8H12V12H14V-4.76837e-07H18ZM19.9922 22V6H23.9922V22H19.9922ZM19.9922 4V-4.76837e-07H23.9922V4H19.9922ZM25.9922 18H33.9922V16H27.9922V14H25.9922V8H27.9922V6H37.9922V10H29.9922V12H35.9922V14H37.9922V20H35.9922V22H25.9922V18ZM39.9844 22V-4.76837e-07H43.9844V6H51.9844V8H53.9844V22H49.9844V10H43.9844V22H39.9844ZM66 22V-4.76837e-07H70V18H80V22H66ZM82.0078 22V6H86.0078V22H82.0078ZM82.0078 4V-4.76837e-07H86.0078V4H82.0078ZM88.0078 18H96.0078V16H90.0078V14H88.0078V8H90.0078V6H100.008V10H92.0078V12H98.0078V14H100.008V20H98.0078V22H88.0078V18ZM102 10V6H104V2H108V6H112V10H108V18H112V22H106V20H104V10H102Z" fill="#3D2B27"/>
</svg>
