<svg width="99" height="80" viewBox="0 0 99 80" fill="none" xmlns="http://www.w3.org/2000/svg">
<rect width="3.1157" height="3.1157" transform="translate(18.1699 38.5913) rotate(-13.8564)" fill="#CCCCCC"/>
<rect width="3.1157" height="3.1157" transform="translate(18.9189 41.6069) rotate(-13.8564)" fill="#CCCCCC"/>
<rect width="3.1157" height="3.1157" transform="translate(19.6641 44.6235) rotate(-13.8564)" fill="#CCCCCC"/>
<rect width="3.1157" height="3.1157" transform="translate(20.0361 46.1318) rotate(-13.8564)" fill="#CCCCCC"/>
<rect width="3.1157" height="3.1157" transform="translate(20.707 48.8472) rotate(-13.8564)" fill="#7E7E7E"/>
<rect width="3.1157" height="3.1157" transform="translate(23.8037 50.9639) rotate(-13.8564)" fill="#7E7E7E"/>
<rect width="3.1157" height="3.1157" transform="translate(24.4736 53.6787) rotate(-13.8564)" fill="#7E7E7E"/>
<rect width="3.1157" height="3.1157" transform="translate(27.2041 53.0063) rotate(-13.8564)" fill="#7E7E7E"/>
<rect width="5.60826" height="5.60826" transform="translate(27.8027 55.4155) rotate(-13.8564)" fill="#7E7E7E"/>
<rect width="5.60826" height="5.60826" transform="translate(30.9004 57.5327) rotate(-13.8564)" fill="#7E7E7E"/>
<rect width="5.60826" height="5.60826" transform="translate(34.3008 59.5747) rotate(-13.8564)" fill="#7E7E7E"/>
<rect width="5.60826" height="5.60826" transform="translate(37.627 61.3154) rotate(-13.8564)" fill="#7E7E7E"/>
<rect width="10.3099" height="5.59296" transform="matrix(0.970958 -0.239249 0.23973 0.97084 66.4385 54.2231)" fill="#7E7E7E"/>
<rect width="10.3099" height="5.59296" transform="matrix(0.970958 -0.239249 0.23973 0.97084 68.2695 51.2119)" fill="#7E7E7E"/>
<rect width="10.3099" height="5.59296" transform="matrix(0.970958 -0.239249 0.23973 0.97084 70.3291 47.8242)" fill="#7E7E7E"/>
<rect width="10.3099" height="5.59296" transform="matrix(0.970958 -0.239249 0.23973 0.97084 72.3887 44.4365)" fill="#7E7E7E"/>
<rect width="5.31117" height="5.59296" transform="matrix(0.970958 -0.239249 0.23973 0.97084 78.4033 37.5146)" fill="#7E7E7E"/>
<rect width="5.62359" height="18.6432" transform="matrix(0.970958 -0.239249 0.23973 0.97084 76.4346 19.1187)" fill="#7E7E7E"/>
<rect width="3.12422" height="8.38945" transform="matrix(0.970958 -0.239249 0.23973 0.97084 74.8652 14.0649)" fill="#7E7E7E"/>
<rect width="29.9925" height="5.90369" transform="matrix(0.970958 -0.239249 0.23973 0.97084 42.918 62.5786)" fill="#7E7E7E"/>
<rect width="19.0577" height="4.6608" transform="matrix(0.970958 -0.239249 0.23973 0.97084 49.1953 65.1924)" fill="#7E7E7E"/>
<rect width="3.1157" height="3.1157" transform="translate(21.7871 44.1006) rotate(-13.8564)" fill="#CCCCCC"/>
<rect width="3.1157" height="3.1157" transform="translate(24.7354 45.6143) rotate(-13.8564)" fill="#CCCCCC"/>
<rect width="3.1157" height="3.1157" transform="translate(22.7607 46.7407) rotate(-13.8564)" fill="#CCCCCC"/>
<rect width="3.1157" height="3.1157" transform="translate(23.1338 48.249) rotate(-13.8564)" fill="#CCCCCC"/>
<rect width="3.1157" height="3.1157" transform="translate(25.2568 47.7256) rotate(-13.8564)" fill="#CCCCCC"/>
<rect width="3.1157" height="3.1157" transform="translate(25.9268 50.4409) rotate(-13.8564)" fill="#CCCCCC"/>
<rect width="3.1157" height="3.1157" transform="translate(28.9609 49.6934) rotate(-13.8564)" fill="#CCCCCC"/>
<rect width="3.1157" height="3.1157" transform="translate(31.3877 49.0952) rotate(-13.8564)" fill="#CCCCCC"/>
<rect width="3.1157" height="3.1157" transform="translate(29.2529 52.1812) rotate(-13.8564)" fill="#CCCCCC"/>
<rect width="3.1157" height="3.1157" transform="translate(31.9834 51.5088) rotate(-13.8564)" fill="#CCCCCC"/>
<rect width="3.1157" height="3.1157" transform="translate(32.6533 54.2236) rotate(-13.8564)" fill="#CCCCCC"/>
<rect width="3.1157" height="3.1157" transform="translate(35.166 51.3643) rotate(-13.8564)" fill="#CCCCCC"/>
<rect width="3.1157" height="3.1157" transform="translate(38.1992 50.6172) rotate(-13.8564)" fill="#CCCCCC"/>
<rect width="3.1157" height="3.1157" transform="translate(42.1143 2.61377) rotate(-13.8564)" fill="#CCCCCC"/>
<rect width="3.1157" height="3.1157" transform="translate(45.1475 1.86621) rotate(-13.8564)" fill="#CCCCCC"/>
<rect width="3.1157" height="3.1157" transform="translate(48.1816 1.11865) rotate(-13.8564)" fill="#CCCCCC"/>
<rect width="3.1157" height="3.1157" transform="translate(49.6982 0.746094) rotate(-13.8564)" fill="#CCCCCC"/>
<rect width="3.1157" height="3.1157" transform="translate(47.9404 4.05469) rotate(-13.8564)" fill="#CCCCCC"/>
<rect width="3.1157" height="3.1157" transform="translate(50.3672 3.45654) rotate(-13.8564)" fill="#CCCCCC"/>
<rect width="3.1157" height="3.1157" transform="translate(53.4014 2.70898) rotate(-13.8564)" fill="#CCCCCC"/>
<rect width="3.1157" height="3.1157" transform="translate(55.5244 2.18604) rotate(-13.8564)" fill="#CCCCCC"/>
<rect width="3.1157" height="3.1157" transform="translate(53.6934 5.19727) rotate(-13.8564)" fill="#CCCCCC"/>
<rect width="3.1157" height="3.1157" transform="translate(56.1201 4.59912) rotate(-13.8564)" fill="#CCCCCC"/>
<rect width="3.1157" height="3.1157" transform="translate(56.791 7.31396) rotate(-13.8564)" fill="#CCCCCC"/>
<rect width="3.1157" height="3.1157" transform="translate(58.8506 3.92676) rotate(-13.8564)" fill="#CCCCCC"/>
<rect width="3.1157" height="3.1157" transform="translate(61.2773 3.32861) rotate(-13.8564)" fill="#CCCCCC"/>
<rect width="3.1157" height="3.1157" transform="translate(60.4951 9.28174) rotate(-13.8564)" fill="#CCCCCC"/>
<rect width="3.1157" height="3.1157" transform="translate(63.5283 8.53418) rotate(-13.8564)" fill="#CCCCCC"/>
<rect width="3.12422" height="7.76801" transform="matrix(0.970958 -0.239249 0.23973 0.97084 65.1162 8.4668)" fill="#CCCCCC"/>
<rect width="5.31117" height="2.48576" transform="matrix(0.970958 -0.239249 0.23973 0.97084 59.5918 6.94824)" fill="#CCCCCC"/>
<rect width="3.1157" height="3.1157" transform="translate(64.752 5.67236) rotate(-13.8564)" fill="#CCCCCC"/>
<rect width="3.1157" height="3.1157" transform="translate(67.7754 7.48779) rotate(-13.8564)" fill="#CCCCCC"/>
<rect width="3.1157" height="3.1157" transform="translate(70.8721 9.60498) rotate(-13.8564)" fill="#CCCCCC"/>
<rect width="3.1157" height="3.1157" transform="translate(71.6172 12.6216) rotate(-13.8564)" fill="#CCCCCC"/>
<rect width="3.1157" height="3.1157" transform="translate(63.5918 11.3984) rotate(-13.8564)" fill="#CCCCCC"/>
<rect width="3.1157" height="3.1157" transform="translate(64.1133 13.5103) rotate(-13.8564)" fill="#CCCCCC"/>
<rect width="3.1157" height="3.1157" transform="translate(67.5889 15.854) rotate(-13.8564)" fill="#CCCCCC"/>
<rect width="3.12422" height="29.2077" transform="matrix(0.970958 -0.239249 0.23973 0.97084 68.2549 18.5737)" fill="#CCCCCC"/>
<rect width="3.12422" height="22.6826" transform="matrix(0.970958 -0.239249 0.23973 0.97084 72.3584 15.6426)" fill="#CCCCCC"/>
<rect width="3.12422" height="34.4899" transform="matrix(0.970958 -0.239249 0.23973 0.97084 68.5166 10.5093)" fill="#CCCCCC"/>
<rect width="3.12422" height="10.5645" transform="matrix(0.970958 -0.239249 0.23973 0.97084 76.7275 21.6064)" fill="#CCCCCC"/>
<rect width="3.12422" height="24.2362" transform="matrix(0.970958 -0.239249 0.23973 0.97084 67.3125 26.4863)" fill="#CCCCCC"/>
<rect width="3.12422" height="16.1575" transform="matrix(0.970958 -0.239249 0.23973 0.97084 66.8232 34.9277)" fill="#CCCCCC"/>
<rect width="3.12422" height="16.1575" transform="matrix(0.970958 -0.239249 0.23973 0.97084 64.7627 38.3154)" fill="#CCCCCC"/>
<rect width="3.12422" height="15.8467" transform="matrix(0.970958 -0.239249 0.23973 0.97084 60.2764 42.3008)" fill="#CCCCCC"/>
<rect width="3.12422" height="13.361" transform="matrix(0.970958 -0.239249 0.23973 0.97084 62.4004 41.7778)" fill="#CCCCCC"/>
<rect width="3.1157" height="3.1157" transform="translate(41.2324 49.8696) rotate(-13.8564)" fill="#CCCCCC"/>
<rect width="3.1157" height="3.1157" transform="translate(42.4463 49.5703) rotate(-13.8564)" fill="#CCCCCC"/>
<rect width="3.1157" height="3.1157" transform="translate(43.1162 52.2852) rotate(-13.8564)" fill="#CCCCCC"/>
<rect width="7.78924" height="7.78924" transform="translate(41.4424 55.252) rotate(-13.8564)" fill="#CCCCCC"/>
<rect width="15.9335" height="10.5645" transform="matrix(0.970958 -0.239249 0.23973 0.97084 46.0723 51.2412)" fill="#CCCCCC"/>
<rect width="8.12296" height="2.79648" transform="matrix(0.970958 -0.239249 0.23973 0.97084 51.0312 60.8994)" fill="#CCCCCC"/>
<rect width="8.12296" height="2.79648" transform="matrix(0.970958 -0.239249 0.23973 0.97084 55.79 46.2866)" fill="#CCCCCC"/>
<rect width="3.1157" height="3.1157" transform="translate(35.9102 54.3809) rotate(-13.8564)" fill="#CCCCCC"/>
<rect width="3.1157" height="3.1157" transform="translate(35.9795 55.9639) rotate(-13.8564)" fill="#CCCCCC"/>
<rect width="3.1157" height="3.1157" transform="translate(38.9443 53.6333) rotate(-13.8564)" fill="#CCCCCC"/>
<rect width="3.1157" height="3.1157" transform="translate(41.9775 52.8862) rotate(-13.8564)" fill="#CCCCCC"/>
<rect width="3.1157" height="3.1157" transform="translate(39.0078 56.498) rotate(-13.8564)" fill="#CCCCCC"/>
<rect width="3.1157" height="3.1157" transform="translate(39.3799 58.0063) rotate(-13.8564)" fill="#CCCCCC"/>
<rect width="3.1157" height="3.1157" transform="translate(42.041 55.7505) rotate(-13.8564)" fill="#CCCCCC"/>
<rect width="3.1157" height="3.1157" transform="translate(42.4033 59.8218) rotate(-13.8564)" fill="#CCCCCC"/>
<rect width="3.1157" height="3.1157" transform="translate(42.4883 57.5605) rotate(-13.8564)" fill="#CCCCCC"/>
<rect width="4.55879" height="4.55394" transform="translate(86.9287 49.1494)" fill="#C2CADD"/>
<rect width="5.16663" height="4.55394" transform="translate(81.7627 53.7031)" fill="#C2CADD"/>
<rect width="9.11759" height="4.55394" transform="translate(86.9287 53.7031)" fill="white"/>
<rect width="19.4509" height="4.55394" transform="translate(76.5957 58.2573)" fill="#C2CADD"/>
<rect width="13.6764" height="4.55394" transform="translate(30.918 57.0762)" fill="white"/>
<rect width="9.11759" height="4.55394" transform="translate(30.918 52.5225)" fill="#C2CADD"/>
<rect width="4.5588" height="4.55394" transform="translate(26.3594 57.0762)" fill="#C2CADD"/>
<rect width="4.5588" height="4.55394" transform="translate(21.7998 61.6304)" fill="#C2CADD"/>
<rect width="36.1854" height="4.55394" transform="translate(17.2412 66.1841)" fill="#C2CADD"/>
<rect width="27.0678" height="4.55394" transform="translate(26.3594 61.6304)" fill="white"/>
<rect width="9.11759" height="4.55394" transform="translate(53.4268 66.1841)" fill="white"/>
<rect width="8.44094" height="2.81065" transform="translate(78.666 23.0518)" fill="white"/>
<rect width="5.62729" height="2.81065" transform="translate(78.666 20.2412)" fill="#C2CADD"/>
<rect width="2.81364" height="2.81065" transform="translate(75.8525 23.0518)" fill="#C2CADD"/>
<rect width="2.81364" height="2.81065" transform="translate(73.0391 25.8623)" fill="#C2CADD"/>
<rect width="22.3333" height="2.81065" transform="translate(70.2256 28.6733)" fill="#C2CADD"/>
<rect width="16.706" height="2.81065" transform="translate(75.8525 25.8623)" fill="white"/>
<rect width="5.62729" height="2.81065" transform="translate(92.5586 28.6733)" fill="white"/>
<rect width="13.6764" height="4.55394" transform="translate(13.6768 66.3379)" fill="white"/>
<rect width="9.11759" height="4.55394" transform="translate(13.6768 61.7842)" fill="#C2CADD"/>
<rect width="4.5588" height="4.55394" transform="translate(9.11719 66.3384)" fill="#C2CADD"/>
<rect width="4.5588" height="4.55394" transform="translate(4.55859 70.8921)" fill="#C2CADD"/>
<rect width="36.1854" height="4.55394" transform="translate(0 75.4458)" fill="#C2CADD"/>
<rect width="27.0678" height="4.55394" transform="translate(9.11719 70.8921)" fill="white"/>
<rect width="9.11759" height="4.55394" transform="translate(36.1855 75.4458)" fill="white"/>
</svg>
